<?xml version="1.0" encoding="UTF-8" standalone="no"?>
<!-- Created with Inkscape (http://www.inkscape.org/) -->

<svg
   width="37.164978mm"
   height="37.699654mm"
   viewBox="0 0 37.164978 37.699654"
   version="1.1"
   id="svg1"
   xml:space="preserve"
   xmlns:inkscape="http://www.inkscape.org/namespaces/inkscape"
   xmlns:sodipodi="http://sodipodi.sourceforge.net/DTD/sodipodi-0.dtd"
   xmlns="http://www.w3.org/2000/svg"
   xmlns:svg="http://www.w3.org/2000/svg"><sodipodi:namedview
     id="namedview1"
     pagecolor="#ffffff"
     bordercolor="#000000"
     borderopacity="0.25"
     inkscape:showpageshadow="2"
     inkscape:pageopacity="0.0"
     inkscape:pagecheckerboard="0"
     inkscape:deskcolor="#d1d1d1"
     inkscape:document-units="mm"><inkscape:page
       x="0"
       y="0"
       width="37.164978"
       height="37.699654"
       id="page2"
       margin="0"
       bleed="0" /></sodipodi:namedview><defs
     id="defs1"><linearGradient
       id="gradient_2"
       gradientUnits="userSpaceOnUse"
       x1="755.73645"
       y1="610.93121"
       x2="746.39203"
       y2="620.86865"
       gradientTransform="matrix(0.17835759,0,0,0.17835759,14.02535,58.237593)"><stop
         offset="0"
         stop-color="#FEECEC"
         id="stop45" /><stop
         offset="1"
         stop-color="white"
         id="stop46" /></linearGradient><linearGradient
       id="gradient_3"
       gradientUnits="userSpaceOnUse"
       x1="756.6944"
       y1="606.33215"
       x2="745.49707"
       y2="623.6449"
       gradientTransform="matrix(0.17835759,0,0,0.17835759,14.02535,58.237593)"><stop
         offset="0"
         stop-color="#281827"
         id="stop47" /><stop
         offset="1"
         stop-color="#492544"
         id="stop48" /></linearGradient><linearGradient
       id="gradient_4"
       gradientUnits="userSpaceOnUse"
       x1="776.75336"
       y1="769.39484"
       x2="789.94751"
       y2="743.20642"
       gradientTransform="matrix(0.17835759,0,0,0.17835759,14.02535,58.237593)"><stop
         offset="0"
         stop-color="#180006"
         id="stop72" /><stop
         offset="1"
         stop-color="#5B2535"
         id="stop73" /></linearGradient><linearGradient
       id="gradient_5"
       gradientUnits="userSpaceOnUse"
       x1="755.73657"
       y1="716.96539"
       x2="752.75562"
       y2="739.33368"
       gradientTransform="matrix(0.17835759,0,0,0.17835759,14.02535,58.237593)"><stop
         offset="0"
         stop-color="#14000A"
         id="stop80" /><stop
         offset="1"
         stop-color="#3E2237"
         id="stop81" /></linearGradient></defs><g
     inkscape:label="Layer 1"
     inkscape:groupmode="layer"
     id="layer1"
     transform="translate(-140.76633,-162.39825)"><path
       fill="#37182b"
       d="m 163.23039,164.53568 c 0.0557,-0.63192 0.13502,-1.4652 0.71361,-1.80123 1.57204,-0.91301 2.085,0.6041 2.20878,1.71651 0.86111,0.004 1.90557,-0.0205 2.75188,0.0225 0.12931,-1.65944 1.30041,-3.05973 2.60741,-1.16842 0.20261,0.2934 0.0585,0.83899 0.27949,1.20445 l 0.31212,0.0416 c -0.0769,0.18924 -0.10309,0.14412 -0.0601,0.27378 -0.30714,0.19691 -0.21118,0.13306 -0.40523,0.49031 0.10808,0.75302 0.54863,0.65742 1.15254,0.67437 2.69927,-0.0457 3.62994,1.83084 3.65063,4.22761 l 0.0141,20.69679 c 8.9e-4,0.61337 -0.092,4.37208 0.002,4.65353 0.58608,0.78406 0.43555,1.17038 0.72805,1.7891 0.59625,-1.40135 0.4277,-5.06803 0.43145,-6.71908 l -0.008,-10.20527 c -0.0107,-2.21502 -0.01,-4.43004 0.004,-6.64489 0.0118,-1.9441 0.27609,-5.27582 -0.61801,-7.04798 -0.60303,-1.19517 -2.17186,-1.65105 -3.42625,-1.92465 0.10452,-0.22224 0.57181,-0.18764 0.81688,-0.20922 1.29933,0.30375 2.26763,0.92746 2.9989,2.07912 0.38971,0.61373 0.44821,1.26812 0.47461,2.00242 0.0733,2.0561 0.0578,4.16286 0.0567,6.22129 l -0.0226,11.30912 0.0148,6.77937 c 0.005,2.40818 0.37954,5.14687 -2.09927,6.51665 -1.45468,0.80368 -4.67832,0.54488 -6.40125,0.54417 l -8.15594,-0.003 -10.00354,0.005 c -1.63037,0.005 -3.38059,0.0194 -4.99776,0.0307 -5.81392,0.0407 -5.46238,-3.61192 -5.45524,-7.91783 l -0.002,-16.24249 c 0,-2.57441 -0.10113,-5.30311 0.0904,-7.8711 0.0487,-0.65297 0.64423,-1.74987 1.1208,-2.22893 1.15737,-1.16343 3.00925,-1.22996 4.55472,-1.24993 0.4871,-2.75759 2.52162,-2.85034 2.78113,-0.0639 0.74036,-0.0155 2.11853,0.20833 2.72638,-0.17193 0.0986,-0.0617 0.0849,-0.33478 0.099,-0.4912 0.42289,-1.54939 1.84618,-1.98262 2.62347,-0.33317 0.0908,0.37705 0.14001,0.54524 0.16248,0.9271 l 2.73119,0.008 c 0.14893,-2.87263 2.93541,-2.5086 2.81038,0.0474 0.91266,-0.0103 1.82531,7.2e-4 2.73743,0.0334 z m -2.73743,-0.0334 c 0.12503,-2.55604 -2.66145,-2.92007 -2.81038,-0.0474 l -2.73119,-0.008 c -0.0225,-0.38186 -0.0717,-0.55005 -0.16248,-0.9271 -0.77729,-1.64945 -2.20058,-1.21622 -2.62347,0.33317 -0.0141,0.15642 -3.5e-4,0.42949 -0.099,0.4912 -0.60785,0.38026 -1.98602,0.15642 -2.72638,0.17193 -0.25951,-2.78648 -2.29403,-2.69373 -2.78113,0.0639 -1.54547,0.02 -3.39735,0.0865 -4.55472,1.24993 -0.47657,0.47906 -1.0721,1.57596 -1.1208,2.22893 -0.19155,2.56799 -0.0904,5.29669 -0.0904,7.8711 l 0.002,16.24249 c -0.007,4.30591 -0.35868,7.95849 5.45524,7.91783 1.61717,-0.0112 3.36739,-0.026 4.99776,-0.0307 l 10.00354,-0.005 8.15594,0.003 c 1.72293,7.1e-4 4.94657,0.25951 6.40125,-0.54417 2.47881,-1.36978 2.10391,-4.10847 2.09927,-6.51665 l -0.0148,-6.77937 0.0226,-11.30912 c 0.001,-2.05843 0.0166,-4.16519 -0.0567,-6.22129 -0.0264,-0.7343 -0.0849,-1.38869 -0.47461,-2.00242 -0.73127,-1.15166 -1.69957,-1.77537 -2.9989,-2.07912 -0.24507,0.0216 -0.71236,-0.013 -0.81688,0.20922 1.25439,0.2736 2.82322,0.72948 3.42625,1.92465 0.8941,1.77216 0.62978,5.10388 0.61801,7.04798 -0.0132,2.21485 -0.0143,4.42987 -0.004,6.64489 l 0.008,10.20527 c -0.004,1.65105 0.1648,5.31773 -0.43145,6.71908 -0.2925,-0.61872 -0.14197,-1.00504 -0.72805,-1.7891 -1.24155,3.62315 -3.4366,3.04652 -6.64115,3.03065 l -5.21785,-0.0107 c -5.88616,-0.0285 -11.77267,-0.008 -17.65865,0.0612 -5.38479,0.0132 -4.70115,-3.63261 -4.65763,-7.57574 0.14358,-0.68079 0.0539,-3.31638 0.0812,-4.14486 0.12111,-3.6697 -0.16016,-7.8818 0.0621,-11.51619 0.0774,0.26522 0.15571,1.91182 0.18496,2.31491 0.99149,0.0125 1.8938,-0.0706 2.86389,-0.0846 1.39243,-0.02 2.80253,-0.007 4.19639,-0.005 l 26.37606,-0.006 c 0.001,-2.54356 0.1261,-5.07071 0.0437,-7.61658 -0.0897,-2.77436 -1.72044,-3.86626 -4.36959,-3.70556 0.46748,-0.12342 0.32426,-0.21795 1.06961,-0.31908 -0.60391,-0.0169 -1.04446,0.0787 -1.15254,-0.67437 0.19405,-0.35725 0.0981,-0.2934 0.40523,-0.49031 -0.043,-0.12966 -0.0168,-0.0845 0.0601,-0.27378 l -0.31212,-0.0416 c -0.22099,-0.36546 -0.0769,-0.91105 -0.27949,-1.20445 -1.307,-1.89131 -2.4781,-0.49102 -2.60741,1.16842 -0.84631,-0.043 -1.89077,-0.0189 -2.75188,-0.0225 -0.12378,-1.11241 -0.63674,-2.62952 -2.20878,-1.71651 -0.57859,0.33603 -0.65796,1.16931 -0.71361,1.80123 -0.91212,-0.0326 -1.82477,-0.0437 -2.73743,-0.0334 z"
       id="path31"
       style="stroke-width:0.178358" /><path
       fill="#8b4b6f"
       d="m 163.23039,164.53568 c 0.0557,-0.63192 0.13502,-1.4652 0.71361,-1.80123 1.57204,-0.91301 2.085,0.6041 2.20878,1.71651 0.86111,0.004 1.90557,-0.0205 2.75188,0.0225 0.12931,-1.65944 1.30041,-3.05973 2.60741,-1.16842 0.20261,0.2934 0.0585,0.83899 0.27949,1.20445 l 0.31212,0.0416 c -0.0769,0.18924 -0.10309,0.14412 -0.0601,0.27378 -0.30714,0.19691 -0.21118,0.13306 -0.40523,0.49031 0.10808,0.75302 0.54863,0.65742 1.15254,0.67437 -0.74535,0.10113 -0.60213,0.19566 -1.06961,0.31908 2.64915,-0.1607 4.27987,0.9312 4.36959,3.70556 0.0824,2.54587 -0.0423,5.07302 -0.0437,7.61658 l -26.37606,0.006 c -1.39386,-0.002 -2.80396,-0.0148 -4.19639,0.005 -0.97009,0.0139 -1.8724,0.097 -2.86389,0.0846 -0.0292,-0.40309 -0.10755,-2.04969 -0.18496,-2.31491 -0.22223,3.63439 0.059,7.84649 -0.0621,11.51619 -0.0273,0.82848 0.0624,3.46407 -0.0812,4.14486 -0.0435,3.94313 -0.72716,7.58893 4.65763,7.57574 5.88598,-0.0694 11.77249,-0.0897 17.65865,-0.0612 l 5.21785,0.0107 c 3.20455,0.0159 5.3996,0.5925 6.64115,-3.03065 0.58608,0.78406 0.43555,1.17038 0.72805,1.7891 0.59625,-1.40135 0.4277,-5.06803 0.43145,-6.71908 l -0.008,-10.20527 c -0.0107,-2.21502 -0.01,-4.43004 0.004,-6.64489 0.0118,-1.9441 0.27609,-5.27582 -0.61801,-7.04798 -0.60303,-1.19517 -2.17186,-1.65105 -3.42625,-1.92465 0.10452,-0.22224 0.57181,-0.18764 0.81688,-0.20922 1.29933,0.30375 2.26763,0.92746 2.9989,2.07912 0.38971,0.61373 0.44821,1.26812 0.47461,2.00242 0.0733,2.0561 0.0578,4.16286 0.0567,6.22129 l -0.0226,11.30912 0.0148,6.77937 c 0.005,2.40818 0.37954,5.14687 -2.09927,6.51665 -1.45468,0.80368 -4.67832,0.54488 -6.40125,0.54417 l -8.15594,-0.003 -10.00354,0.005 c -1.63037,0.005 -3.38059,0.0194 -4.99776,0.0307 -5.81392,0.0407 -5.46238,-3.61192 -5.45524,-7.91783 l -0.002,-16.24249 c 0,-2.57441 -0.10113,-5.30311 0.0904,-7.8711 0.0487,-0.65297 0.64423,-1.74987 1.1208,-2.22893 1.15737,-1.16343 3.00925,-1.22996 4.55472,-1.24993 0.4871,-2.75759 2.52162,-2.85034 2.78113,-0.0639 0.74036,-0.0155 2.11853,0.20833 2.72638,-0.17193 0.0986,-0.0617 0.0849,-0.33478 0.099,-0.4912 0.42289,-1.54939 1.84618,-1.98262 2.62347,-0.33317 0.0908,0.37705 0.14001,0.54524 0.16248,0.9271 l 2.73119,0.008 c 0.14893,-2.87263 2.93541,-2.5086 2.81038,0.0474 0.91266,-0.0103 1.82531,7.2e-4 2.73743,0.0334 z m 5.62611,1.3969 0.0592,-1.04945 -2.81645,0.01 c -0.98899,0.004 -2.0026,-0.0161 -2.99373,-0.0255 -0.75463,-0.002 -1.99047,-0.16177 -2.53571,0.19655 -0.17479,0.34619 -0.12699,0.21528 -0.10238,0.63959 0.1723,0.25809 0.13591,0.17604 0.55398,0.26468 0.53686,-0.0232 2.35843,-0.0421 2.85925,0.008 1.52978,-0.0778 3.3822,-7.1e-4 4.97582,-0.0433 z m -19.42385,-0.0155 2.8143,0.0412 c 1.02556,-0.006 2.23714,-0.0378 3.2536,0.006 0.34709,-0.0458 1.74577,-0.001 2.17275,0.005 l -0.0494,-1.07568 c -2.66984,-0.0585 -5.56137,0.001 -8.24405,0.004 -0.004,0.38168 0.0166,0.63923 0.0528,1.02002 z"
       id="path32"
       style="stroke-width:0.178358" /><path
       fill="#fefefe"
       d="m 174.38595,164.60542 c 1.29933,0.30375 2.26763,0.92746 2.9989,2.07912 0.38971,0.61373 0.44821,1.26812 0.47461,2.00242 0.0733,2.0561 0.0578,4.16286 0.0567,6.22129 l -0.0226,11.30912 0.0148,6.77937 c 0.005,2.40818 0.37954,5.14687 -2.09927,6.51665 -1.45468,0.80368 -4.67832,0.54488 -6.40125,0.54417 l -8.15594,-0.003 -10.00354,0.005 c -1.63037,0.005 -3.38059,0.0194 -4.99776,0.0307 -5.81392,0.0407 -5.46238,-3.61192 -5.45524,-7.91783 l 0.33531,-0.0428 c 0.0742,-1.91823 0.0221,-4.15323 0.0191,-6.09483 l -0.0194,-10.75924 c -0.004,-2.39642 -0.0228,-4.65389 0.13948,-7.033 0.2101,-3.0797 4.89538,-4.02179 5.49537,-2.90277 -0.41664,1.09297 -2.15456,0.29126 -3.38629,1.63375 -1.33537,1.4554 -1.1324,3.29356 -1.10546,5.12529 l -0.002,12.1672 c -0.002,2.04219 -0.0854,4.82047 0.0111,6.80666 -0.0435,3.94313 -0.72716,7.58893 4.65763,7.57574 5.88598,-0.0694 11.77249,-0.0897 17.65865,-0.0612 l 5.21785,0.0107 c 3.20455,0.0159 5.3996,0.5925 6.64115,-3.03065 0.58608,0.78406 0.43555,1.17038 0.72805,1.7891 0.59625,-1.40135 0.4277,-5.06803 0.43145,-6.71908 l -0.008,-10.20527 c -0.0107,-2.21502 -0.01,-4.43004 0.004,-6.64489 0.0118,-1.9441 0.27609,-5.27582 -0.61801,-7.04798 -0.60303,-1.19517 -2.17186,-1.65105 -3.42625,-1.92465 0.10452,-0.22224 0.57181,-0.18764 0.81688,-0.20922 z"
       id="path33"
       style="stroke-width:0.178358" /><path
       fill="#13050e"
       d="m 174.38595,164.60542 c 1.29933,0.30375 2.26763,0.92746 2.9989,2.07912 0.38971,0.61373 0.44821,1.26812 0.47461,2.00242 0.0733,2.0561 0.0578,4.16286 0.0567,6.22129 l -0.0226,11.30912 0.0148,6.77937 c 0.005,2.40818 0.37954,5.14687 -2.09927,6.51665 -1.45468,0.80368 -4.67832,0.54488 -6.40125,0.54417 l -8.15594,-0.003 -10.00354,0.005 c -1.63037,0.005 -3.38059,0.0194 -4.99776,0.0307 -5.81392,0.0407 -5.46238,-3.61192 -5.45524,-7.91783 l 0.33531,-0.0428 c -0.0835,3.84415 -0.40434,7.66885 4.82974,7.61106 l 19.95037,-0.0357 c 2.86228,8.9e-4 5.77201,0.17247 8.6161,-0.0795 0.87627,-0.0778 2.55907,-1.3755 2.65913,-2.26907 0.59625,-1.40135 0.4277,-5.06803 0.43145,-6.71908 l -0.008,-10.20527 c -0.0107,-2.21502 -0.01,-4.43004 0.004,-6.64489 0.0118,-1.9441 0.27609,-5.27582 -0.61801,-7.04798 -0.60303,-1.19517 -2.17186,-1.65105 -3.42625,-1.92465 0.10452,-0.22224 0.57181,-0.18764 0.81688,-0.20922 z"
       id="path34"
       style="stroke-width:0.178358" /><path
       fill="#3c2031"
       d="m 163.23039,164.53568 c 0.0557,-0.63192 0.13502,-1.4652 0.71361,-1.80123 1.57204,-0.91301 2.085,0.6041 2.20878,1.71651 0.86111,0.004 1.90557,-0.0205 2.75188,0.0225 0.12931,-1.65944 1.30041,-3.05973 2.60741,-1.16842 0.20261,0.2934 0.0585,0.83899 0.27949,1.20445 l 0.31212,0.0416 c -0.0769,0.18924 -0.10309,0.14412 -0.0601,0.27378 -0.30714,0.19691 -0.21118,0.13306 -0.40523,0.49031 0.10808,0.75302 0.54863,0.65742 1.15254,0.67437 -0.74535,0.10113 -0.60213,0.19566 -1.06961,0.31908 0.16623,0.40006 0.42235,0.86147 0.50565,1.28168 0.35974,1.81407 -1.70439,2.97001 -3.11377,1.84832 -0.67633,-0.53811 -0.6906,-1.25867 -0.75053,-2.05736 l 0.69381,-1.02502 c -0.83774,0.0307 -2.6907,-0.008 -3.50027,-0.13519 -0.47336,-0.17426 -1.0375,-0.0846 -1.67549,-0.24507 1.52978,-0.0778 3.3822,-7.1e-4 4.97582,-0.0433 l 0.0592,-1.04945 -2.81645,0.01 c -0.98899,0.004 -2.0026,-0.0161 -2.99373,-0.0255 -0.75463,-0.002 -1.99047,-0.16177 -2.53571,0.19655 -0.17479,0.34619 -0.12699,0.21528 -0.10238,0.63959 0.1723,0.25809 0.13591,0.17604 0.55398,0.26468 l -0.41289,0.15518 -0.0284,0.0986 -0.14786,0.12182 c 0.57128,1.43078 1.07621,2.05039 -0.38276,3.29337 l -0.19476,0.0435 c -2.60474,0.13769 -3.33101,-1.16325 -2.01562,-3.36971 -0.50975,-0.0243 -2.58262,-0.0726 -2.87727,-0.17372 l -0.004,-0.0542 0.5431,-0.11915 c 0.34709,-0.0458 1.74577,-0.001 2.17275,0.005 l -0.0494,-1.07568 c -2.66984,-0.0585 -5.56137,10e-4 -8.24405,0.004 -0.004,0.38168 0.0166,0.63923 0.0528,1.02002 -0.11076,0.22402 -0.17372,0.26986 -0.16266,0.49548 l -0.25488,0.21795 c -0.0218,0.58627 -0.0442,1.12187 -0.47657,1.5626 -1.13061,0.49797 -1.47983,-0.79352 -1.49374,-1.64696 l -0.13645,-0.004 c -0.13448,-0.14429 -0.0722,-0.11183 -0.24238,-0.18175 -2.59493,-0.25023 -3.92334,1.18251 -4.06192,3.65954 -0.0294,0.52473 -0.0278,2.32864 -0.17087,2.68803 -0.14215,-0.26575 -0.11593,-0.3025 -0.1598,-0.60909 -0.0269,-1.83173 -0.22991,-3.66989 1.10546,-5.12529 1.23173,-1.34249 2.96965,-0.54078 3.38629,-1.63375 -0.59999,-1.11902 -5.28527,-0.17693 -5.49537,2.90277 -0.16231,2.37911 -0.14394,4.63658 -0.13948,7.033 l 0.0194,10.75924 c 0.003,1.9416 0.0551,4.1766 -0.0191,6.09483 l -0.33531,0.0428 -0.002,-16.24249 c 0,-2.57441 -0.10113,-5.30311 0.0904,-7.8711 0.0487,-0.65297 0.64423,-1.74987 1.1208,-2.22893 1.15737,-1.16343 3.00925,-1.22996 4.55472,-1.24993 0.4871,-2.75759 2.52162,-2.85034 2.78113,-0.0639 0.74036,-0.0155 2.11853,0.20833 2.72638,-0.17193 0.0986,-0.0617 0.0849,-0.33478 0.099,-0.4912 0.42289,-1.54939 1.84618,-1.98262 2.62347,-0.33317 0.0908,0.37705 0.14001,0.54524 0.16248,0.9271 l 2.73119,0.008 c 0.14893,-2.87263 2.93541,-2.5086 2.81038,0.0474 0.91266,-0.0103 1.82531,7.2e-4 2.73743,0.0334 z"
       id="path35"
       style="stroke-width:0.178358" /><path
       fill="#8b4b6f"
       d="m 147.0448,166.54613 c 0.0137,-0.595 -0.24899,-5.44971 1.82353,-3.15746 0.384,0.42467 0.0118,2.52215 0.14678,3.24182 -0.0218,0.58627 -0.0442,1.12187 -0.47657,1.5626 -1.13061,0.49797 -1.47983,-0.79352 -1.49374,-1.64696 z"
       id="path36"
       style="stroke-width:0.178358" /><path
       fill="#8b4b6f"
       d="m 152.16544,163.85311 c 0.42289,-1.54939 1.84618,-1.98262 2.62347,-0.33317 l -0.1377,0.004 c 0.0186,0.31516 0.0717,0.51599 -0.0965,0.7739 -0.69327,0.53097 -1.752,0.48406 -2.14457,-0.3701 z"
       id="path37"
       style="stroke-width:0.178358" /><path
       fill="#472135"
       d="m 152.16544,163.85311 c 0.42289,-1.54939 1.84618,-1.98262 2.62347,-0.33317 l -0.1377,0.004 c -0.82579,-0.88911 -1.80747,-0.75374 -2.24106,0.4038 z"
       id="path38"
       style="stroke-width:0.178358" /><path
       fill="#8b4b6f"
       d="m 163.65149,164.63253 c 0.0318,-0.43929 0.0571,-1.21568 0.44108,-1.43827 1.35017,-0.78246 1.66444,0.57181 1.65641,1.44452 0.22063,0.081 0.22562,0.0594 0.45945,0.0751 l 0.0532,0.0831 -0.16231,0.0958 c -0.98899,0.004 -2.0026,-0.0161 -2.99373,-0.0255 l 0.47122,-0.0847 z"
       id="path39"
       style="stroke-width:0.178358" /><path
       fill="#472135"
       d="m 163.65149,164.63253 c 0.5563,-0.0346 1.55189,-0.061 2.09749,0.006 0.22063,0.081 0.22562,0.0594 0.45945,0.0751 l 0.0532,0.0831 -0.16231,0.0958 c -0.98899,0.004 -2.0026,-0.0161 -2.99373,-0.0255 l 0.47122,-0.0847 z"
       id="path40"
       style="stroke-width:0.178358" /><path
       fill="#8b4b6f"
       d="m 158.8296,162.82952 c 1.18857,0.23632 1.3227,0.95171 1.32733,2.07144 0.005,1.223 -0.005,2.31811 -0.7466,3.33725 -1.49107,-0.1154 -1.3557,-1.7422 -1.33233,-2.86139 0.0209,-1.00201 -0.004,-1.82389 0.7516,-2.5473 z"
       id="path41"
       style="stroke-width:0.178358" /><path
       fill="#8b4b6f"
       d="m 169.988,162.8898 c 1.75023,0.1236 1.32021,2.26675 1.32306,3.51953 0.002,0.7236 -0.24185,1.34624 -0.71432,1.88667 -1.86955,-0.30446 -1.22781,-2.78613 -1.20944,-4.14129 0.007,-0.53561 0.25291,-0.88875 0.6007,-1.26491 z"
       id="path42"
       style="stroke-width:0.178358" /><path
       fill="#fefefe"
       d="m 171.71415,167.35998 c 0.4557,0.50903 0.17978,1.27597 -0.31712,1.65569 -0.384,0.29304 -0.87003,0.41878 -1.34803,0.3494 -0.63834,-0.0949 -0.88483,-0.4384 -1.22317,-0.92942 -0.0783,-0.24792 -0.12182,-0.45124 -0.0139,-0.6881 1.02574,0.0637 1.50088,2.68036 2.90224,-0.38757 z"
       id="path43"
       style="stroke-width:0.178358" /><path
       fill="#fefefe"
       d="m 160.4778,167.35802 c 0.88965,1.19446 -1.39494,3.18796 -2.83089,1.0334 -0.0512,-0.32354 -0.0517,-0.34209 -0.0309,-0.6692 l 0.0938,-0.0589 c 1.25403,1.42419 1.88898,1.46182 2.76793,-0.30534 z"
       id="path44"
       style="stroke-width:0.178358" /><path
       fill="#fefefe"
       d="m 160.04956,169.63707 c 0.68525,0.006 2.59921,-0.01 3.13214,0.14108 0.13323,0.15267 0.18228,0.16516 0.1286,0.40933 -0.30589,1.39333 -2.75688,-0.52937 -2.52911,1.3853 0.52258,0.51778 3.03814,0.13716 2.96947,1.71134 -0.0528,1.21034 -0.80475,2.6092 -2.16651,2.46116 -0.74482,-0.0812 -2.09267,-0.64797 -2.21912,-1.4677 0.11432,-0.31231 0.0214,-0.18799 0.28911,-0.38597 0.83935,-0.0712 1.68138,1.45254 2.51342,0.55469 0.34245,-0.36973 0.38079,-1.25332 -0.0796,-1.56794 -0.63459,-0.43359 -2.15224,0.35582 -2.57067,-0.12414 0.0186,-0.93138 0.25113,-2.09819 0.33746,-3.07363 z"
       id="path45"
       style="stroke-width:0.178358" /><path
       fill="url(#gradient_2)"
       d="m 146.66597,166.36046 c 0.17015,0.0699 0.1079,0.0375 0.24238,0.18175 l 0.13645,0.004 c 0.0139,0.85344 0.36313,2.14493 1.49374,1.64696 l 0.36082,0.0628 c 0.1698,-0.26914 0.25059,-0.4475 0.51242,-0.63032 l 0.15678,0.0423 c 0.30017,0.73591 -0.89357,2.04113 -1.82621,1.75986 -1.1331,-0.34174 -1.35498,-1.10422 -1.12579,-2.15421 0.015,-0.2233 -0.0432,-0.21474 -0.20618,-0.45017 z"
       id="path46"
       style="fill:url(#gradient_2);stroke-width:0.178358" /><path
       fill="#37182b"
       d="m 146.66597,166.36046 c 0.17015,0.0699 0.1079,0.0375 0.24238,0.18175 l 0.13645,0.004 c 0.0139,0.85344 0.36313,2.14493 1.49374,1.64696 l 0.36082,0.0628 c -1.1101,1.20552 -1.84386,0.13198 -2.2828,-0.9824 0.015,-0.2233 -0.0432,-0.21474 -0.20618,-0.45017 z"
       id="path47"
       style="stroke-width:0.178358" /><path
       fill="url(#gradient_3)"
       d="m 149.26999,166.41254 0.10505,-0.023 c 2.93273,4.025 -4.95584,4.79978 -2.96466,0.43377 0.16302,0.23543 0.22116,0.22687 0.20618,0.45017 -0.22919,1.04999 -0.007,1.81247 1.12579,2.15421 0.93264,0.28127 2.12638,-1.02395 1.82621,-1.75986 l -0.15678,-0.0423 c -0.26183,0.18282 -0.34262,0.36118 -0.51242,0.63032 l -0.36082,-0.0628 c 0.43234,-0.44073 0.45481,-0.97633 0.47657,-1.5626 z"
       id="path48"
       style="fill:url(#gradient_3);stroke-width:0.178358" /><path
       fill="#37182b"
       d="m 161.02143,165.96807 c 0.53686,-0.0232 2.35843,-0.0421 2.85925,0.008 0.63799,0.16052 1.20213,0.0708 1.67549,0.24507 -1.58756,0.0392 -3.40734,0.1302 -4.97599,8.9e-4 l 0.0284,-0.0986 z"
       id="path49"
       style="stroke-width:0.178358" /><path
       fill="#472135"
       d="m 149.43265,165.91706 2.8143,0.0412 c -0.77799,0.52937 -2.05075,0.16623 -2.87191,0.43127 l -0.10505,0.023 c -0.0111,-0.22562 0.0519,-0.27146 0.16266,-0.49548 z"
       id="path50"
       style="stroke-width:0.178358" /><path
       fill="#fefefe"
       d="m 157.42646,169.6442 0.0844,0.0749 c 0.206,0.67883 0.10256,4.99134 0.0947,5.95465 l -1.16271,-0.002 -7.2e-4,-1.36801 1.8e-4,-3.34884 c -0.3783,0.16926 -1.16574,0.64477 -1.40706,0.10969 0.29554,-0.98114 1.52799,-1.22317 2.39124,-1.42044 z"
       id="path51"
       style="stroke-width:0.178358" /><path
       fill="#fefefe"
       d="m 168.10366,177.95995 c 2.62399,-0.018 5.32451,0.023 7.95421,0.0433 l 0.0119,11.84383 c 0.001,1.94339 0.0794,4.01679 -0.11504,5.94662 -0.0822,1.03359 -1.4982,2.29832 -2.49879,2.36699 -2.21502,0.15231 -4.63284,0.0918 -6.855,0.0976 l -15.81996,0.008 -3.66114,0.0123 c -2.01866,-0.01 -4.0992,-0.3478 -4.36441,-2.76115 -0.22812,-2.07662 -0.12628,-4.25651 -0.11576,-6.34668 l 0.0555,-11.16625 c 3.20598,-0.0175 6.41606,-0.0403 9.62168,-0.0396 5.19894,0.001 10.60389,0.15 15.78679,-0.005 z"
       id="path52"
       style="stroke-width:0.178358" /><path
       fill="#3c2031"
       d="m 157.22937,180.51866 c 1.44078,-0.0202 2.80575,-0.0683 4.24045,0.1138 0.23383,1.38905 0.22991,2.8077 -0.0119,4.19532 -0.63513,0.0644 -4.23599,0.24418 -4.30769,-0.33549 -0.11379,-0.91765 -0.15428,-3.05936 0.0792,-3.97363 z"
       id="path53"
       style="stroke-width:0.178358" /><path
       fill="#a6d6ad"
       d="m 157.49477,180.95118 c 1.23156,-0.0385 2.45527,-0.0178 3.68701,-0.005 l -0.001,3.49991 c -1.22996,0.0635 -2.43619,0.0198 -3.66668,-0.009 z"
       id="path54"
       style="stroke-width:0.178358" /><path
       fill="#3c2031"
       d="m 159.14814,190.97506 c 0.51385,-0.0273 2.1196,-0.12343 2.30421,0.42377 0.34119,1.01236 0.20939,2.90902 -0.0546,3.9121 l -1.69761,0.0587 c -0.65225,-0.003 -1.94,0.0587 -2.4633,-0.21706 -0.27877,-0.57289 -0.29036,-3.41876 0.094,-4.04783 0.0806,-0.1318 1.55599,-0.12503 1.81728,-0.12966 z"
       id="path55"
       style="stroke-width:0.178358" /><path
       fill="#a6d6ad"
       d="m 159.26764,191.42487 1.89951,0.008 c 0.0216,1.16896 0.0146,2.3661 0.0205,3.53755 l -1.55795,-8.9e-4 -2.13066,-0.0237 0.002,-3.47566 c 0.58323,-0.0235 1.18216,-0.031 1.76699,-0.045 z"
       id="path56"
       style="stroke-width:0.178358" /><path
       fill="#472135"
       d="m 157.25559,185.77433 c 1.52728,-0.0189 2.71211,-0.0257 4.22993,0.12075 0.22098,0.92139 0.24257,3.30871 -0.10131,4.23706 -1.30754,0.0121 -2.90919,0.0678 -4.17909,-0.12539 -0.16088,-0.89999 -0.26718,-3.37559 0.0505,-4.23242 z"
       id="path57"
       style="stroke-width:0.178358" /><path
       fill="#a6d6ad"
       d="m 157.51439,186.21291 3.66774,3.6e-4 c 0.0137,1.1422 -0.008,2.33184 -0.013,3.47779 l -3.66346,-0.005 c 0.0168,-1.14756 0.006,-2.32311 0.009,-3.47334 z"
       id="path58"
       style="stroke-width:0.178358" /><path
       fill="#472135"
       d="m 151.7661,185.77361 c 1.51122,-0.0216 2.67501,-0.0439 4.19194,0.12664 0.20333,0.8777 0.24221,3.31888 -0.0983,4.21263 -0.76444,0.0137 -1.68137,0.0268 -2.39944,0.0259 -2.02775,-0.003 -1.93946,-0.0323 -1.89862,-1.96443 0.0209,-0.99078 -0.16961,-1.38513 0.2044,-2.4007 z"
       id="path59"
       style="stroke-width:0.178358" /><path
       fill="#fefefe"
       d="m 151.98602,186.2122 c 1.24975,-0.0216 2.4121,-0.0407 3.66043,0.004 l -0.004,3.47548 c -1.22264,0.0267 -2.44582,0.0314 -3.66864,0.0141 -0.0157,-1.14862 0.006,-2.34094 0.0125,-3.49313 z"
       id="path60"
       style="stroke-width:0.178358" /><path
       fill="#3c2031"
       d="m 168.27702,180.52723 c 0.60517,-0.0111 4.25401,-0.22259 4.31715,0.37776 0.0988,0.93834 0.19726,3.02334 -0.068,3.90567 -1.22121,0.13966 -3.12233,0.10488 -4.3084,-0.10469 -0.11308,-1.2824 -0.12557,-2.92239 0.0592,-4.17874 z"
       id="path61"
       style="stroke-width:0.178358" /><path
       fill="#a6d6ad"
       d="m 168.5722,180.94833 c 1.21747,-0.0153 2.45563,-0.004 3.67488,-0.004 l -0.0164,3.48796 c -1.1117,0.0824 -2.5234,0.0189 -3.6599,-0.006 z"
       id="path62"
       style="stroke-width:0.178358" /><path
       fill="#472135"
       d="m 151.93322,180.53472 c 0.88787,-0.008 3.31727,-0.11558 3.95312,0.21367 0.29928,0.63798 0.23829,2.96252 0.12967,3.75514 -0.036,0.26272 -0.11273,0.26022 -0.28359,0.36349 -1.49179,0.0343 -2.57138,0.0476 -4.07333,-0.12324 -0.16855,-0.80992 -0.16177,-2.94843 -0.0378,-3.80401 0.0371,-0.25648 0.13859,-0.30321 0.31195,-0.40505 z"
       id="path63"
       style="stroke-width:0.178358" /><path
       fill="#fefefe"
       d="m 151.98352,180.94458 c 1.21675,-0.0193 2.46775,-0.005 3.68754,-0.006 7.2e-4,1.16628 -0.0118,2.33238 -0.0378,3.49831 -1.22211,0.0373 -2.44493,0.0535 -3.66775,0.0489 z"
       id="path64"
       style="stroke-width:0.178358" /><path
       fill="#3c2031"
       d="m 162.92326,185.78877 c 0.57271,-0.0136 4.14075,-0.23115 4.17178,0.40541 0.0519,1.06248 0.20619,2.97394 -0.18353,3.93832 -0.77621,0.008 -3.65115,0.16961 -4.16821,-0.26094 -0.14055,-0.50672 -0.10523,-1.0969 -0.0801,-1.62502 0.0434,-0.90338 -0.17693,-1.62698 0.26005,-2.45777 z"
       id="path65"
       style="stroke-width:0.178358" /><path
       fill="#fefefe"
       d="m 163.04686,186.21059 3.65705,0.001 -0.004,3.50116 -3.64278,-0.007 c -0.035,-1.11902 -0.01,-2.36627 -0.01,-3.49492 z"
       id="path66"
       style="stroke-width:0.178358" /><path
       fill="#472135"
       d="m 162.81018,180.51849 c 0.92514,0.003 3.38915,-0.0437 4.14022,0.20439 0.3032,0.44483 0.28037,3.59355 -0.0157,4.14129 -1.46592,0.0232 -2.75009,0.0696 -4.21298,-0.12467 -0.15268,-0.81099 -0.17515,-3.43695 0.0885,-4.22101 z"
       id="path67"
       style="stroke-width:0.178358" /><path
       fill="#fefefe"
       d="m 163.04329,180.94672 c 1.21765,-0.0234 2.48898,-0.006 3.71127,-0.008 l -0.044,3.49153 c -1.22158,0.0457 -2.44404,0.0646 -3.6665,0.0565 z"
       id="path68"
       style="stroke-width:0.178358" /><path
       fill="#472135"
       d="m 162.82249,191.03284 c 1.23816,-0.0205 2.95699,-0.0979 4.1436,0.12075 0.23133,0.86504 0.34958,3.40431 0.0169,4.15217 -1.31379,0.0929 -2.97233,0.0246 -4.29129,-0.008 -0.0794,-1.28346 -0.21135,-3.03922 0.13074,-4.26525 z"
       id="path69"
       style="stroke-width:0.178358" /><path
       fill="#fefefe"
       d="m 163.04615,191.47143 c 1.23138,-0.0196 2.46294,-0.025 3.69468,-0.0157 0.0389,1.05249 -0.0157,2.41782 -0.0291,3.49331 -1.22246,0.017 -2.44528,0.0255 -3.66792,0.0255 z"
       id="path70"
       style="stroke-width:0.178358" /><path
       fill="#3c2031"
       d="m 146.11645,191.02589 c 0.60927,-0.008 4.18783,-0.2044 4.26346,0.3799 0.10451,0.80974 0.22152,3.19314 -0.0314,3.90746 -1.58203,0.0799 -2.70728,0.0749 -4.28414,-0.0337 -0.10524,-0.81206 -0.20048,-3.53683 0.0521,-4.25365 z"
       id="path71"
       style="stroke-width:0.178358" /><path
       fill="#a6d6ad"
       d="m 147.04783,191.42416 c 0.99969,-0.0155 2.03042,0.0177 3.03226,0.0367 -0.009,1.07051 0.18995,2.31491 -0.11843,3.32191 -0.22402,0.22634 -0.12789,0.15821 -0.5406,0.17497 l -3.06116,-0.008 c -0.0269,-0.74857 -0.21795,-2.78755 0.2069,-3.41002 0.0708,-0.10363 0.3214,-0.0961 0.48103,-0.11522 z"
       id="path72"
       style="stroke-width:0.178358" /><path
       fill="url(#gradient_4)"
       d="m 151.78661,191.02589 c 1.30005,-0.0148 2.86371,-0.071 4.12862,0.11914 0.14019,1.31236 0.32765,2.9322 -0.11522,4.17036 -1.25082,0.0576 -2.59421,0.12592 -3.83397,-0.0587 -0.57895,-0.0835 -0.43091,-1.16147 -0.43287,-1.61164 -0.004,-0.95921 -0.14233,-1.72062 0.25344,-2.61918 z"
       id="path73"
       style="fill:url(#gradient_4);stroke-width:0.178358" /><path
       fill="#fefefe"
       d="m 151.97246,191.47089 c 1.22389,-0.0162 2.44796,-0.0226 3.67185,-0.0191 0.006,1.16432 -3.6e-4,2.32881 -0.0193,3.49295 -1.10832,0.064 -2.52394,0.0271 -3.65633,0.0253 z"
       id="path74"
       style="stroke-width:0.178358" /><path
       fill="#f2b044"
       d="m 168.28041,185.79145 c 0.69863,-0.0259 3.70145,-0.10577 4.17036,0.15571 0.25915,0.80011 0.18085,3.22542 0.0699,4.11453 -0.712,0.16534 -3.42054,0.13412 -4.12898,-0.0887 l -0.1236,-0.0951 c -0.19102,-0.72681 -0.15517,-3.30051 0.0123,-4.08653 z"
       id="path75"
       style="stroke-width:0.178358" /><path
       fill="#472135"
       d="m 168.28041,185.79145 c 0.69863,-0.0259 3.70145,-0.10577 4.17036,0.15571 l -0.22438,0.23043 c -1.17537,0.0515 -2.46579,0.0293 -3.65151,0.0287 l -5.4e-4,3.47994 c 1.07175,-1.8e-4 2.62239,-0.041 3.65045,0.0501 l -0.27485,0.0544 c 0.0385,0.18478 0.0141,0.11005 0.059,0.22812 l 0.51171,0.0428 c -0.712,0.16534 -3.42054,0.13412 -4.12898,-0.0887 l -0.1236,-0.0951 c -0.19102,-0.72681 -0.15517,-3.30051 0.0123,-4.08653 z"
       id="path76"
       style="stroke-width:0.178358" /><path
       fill="#37182b"
       d="m 168.3917,189.97304 c 0.2802,-0.33923 3.00194,-0.18816 3.55824,-0.18228 0.0385,0.18478 0.0141,0.11005 0.059,0.22812 l 0.51171,0.0428 c -0.712,0.16534 -3.42054,0.13412 -4.12898,-0.0887 z"
       id="path77"
       style="stroke-width:0.178358" /><path
       fill="#13050e"
       d="m 172.45077,185.94716 c 0.25915,0.80011 0.18085,3.22542 0.0699,4.11453 l -0.51171,-0.0428 c -0.0449,-0.11807 -0.0205,-0.0433 -0.059,-0.22812 l 0.27485,-0.0544 c 0.0137,-1.15236 0.053,-2.41853 0.002,-3.55877 z"
       id="path78"
       style="stroke-width:0.178358" /><path
       fill="#f2b044"
       d="m 146.02102,185.843 c 0.806,-0.0178 3.7209,-0.16017 4.29486,0.22134 l 0.0382,0.25612 c 0.1896,1.09476 0.16106,2.70176 -0.001,3.80383 -0.82205,0.0153 -3.72893,0.2019 -4.30627,-0.27699 l -0.0674,-0.16248 c 0.0498,-1.19999 0.005,-2.58351 0.0419,-3.84182 z"
       id="path79"
       style="stroke-width:0.178358" /><path
       fill="#37182b"
       d="m 146.02102,185.843 c 0.806,-0.0178 3.7209,-0.16017 4.29486,0.22134 l 0.0382,0.25612 -0.10202,0.0735 c -0.0255,0.36617 -0.033,1.17609 -0.11718,1.4711 l -0.0128,-1.65837 -3.76245,0.003 c -0.003,1.12758 0.0241,2.413 -0.0153,3.52738 l -0.3651,-0.0523 c 0.0498,-1.19999 0.005,-2.58351 0.0419,-3.84182 z"
       id="path80"
       style="stroke-width:0.178358" /><path
       fill="url(#gradient_5)"
       d="m 150.13484,187.86504 c 0.0842,-0.29501 0.0917,-1.10493 0.11718,-1.4711 l 0.10202,-0.0735 c 0.1896,1.09476 0.16106,2.70176 -0.001,3.80383 -0.82205,0.0153 -3.72893,0.2019 -4.30627,-0.27699 l -0.0674,-0.16248 0.3651,0.0523 c 0.96331,-0.0862 2.72923,-0.0353 3.7546,-0.0346 z"
       id="path81"
       style="fill:url(#gradient_5);stroke-width:0.178358" /><path
       fill="#472135"
       d="m 172.10368,164.55102 c 0.62425,-0.19619 1.63322,-0.0553 2.28227,0.0544 -0.24507,0.0216 -0.71236,-0.013 -0.81688,0.20922 -0.5085,-0.007 -1.017,-0.003 -1.52549,0.0102 -0.043,-0.12966 -0.0168,-0.0845 0.0601,-0.27378 z"
       id="path143"
       style="stroke-width:0.178358" /></g></svg>
