<?xml version="1.0" encoding="UTF-8" standalone="no"?>
<!-- Created with Inkscape (http://www.inkscape.org/) -->

<svg
   width="36.838829mm"
   height="36.837982mm"
   viewBox="0 0 36.838829 36.837982"
   version="1.1"
   id="svg1"
   xml:space="preserve"
   xmlns:inkscape="http://www.inkscape.org/namespaces/inkscape"
   xmlns:sodipodi="http://sodipodi.sourceforge.net/DTD/sodipodi-0.dtd"
   xmlns="http://www.w3.org/2000/svg"
   xmlns:svg="http://www.w3.org/2000/svg"><sodipodi:namedview
     id="namedview1"
     pagecolor="#ffffff"
     bordercolor="#000000"
     borderopacity="0.25"
     inkscape:showpageshadow="2"
     inkscape:pageopacity="0.0"
     inkscape:pagecheckerboard="0"
     inkscape:deskcolor="#d1d1d1"
     inkscape:document-units="mm"><inkscape:page
       x="0"
       y="0"
       width="36.838829"
       height="36.837982"
       id="page2"
       margin="0"
       bleed="0" /></sodipodi:namedview><defs
     id="defs1" /><g
     inkscape:label="Layer 1"
     inkscape:groupmode="layer"
     id="layer1"
     transform="translate(-86.1006,-163.55865)"><path
       fill="#fefefe"
       d="m 99.736517,164.19074 c 4.053173,-1.09012 8.357303,-0.76319 12.199483,0.92657 5.61255,2.46865 9.62863,7.56807 10.71305,13.6028 0.4186,2.32935 0.38436,4.71756 -0.10095,7.03406 -1.85867,8.87205 -9.89635,15.073 -18.94978,14.61908 -9.053436,-0.45374 -16.430663,-7.42734 -17.392723,-16.441 -0.962061,-9.01348 4.777129,-17.38701 13.53092,-19.74151 z"
       id="path82"
       style="stroke-width:0.178358" /><path
       fill="#3c2031"
       d="m 99.736517,164.19074 c 4.053173,-1.09012 8.357303,-0.76319 12.199483,0.92657 l -0.539,0.17711 c -3.76085,-1.5485 -7.93441,-1.78072 -11.843835,-0.65903 -8.489464,2.43565 -13.967539,10.65936 -12.943945,19.43188 1.023594,8.77269 8.24779,15.51425 17.07007,15.93001 8.82228,0.41575 16.64843,-5.61684 18.49247,-14.25416 0.48817,-2.28655 0.52705,-4.6464 0.11486,-6.94775 l 0.1525,-0.23436 0.20993,0.1591 c 0.4186,2.32935 0.38436,4.71756 -0.10095,7.03406 -1.85867,8.87205 -9.89635,15.073 -18.94978,14.61908 -9.053436,-0.45374 -16.430663,-7.42734 -17.392723,-16.441 -0.962061,-9.01348 4.777129,-17.38701 13.53092,-19.74151 z"
       id="path83"
       style="stroke-width:0.178358" /><path
       fill="#37182b"
       d="m 111.936,165.11731 c 5.61255,2.46865 9.62863,7.56807 10.71305,13.6028 l -0.20993,-0.1591 -0.1525,0.23436 C 121.20025,172.73086 117.0941,167.64 111.397,165.29442 Z"
       id="path84"
       style="stroke-width:0.178358" /><path
       fill="#3c2031"
       d="m 102.98584,166.1755 c 8.74059,-0.84505 16.50949,5.5603 17.34634,14.30179 0.83685,8.7413 -5.57581,16.50414 -14.31801,17.33279 -8.730605,0.8274 -16.480778,-5.57475 -17.316561,-14.30446 -0.835606,-8.72989 5.559227,-16.48613 14.288231,-17.33012 z"
       id="path85"
       style="stroke-width:0.178358" /><path
       fill="#a6d6ad"
       d="m 94.535788,193.81736 c -4.826535,-4.07743 -6.690015,-10.67916 -4.708284,-16.67857 1.98191,-5.99942 7.411115,-10.19207 13.716766,-10.59212 6.30548,-0.40024 12.22142,3.07221 14.94583,8.77305 3.14534,6.58175 1.2683,14.46623 -4.50531,18.92481 -5.77361,4.4584 -13.87675,4.28058 -19.449002,-0.42717 z"
       id="path86"
       style="stroke-width:0.178358" /><path
       fill="#97c79c"
       d="m 118.4901,175.31972 c 3.14534,6.58175 1.2683,14.46623 -4.50531,18.92481 -5.77361,4.4584 -13.87675,4.28058 -19.449002,-0.42717 1.137743,0.12396 2.214844,0.5135 3.328152,0.76427 5.05305,1.13881 10.44426,-0.22491 14.47104,-3.45479 3.4316,-2.75259 5.70424,-6.88389 6.06273,-11.28576 0.12022,-1.47466 -0.0895,-3.07149 0.0924,-4.52136 z"
       id="path87"
       style="stroke-width:0.178358" /><path
       fill="#37182b"
       d="m 111.81329,174.61717 c 2.00723,0.026 3.71073,2.21092 1.90842,3.99735 -3.56358,3.53237 -7.03174,7.18442 -10.63064,10.67827 -1.28899,1.25136 -2.64719,-0.22081 -3.567869,-1.12704 -0.574846,-0.57342 -1.180906,-1.20909 -1.76467,-1.81265 -0.99042,-0.94904 -2.150457,-1.93197 -2.749917,-3.15693 1.719367,-5.63432 4.71952,-1.15433 6.873726,0.93031 1.76128,-1.58578 8.54119,-8.85492 9.93095,-9.50931 z"
       id="path88"
       style="stroke-width:0.178358" /><path
       fill="#8b4b6f"
       d="m 111.80116,175.06092 c 1.35266,0.074 2.96609,1.46111 1.9523,2.76098 -0.88412,1.134 -2.18934,2.33024 -3.21739,3.36275 -2.17097,2.15474 -4.33052,4.32071 -6.47902,6.49793 -2.22447,2.24249 -2.36787,2.04094 -4.548118,-0.16623 -0.605167,-0.61266 -1.252427,-1.26438 -1.859199,-1.87971 -2.109614,-2.01295 -3.400031,-3.29891 0.04744,-4.82261 1.359263,0.90231 3.046707,2.68909 4.191407,3.89693 0.94405,-0.79191 1.9218,-1.85581 2.79005,-2.73922 l 4.04194,-4.07672 c 0.95849,-0.96669 1.98244,-2.03506 3.08059,-2.8341 z"
       id="path89"
       style="stroke-width:0.178358" /></g></svg>
