<?xml version="1.0" encoding="UTF-8" standalone="no"?>
<!-- Created with Inkscape (http://www.inkscape.org/) -->

<svg
   width="30.893511mm"
   height="45.414791mm"
   viewBox="0 0 30.893511 45.414791"
   version="1.1"
   id="svg1"
   xml:space="preserve"
   xmlns:inkscape="http://www.inkscape.org/namespaces/inkscape"
   xmlns:sodipodi="http://sodipodi.sourceforge.net/DTD/sodipodi-0.dtd"
   xmlns="http://www.w3.org/2000/svg"
   xmlns:svg="http://www.w3.org/2000/svg"><sodipodi:namedview
     id="namedview1"
     pagecolor="#ffffff"
     bordercolor="#000000"
     borderopacity="0.25"
     inkscape:showpageshadow="2"
     inkscape:pageopacity="0.0"
     inkscape:pagecheckerboard="0"
     inkscape:deskcolor="#d1d1d1"
     inkscape:document-units="mm"><inkscape:page
       x="0"
       y="0"
       width="30.893511"
       height="45.414791"
       id="page2"
       margin="0"
       bleed="0" /></sodipodi:namedview><defs
     id="defs1"><linearGradient
       id="gradient_6"
       gradientUnits="userSpaceOnUse"
       x1="834.90948"
       y1="272.71115"
       x2="836.59052"
       y2="275.28885"
       gradientTransform="matrix(0.17835759,0,0,0.17835759,14.02535,58.237593)"><stop
         offset="0"
         stop-color="white"
         stop-opacity="0"
         id="stop141" /><stop
         offset="1"
         stop-color="#EDEEF0"
         stop-opacity="0.047058824"
         id="stop142" /></linearGradient></defs><g
     inkscape:label="Layer 1"
     inkscape:groupmode="layer"
     id="layer1"
     transform="translate(-143.89542,-99.974465)"><path
       fill="#3c2031"
       d="m 154.23867,104.71152 c 0.47354,-3.22881 2.64701,-5.126 6.01957,-4.66976 2.53607,0.34316 3.49652,2.39534 4.12363,4.5886 2.63826,-1.5089 5.86618,-1.33839 7.50885,1.5271 0.65154,1.15398 0.83008,2.51556 0.4978,3.79831 -0.29126,1.09725 -0.84114,1.76324 -1.59933,2.55889 2.92791,1.00861 4.77748,3.63118 3.67987,6.73175 -0.44982,1.25475 -1.38691,2.27477 -2.5992,2.82911 -1.07621,0.4862 -2.07377,0.44554 -3.2149,0.36724 0.47514,1.66211 0.55112,3.23986 -0.30464,4.81351 -0.58091,1.07318 -1.55991,1.87543 -2.72637,2.23429 -1.39636,0.42592 -3.03351,0.15321 -4.29592,-0.55238 -0.18014,-0.10166 -0.35779,-0.20707 -0.53329,-0.31622 -0.1821,1.38155 -0.32354,2.75848 -0.49013,4.14075 0.12913,-0.10755 0.25969,-0.21332 0.39168,-0.31712 2.75134,-2.16027 5.3798,-2.418 8.7545,-2.01473 1.10243,0.17194 3.61103,0.24613 3.04474,1.93286 -1.80052,5.36321 -6.49293,8.0598 -12.01916,6.31546 l -0.10416,-0.0335 c 0.30125,1.96622 0.73038,3.76353 1.19482,5.69371 0.19798,0.82277 -1.11795,1.5073 -1.6532,0.66421 -1.16307,-1.80409 -1.23441,-4.37922 -1.70331,-6.4157 -5.36429,1.91484 -10.16175,-0.59697 -12.11815,-5.88866 -0.15499,-0.41914 -0.23026,-0.82597 -0.28163,-1.26955 2.36788,-1.31556 5.94787,-1.42936 8.5296,-0.71111 1.58256,0.44019 2.58814,1.16789 3.8552,2.14832 0.14018,-1.72936 0.31961,-3.45515 0.5381,-5.17612 -4.13094,4.40722 -10.40324,1.2683 -8.80444,-5.15846 -0.67848,-0.0321 -1.46539,-0.0451 -2.1353,-0.13109 -1.00719,-0.12913 -2.03328,-0.7755 -2.70676,-1.53227 -1.76574,-1.98423 -1.54618,-5.38729 0.50493,-7.09685 0.63692,-0.53828 1.40635,-0.9164 2.16402,-1.21854 -1.05588,-1.10028 -1.72757,-2.24445 -1.71081,-3.84307 0.0141,-1.35123 0.56985,-2.64023 1.54279,-3.57803 1.98798,-1.91824 4.43808,-1.78108 6.6506,-0.42092 z m 4.23956,29.19428 c -2.75188,-3.62262 -8.41313,-3.93278 -12.32326,-2.25141 1.54868,5.67195 6.7437,8.83084 12.31434,6.31832 0.28573,1.80908 0.5654,3.68273 1.06516,5.44811 0.18888,0.66724 0.44375,1.54422 1.20676,1.6705 0.2984,-0.0922 0.65226,-0.38864 0.56647,-0.71789 -0.57949,-2.22251 -1.25992,-4.12862 -1.3796,-6.47242 4.33623,2.05432 8.65266,0.68329 11.13861,-3.41929 0.38846,-0.64066 1.24351,-2.0982 1.05713,-2.8473 -0.41522,-0.51242 -2.0611,-0.69774 -2.70301,-0.80154 -3.85609,-0.47336 -6.65845,0.12003 -9.47043,2.94415 -0.0184,-0.6478 -0.002,-1.91432 0.13804,-2.53286 0.0879,-1.10314 0.16713,-1.79838 0.42503,-2.8712 l -1.11456,-1.60415 c -0.70968,2.24731 -0.68043,4.82065 -0.92068,7.13698 z m 0.26433,-33.54585 c -2.96573,0.42734 -3.9137,2.38892 -4.14111,5.08176 -1.59897,-0.93994 -2.72548,-1.75076 -4.73379,-1.20944 -1.19803,0.32461 -2.21341,1.12044 -2.81448,2.20628 -0.6107,1.07015 -0.76266,2.34184 -0.42128,3.52578 0.38097,1.29719 1.18287,2.00224 2.15295,2.85336 -2.92042,0.68596 -5.33021,2.52554 -4.39598,5.91666 0.32301,1.20801 1.12366,2.23268 2.21806,2.83802 1.396,0.75749 2.68178,0.55594 4.15306,0.29287 -0.65368,1.51621 -1.07211,2.95592 -0.43502,4.58985 0.46088,1.16093 1.37746,2.08215 2.53607,2.54873 1.1422,0.47193 2.42745,0.45713 3.55859,-0.041 0.59678,-0.25987 1.22318,-0.68721 1.68048,-1.15879 0.48763,-0.50243 0.61891,-1.42597 1.30023,-1.62502 0.23436,0.10274 0.28163,0.27699 0.40273,0.51296 0.80225,1.26687 1.71545,2.15313 3.23755,2.49986 1.23637,0.28965 2.53749,0.0523 3.59212,-0.65529 2.59992,-1.72275 2.22002,-4.29859 1.17377,-6.74566 1.52496,0.39328 2.96591,0.52455 4.38956,-0.34191 1.05731,-0.64672 1.80908,-1.69279 2.08482,-2.90134 0.7327,-3.23666 -1.56187,-5.19449 -4.46821,-5.74526 l -0.15054,-0.0282 c 1.23442,-0.91676 2.18221,-1.76556 2.44297,-3.40217 0.19459,-1.23744 -0.11914,-2.50111 -0.86985,-3.50419 -1.88328,-2.52216 -5.07142,-2.25426 -7.24364,-0.33389 -0.26254,-1.74986 -0.47389,-3.23826 -2.02792,-4.42915 -0.79619,-0.60998 -2.22858,-0.91373 -3.22114,-0.74482 z"
       id="path126"
       style="stroke-width:0.178358" /><path
       fill="#3c2031"
       d="m 166.23054,131.66599 c 1.79482,-0.1657 3.10985,0.002 4.83118,0.49494 -0.29661,0.74357 -0.66064,1.45861 -1.08763,2.13583 -1.32948,2.07537 -2.79789,2.98785 -5.14865,3.51079 -1.88952,0.26682 -6.66772,-0.18299 -4.35709,-3.15925 1.43827,-1.85242 3.51079,-2.68339 5.76219,-2.98231 z"
       id="path127"
       style="stroke-width:0.178358" /><path
       fill="#a6d6ad"
       d="m 166.31955,132.1101 c 1.51693,-0.15535 2.73707,0.0517 4.21976,0.30071 -2.05397,4.33427 -5.54889,6.28461 -10.12857,4.20424 0.82044,-0.48959 1.66925,-0.9296 2.54213,-1.31806 0.75784,-0.33264 3.71661,-1.22514 3.92065,-1.55456 l -0.0897,-0.10755 c -1.0771,-0.21493 -5.3279,1.90664 -6.51398,2.37483 1.21551,-2.47561 3.40485,-3.55949 6.04972,-3.89961 z"
       id="path128"
       style="stroke-width:0.178358" /><path
       fill="#3c2031"
       d="m 150.20672,131.66937 c 3.32994,-0.15713 7.0437,0.81278 8.26955,4.28629 0.0612,0.17372 0.18264,0.57449 0.0642,0.72967 -0.56664,0.74125 -2.01098,0.98292 -2.86353,1.12704 -1.39922,0.0992 -2.38482,0.0867 -3.71983,-0.45927 -2.06734,-0.84524 -3.8263,-3.11163 -4.64318,-5.13528 0.97954,-0.32657 1.87168,-0.43305 2.89278,-0.54845 z"
       id="path129"
       style="stroke-width:0.178358" /><path
       fill="#a6d6ad"
       d="m 150.28288,132.11456 c 3.33957,-0.40916 6.5962,1.12829 8.05641,4.21334 -1.63928,-0.95743 -3.52078,-1.79303 -5.27207,-2.51021 -0.42913,-0.17586 -0.8991,-0.24488 -1.33715,-0.0578 l -0.0219,0.12699 c 0.333,0.22277 1.45719,0.5192 1.90397,0.65262 1.65124,0.63138 2.86353,1.19249 4.35603,2.12834 -4.61875,2.03024 -7.92603,0.0369 -10.06918,-4.23671 0.87502,-0.15428 1.49981,-0.2415 2.38393,-0.31658 z"
       id="path130"
       style="stroke-width:0.178358" /><path
       fill="#3c2031"
       d="m 160.30461,132.76271 c 0.12913,-0.10755 0.25969,-0.21332 0.39168,-0.31712 2.75134,-2.16027 5.3798,-2.418 8.7545,-2.01473 l -0.36795,0.14162 0.33799,0.2604 c -3.85609,-0.47336 -6.65845,0.12003 -9.47043,2.94415 -0.0184,-0.6478 -0.002,-1.91432 0.13804,-2.53286 l 0.0109,0.0952 c 0.0423,0.40149 -0.0162,1.20267 0.0742,1.43685 z"
       id="path131"
       style="stroke-width:0.178358" /><path
       fill="#3c2031"
       d="m 155.78057,108.10548 c -0.47871,-2.00973 -0.68132,-4.615 1.139,-6.03508 0.83685,-0.64744 1.90075,-0.92746 2.94789,-0.77586 2.97304,0.43109 3.48796,3.35919 3.03475,5.83354 -0.0407,0.26897 -0.13145,0.46748 -0.0155,0.628 0.20332,-0.17889 0.20279,-0.18799 0.35564,-0.41504 1.37229,-1.53209 2.94576,-2.83374 5.18628,-2.28868 1.02502,0.24809 1.90379,0.90445 2.43244,1.81693 1.7686,3.08951 -1.37692,5.29704 -3.73694,6.53769 2.24677,0.0119 4.93034,0.22705 6.00476,2.60046 0.4195,0.95082 0.43002,2.03238 0.0287,2.99123 -0.40577,0.95172 -1.19107,1.6903 -2.16598,2.03685 -1.7067,0.62353 -3.91031,-0.16445 -5.4597,-0.9239 1.54868,1.66426 2.89724,4.09492 1.74113,6.36773 -0.4525,0.88929 -1.28436,1.60218 -2.25284,1.8674 -0.98364,0.26147 -2.03149,0.10809 -2.89885,-0.42449 -1.77287,-1.07264 -2.31811,-2.98374 -2.79361,-4.8499 -0.2786,1.29202 -0.51902,2.32257 -1.29684,3.42821 -1.30326,1.85278 -3.60514,2.69267 -5.5619,1.22621 -0.85362,-0.62871 -1.41206,-1.58043 -1.5444,-2.63256 -0.2365,-2.04201 0.96598,-3.48082 2.12174,-4.95566 -2.1583,0.87805 -4.69812,2.07376 -6.7503,0.10398 -0.70308,-0.6733 -1.10474,-1.60183 -1.11384,-2.57531 -0.0112,-1.0309 0.39667,-2.02221 1.13007,-2.7467 1.33804,-1.33501 3.15497,-1.46004 4.91803,-1.48394 -2.04968,-1.12133 -4.1848,-2.7171 -3.78653,-5.39335 0.32283,-2.05433 2.38625,-3.45729 4.41756,-2.99802 1.83334,0.41451 2.92025,1.57133 3.91923,3.06026 z"
       id="path132"
       style="stroke-width:0.178358" /><path
       fill="#f2b044"
       d="m 155.41672,117.206 c -0.83685,-1.72133 -0.44018,-3.78814 0.97455,-5.0773 1.41455,-1.28917 3.50936,-1.49268 5.14562,-0.49994 1.57365,0.95457 2.36859,2.802 1.98012,4.60109 -0.38846,1.79891 -1.87507,3.15372 -3.70234,3.37381 -1.82728,0.22027 -3.5932,-0.7425 -4.39795,-2.39766 z"
       id="path133"
       style="stroke-width:0.178358" /><path
       fill="#e89e37"
       d="m 161.53689,111.62876 c 1.57365,0.95457 2.36859,2.802 1.98012,4.60109 -0.38846,1.79891 -1.87507,3.15372 -3.70234,3.37381 -1.82728,0.22027 -3.5932,-0.7425 -4.39795,-2.39766 2.92489,1.08852 6.24163,0.26682 6.46172,-3.44801 0.0432,-0.73002 -0.16872,-1.42133 -0.34155,-2.12923 z"
       id="path134"
       style="stroke-width:0.178358" /><path
       fill="#a6d6ad"
       d="m 166.93827,113.92155 c 1.55938,-0.20066 3.53986,0.0294 4.84401,1.03643 1.40813,1.08763 1.68958,3.23095 0.55077,4.63712 -0.76212,0.94102 -1.65748,1.14238 -2.81484,1.25261 -2.64647,-0.24703 -4.18445,-1.30201 -6.26338,-2.81306 0.65225,-1.51443 0.84345,-1.99243 0.69113,-3.64456 0.98632,-0.21974 1.98584,-0.37615 2.99231,-0.46854 z"
       id="path135"
       style="stroke-width:0.178358" /><path
       fill="#a6d6ad"
       d="m 166.85444,105.43012 c 1.64731,-0.15285 3.19242,0.43412 3.76834,2.1105 0.29518,0.83953 0.24185,1.76236 -0.14804,2.56229 -0.92674,1.88542 -3.33867,2.92221 -5.21767,3.52274 l -1.34232,0.31766 c -0.65653,-1.33626 -1.08495,-1.96301 -2.35129,-2.7781 0.15018,-0.31462 0.30303,-0.62782 0.45874,-0.93977 1.21158,-2.4369 2.21805,-3.91727 4.83224,-4.79532 z"
       id="path136"
       style="stroke-width:0.178358" /><path
       fill="#a6d6ad"
       d="m 155.57689,118.40385 c 0.0924,0.0366 0.0646,0.018 0.14162,0.079 1.39547,1.10582 1.66407,1.26438 3.36935,1.60593 -0.17586,3.31567 -0.33157,7.06618 -4.29557,7.89393 -4.02499,-0.38739 -4.26631,-4.08314 -2.11389,-6.69215 0.97544,-1.18251 1.74559,-1.8963 2.89849,-2.88672 z"
       id="path137"
       style="stroke-width:0.178358" /><path
       fill="#a6d6ad"
       d="m 150.30286,113.92208 c 1.44523,-0.10255 2.87227,0.24631 4.26577,0.56486 -0.0132,1.63554 0.0387,2.03078 0.77568,3.5033 -1.75308,1.39012 -2.54552,1.93928 -4.71791,2.62542 -2.25088,0.5192 -4.68795,0.026 -4.96673,-2.68 -0.0981,-0.88715 0.16926,-1.77608 0.74054,-2.46187 1.01379,-1.21996 2.43601,-1.44648 3.90265,-1.55171 z"
       id="path138"
       style="stroke-width:0.178358" /><path
       fill="#a6d6ad"
       d="m 150.51332,105.42102 c 3.60817,-0.0305 5.17148,2.87691 6.49079,5.77183 -1.07924,0.67473 -2.38982,2.73173 -2.48773,2.76865 -2.95789,-0.72681 -8.02396,-2.59956 -6.36559,-6.68288 0.41896,-1.03144 1.38459,-1.49714 2.36253,-1.8576 z"
       id="path139"
       style="stroke-width:0.178358" /><path
       fill="#a6d6ad"
       d="m 162.92611,118.41776 c 0.22473,0.16159 0.4459,0.32872 0.66278,0.50101 1.57633,1.2642 3.48814,3.31388 3.72339,5.42706 0.23579,2.11782 -1.24422,3.39237 -3.25021,3.5882 -3.84057,-0.18424 -4.42755,-4.88807 -4.50549,-7.8579 1.6243,-0.28091 2.14386,-0.54452 3.36953,-1.65837 z"
       id="path140"
       style="stroke-width:0.178358" /><path
       fill="#a6d6ad"
       d="m 159.00849,101.68657 c 1.62662,-0.0421 2.93131,0.72734 3.40164,2.32596 0.65653,2.23144 -0.28484,4.95282 -1.29381,6.92813 -0.51706,-0.13252 -1.00059,-0.22063 -1.52442,-0.31855 -0.86896,0.009 -1.28471,0.0961 -2.10765,0.35065 -1.49304,-2.98999 -3.26199,-8.28756 1.52424,-9.28619 z"
       id="path141"
       style="stroke-width:0.178358" /><path
       fill="url(#gradient_6)"
       d="m 162.90221,107.12808 0.25844,-0.28037 0.10274,0.0312 c 0.0284,0.23828 0.028,0.22687 -0.021,0.46212 -0.15285,0.22705 -0.15232,0.23615 -0.35564,0.41504 -0.11594,-0.16052 -0.0251,-0.35903 0.0155,-0.628 z"
       id="path142"
       style="fill:url(#gradient_6);stroke-width:0.178358" /></g></svg>
