<?xml version="1.0" encoding="UTF-8" standalone="no"?>
<!-- Created with Inkscape (http://www.inkscape.org/) -->

<svg
   width="36.566036mm"
   height="38.247093mm"
   viewBox="0 0 36.566036 38.247093"
   version="1.1"
   id="svg1"
   xml:space="preserve"
   xmlns:inkscape="http://www.inkscape.org/namespaces/inkscape"
   xmlns:sodipodi="http://sodipodi.sourceforge.net/DTD/sodipodi-0.dtd"
   xmlns="http://www.w3.org/2000/svg"
   xmlns:svg="http://www.w3.org/2000/svg"><sodipodi:namedview
     id="namedview1"
     pagecolor="#ffffff"
     bordercolor="#000000"
     borderopacity="0.25"
     inkscape:showpageshadow="2"
     inkscape:pageopacity="0.0"
     inkscape:pagecheckerboard="0"
     inkscape:deskcolor="#d1d1d1"
     inkscape:document-units="mm"><inkscape:page
       x="0"
       y="0"
       width="36.566036"
       height="38.247093"
       id="page2"
       margin="0"
       bleed="0" /></sodipodi:namedview><defs
     id="defs1" /><g
     inkscape:label="Layer 1"
     inkscape:groupmode="layer"
     id="layer1"
     transform="translate(-32.068895,-103.92624)"><path
       fill="#fefefe"
       d="m 45.671337,105.23482 c 0.187276,-0.2893 0.503147,-0.70755 0.770862,-0.88626 0.817769,-0.54613 5.543889,-0.46088 6.350422,-0.3041 0.407903,0.0235 0.870206,0.0344 1.266874,0.10898 1.110632,0.93887 3.16442,4.64461 3.833261,6.04311 1.56705,-0.0728 5.390858,-0.0799 6.842511,0.14786 1.117232,0.96652 3.294264,4.89377 3.887125,6.36308 -0.246312,1.8312 -2.097129,4.81048 -3.141591,6.39501 0.947079,1.69975 2.013479,3.39433 2.868347,5.14312 0.236324,0.48353 0.371697,0.81349 0.224731,1.34072 -0.715393,1.67584 -2.636304,5.27617 -4.057814,6.36487 -2.166331,0.0744 -4.508166,0.0449 -6.68181,0.0346 -0.412898,1.09119 -2.637374,5.21 -3.729279,5.95536 -0.162306,0.10077 -0.772824,0.24131 -0.934059,0.21902 -1.216399,-0.16712 -6.003695,0.33834 -6.789182,-0.41771 -1.133997,-1.09191 -2.816801,-4.36352 -3.624582,-5.74062 -1.282748,0.001 -5.989248,0.27592 -6.85678,-0.22973 -0.941193,-0.5488 -3.236298,-4.79514 -3.51079,-5.99727 -0.430556,-1.88613 1.811934,-4.91036 2.887609,-6.58246 -1.123296,-1.94499 -2.479884,-4.06745 -3.208296,-6.18509 0.485489,-1.61235 2.416388,-4.72612 3.471908,-6.22183 0.18032,-0.25576 0.784239,-0.49743 1.089587,-0.52455 1.978699,-0.17568 4.11471,-0.0244 6.128188,-0.097 0.979362,-1.47787 1.954265,-3.3665 2.912758,-4.92909 z"
       id="path101"
       style="stroke-width:0.178358" /><path
       fill="#3c2031"
       d="m 45.671337,105.23482 0.344409,-0.004 c -0.527939,0.82705 -0.958137,1.8353 -1.423651,2.71282 -0.477106,0.89946 -0.975437,1.68102 -1.542436,2.52323 -1.254389,0.0148 -2.461513,-0.0125 -3.756746,-0.0319 -1.135781,-0.0171 -2.69641,-0.18728 -3.578745,0.77318 -1.084414,1.18055 -1.612353,2.68714 -2.445818,4.03623 -0.338522,0.54792 -0.642265,1.10065 -0.848268,1.71705 0.897673,2.48648 2.135653,3.9417 3.230769,6.2295 -0.910515,1.53708 -2.643794,4.32695 -3.254669,5.89703 0.607842,1.54333 2.582439,5.37606 3.764237,6.41463 2.038092,0.45713 4.665656,0.23312 6.785079,0.23098 0.53543,0.73626 0.926925,1.37496 1.3705,2.16205 0.67437,1.19678 1.247433,2.52554 2.223762,3.51079 0.553622,0.55879 2.08072,0.38347 2.821439,0.44036 1.610926,0.015 3.497057,0.35511 4.902872,-0.61533 1.049278,-0.73983 1.398323,-2.18666 2.045405,-3.26715 0.4648,-0.77604 0.917293,-1.48822 1.433816,-2.22662 1.374959,0.009 5.402095,0.12217 6.531812,-0.0679 1.535659,-1.18038 2.137972,-2.86585 3.094683,-4.51316 0.28876,-0.49709 0.698983,-1.17913 0.937447,-1.67032 l 0.266645,0.0999 c -0.715393,1.67584 -2.636304,5.27617 -4.057814,6.36487 -2.166331,0.0744 -4.508166,0.0449 -6.68181,0.0346 -0.412898,1.09119 -2.637374,5.21 -3.729279,5.95536 -0.162306,0.10077 -0.772824,0.24131 -0.934059,0.21902 -1.216399,-0.16712 -6.003695,0.33834 -6.789182,-0.41771 -1.133997,-1.09191 -2.816801,-4.36352 -3.624582,-5.74062 -1.282748,0.001 -5.989248,0.27592 -6.85678,-0.22973 -0.941193,-0.5488 -3.236298,-4.79514 -3.51079,-5.99727 -0.430556,-1.88613 1.811934,-4.91036 2.887609,-6.58246 -1.123296,-1.94499 -2.479884,-4.06745 -3.208296,-6.18509 0.485489,-1.61235 2.416388,-4.72612 3.471908,-6.22183 0.18032,-0.25576 0.784239,-0.49743 1.089587,-0.52455 1.978699,-0.17568 4.11471,-0.0244 6.128188,-0.097 0.979362,-1.47787 1.954265,-3.3665 2.912758,-4.92909 z"
       id="path102"
       style="stroke-width:0.178358" /><path
       fill="#37182b"
       d="m 52.792621,104.04446 c 0.407903,0.0235 0.870206,0.0344 1.266874,0.10898 1.110632,0.93887 3.16442,4.64461 3.833261,6.04311 1.56705,-0.0728 5.390858,-0.0799 6.842511,0.14786 1.117232,0.96652 3.294264,4.89377 3.887125,6.36308 -0.246312,1.8312 -2.097129,4.81048 -3.141591,6.39501 0.947079,1.69975 2.013479,3.39433 2.868347,5.14312 0.236324,0.48353 0.371697,0.81349 0.224731,1.34072 l -0.266645,-0.0999 c -0.195123,-1.60076 -2.444034,-4.69224 -3.258415,-6.37058 1.113665,-1.82674 2.81912,-4.36798 3.200984,-6.39644 -0.416822,-1.19018 -2.79629,-5.11119 -3.663643,-6.01208 -2.223763,-0.44553 -4.63266,-0.22705 -6.913676,-0.25309 -1.045889,-1.73809 -2.155629,-3.66489 -3.177975,-5.42742 -0.05939,-0.82026 -1.221215,-0.76301 -1.799985,-0.88715 z"
       id="path103"
       style="stroke-width:0.178358" /><path
       fill="#3c2031"
       d="m 45.671337,105.23482 c 0.187276,-0.2893 0.503147,-0.70755 0.770862,-0.88626 0.817769,-0.54613 5.543889,-0.46088 6.350422,-0.3041 l -0.0981,0.0952 c 0.57877,0.12414 1.740592,0.0669 1.799985,0.88715 -0.741076,-0.79155 -2.159376,-0.71985 -3.18404,-0.65457 -1.38673,0.0883 -4.338548,-0.19905 -5.294723,0.85879 z"
       id="path104"
       style="stroke-width:0.178358" /><path
       fill="#3c2031"
       d="m 48.304787,117.5802 c 0.797437,-0.0341 4.586644,-0.0499 5.06054,0.22829 0.936021,0.54952 2.863174,4.33177 3.227202,5.39193 -0.614263,1.58756 -2.083395,4.12844 -3.140164,5.44026 -0.287869,0.0264 -0.614263,0.0326 -0.905878,0.0455 -1.743267,0.003 -3.486534,-0.004 -5.229623,-0.0218 -1.163605,-1.44648 -2.439932,-3.8907 -3.255204,-5.55335 0.738935,-1.55848 2.183097,-4.13004 3.23291,-5.44829 z"
       id="path105"
       style="stroke-width:0.178358" /><path
       fill="#f2b044"
       d="m 47.462404,118.05677 c 1.325375,-0.17961 4.302342,-0.0899 5.743293,-0.0783 0.665452,0.82918 1.227278,1.90842 1.723469,2.85301 0.607665,0.84274 0.911051,1.41651 1.342498,2.36234 -0.844345,1.55903 -1.946417,3.59302 -2.950391,5.04574 l -5.846027,0.003 -0.40505,-0.58983 c -0.899458,-1.49303 -1.801947,-2.96377 -2.555151,-4.53724 0.757485,-1.43381 2.00795,-3.76923 2.947359,-5.05875 z"
       id="path106"
       style="stroke-width:0.178358" /><path
       fill="#e89e37"
       d="m 54.929166,120.83148 c 0.607665,0.84274 0.911051,1.41651 1.342498,2.36234 -0.844345,1.55903 -1.946417,3.59302 -2.950391,5.04574 l -5.846027,0.003 -0.40505,-0.58983 c 4.419344,0.14233 7.70808,-2.20914 7.85897,-6.82128 z"
       id="path107"
       style="stroke-width:0.178358" /><path
       fill="#3c2031"
       d="m 47.990699,105.45134 c 1.182333,-0.0305 4.348715,-0.16997 5.30061,0.19317 0.857186,0.32692 2.946289,4.44984 3.388437,5.37266 -0.748388,1.58346 -1.856703,3.49278 -2.829643,4.95977 -0.279843,0.42199 -0.457487,0.50493 -0.933881,0.5736 -1.815145,0.009 -3.870894,0.0601 -5.668204,-0.0931 -0.913191,-1.13613 -2.58993,-4.12077 -3.172803,-5.46327 0.623895,-1.46717 1.844039,-3.42286 2.718883,-4.77677 0.353148,-0.54631 0.586618,-0.67954 1.196601,-0.76605 z"
       id="path108"
       style="stroke-width:0.178358" /><path
       fill="#f2b044"
       d="m 47.530002,106.00265 c 1.798914,-0.31552 3.827197,-0.19548 5.664993,-0.13983 0.569139,0.68863 1.223177,1.9341 1.669963,2.74171 0.466583,0.76248 0.921395,1.53191 1.364257,2.3083 -0.760517,1.63679 -1.93625,3.69093 -2.93648,5.19681 -1.279537,0.033 -5.395138,0.41165 -6.134431,-0.39542 -0.916579,-1.55689 -1.865085,-3.09558 -2.642546,-4.72523 0.539354,-1.06337 2.286366,-4.21281 3.014244,-4.98634 z"
       id="path109"
       style="stroke-width:0.178358" /><path
       fill="#e89e37"
       d="m 54.864958,108.60453 c 0.466583,0.76248 0.921395,1.53191 1.364257,2.3083 -0.760517,1.63679 -1.93625,3.69093 -2.93648,5.19681 -1.279537,0.033 -5.395138,0.41165 -6.134431,-0.39542 1.94713,-0.38222 4.004663,-0.55006 5.577956,-1.9111 1.636609,-1.41581 1.970316,-3.17067 2.128698,-5.19859 z"
       id="path110"
       style="stroke-width:0.178358" /><path
       fill="#3c2031"
       d="m 57.874385,111.58025 c 2.035595,-0.0555 4.072439,-0.048 6.107499,0.0225 1.029123,1.22407 2.299208,3.65829 3.082733,5.13295 -0.358856,1.70011 -2.013479,4.75698 -3.259307,5.88063 -1.947665,0.0275 -4.060489,0.046 -5.996204,-0.0228 -1.00558,-1.40332 -2.548908,-4.00163 -3.232553,-5.56101 0.681861,-1.46325 2.279945,-4.26203 3.297832,-5.45221 z"
       id="path111"
       style="stroke-width:0.178358" /><path
       fill="#f2b044"
       d="m 58.01939,112.03862 c 1.652483,-0.17354 4.070655,-0.16801 5.733305,-0.0651 0.515631,0.57931 1.372461,2.15367 1.783754,2.87709 0.494229,0.73198 0.873417,1.42401 1.264555,2.21752 -0.471756,0.86753 -2.421026,4.75947 -3.224705,4.9851 -0.610518,0.17158 -4.905369,0.41254 -5.655006,-0.025 -0.07973,-0.0464 -0.256478,-0.32408 -0.318903,-0.44376 -0.891788,-1.49713 -1.795883,-2.94932 -2.566031,-4.51262 0.491375,-1.05267 2.279232,-4.23368 2.983031,-5.03326 z"
       id="path112"
       style="stroke-width:0.178358" /><path
       fill="#e89e37"
       d="m 65.536449,114.85061 c 0.494229,0.73198 0.873417,1.42401 1.264555,2.21752 -0.471756,0.86753 -2.421026,4.75947 -3.224705,4.9851 -0.610518,0.17158 -4.905369,0.41254 -5.655006,-0.025 -0.07973,-0.0464 -0.256478,-0.32408 -0.318903,-0.44376 1.379952,0.12325 3.860907,-0.4343 5.03771,-1.28061 1.92751,-1.38637 2.470609,-3.23683 2.896349,-5.45328 z"
       id="path113"
       style="stroke-width:0.178358" /><path
       fill="#3c2031"
       d="m 36.824444,111.58328 c 1.979056,-0.0844 4.128978,-0.0264 6.121768,-0.009 1.024664,1.51212 2.482737,3.83897 3.116263,5.51803 -0.530613,1.38922 -2.220373,4.30912 -3.123398,5.49787 -1.65498,0.12967 -4.540984,0.0526 -6.209876,-0.0251 -0.764262,-1.03483 -2.925778,-4.34194 -2.972508,-5.52409 -0.03906,-0.99006 2.311515,-4.66262 3.067751,-5.45774 z"
       id="path114"
       style="stroke-width:0.178358" /><path
       fill="#f2b044"
       d="m 36.888118,112.02471 c 1.79499,-0.11522 4.076362,-0.19601 5.864041,-0.003 0.538996,0.69809 1.197492,1.92787 1.631436,2.72174 0.438938,0.66277 1.000586,1.61966 1.352486,2.3429 -0.931918,1.69636 -1.886845,3.47548 -2.945754,5.08962 -0.979361,0.005 -5.162025,0.0851 -5.897572,-0.0535 -0.13359,-0.1714 -0.243815,-0.29946 -0.34637,-0.49334 -0.907662,-1.50908 -1.797845,-2.99444 -2.560324,-4.58308 0.696843,-1.49856 1.989936,-3.65115 2.902057,-5.0213 z"
       id="path115"
       style="stroke-width:0.178358" /><path
       fill="#e89e37"
       d="m 44.383595,114.74342 c 0.438938,0.66277 1.000586,1.61966 1.352486,2.3429 -0.931918,1.69636 -1.886845,3.47548 -2.945754,5.08962 -0.979361,0.005 -5.162025,0.0851 -5.897572,-0.0535 -0.13359,-0.1714 -0.243815,-0.29946 -0.34637,-0.49334 1.678166,-0.21171 3.548067,-0.36367 5.019874,-1.2658 1.327337,-0.81385 2.095702,-2.18863 2.452238,-3.67346 0.135731,-0.56521 0.176931,-1.2337 0.321401,-1.78464 z"
       id="path116"
       style="stroke-width:0.178358" /><path
       fill="#3c2031"
       d="m 37.578362,123.64132 c 1.63536,-0.0335 3.689326,-0.10826 5.272785,0.13074 1.117232,1.12543 2.574592,3.9112 3.288557,5.4053 -0.527938,1.3029 -2.105868,3.83986 -2.918108,5.07338 -0.196194,0.29786 -0.478534,0.37919 -0.815094,0.41379 -1.49214,0.018 -4.251689,0.12236 -5.611309,-0.12271 -0.761051,-0.75106 -2.906158,-4.18516 -3.072923,-5.29062 -0.126455,-0.83739 2.192907,-4.45537 2.788086,-5.26048 0.235611,-0.31872 0.684715,-0.32496 1.068006,-0.3494 z"
       id="path117"
       style="stroke-width:0.178358" /><path
       fill="#f2b044"
       d="m 37.011184,124.05083 c 1.447729,-0.0157 4.379036,-0.11896 5.679798,0.1195 0.735011,0.78656 1.087089,1.52977 1.578821,2.47453 0.547023,0.86878 0.981324,1.63037 1.476444,2.5284 -0.872882,1.57026 -1.95141,3.60282 -2.943257,5.06018 -1.526384,0.12325 -3.218997,0.1006 -4.759294,0.0621 -0.586796,-0.0146 -1.142737,-0.0899 -1.52674,-0.56521 -0.606951,-1.32342 -1.804444,-3.0278 -2.544093,-4.58308 0.582872,-1.09708 2.266568,-4.28308 3.038321,-5.09639 z"
       id="path118"
       style="stroke-width:0.178358" /><path
       fill="#e89e37"
       d="m 44.269803,126.64486 c 0.547023,0.86878 0.981324,1.63037 1.476444,2.5284 -0.872882,1.57026 -1.95141,3.60282 -2.943257,5.06018 -1.526384,0.12325 -3.218997,0.1006 -4.759294,0.0621 -0.586796,-0.0146 -1.142737,-0.0899 -1.52674,-0.56521 2.011338,-0.40577 3.748898,-0.24881 5.454175,-1.66907 1.736846,-1.44631 2.102479,-3.27483 2.298672,-5.41637 z"
       id="path119"
       style="stroke-width:0.178358" /><path
       fill="#3c2031"
       d="m 59.89696,123.65345 c 0.911229,-0.0319 3.41751,-0.18246 4.037838,0.22188 0.920147,0.59981 2.818406,4.33409 3.16228,5.34555 -0.371697,1.15861 -2.05896,4.07957 -2.902057,5.08373 -0.416108,0.49548 -1.66693,0.37776 -2.298494,0.36171 -1.344816,0.026 -2.690167,0.0169 -4.034627,-0.0273 -0.953143,-1.14934 -2.683033,-4.07957 -3.226845,-5.45917 0.613193,-1.42561 1.967819,-3.83183 2.95699,-5.06678 0.456774,-0.57039 1.596301,-0.46231 2.304915,-0.45963 z"
       id="path120"
       style="stroke-width:0.178358" /><path
       fill="#f2b044"
       d="m 58.0465,124.20368 c 1.825312,-0.28715 3.879099,-0.18353 5.745255,-0.14215 0.56575,0.84274 1.126328,1.85653 1.642852,2.74171 0.469615,0.78121 0.9708,1.60594 1.341784,2.43673 -0.738044,1.32091 -2.050399,3.8065 -2.909191,4.9496 -1.212831,0.18923 -5.037888,0.33281 -6.063266,-0.23329 -0.987744,-1.57187 -1.924657,-3.11555 -2.7822,-4.76376 0.758555,-1.23637 2.13066,-4.03766 3.024766,-4.98884 z"
       id="path121"
       style="stroke-width:0.178358" /><path
       fill="#e89e37"
       d="m 65.434607,126.80324 c 0.469615,0.78121 0.9708,1.60594 1.341784,2.43673 -0.738044,1.32091 -2.050399,3.8065 -2.909191,4.9496 -1.212831,0.18923 -5.037888,0.33281 -6.063266,-0.23329 1.534589,-0.81474 3.28713,-0.27004 5.114939,-1.80088 1.720972,-1.44149 2.289398,-3.14177 2.515734,-5.35216 z"
       id="path122"
       style="stroke-width:0.178358" /><path
       fill="#3c2031"
       d="m 50.13973,129.71279 c 1.244222,0.002 2.168293,0.0269 3.396463,0.20565 0.983643,1.19874 2.51734,3.86412 3.054909,5.30239 -0.561826,1.51301 -2.216271,4.27666 -3.228986,5.50037 l -2.738502,0.0453 c -1.131501,-0.0189 -2.183275,-0.004 -3.304074,-0.17354 -1.095116,-1.11848 -2.521977,-3.87232 -3.251102,-5.32665 0.693454,-1.54208 2.171503,-4.2392 3.257523,-5.48093 0.908196,-0.0433 1.898973,-0.0505 2.813769,-0.0726 z"
       id="path123"
       style="stroke-width:0.178358" /><path
       fill="#f2b044"
       d="m 47.427981,130.21451 c 1.689582,-0.14144 4.117385,-0.14554 5.809464,-0.0565 0.692205,0.83222 1.189645,1.79945 1.698142,2.74938 0.489413,0.75071 0.930135,1.47859 1.293806,2.301 -0.739827,1.44398 -1.994216,3.72945 -2.925421,5.0509 -1.263307,0.1509 -5.148292,0.33781 -6.13996,-0.32978 -0.92086,-1.55688 -1.81354,-3.13017 -2.678039,-4.71898 0.921752,-1.6639 1.884704,-3.4143 2.942008,-4.99598 z"
       id="path124"
       style="stroke-width:0.178358" /><path
       fill="#e89e37"
       d="m 54.935587,132.90735 c 0.489413,0.75071 0.930135,1.47859 1.293806,2.301 -0.739827,1.44398 -1.994216,3.72945 -2.925421,5.0509 -1.263307,0.1509 -5.148292,0.33781 -6.13996,-0.32978 0.436263,-0.14233 1.024486,-0.26843 1.485184,-0.33014 3.987897,-0.53436 5.793767,-2.75562 6.286391,-6.69198 z"
       id="path125"
       style="stroke-width:0.178358" /></g></svg>
