<?xml version="1.0" encoding="UTF-8" standalone="no"?>
<!-- Created with Inkscape (http://www.inkscape.org/) -->

<svg
   width="37.526215mm"
   height="49.065346mm"
   viewBox="0 0 37.526215 49.065346"
   version="1.1"
   id="svg1"
   xml:space="preserve"
   xmlns:inkscape="http://www.inkscape.org/namespaces/inkscape"
   xmlns:sodipodi="http://sodipodi.sourceforge.net/DTD/sodipodi-0.dtd"
   xmlns="http://www.w3.org/2000/svg"
   xmlns:svg="http://www.w3.org/2000/svg"><sodipodi:namedview
     id="namedview1"
     pagecolor="#ffffff"
     bordercolor="#000000"
     borderopacity="0.25"
     inkscape:showpageshadow="2"
     inkscape:pageopacity="0.0"
     inkscape:pagecheckerboard="0"
     inkscape:deskcolor="#d1d1d1"
     inkscape:document-units="mm"><inkscape:page
       x="0"
       y="0"
       width="37.526215"
       height="49.065346"
       id="page2"
       margin="0"
       bleed="0" /></sodipodi:namedview><defs
     id="defs1"><linearGradient
       id="gradient_0"
       gradientUnits="userSpaceOnUse"
       x1="514.88519"
       y1="299.64807"
       x2="516.07361"
       y2="256.00345"
       gradientTransform="matrix(0.17835759,0,0,0.17835759,14.02535,58.237593)"><stop
         offset="0"
         stop-color="#271126"
         id="stop2" /><stop
         offset="1"
         stop-color="#6E3559"
         id="stop3" /></linearGradient><linearGradient
       id="gradient_1"
       gradientUnits="userSpaceOnUse"
       x1="464.05795"
       y1="415.03781"
       x2="459.21185"
       y2="422.30792"
       gradientTransform="matrix(0.17835759,0,0,0.17835759,14.02535,58.237593)"><stop
         offset="0"
         stop-color="#230822"
         id="stop29" /><stop
         offset="1"
         stop-color="#3F2334"
         id="stop30" /></linearGradient></defs><g
     inkscape:label="Layer 1"
     inkscape:groupmode="layer"
     id="layer1"
     transform="translate(-85.92153,-96.603373)"><path
       fill="#fefefe"
       d="m 116.97603,97.93161 c 0.72448,-1.303438 2.02864,-1.702959 3.33778,-0.950468 0.62568,0.353683 1.08388,0.943155 1.27205,1.636788 0.46783,1.74808 -0.64798,2.67822 -2.24874,2.91846 -0.20065,0.21082 -0.40719,0.4154 -0.58572,0.64423 -0.24489,0.32033 -0.75784,1.02271 -1.02484,1.27758 1.65979,1.15968 1.14255,1.76467 0.81812,3.54967 0.33121,0.39453 0.46034,0.46801 0.51135,0.9494 l -0.19048,0.92104 c 1.01699,0.64315 1.65141,1.02555 2.51288,1.88238 l 0.0521,0.63335 0.30017,0.48264 0.43698,0.11629 c -0.49066,1.29648 -1.84743,1.00076 -3.02334,1.01681 0.27842,0.43823 0.58804,0.89928 0.82651,1.35677 6.08449,7.45089 3.30907,19.86101 -1.64285,27.20898 -1.69333,2.51253 -2.53857,4.05247 -5.82891,4.03142 -0.50618,0.0203 -1.06925,0.0114 -1.5806,0.013 -4.43433,0.0926 -9.09232,0.0264 -13.541803,0.0168 -0.708258,-0.007 -2.138864,-0.0601 -2.752057,-0.32105 -2.890107,-1.22942 -5.40263,-6.88371 -6.591562,-9.59332 -0.737687,-1.98761 -1.358549,-3.87054 -1.676561,-5.97087 -1.021989,-6.74781 -0.396489,-10.45247 3.532372,-16.00474 -0.590542,-0.33335 -2.202716,-1.1217 -2.32935,-1.734 -0.238999,-1.15575 2.262823,-2.70301 3.14819,-2.98428 l 0.06153,-0.17372 c -0.436619,-0.78513 -0.691671,-1.26972 0.180855,-1.82121 -0.0082,-0.2381 -0.217596,-0.79583 -0.262721,-1.09743 -0.180141,-1.20588 -0.126634,-1.724 0.924249,-2.45188 1.99386,-0.21849 3.446225,-0.15071 5.397279,-0.17711 3.789569,-0.051 7.543459,0.0697 11.329459,0.0631 1.70991,-0.003 3.69539,0.0672 5.37944,-0.11486 0.8645,-0.98579 2.35057,-2.62775 3.04831,-3.667928 -0.004,-0.703978 0.0219,-0.994166 0.20993,-1.655872 z m 4.65673,28.82134 c 0.0754,-1.2428 0.0772,-2.65361 -0.0574,-3.88374 -0.19887,-1.48162 -0.4755,-2.99088 -1.23726,-4.30484 -6.61796,2.18363 -11.44789,0.7277 -18.03445,-0.20047 -3.781718,-0.53276 -9.866388,-0.64833 -13.453872,0.64137 -2.221444,5.76612 -1.02841,11.72791 1.353199,17.23505 0.980967,2.19737 2.219838,4.34158 3.716437,6.227 0.574133,0.72342 1.655872,1.40385 2.681785,1.35463 3.886051,-0.18692 14.467651,0.4318 17.567691,-0.30482 2.11692,-0.50314 5.54941,-8.29683 6.28764,-10.70591 0.60927,-1.97121 1.00361,-4.00234 1.17626,-6.05827 z"
       id="path1"
       style="stroke-width:0.178358" /><path
       fill="#fefefe"
       d="m 116.97603,97.93161 c 0.72448,-1.303438 2.02864,-1.702959 3.33778,-0.950468 0.62568,0.353683 1.08388,0.943155 1.27205,1.636788 0.46783,1.74808 -0.64798,2.67822 -2.24874,2.91846 -0.20065,0.21082 -0.40719,0.4154 -0.58572,0.64423 -0.24489,0.32033 -0.75784,1.02271 -1.02484,1.27758 1.65979,1.15968 1.14255,1.76467 0.81812,3.54967 0.33121,0.39453 0.46034,0.46801 0.51135,0.9494 l -0.19048,0.92104 c 1.01699,0.64315 1.65141,1.02555 2.51288,1.88238 l 0.0521,0.63335 c -0.1591,-0.17818 -0.32301,-0.3519 -0.49173,-0.52098 -1.98869,-1.96782 -2.9306,-1.93697 -5.46435,-1.90486 l -0.50368,0.0219 c -0.85879,-0.0335 -1.75522,-0.0833 -2.61204,-0.0787 -5.98907,0.0316 -11.97047,-0.0162 -17.960436,0.0553 -0.95457,1.22746 -1.676205,2.04701 -3.004969,2.87852 0.655465,-0.96314 1.697786,-1.94089 2.472928,-2.87994 -0.677223,-0.008 -2.286366,-0.0731 -2.86032,0.10326 l -0.03104,-0.013 c -0.189594,0.028 -0.10095,0.0403 -0.267179,-0.0271 l 0.06153,-0.17372 c -0.436619,-0.78513 -0.691671,-1.26972 0.180855,-1.82121 -0.0082,-0.2381 -0.217596,-0.79583 -0.262721,-1.09743 -0.180141,-1.20588 -0.126634,-1.724 0.924249,-2.45188 1.99386,-0.21849 3.446225,-0.15071 5.397279,-0.17711 3.789564,-0.051 7.543454,0.0697 11.329454,0.0631 1.70991,-0.003 3.69539,0.0672 5.37944,-0.11486 0.8645,-0.98579 2.35057,-2.62775 3.04831,-3.667928 -0.004,-0.703978 0.0219,-0.994166 0.20993,-1.655872 z"
       id="path2"
       style="stroke-width:0.178358" /><path
       fill="url(#gradient_0)"
       d="m 90.950087,107.03355 0.114327,0.0797 c 0.269855,-0.69167 -1.666752,-3.82577 2.065024,-3.49206 -2.246414,0.38471 -2.621321,1.20926 -1.698678,3.31495 l 21.03425,-0.005 c 1.84368,-0.004 3.69557,0.0569 5.53639,-0.0242 0.0995,-0.004 0.25327,-0.30856 0.28966,-0.38811 0.20707,0.74357 0.26004,0.84987 0.76497,1.4381 l -0.19048,0.92104 c 1.01699,0.64315 1.65141,1.02555 2.51288,1.88238 l 0.0521,0.63335 c -0.1591,-0.17818 -0.32301,-0.3519 -0.49173,-0.52098 -1.98869,-1.96782 -2.9306,-1.93697 -5.46435,-1.90486 l -0.50368,0.0219 c -0.85879,-0.0335 -1.75522,-0.0833 -2.61204,-0.0787 -5.98907,0.0316 -11.97047,-0.0162 -17.960436,0.0553 -0.95457,1.22746 -1.676205,2.04701 -3.004969,2.87852 0.655465,-0.96314 1.697786,-1.94089 2.472928,-2.87994 -0.677223,-0.008 -2.286366,-0.0731 -2.86032,0.10326 l -0.03104,-0.013 c -0.189594,0.028 -0.10095,0.0403 -0.267179,-0.0271 l 0.06153,-0.17372 c -0.436619,-0.78513 -0.691671,-1.26972 0.180855,-1.82121 z"
       id="path3"
       style="fill:url(#gradient_0);stroke-width:0.178358" /><path
       fill="#8b4b6f"
       d="m 96.725484,107.33498 c 1.730604,-0.13288 4.077436,-0.0858 5.823556,-0.0949 3.26573,-0.0169 6.52325,-0.0344 9.78577,0.10755 1.83422,0.0799 3.81061,-0.006 5.65464,0.0474 0.23169,0.007 0.36385,0.0724 0.54667,0.21188 0.1261,0.34637 0.12325,0.17854 0.0255,0.52063 -0.216,0.21724 -0.50957,0.37402 -0.80832,0.39239 -1.64482,0.10202 -3.47797,0.064 -5.13188,0.0983 l -14.250062,-0.0269 c -1.378169,-0.004 -7.041201,0.44143 -7.637986,-0.71361 l 0.0569,-0.16748 c 0.861289,-0.52776 4.633195,-0.34726 5.935206,-0.37526 z"
       id="path4"
       style="stroke-width:0.178358" /><path
       fill="#f4cfb1"
       d="m 119.08653,96.974721 c 1.09298,0.270034 1.45879,0.426453 2.09749,1.431142 0.45659,1.884527 -0.42556,2.414957 -2.085,2.842307 -0.28056,0.31034 -0.4805,0.54756 -0.73448,0.87966 l -0.93941,1.14024 -2.20557,0.001 c -0.30998,0.008 -0.63691,-0.0111 -0.94868,-0.0234 0.97757,-1.12365 1.99582,-2.40782 2.9536,-3.564117 -0.0603,-0.655821 -0.0888,-0.718603 0.0187,-1.383342 0.33531,-0.662241 0.61622,-0.93495 1.33482,-1.174306 0.16748,-0.05636 0.3371,-0.106123 0.5085,-0.149464 z"
       id="path5"
       style="stroke-width:0.178358" /><path
       fill="#f2b044"
       d="m 121.18402,98.405863 c 0.45659,1.884527 -0.42556,2.414957 -2.085,2.842307 -0.28056,0.31034 -0.4805,0.54756 -0.73448,0.87966 l -0.93941,1.14024 -2.20557,0.001 c 1.30112,-0.24756 5.16756,-3.681482 5.96446,-4.863457 z"
       id="path6"
       style="stroke-width:0.178358" /><path
       fill="#3c2031"
       d="m 116.97603,97.93161 c 0.72448,-1.303438 2.02864,-1.702959 3.33778,-0.950468 0.62568,0.353683 1.08388,0.943155 1.27205,1.636788 0.46783,1.74808 -0.64798,2.67822 -2.24874,2.91846 -0.20065,0.21082 -0.40719,0.4154 -0.58572,0.64423 l -0.38686,-0.0528 c 0.25398,-0.3321 0.45392,-0.56932 0.73448,-0.87966 1.65944,-0.42735 2.54159,-0.95778 2.085,-2.842307 -0.6387,-1.004689 -1.00451,-1.161108 -2.09749,-1.431142 -0.1714,0.04334 -0.34102,0.0931 -0.5085,0.149464 -0.7186,0.239356 -0.99951,0.512065 -1.33482,1.174306 -0.10755,0.664739 -0.079,0.727521 -0.0187,1.383342 -0.95778,1.156297 -1.97603,2.440467 -2.9536,3.564117 l -0.25398,0.41736 c -6.90797,-0.18959 -14.01624,0.14286 -20.887462,-0.0421 -3.731776,-0.33371 -1.795169,2.80039 -2.065024,3.49206 l -0.114327,-0.0797 c -0.0082,-0.2381 -0.217596,-0.79583 -0.262721,-1.09743 -0.180141,-1.20588 -0.126634,-1.724 0.924249,-2.45188 1.99386,-0.21849 3.446225,-0.15071 5.397279,-0.17711 3.789566,-0.051 7.543456,0.0697 11.329456,0.0631 1.70991,-0.003 3.69539,0.0672 5.37944,-0.11486 0.8645,-0.98579 2.35057,-2.62775 3.04831,-3.667928 -0.004,-0.703978 0.0219,-0.994166 0.20993,-1.655872 z"
       id="path7"
       style="stroke-width:0.178358" /><path
       fill="#472135"
       d="m 117.42513,103.26807 0.93941,-1.14024 0.38686,0.0528 c -0.24489,0.32033 -0.75784,1.02271 -1.02484,1.27758 -0.24685,0.22259 -0.41469,0.12735 -0.69275,0.31373 -0.98703,-0.0615 -2.02507,-0.0778 -3.01691,-0.10862 l 0.25398,-0.41736 c 0.31177,0.0123 0.6387,0.0316 0.94868,0.0234 z"
       id="path8"
       style="stroke-width:0.178358" /><path
       fill="#3c2031"
       d="m 117.03381,103.77193 c 0.27806,-0.18638 0.4459,-0.0911 0.69275,-0.31373 1.65979,1.15968 1.14255,1.76467 0.81812,3.54967 0.33121,0.39453 0.46034,0.46801 0.51135,0.9494 -0.50493,-0.58823 -0.5579,-0.69453 -0.76497,-1.4381 0.28252,-1.31806 0.47835,-2.6281 -1.25725,-2.74724 z"
       id="path9"
       style="stroke-width:0.178358" /><path
       fill="#fefefe"
       d="m 94.398274,108.96677 c 5.989966,-0.0715 11.971366,-0.0237 17.960436,-0.0553 0.85682,-0.005 1.75325,0.0451 2.61204,0.0787 l 0.50368,-0.0219 c 2.53375,-0.0321 3.47566,-0.063 5.46435,1.90486 0.16872,0.16908 0.33263,0.3428 0.49173,0.52098 l 0.30017,0.48264 c -0.40166,1.21586 -1.96675,0.29054 -3.18154,1.09493 -1.42401,1.01058 -1.79142,2.28619 -3.93243,1.97228 -2.34522,-0.34369 -4.19871,-3.37488 -6.6217,-1.59523 -1.89041,1.37335 -2.44939,2.41122 -5.00365,2.03042 -1.74362,-0.26004 -3.806147,-2.23892 -5.254053,-2.30848 -3.705201,-0.17818 -3.327975,3.03101 -7.737153,0.31837 -0.456238,-0.34833 -1.085306,-0.58626 -1.547073,-0.9057 -1.898439,-1.31342 2.226794,-2.6784 2.552832,-3.41466 0.573954,-0.17639 2.183097,-0.11076 2.86032,-0.10326 -0.775142,0.93905 -1.817463,1.9168 -2.472928,2.87994 1.328764,-0.83151 2.050399,-1.65106 3.004969,-2.87852 z"
       id="path10"
       style="stroke-width:0.178358" /><path
       fill="#3c2031"
       d="m 114.97075,108.99014 0.50368,-0.0219 c 0.74144,0.92942 1.7397,1.68031 2.37359,2.66734 l -0.29376,-0.1657 c -1.13239,-0.63602 -1.78429,-1.47394 -2.58351,-2.4797 z"
       id="path11"
       style="stroke-width:0.178358" /><path
       fill="#3c2031"
       d="m 100.01137,109.48187 c 0.13644,0.11771 0.0758,0.0519 0.14018,0.25327 -0.215094,0.82294 -1.267939,2.24534 -1.806401,2.92542 -0.08936,-0.0963 -0.06795,-0.10167 -0.113435,-0.24346 0.190664,-0.80297 1.271511,-2.2416 1.779656,-2.93523 z"
       id="path12"
       style="stroke-width:0.178358" /><path
       fill="#3c2031"
       d="m 121.73068,111.87668 0.43698,0.11629 c -0.49066,1.29648 -1.84743,1.00076 -3.02334,1.01681 0.27842,0.43823 0.58804,0.89928 0.82651,1.35677 6.08449,7.45089 3.30907,19.86101 -1.64285,27.20898 -1.69333,2.51253 -2.53857,4.05247 -5.82891,4.03142 l 0.0482,-0.16034 c 0.62372,-0.0812 1.19,-0.0663 1.84832,-0.15642 l -0.0111,-0.0585 -0.59464,-0.0462 c 0.23775,-0.0469 0.76355,-0.15125 0.95617,-0.25933 2.78345,-1.56134 5.5685,-7.27342 6.6094,-10.17316 1.68031,-4.68135 2.42655,-10.31085 0.98667,-15.07978 -0.56503,-1.87168 -0.88429,-2.09463 -1.6161,-3.64616 0.051,-0.36457 -0.57734,-1.14863 -0.80956,-1.48144 -0.40683,-0.54899 -0.60338,-1.04268 -0.97972,-1.5617 l -0.38757,-0.0123 c 1.21479,-0.80439 2.77988,0.12093 3.18154,-1.09493 z"
       id="path13"
       style="stroke-width:0.178358" /><path
       fill="#472135"
       d="m 90.000154,113.38897 c 4.409178,2.71264 4.031952,-0.49655 7.737153,-0.31837 1.447906,0.0696 3.510433,2.04844 5.254053,2.30848 2.55426,0.3808 3.11324,-0.65707 5.00365,-2.03042 2.42299,-1.77965 4.27648,1.25154 6.6217,1.59523 2.14101,0.31391 2.50842,-0.9617 3.93243,-1.97228 l 0.38757,0.0123 c 0.37634,0.51902 0.57289,1.01271 0.97972,1.5617 0.23222,0.33281 0.86057,1.11687 0.80956,1.48144 -0.46694,-0.52188 -1.50391,-2.12995 -1.92715,-2.75527 -0.63638,0.44161 -1.24262,1.27686 -1.78482,1.60968 -2.77667,1.70349 -4.97047,-1.23977 -7.66492,-1.7504 -2.54088,0.98292 -2.86942,2.8753 -5.97534,2.72066 -2.12584,-0.10594 -4.347463,-2.48024 -6.005654,-2.37269 -2.728514,0.17711 -4.04729,2.71014 -7.125029,0.52865 -0.08097,-0.20975 -0.364741,-0.16765 -0.242923,-0.61872 z"
       id="path14"
       style="stroke-width:0.178358" /><path
       fill="#3c2031"
       d="m 90.707699,109.02848 c 0.166229,0.0674 0.07758,0.0551 0.267179,0.0271 l 0.03104,0.013 c -0.326038,0.73626 -4.451271,2.10124 -2.552832,3.41466 0.461767,0.31944 1.090835,0.55737 1.547073,0.9057 -0.121818,0.45107 0.161949,0.40897 0.242923,0.61872 -5.167197,6.85946 -4.750554,13.22112 -2.110505,20.97075 l -0.09952,0.74393 c -0.737687,-1.98761 -1.358549,-3.87054 -1.676561,-5.97087 -1.021989,-6.74781 -0.396489,-10.45247 3.532372,-16.00474 -0.590542,-0.33335 -2.202716,-1.1217 -2.32935,-1.734 -0.238999,-1.15575 2.262823,-2.70301 3.14819,-2.98428 z"
       id="path15"
       style="stroke-width:0.178358" /><path
       fill="#472135"
       d="m 88.132572,134.97844 c 1.218717,3.00265 3.556629,8.24102 6.530741,9.99926 0.504039,0.29786 2.220909,0.21564 2.630061,0.36296 l 0.08329,0.29608 c -0.708258,-0.007 -2.138864,-0.0601 -2.752057,-0.32105 -2.890107,-1.22942 -5.40263,-6.88371 -6.591562,-9.59332 z"
       id="path16"
       style="stroke-width:0.178358" /><path
       fill="#13050e"
       d="m 97.293374,145.34066 c 4.206026,-0.0669 9.370906,-0.1261 13.577296,0.0236 l 0.75641,0.10023 c -0.24863,0.12218 -0.42467,0.11593 -0.70861,0.15553 -4.43433,0.0926 -9.09232,0.0264 -13.541803,0.0168 z"
       id="path17"
       style="stroke-width:0.178358" /><path
       fill="#37182b"
       d="m 110.87067,145.36421 c 0.97365,-0.051 1.94659,-0.11059 2.91918,-0.17872 l 0.59464,0.0462 0.0111,0.0585 c -0.65832,0.0901 -1.2246,0.0753 -1.84832,0.15642 l -0.0482,0.16034 c -0.50618,0.0203 -1.06925,0.0114 -1.5806,0.013 0.28394,-0.0396 0.45998,-0.0333 0.70861,-0.15553 z"
       id="path18"
       style="stroke-width:0.178358" /><path
       fill="#f2b044"
       d="m 88.849748,119.00527 c 3.587484,-1.2897 9.672154,-1.17413 13.453872,-0.64137 6.58656,0.92817 11.41649,2.3841 18.03445,0.20047 0.76176,1.31396 1.03839,2.82322 1.23726,4.30484 0.13466,1.23013 0.13288,2.64094 0.0574,3.88374 -0.17265,2.05593 -0.56699,4.08706 -1.17626,6.05827 -0.73823,2.40908 -4.17072,10.20277 -6.28764,10.70591 -3.10004,0.73662 -13.68164,0.1179 -17.567691,0.30482 -1.025913,0.0492 -2.107652,-0.63121 -2.681785,-1.35463 -1.496599,-1.88542 -2.73547,-4.02963 -3.716437,-6.227 -2.381609,-5.50714 -3.574643,-11.46893 -1.353199,-17.23505 z m 9.10676,5.46434 c -2.636125,0.13128 -2.608836,0.94833 -2.633628,3.39879 -0.01106,1.08637 -0.02818,2.24284 0.04084,3.32387 0.584299,3.70484 1.758606,1.52264 2.960914,2.94254 1.240834,0.99096 2.952536,1.19767 4.548836,1.24422 2.11907,0.0617 4.97314,0.17979 6.98002,-0.50475 0.54988,-0.18763 1.20963,-0.7623 1.63661,-1.15094 1.49714,-0.21117 2.19969,-0.17996 2.59386,-1.79749 0.0587,-1.59398 0.30588,-5.7226 -0.60731,-6.91349 -0.44964,-0.58644 -1.39493,-0.54489 -2.10052,-0.595 -0.92549,-0.98846 -1.15415,-1.08264 -2.46829,-1.44399 -2.83642,-0.4755 -6.56142,-0.70629 -9.325072,0.21778 -0.834891,0.42805 -1.000407,0.56254 -1.626264,1.27846 z"
       id="path19"
       style="stroke-width:0.178358" /><path
       fill="#e89e37"
       d="m 118.37899,119.61633 c 0.6601,-0.1805 1.12793,-0.31017 1.76306,-0.55755 0.44804,0.96812 0.6651,1.61075 0.8991,2.66324 0.0284,0.12752 0.22081,1.04285 0.24203,1.09137 l 0.29215,0.0558 c 0.13466,1.23013 0.13288,2.64094 0.0574,3.88374 l -0.11236,0.058 c -0.11486,-0.31141 -0.11986,-0.83863 -0.14179,-1.18786 -0.48157,5.16542 -1.33109,8.26206 -3.75871,12.85423 -3.07346,5.81339 -3.74391,5.04217 -9.81859,5.08962 -2.74011,0.0323 -5.48075,0.015 -8.220321,-0.0519 -1.928046,-0.0532 -4.352817,0.32194 -5.449538,-1.45486 -0.04227,-0.061 -0.08472,-0.12217 -0.127169,-0.18317 0.753561,0.0847 2.015976,0.0348 2.800393,0.0408 3.894795,0.0294 8.121335,-0.56807 11.615895,-2.38892 4.38653,-2.28565 7.54845,-6.28942 9.03988,-10.98504 0.50956,-1.60415 1.63018,-7.56058 0.91854,-8.92751 z"
       id="path20"
       style="stroke-width:0.178358" /><path
       fill="#13050e"
       d="m 121.28318,122.81339 0.29215,0.0558 c 0.13466,1.23013 0.13288,2.64094 0.0574,3.88374 l -0.11236,0.058 c -0.11486,-0.31141 -0.11986,-0.83863 -0.14179,-1.18786 0.0464,-0.93406 -0.0358,-1.87543 -0.0954,-2.80966 z"
       id="path21"
       style="stroke-width:0.178358" /><path
       fill="#37182b"
       d="m 88.849748,119.00527 c 3.587484,-1.2897 9.672154,-1.17413 13.453872,-0.64137 6.58656,0.92817 11.41649,2.3841 18.03445,0.20047 0.76176,1.31396 1.03839,2.82322 1.23726,4.30484 l -0.29215,-0.0558 c -0.0212,-0.0485 -0.21367,-0.96385 -0.24203,-1.09137 -0.234,-1.05249 -0.45106,-1.69512 -0.8991,-2.66324 -0.63513,0.24738 -1.10296,0.37705 -1.76306,0.55755 -7.00321,1.30218 -12.05198,-0.53436 -18.941044,-1.16611 -3.46852,-0.31801 -6.864627,0.0112 -10.243255,0.83151 -2.924529,6.9975 0.340663,16.8011 4.809591,22.59523 0.04245,0.061 0.0849,0.12217 0.127169,0.18317 1.096721,1.7768 3.521492,1.40171 5.449538,1.45486 2.739571,0.0669 5.480211,0.0842 8.220321,0.0519 6.07468,-0.0474 6.74513,0.72377 9.81859,-5.08962 2.42762,-4.59217 3.27714,-7.68881 3.75871,-12.85423 0.0219,0.34923 0.0269,0.87645 0.14179,1.18786 l 0.11236,-0.058 c -0.17265,2.05593 -0.56699,4.08706 -1.17626,6.05827 -0.73823,2.40908 -4.17072,10.20277 -6.28764,10.70591 -3.10004,0.73662 -13.68164,0.1179 -17.567691,0.30482 -1.025913,0.0492 -2.107652,-0.63121 -2.681785,-1.35463 -1.496599,-1.88542 -2.73547,-4.02963 -3.716437,-6.227 -2.381609,-5.50714 -3.574643,-11.46893 -1.353199,-17.23505 z"
       id="path22"
       style="stroke-width:0.178358" /><path
       fill="#3c2031"
       d="m 114.34614,131.93976 c -0.2629,1.82871 -0.92674,1.99761 -2.67536,2.16669 -0.42128,0.3585 -1.11955,0.97169 -1.65962,1.13935 -2.59225,0.80511 -5.72759,0.56664 -8.4076,0.46623 -1.25403,-0.0469 -2.772386,-0.52741 -3.572855,-1.44934 l 0.293933,-0.12788 c 1.240834,0.99096 2.952532,1.19767 4.548832,1.24422 2.11907,0.0617 4.97314,0.17979 6.98002,-0.50475 0.54988,-0.18763 1.20963,-0.7623 1.63661,-1.15094 1.49714,-0.21117 2.19969,-0.17996 2.59386,-1.79749 z"
       id="path23"
       style="stroke-width:0.178358" /><path
       fill="#37182b"
       d="m 109.71937,122.81749 c 0.82223,0.25291 1.35159,0.70505 1.93518,1.32091 2.63719,0.0396 2.78256,1.27651 2.78256,3.61763 0,0.81135 -5.4e-4,1.6441 -0.0214,2.45848 -0.0164,0.57538 -0.0396,1.15059 -0.0696,1.72525 l -0.26218,-0.0139 c 0.0587,-1.59398 0.30588,-5.7226 -0.60731,-6.91349 -0.44964,-0.58644 -1.39493,-0.54489 -2.10052,-0.595 -0.92549,-0.98846 -1.15415,-1.08264 -2.46829,-1.44399 l 0.0271,-0.1195 c 0.31124,0.086 0.34834,0.11094 0.67847,0.11219 z"
       id="path24"
       style="stroke-width:0.178358" /><path
       fill="#13050e"
       d="m 97.66846,124.13412 c 0.653859,-0.62889 0.986675,-0.83346 1.768773,-1.25207 l 0.145539,0.3091 c -0.834891,0.42805 -1.000407,0.56254 -1.626264,1.27846 -2.636125,0.13128 -2.608836,0.94833 -2.633628,3.39879 -0.01106,1.08637 -0.02818,2.24284 0.04084,3.32387 l -0.290188,0.11094 c -0.132698,-0.97794 -0.05993,-2.02436 -0.06118,-3.01246 -0.0032,-2.49701 -0.285015,-3.93172 2.656101,-4.15663 z"
       id="path25"
       style="stroke-width:0.178358" /><path
       fill="#37182b"
       d="m 99.437233,122.88205 c 2.489157,-0.83881 7.970797,-0.94012 10.282137,-0.0646 l -0.10595,0.14857 c -0.33013,-0.001 -0.36723,-0.0262 -0.67847,-0.11219 l -0.0271,0.1195 c -2.83642,-0.4755 -6.56142,-0.70629 -9.325068,0.21778 z"
       id="path26"
       style="stroke-width:0.178358" /><path
       fill="#3c2031"
       d="m 91.17339,132.66907 c 0.412363,0.18335 1.073892,2.20236 1.358372,2.79147 0.28555,0.59162 1.157184,2.12157 1.138278,2.63203 -0.943155,-0.30089 -2.514307,-4.37369 -2.49665,-5.4235 z"
       id="path27"
       style="stroke-width:0.178358" /><path
       fill="#3c2031"
       d="m 89.901166,124.67044 c 0.02764,0.42985 0.0014,1.22639 0.100772,1.56099 l 0.189416,0.0669 c 0.114327,0.49744 0.642087,4.59075 0.627462,4.9134 l -0.09952,0.0112 c -0.921395,-1.38531 -0.958315,-4.85971 -0.818126,-6.55251 z"
       id="path28"
       style="stroke-width:0.178358" /><path
       fill="#13050e"
       d="m 89.901166,124.67044 c 0.0045,-0.73697 0.03371,-3.81631 0.569139,-4.18426 l 0.166764,0.1013 c 0.08258,0.36706 -0.313017,2.34112 -0.369378,2.91597 -0.09096,0.92871 -0.116468,1.86259 -0.07634,2.79486 l -0.189416,-0.0669 c -0.09934,-0.3346 -0.07313,-1.13114 -0.100772,-1.56099 z"
       id="path29"
       style="stroke-width:0.178358" /><path
       fill="url(#gradient_1)"
       d="m 95.073536,131.30321 0.290188,-0.11094 c 0.584299,3.70484 1.758606,1.52264 2.960914,2.94254 l -0.293933,0.12788 c -0.568961,-0.4186 -1.982802,-0.15285 -2.478279,-0.87537 -0.346014,-0.50458 -0.449996,-1.4925 -0.47889,-2.08411 z"
       id="path30"
       style="fill:url(#gradient_1);stroke-width:0.178358" /><path
       fill="#37182b"
       d="m 121.37843,110.76069 c 0.42039,0.45678 0.59179,0.63353 0.78923,1.23228 l -0.43698,-0.11629 -0.30017,-0.48264 z"
       id="path144"
       style="stroke-width:0.178358" /></g></svg>
