<?xml version="1.0" encoding="UTF-8" standalone="no"?>
<!-- Created with Inkscape (http://www.inkscape.org/) -->

<svg
   width="36.688068mm"
   height="34.955006mm"
   viewBox="0 0 36.688068 34.955006"
   version="1.1"
   id="svg1"
   xml:space="preserve"
   xmlns:inkscape="http://www.inkscape.org/namespaces/inkscape"
   xmlns:sodipodi="http://sodipodi.sourceforge.net/DTD/sodipodi-0.dtd"
   xmlns="http://www.w3.org/2000/svg"
   xmlns:svg="http://www.w3.org/2000/svg"><sodipodi:namedview
     id="namedview1"
     pagecolor="#ffffff"
     bordercolor="#000000"
     borderopacity="0.25"
     inkscape:showpageshadow="2"
     inkscape:pageopacity="0.0"
     inkscape:pagecheckerboard="0"
     inkscape:deskcolor="#d1d1d1"
     inkscape:document-units="mm"><inkscape:page
       x="0"
       y="0"
       width="36.688068"
       height="34.955006"
       id="page2"
       margin="0"
       bleed="0" /></sodipodi:namedview><defs
     id="defs1" /><g
     inkscape:label="Layer 1"
     inkscape:groupmode="layer"
     id="layer1"
     transform="translate(-32.388526,-164.16355)"><path
       fill="#37182b"
       d="m 46.8221,164.22071 2.306164,-0.009 c 5.781283,-0.0202 12.711724,-0.69113 16.954494,3.69165 3.622443,3.74176 2.910261,8.01699 2.97875,12.87189 0.0569,4.03302 -0.04281,7.66188 -3.044921,10.61531 -4.323566,4.25347 -10.552883,3.60603 -16.205748,3.58873 -1.56277,-0.0175 -3.125717,-0.0253 -4.688665,-0.0234 -0.818483,0.60909 -1.646419,1.20534 -2.483451,1.78893 -1.071572,0.75303 -3.385584,2.61668 -4.643896,2.34736 -1.844396,-0.39452 -0.587867,-4.91571 -0.292864,-6.10464 -0.713787,-0.42039 -1.380309,-0.9164 -1.98833,-1.4793 -3.973682,-3.64545 -3.232196,-7.95903 -3.3187,-12.85922 -0.03014,-3.76192 -0.06581,-7.55684 2.720845,-10.44801 3.346524,-3.47227 7.189595,-3.81472 11.706322,-3.97987 z"
       id="path90"
       style="stroke-width:0.178358" /><path
       fill="#fefefe"
       d="m 45.706652,164.58901 c 2.336128,-0.14393 4.92909,-0.0858 7.285729,-0.0988 4.548297,-0.025 9.435473,0.23936 12.813388,3.68059 2.852473,2.90598 2.887609,5.76719 2.893852,9.59207 l -0.0037,4.96637 c -0.01998,3.36489 -0.476036,6.01689 -2.983387,8.46735 -3.951334,3.86162 -9.940939,3.56911 -15.079243,3.50686 -1.847428,-0.0152 -3.694677,-0.0515 -5.541392,-0.10879 -1.594695,1.14487 -4.577012,3.51667 -6.364334,4.13932 -2.496827,0.87003 -0.896246,-4.72701 -0.661349,-5.86797 -0.694525,-0.39916 -1.456825,-0.98792 -2.047011,-1.51443 -2.379468,-2.12335 -3.106275,-4.63516 -3.223635,-7.74607 -0.05921,-1.57329 -0.02961,-3.14391 -0.03335,-4.72327 -0.0089,-3.72713 -0.18906,-7.41218 2.538563,-10.33618 2.789156,-2.99016 6.479018,-3.77404 10.405917,-3.95704 z"
       id="path91"
       style="stroke-width:0.178358" /><path
       fill="#3c2031"
       d="m 47.840344,165.8286 c 0.262186,-0.007 0.52455,-0.01 0.786914,-0.0102 1.826916,-0.0162 3.653833,-0.008 5.480572,0.0241 4.079394,0.0658 7.590542,0.18567 10.717329,3.24557 3.079344,3.01353 2.494331,7.18122 2.525543,11.13879 0.02907,3.69361 0.265931,7.26165 -2.572095,10.01585 -3.216679,3.12162 -6.901725,3.1325 -11.086529,3.1168 l -5.066247,-0.0278 c -1.261167,-0.0394 -2.522868,-0.0651 -3.784748,-0.0769 -1.639642,1.05927 -3.183505,2.22091 -4.776417,3.34617 -0.463194,0.32729 -0.976864,0.69024 -1.481438,0.93977 0.263078,-1.78501 0.567177,-3.56359 0.911943,-5.33468 -5.956431,-3.66988 -5.437945,-6.95327 -5.397636,-13.36077 0.02265,-3.59997 -0.30731,-6.80648 2.43137,-9.64219 3.113589,-3.22399 7.124494,-3.28891 11.311439,-3.37452 z"
       id="path92"
       style="stroke-width:0.178358" /><path
       fill="#a6d6ad"
       d="m 39.921088,191.93212 c -3.214717,-1.87257 -5.574744,-4.40757 -5.391571,-8.2938 0.207965,-4.40989 -1.087803,-10.66989 2.241955,-14.09471 4.030881,-4.13843 10.013173,-3.12911 15.132214,-3.32673 7.108264,-0.27449 14.830612,0.71504 15.025736,9.60723 0.130379,1.34518 0.05886,2.91526 0.0676,4.27916 0.02069,3.20937 0.265396,6.65969 -1.990649,9.28102 -4.397585,5.10905 -12.124214,3.27981 -18.055495,3.50294 -0.750529,0.0282 -1.520142,-0.0735 -2.259613,-0.0332 -1.805335,1.14845 -3.753179,2.55373 -5.528015,3.77887 0.121283,-0.7038 0.240604,-1.50855 0.407369,-2.19505 z"
       id="path93"
       style="stroke-width:0.178358" /><path
       fill="#97c79c"
       d="m 66.929422,175.82411 c 0.130379,1.34518 0.05886,2.91526 0.0676,4.27916 0.02069,3.20937 0.265396,6.65969 -1.990649,9.28102 -4.397585,5.10905 -12.124214,3.27981 -18.055495,3.50294 -0.750529,0.0282 -1.520142,-0.0735 -2.259613,-0.0332 -1.805335,1.14845 -3.753179,2.55373 -5.528015,3.77887 0.121283,-0.7038 0.240604,-1.50855 0.407369,-2.19505 0.0255,0.11611 0.0034,0.0396 0.09756,0.21777 0.830433,-0.23525 2.215737,-2.73993 3.533799,-2.9256 1.175377,-0.16533 2.505389,-0.074 3.68576,-0.084 4.399903,-0.0187 9.258721,-0.1063 13.106786,-2.39374 4.831885,-2.87209 6.102148,-7.39078 6.764925,-12.60506 0.02693,-0.21207 0.129666,-0.56807 0.169975,-0.82313 z"
       id="path94"
       style="stroke-width:0.178358" /><path
       fill="#37182b"
       d="m 50.119397,177.77767 c 0.721992,-0.19727 1.49428,0.009 2.021683,0.54024 0.527404,0.53115 0.728234,1.30486 0.525977,2.02543 -0.202258,0.72056 -0.776391,1.27668 -1.503019,1.45593 -1.104391,0.27218 -2.222336,-0.39417 -2.508243,-1.49499 -0.285907,-1.10082 0.366346,-2.22697 1.463602,-2.52661 z"
       id="path95"
       style="stroke-width:0.178358" /><path
       fill="#8b4b6f"
       d="m 50.158814,178.22392 c 0.861289,-0.28181 1.7875,0.18959 2.06663,1.05159 0.279129,0.862 -0.194767,1.78679 -1.057661,2.06342 -0.859327,0.27556 -1.779474,-0.19619 -2.057355,-1.05463 -0.278059,-0.85843 0.190843,-1.77983 1.048386,-2.06038 z"
       id="path96"
       style="stroke-width:0.178358" /><path
       fill="#37182b"
       d="m 57.116722,177.7823 c 1.112416,-0.28911 2.247306,0.38365 2.527506,1.49838 0.280199,1.11474 -0.401662,2.24428 -1.518715,2.51538 -1.104212,0.26807 -2.218055,-0.40451 -2.495045,-1.50658 -0.276989,-1.1019 0.386501,-2.22127 1.486254,-2.50718 z"
       id="path97"
       style="stroke-width:0.178358" /><path
       fill="#8b4b6f"
       d="m 57.123143,178.22909 c 0.863429,-0.27556 1.78643,0.20386 2.057533,1.06872 0.271104,0.86503 -0.212959,1.78536 -1.079242,2.05218 -0.86004,0.26486 -1.772517,-0.2151 -2.041659,-1.07371 -0.26932,-0.85879 0.206003,-1.77359 1.063368,-2.04719 z"
       id="path98"
       style="stroke-width:0.178358" /><path
       fill="#37182b"
       d="m 43.279027,177.77463 c 0.723418,-0.16819 1.481438,0.0655 1.984585,0.61177 0.503147,0.54631 0.673656,1.32092 0.446429,2.0281 -0.227049,0.70719 -0.816878,1.23745 -1.544042,1.3887 -1.106174,0.22972 -2.191123,-0.47283 -2.434046,-1.57615 -0.242923,-1.10314 0.446786,-2.19647 1.547074,-2.45242 z"
       id="path99"
       style="stroke-width:0.178358" /><path
       fill="#8b4b6f"
       d="m 43.241393,178.23301 c 0.563967,-0.18264 1.182511,-0.0425 1.612531,0.36546 0.430021,0.4079 0.602849,1.01806 0.450353,1.59095 -0.152495,0.5727 -0.605702,1.01628 -1.181619,1.15647 -0.84595,0.20564 -1.702958,-0.29429 -1.940174,-1.13204 -0.237037,-0.83757 0.230795,-1.71277 1.058909,-1.98084 z"
       id="path100"
       style="stroke-width:0.178358" /></g></svg>
