<?xml version="1.0" encoding="UTF-8"?>
<!-- BuzzyHive favicon — mark on a deep-plum rounded tile for legibility on any browser chrome. -->
<svg xmlns="http://www.w3.org/2000/svg" xmlns:xlink="http://www.w3.org/1999/xlink" viewBox="0 0 64 64">
  <rect width="64" height="64" rx="15" fill="#1c1426"/>
  <svg x="13" y="9" width="38" height="46" viewBox="0 0 376.44 458.95" preserveAspectRatio="xMidYMid meet">
    <defs>
      <style>
        .fav-1 { fill: url(#bh-f-2); }
        .fav-2 { fill: #fff; }
        .fav-3 { fill: url(#bh-f-4); }
        .fav-4 { fill: url(#bh-f-3); }
        .fav-5 { fill: url(#bh-f-5); }
        .fav-6 { fill: url(#bh-f-1); }
      </style>
      <linearGradient id="bh-f-1" x1="90.94" y1="261.83" x2="155.8" y2="261.83" gradientTransform="translate(450.05 303.14) rotate(90)" gradientUnits="userSpaceOnUse">
        <stop offset="0" stop-color="#b8a0cd"/>
        <stop offset="1" stop-color="#684a9e"/>
      </linearGradient>
      <linearGradient id="bh-f-2" x1="113.47" y1="330.15" x2="262.97" y2="330.15" gradientTransform="matrix(1,0,0,1,0,0)" xlink:href="#bh-f-1"/>
      <linearGradient id="bh-f-3" x1="92" y1="219.11" x2="283.91" y2="219.11" gradientTransform="translate(-1.38 1.28) rotate(-.39)" xlink:href="#bh-f-1"/>
      <linearGradient id="bh-f-4" x1="89.48" y1="21.95" x2="137.72" y2="21.95" gradientTransform="matrix(1,0,0,1,0,0)" xlink:href="#bh-f-1"/>
      <linearGradient id="bh-f-5" x1="136.24" y1="21.95" x2="184.48" y2="21.95" gradientTransform="translate(422.63) rotate(-180) scale(1 -1)" xlink:href="#bh-f-1"/>
    </defs>
    <path class="fav-6" d="M239.72,429.12v-2.6c0-9.69-6.17-18.31-15.35-21.42l-28.87-9.82c-4.72-1.61-9.84-1.61-14.56,0l-28.87,9.82c-9.17,3.12-15.35,11.73-15.35,21.42v2.6c0,9.69,6.17,18.31,15.35,21.42l13.89,4.72c14.44,4.91,30.1,4.91,44.54,0l13.89-4.72c9.17-3.12,15.35-11.73,15.35-21.42Z"/>
    <path class="fav-1" d="M249.07,311.75l-48.34-26c-7.81-4.2-17.21-4.2-25.02,0l-48.34,26c-8.56,4.6-13.9,13.54-13.9,23.26v30.28c0,9.37,10,15.35,18.25,10.91l37.77-20.31c11.69-6.29,25.76-6.29,37.46,0l37.77,20.31c8.25,4.44,18.25-1.54,18.25-10.91v-30.28c0-9.72-5.34-18.66-13.9-23.26Z"/>
    <path class="fav-4" d="M265.99,194.62l-59.79-31.64c-11.61-6.15-25.54-6.05-37.07.25l-59.36,32.44c-10.95,5.98-17.73,17.5-17.64,29.98l.26,38.86c.08,12.03,12.97,19.61,23.53,13.85l54.32-29.69c11.2-6.12,24.73-6.21,36.01-.24l54.71,28.95c10.63,5.63,23.42-2.13,23.34-14.16l-.26-38.86c-.08-12.48-7.02-23.9-18.05-29.74Z"/>
    <path class="fav-2" d="M342.79,127.57l-122.43-68.55c-19.97-11.18-44.31-11.18-64.28,0L33.65,127.57C12.87,139.2,0,161.16,0,184.97v133.65c0,23.81,12.87,45.77,33.65,57.4l43.72,24.7c5.06,2.86,11.16-1.48,10.12-7.2l-7.42-40.93c-.37-2.05-1.66-3.82-3.49-4.81l-12.11-6.53c-12.94-6.98-21-20.5-21-35.2v-108.5c0-14.7,8.07-28.22,21-35.2l104.75-56.53c11.86-6.4,26.14-6.4,37.99,0l104.75,56.53c12.94,6.98,21,20.5,21,35.2v108.5c0,14.7-8.07,28.22-21,35.2l-12.1,6.53c-1.84.99-3.13,2.77-3.49,4.83l-7.23,40.33c-1.02,5.69,5.02,10.01,10.08,7.21l43.57-24.13c20.78-11.63,33.65-33.59,33.65-57.4v-133.65c0-23.81-12.87-45.77-33.65-57.4Z"/>
    <path class="fav-3" d="M98.06,33.81l11.62,7.28c8.57,5.37,19.86,2.78,25.23-5.79h0c5.37-8.56,2.78-19.86-5.79-25.23l-11.62-7.28c-8.57-5.37-19.86-2.78-25.23,5.79h0c-5.37,8.56-2.78,19.86,5.79,25.23Z"/>
    <path class="fav-5" d="M277.81,33.81l-11.62,7.28c-8.57,5.37-19.86,2.78-25.23-5.79h0c-5.37-8.56-2.78-19.86,5.79-25.23l11.62-7.28c8.57-5.37,19.86-2.78,25.23,5.79h0c5.37,8.56,2.78,19.86-5.79,25.23Z"/>
  </svg>
</svg>
