<svg xmlns="http://www.w3.org/2000/svg" viewBox="0 0 64 64">
  <defs>
    <linearGradient id="hm-fav-head" x1="0" y1="0" x2="1" y2="1">
      <stop offset="0%" stop-color="#2563eb"/>
      <stop offset="100%" stop-color="#a855f7"/>
    </linearGradient>
  </defs>
  <!-- Brand-plum HEXAGON tile (pointy-top — point up/down, flat sides);
       stroke gives softly rounded corners. -->
  <polygon points="32,2 58,17 58,47 32,62 6,47 6,17"
           fill="#1c1426" stroke="#1c1426" stroke-width="3" stroke-linejoin="round"/>
  <!-- HiveMind mark (white body + gradient head), centred in the hexagon. -->
  <svg x="14" y="14" width="36" height="36" viewBox="0 50 324 343" preserveAspectRatio="xMidYMid meet">
    <path fill="#ffffff" d="M323.98,136.55c-.02-1.47-2.04-1.83-2.59-.46-2.8,7.03-7.85,13.08-14.55,17.09l-123.27,73.69-4.35,2.42c-4.73,2.63-9.91,4.08-15.13,4.37-.13,0-.25.01-.38.02-.47.02-.93.02-1.4.02-.47,0-.93,0-1.4-.02-.13,0-.25-.01-.38-.02-5.23-.28-10.41-1.73-15.13-4.37l-4.35-2.42L17.78,153.18c-6.7-4.01-11.75-10.06-14.55-17.09-.55-1.37-2.57-1.01-2.59.46l-.64,42.1c.7,11.48,7.01,21.96,16.98,27.92l96.77,57.85v.18l4.53,2.52,25.12,15.02c5.81,3.48,12.37,5.11,18.91,4.94,6.54.17,13.1-1.46,18.91-4.94l25.12-15.02,4.53-2.52v-.18l96.77-57.85c9.97-5.96,16.28-16.44,16.98-27.92l-.64-42.1Z"/>
    <path fill="#ffffff" d="M323.98,227.14c0-.17-.04-.31-.08-.45-.01-.03-.02-.06-.03-.08-.05-.13-.12-.24-.21-.34-.01-.02-.03-.03-.05-.04-.08-.08-.18-.16-.28-.21-.02-.01-.03-.02-.05-.03-.11-.06-.23-.1-.36-.12-.03,0-.05,0-.08-.01-.13-.02-.26-.03-.39,0-.13.02-.26.06-.38.12-.04.02-.07.04-.1.06-.09.05-.17.11-.24.19-.03.03-.06.06-.09.09-.1.11-.18.24-.24.39-2.8,7.03-7.85,13.08-14.55,17.09l-123.27,73.69s0,0,0,0l-4.35,2.42c-4.73,2.63-9.91,4.08-15.13,4.37-.13,0-.25.01-.38.02-.47.02-.93.02-1.4.02-.47,0-.93,0-1.4-.02-.13,0-.25-.01-.38-.02-5.23-.28-10.41-1.73-15.13-4.37l-4.35-2.42L17.78,243.77c-.84-.5-1.65-1.03-2.43-1.6-.71-.51-1.38-1.05-2.05-1.6-.2-.16-.39-.33-.58-.5-.48-.42-.95-.85-1.4-1.3-.18-.18-.36-.35-.54-.53-.6-.61-1.18-1.24-1.73-1.89-2.45-2.89-4.41-6.16-5.81-9.68-.14-.34-.37-.58-.63-.71-.13-.07-.28-.11-.42-.13h0c-.29-.04-.59.01-.85.15-.13.07-.25.16-.35.27-.2.22-.33.52-.34.88l-.32,21.05L0,269.24c.05.82.14,1.63.24,2.44.03.25.08.5.12.76.09.56.18,1.12.3,1.68.06.28.12.56.18.83.13.55.27,1.1.42,1.64.07.24.13.49.2.73.24.77.49,1.53.78,2.29.25.66.52,1.31.81,1.95.26.58.54,1.14.83,1.7.09.17.18.33.27.5.22.41.45.82.69,1.22.1.16.19.32.29.48.33.54.67,1.07,1.03,1.59.38.54.77,1.08,1.18,1.6.13.17.27.33.41.5.28.35.57.69.86,1.03.17.19.34.38.52.57.28.3.56.61.85.9.19.19.38.38.57.57.29.28.59.56.89.84.2.18.4.36.6.54.32.27.64.54.96.8.2.16.4.33.61.48.36.28.73.55,1.11.81.18.13.36.26.54.38.56.38,1.13.75,1.72,1.1l96.77,57.85v.18l4.53,2.52,1.35.8c14.07,8.41,26.15,19.75,35.44,33.25l3.65,5.31c1.73,2.52,5.45,2.52,7.18,0l3.65-5.3c9.29-13.5,21.38-24.84,35.44-33.25l1.35-.81,4.53-2.52v-.18l96.77-57.85c9.97-5.96,16.28-16.44,16.98-27.92l-.64-42.1Z"/>
    <path fill="url(#hm-fav-head)" d="M300.35,104.93l-81.66-47.45c-34.96-20.31-78.12-20.33-113.08-.04L24.27,104.63c-5.18,3-5.23,10.46-.09,13.54l76.11,45.54c38.29,22.91,86.06,22.92,124.36.04l75.79-45.28c5.14-3.07,5.09-10.53-.08-13.54Z"/>
  </svg>
</svg>
