<?xml version="1.0" encoding="UTF-8" standalone="no"?>
<!-- Created with Inkscape (http://www.inkscape.org/) -->

<svg
   width="43.903198mm"
   height="46.526287mm"
   viewBox="0 0 43.903198 46.526287"
   version="1.1"
   id="svg1"
   xml:space="preserve"
   xmlns="http://www.w3.org/2000/svg"
   xmlns:svg="http://www.w3.org/2000/svg"><defs
     id="defs1" /><g
     id="layer1"
     transform="translate(-83.143007,-94.226378)"><path
       fill="#3e2036"
       d="m 107.03145,94.226395 c 1.49508,0.31189 2.61563,0.81786 3.56383,2.122978 0.1963,0.27003 0.37817,0.755069 0.59302,0.975945 l 0.34043,-0.441117 c 0.019,-0.127167 0.29286,-0.855756 0.35296,-1.023514 0.53308,0.31966 0.71495,0.472037 1.13308,0.913948 0.52912,0.66453 0.74888,1.077107 1.12293,1.844703 0.83149,0.308719 1.79935,0.863208 2.56029,1.331598 3.81816,2.369704 6.81179,5.860274 8.57198,9.995074 2.30358,5.44516 2.36891,11.57878 0.18219,17.07183 -2.2243,5.44705 -6.51671,9.79053 -11.93713,12.0792 -5.20732,2.20242 -11.49998,2.1994 -16.719189,0.0393 -5.535218,-2.30437 -9.908023,-6.74234 -12.130419,-12.31102 -2.094596,-5.11439 -2.006436,-11.48729 0.132398,-16.56617 1.936986,-4.59939 4.871481,-8.05206 9.192595,-10.603158 0.981495,-0.579383 1.884661,-0.946136 2.854739,-1.457496 0.942647,-0.496773 1.141483,-1.086304 2.320546,-1.55406 0.702585,-0.277007 1.43783,-0.462524 2.18767,-0.551952 1.44227,-0.157927 2.90976,-0.0176 4.31636,-0.398306 0.8705,-0.235781 1.08741,-0.650895 1.36172,-1.467803 z"
       id="path36"
       style="stroke-width:0.158561" /><path
       fill="#935e4a"
       d="m 111.88169,95.860687 c 0.53308,0.31966 0.71495,0.472037 1.13308,0.913948 l -0.24768,0.317598 c 1.93826,2.749296 1.26374,4.536127 -0.98228,6.676387 -1.65237,-0.34107 -3.25432,0.41067 -4.9357,0.60808 2.56171,-1.71706 4.83628,-3.16409 4.30367,-6.719037 0.0487,-0.03044 0.0974,-0.06089 0.14603,-0.09133 0.18441,-0.304597 0.24229,-0.340907 0.22992,-0.682131 0.019,-0.127167 0.29286,-0.855756 0.35296,-1.023514 z"
       id="path37"
       style="stroke-width:0.158561" /><path
       fill="#3e2036"
       d="m 111.88169,95.860687 c 0.53308,0.31966 0.71495,0.472037 1.13308,0.913948 l -0.24768,0.317598 -0.64788,-0.623622 c -0.25338,0.560356 -0.29952,0.759985 -0.8204,1.097721 0.18441,-0.304597 0.24229,-0.340907 0.22992,-0.682131 0.019,-0.127167 0.29286,-0.855756 0.35296,-1.023514 z"
       id="path38"
       style="stroke-width:0.158561" /><path
       fill="#fdeac2"
       d="m 114.23918,99.261987 c 1.84391,0.823253 3.91789,2.241423 5.39283,3.605523 4.22471,3.8911 6.70825,9.31691 6.89218,15.05762 0.20058,6.18628 -1.91431,11.30844 -6.09969,15.78431 -0.49218,-0.83958 -0.72162,-1.32414 -1.30036,-2.15057 -2.09222,-2.63513 -3.3799,-2.94464 -6.52687,-3.91202 -1.40152,-0.43081 -2.83745,-0.87161 -4.29067,-1.17288 -0.0904,-0.65518 -0.0966,-1.10089 -0.10718,-1.76764 3.72349,-1.42388 4.79473,-3.60743 5.55075,-7.2786 0.46903,-0.0155 0.89714,-0.0425 1.34191,-0.2093 0.8621,-0.32014 1.55057,-0.98689 1.89829,-1.83821 0.69672,-1.72895 -0.22547,-3.12508 -1.85659,-3.7514 0.16966,-1.86658 0.326,-3.76028 0.388,-5.63368 0.0591,-1.78461 0.13557,-3.49692 -1.36014,-4.76461 0.0985,-0.72859 0.10021,-1.237575 0.0775,-1.968543 z"
       id="path39"
       style="stroke-width:0.158561" /><path
       fill="#fdeac2"
       d="m 96.24056,99.093119 c 0.01808,0.03583 0.03631,0.07151 0.05439,0.107187 -0.255918,0.717174 -0.437629,1.190794 -0.463158,1.948874 -1.460825,1.18588 -1.472876,2.52161 -1.472718,4.26626 3.18e-4,2.07556 0.199471,4.12735 0.415907,6.18849 -0.446033,0.17774 -0.805492,0.33377 -1.163206,0.66627 -0.558295,0.51057 -0.879064,1.23044 -0.885565,1.98693 -0.0021,0.85655 0.345663,1.67679 0.962626,2.27108 0.763473,0.7381 1.50332,0.90158 2.504318,0.88081 0.816591,3.97687 1.680592,5.61687 5.513336,7.29097 -0.006,0.64471 -0.0309,1.12975 -0.0879,1.77255 -1.50585,0.30428 -2.735969,0.66184 -4.187598,1.11199 -3.021228,0.93694 -4.401187,1.23884 -6.450593,3.77408 -0.507238,0.63314 -0.989581,1.49127 -1.409135,2.19909 -1.553425,-1.68297 -2.787191,-3.39797 -3.790568,-5.47005 -2.489572,-5.15959 -2.820172,-11.0985 -0.918546,-16.50259 2.00485,-5.75419 5.944783,-9.88186 11.378364,-12.491941 z"
       id="path40"
       style="stroke-width:0.158561" /><path
       fill="#71bfb5"
       d="m 98.73473,127.62798 c 0.05518,0.0195 0.110517,0.0392 0.165696,0.0588 0.329174,0.6195 0.966273,1.69185 1.520924,2.12329 3.47376,2.70205 8.7843,2.02594 10.66008,-2.16848 4.52883,1.34793 6.84573,1.78349 9.01738,6.436 -1.37917,1.31352 -2.23857,1.9354 -3.78153,2.97033 -0.0124,-0.52943 0.0311,-2.87043 -0.10719,-3.12397 l -0.17758,-0.0147 c -0.25243,0.26289 -0.13621,2.80749 -0.12891,3.37006 -0.69292,0.45809 -1.53393,0.86274 -2.28694,1.20983 -6.19657,2.75405 -13.81402,2.27821 -19.553782,-1.36094 0.0032,-0.75792 0.08023,-2.70331 -0.105919,-3.32408 l -0.110676,-0.0128 c -0.348359,0.41939 -0.177272,2.46135 -0.158086,3.14078 -1.596395,-1.06378 -2.416475,-1.71072 -3.770906,-3.05199 2.493536,-4.61635 4.176665,-4.78887 8.817439,-6.25207 z"
       id="path41"
       style="stroke-width:0.158561" /><path
       fill="#935e4a"
       d="m 107.35936,94.696054 c 2.10553,0.668336 3.63327,1.835189 3.46869,4.299074 -0.12495,1.870552 -1.59878,3.348812 -3.10416,4.283372 -0.62759,0.38959 -1.48223,0.77077 -2.01849,1.2631 -1.23138,0.17854 -2.56314,-0.12764 -3.78676,-0.35216 0.002,-0.0614 0.003,-0.12257 0.005,-0.18393 0.10624,-3.96911 4.90684,-3.88634 4.96154,-7.091658 l -0.0877,-0.07056 c -0.30793,0.189164 -0.41385,0.623146 -0.55227,0.978958 -1.72721,2.71964 -4.58766,2.26632 -4.74463,6.27633 -1.49825,-0.38609 -2.586454,-0.73239 -4.017629,0.003 -3.222443,-3.96419 0.392598,-7.541814 4.475549,-7.651539 1.30163,-0.03504 2.74216,-0.07912 3.99845,-0.407344 0.69545,-0.181711 1.07282,-0.748885 1.40279,-1.346503 z"
       id="path42"
       style="stroke-width:0.158561" /><path
       fill="#fbc6a6"
       d="m 103.97978,112.2878 -0.12621,0.0373 c -0.51295,-0.97182 -0.29493,-1.229 -1.40105,-1.88719 -0.17299,-0.10307 0.2131,-0.65264 -0.46665,-0.77347 -1.24153,-0.40766 -2.792422,-0.36595 -3.995744,0.10973 -0.657713,0.25988 -0.743336,2.05606 -1.768911,1.9974 l -0.205178,-0.14699 c 0.09958,-0.72494 0.400367,-1.44116 0.496772,-2.1994 0.2954,-2.32436 -0.293972,-5.94066 3.359916,-5.27677 2.318805,0.50581 4.379625,1.0565 6.776435,0.70655 1.35919,-0.19836 3.03582,-0.78091 4.37534,-0.78868 2.80464,-0.0162 2.06511,4.04315 2.47467,5.8257 0.0909,0.39545 0.42352,1.53963 0.22611,1.87388 -0.66215,0.0506 -1.39439,-1.70676 -1.953,-2.01674 -0.88763,-0.49265 -3.56287,-0.59366 -4.24104,0.21437 -0.0111,0.1592 -0.0147,0.25735 -0.0108,0.4167 -0.3287,0.29762 -0.79868,0.6352 -1.05602,0.96818 -0.20724,0.26812 -0.22278,0.91379 -0.48282,1.02002 -0.90015,-0.36564 -1.10422,-0.3815 -2.00184,-0.0806 z"
       id="path43"
       style="stroke-width:0.158561" /><path
       fill="#f99477"
       d="m 103.97978,112.2878 c 0.29429,-0.47996 0.43287,-0.86622 0.95391,-1.02906 0.60855,0.0374 0.79883,0.62315 1.04793,1.10961 -0.90015,-0.36564 -1.10422,-0.3815 -2.00184,-0.0806 z"
       id="path44"
       style="stroke-width:0.158561" /><path
       fill="#935e4a"
       d="m 96.47301,116.51727 c 0.101321,0.12859 0.365643,0.7121 0.466647,0.91284 0.561465,1.07679 1.119284,2.46372 2.133443,3.19881 1.77589,1.24075 1.54692,-0.6742 2.09745,-1.69232 0.81643,-1.50982 2.65749,-0.86638 3.81673,-0.91236 2.25665,-0.0894 3.59506,-0.39815 4.26149,2.23302 0.0722,0.28461 0.16126,0.5456 0.42875,0.71622 1.64682,0.30745 3.14269,-3.15189 3.66404,-4.30352 l 0.0617,-0.0121 -0.0996,0.59318 c -0.2177,1.72705 -0.54101,3.15632 -1.65855,4.53359 -1.41183,1.74005 -3.49723,2.8281 -5.71423,3.07038 -2.34703,0.24989 -4.69691,-0.44413 -6.531461,-1.92922 -2.018328,-1.64269 -2.665575,-3.88126 -2.926409,-6.40857 z"
       id="path45"
       style="stroke-width:0.158561" /><path
       fill="#3e2036"
       d="m 102.26431,118.6894 c 0.85591,-0.0393 1.81965,0.0426 2.69046,0.0247 0.96041,-0.0198 1.88387,-0.0582 2.84555,-0.0398 0.91696,0.89159 1.24661,2.26774 0.60427,3.46203 -0.33979,0.6317 -0.87224,0.81627 -1.52964,0.99069 -0.78852,0.0325 -0.81278,-0.13779 -1.17145,-0.77679 -0.41844,-0.0323 -0.90412,-0.0216 -1.32858,-0.0235 -0.13383,0.17822 -0.4351,0.6084 -0.62696,0.66263 -1.93175,0.5464 -2.85743,-1.85993 -2.27503,-3.37784 0.18107,-0.47156 0.37372,-0.73096 0.79138,-0.92219 z"
       id="path46"
       style="stroke-width:0.158561" /><path
       fill="#fbc6a6"
       d="m 107.94191,119.39976 c 1.05887,1.11532 -0.0244,4.03966 -1.62034,3.20515 -0.4167,-0.65612 -0.82547,-0.87906 -1.63841,-0.71178 -0.66818,0.13763 -0.77616,0.31713 -1.11754,0.87812 -0.10988,-0.03 -0.21945,-0.0607 -0.3287,-0.0924 -0.68086,-0.19756 -1.04682,-0.31902 -1.3947,-0.94835 -0.23087,-0.9704 -0.12337,-1.43847 0.1121,-2.35527 0.38102,0.85036 0.85512,1.53202 1.73101,1.93572 0.76633,0.34407 1.63842,0.36691 2.42155,0.0634 0.94186,-0.37024 1.44481,-1.09455 1.83503,-1.97456 z"
       id="path47"
       style="stroke-width:0.158561" /><path
       fill="#d2d1d1"
       d="m 102.45902,119.1042 c 1.69978,-0.0408 3.40019,-0.0453 5.10013,-0.0141 -0.19393,0.62061 -0.3065,0.87954 -0.72257,1.37489 -1.59671,1.15322 -4.14955,0.83118 -4.37756,-1.36077 z"
       id="path48"
       style="stroke-width:0.158561" /><path
       fill="#fbc6a6"
       d="m 109.75427,120.67744 c -0.52056,-1.52092 -0.67785,-3.08544 -2.74375,-3.08021 -1.64079,0.004 -3.50658,-0.19138 -5.1071,0.2334 -1.60956,0.42701 -1.08916,2.13012 -1.82203,2.74264 -1.270868,0.21184 -2.615468,-3.15331 -3.106533,-4.02825 -0.65248,-1.16289 -1.050152,-1.84629 -1.090743,-3.2226 -0.0097,-0.3306 -0.306341,-0.83975 -0.108456,-1.17383 l 0.191066,-0.0461 c 0.100845,0.0323 0.20169,0.0645 0.302535,0.0969 0.16316,0.44857 0.208033,1.38059 0.340907,1.82187 0.127483,0.42335 0.240221,0.74682 0.40893,1.02208 0.417175,0.68039 1.361091,1.19762 2.09634,1.37108 1.034774,0.24419 2.220494,0.1324 3.099244,-0.46252 1.16304,-0.78726 1.35094,-1.59957 1.58276,-2.8744 0.0536,-0.29493 0.14318,-0.29112 0.36421,-0.43002 l 0.82944,-0.19899 c 0.70321,0.20692 1.25517,0.27082 1.14053,1.17589 0.0936,0.26321 0.19471,0.52372 0.30364,0.78091 1.40819,3.29998 6.92121,2.68587 7.01603,-1.08821 0.0143,-0.56654 -0.0744,-0.94423 0.45332,-1.15464 0.18235,0.058 0.10909,0.002 0.19345,0.1343 0.16046,0.25291 -0.38214,2.91452 -0.45634,3.01949 -1.43609,2.03228 -1.37425,4.30081 -3.88745,5.36127 z"
       id="path49"
       style="stroke-width:0.158561" /><path
       fill="#f99477"
       d="m 104.99109,112.44843 c 0.70321,0.20692 1.25517,0.27082 1.14053,1.17589 -0.33124,-0.44112 0.0519,-0.29192 -0.22564,-0.45396 -0.10988,0.32616 0.17617,2.4975 0.33187,2.80923 -0.34978,0.36849 -0.72827,0.82309 -1.27784,0.79439 -0.60317,-0.0315 -0.89128,-0.49249 -1.25644,-0.73858 0.25845,-0.21659 0.70892,-3.05722 0.45808,-3.38798 z"
       id="path50"
       style="stroke-width:0.158561" /><path
       fill="#3e2036"
       d="m 106.23785,115.97959 c 0.39339,1.2409 -2.06764,1.72039 -2.58423,0.39212 0.0143,-0.10465 0.0277,-0.23594 0.0499,-0.33631 0.36516,0.24609 0.65327,0.70703 1.25644,0.73858 0.54957,0.0287 0.92806,-0.4259 1.27784,-0.79439 z"
       id="path51"
       style="stroke-width:0.158561" /><path
       fill="#fbc6a6"
       d="m 108.53557,110.7829 c 1.18825,-0.0373 2.30405,0.002 3.4931,0.0379 2.01024,1.51997 1.13974,4.27989 -1.0771,5.19527 -2.40253,0.37309 -4.62413,-0.6287 -4.45637,-3.54908 0.038,-0.65962 0.54957,-1.26849 1.07679,-1.65443 z"
       id="path52"
       style="stroke-width:0.158561" /><path
       fill="#3e2036"
       d="m 109.38133,112.235 c 1.44783,-0.0439 1.47002,1.60068 0.48536,2.41394 -1.36997,-0.1768 -1.37156,-1.60765 -0.48536,-2.41394 z"
       id="path53"
       style="stroke-width:0.158561" /><path
       fill="#fbc6a6"
       d="m 99.409408,110.78099 c 0.871132,-0.0187 2.019442,-0.0458 2.873292,0.0566 2.1994,1.36268 1.02843,4.62619 -1.45084,5.22856 -0.48187,0.0393 -0.870024,0.0778 -1.356807,-0.004 -0.851316,-0.13446 -1.611935,-0.60745 -2.109183,-1.31131 -0.961834,-1.36473 -0.712417,-2.96208 0.649467,-3.92883 z"
       id="path54"
       style="stroke-width:0.158561" /><path
       fill="#3e2036"
       d="m 99.955811,112.2331 c 1.389469,-0.0255 1.528369,1.62589 0.518969,2.39824 -1.359027,0.0393 -1.425306,-1.5891 -0.518969,-2.39824 z"
       id="path55"
       style="stroke-width:0.158561" /><path
       fill="#fbc6a6"
       d="m 102.12223,124.81177 c 2.21305,0.66469 3.45395,0.64757 5.68586,0.0566 l 0.0341,1.08424 c 0.0959,0.75174 0.0232,0.72986 0.68134,1.0695 -0.0729,0.40972 -0.2193,0.68403 -0.56829,0.95644 -1.80474,1.40913 -4.6709,1.35316 -6.26444,-0.35264 -0.12574,-0.13462 -0.27431,-0.39989 -0.25306,-0.58969 0.21469,-0.10925 0.28255,-0.14556 0.48789,-0.28763 0.15142,-0.31142 0.12574,-0.65248 0.13906,-1.00845 z"
       id="path56"
       style="stroke-width:0.158561" /><path
       fill="#f99477"
       d="m 102.12223,124.81177 c 2.21305,0.66469 3.45395,0.64757 5.68586,0.0566 l 0.0341,1.08424 c -0.21454,-0.0347 -0.9019,0.17045 -1.18208,0.22611 -1.68503,0.33488 -3.01251,0.15 -4.59542,-0.43858 z"
       id="path57"
       style="stroke-width:0.158561" /><path
       fill="#935e4a"
       d="m 113.96455,101.57682 c 0.36263,0.17474 0.53213,0.48362 0.71368,0.82421 0.19392,0.36358 0.36802,1.13926 0.39577,1.53677 0.0975,1.38979 -0.0517,6.49119 -0.45364,7.5518 l -0.14112,0.0205 c -0.20233,-0.15476 -0.26416,-0.40624 -0.3639,-0.65375 -0.29223,-1.23218 -0.38689,-2.15786 -0.4324,-3.43 -0.0515,-1.44243 -0.23102,-2.58423 -1.47271,-3.48724 0.90427,-0.90951 1.15924,-1.22837 1.75432,-2.36225 z"
       id="path58"
       style="stroke-width:0.158561" /><path
       fill="#935e4a"
       d="m 95.662762,101.74205 0.11353,0.066 c 0.350896,0.96357 0.790428,1.7567 1.384399,2.58693 -1.362676,1.90115 -0.620768,4.06091 -1.362201,6.49007 -0.119079,0.26099 -0.192334,0.4833 -0.439056,0.57843 l -0.09006,-0.0772 c -0.282556,-0.79534 -0.382133,-2.6754 -0.398782,-3.5662 -0.03441,-1.82552 -0.485514,-4.61667 0.792173,-6.07797 z"
       id="path59"
       style="stroke-width:0.158561" /><path
       fill="#fbc6a6"
       d="m 114.68759,111.9285 c 3.63502,1.09756 2.0234,5.1867 -0.69323,5.04114 l -0.13018,-0.0842 c 0.0209,-0.47172 0.0999,-0.90158 0.17473,-1.3668 l 0.13954,-0.91696 0.60586,-0.50201 c 0.26385,-0.15872 0.52722,-0.26812 0.64439,-0.54275 l -0.035,-0.14033 c -0.4186,-0.11353 -0.71907,0.18694 -1.04333,0.42098 z"
       id="path60"
       style="stroke-width:0.158561" /><path
       fill="#f99477"
       d="m 114.17845,114.60169 0.60586,-0.50201 c -0.006,0.43113 0.21041,1.23535 0.15333,1.47954 -0.29223,0.22642 -0.56036,0.0522 -0.89873,-0.0606 z"
       id="path61"
       style="stroke-width:0.158561" /><path
       fill="#fbc6a6"
       d="m 95.866989,115.74476 c 0.0769,0.42399 0.155073,0.7798 0.167599,1.21267 -0.471561,0.21248 -1.28292,-0.15031 -1.675676,-0.42161 -0.632819,-0.43795 -1.058714,-1.11595 -1.178745,-1.8761 -0.225475,-1.44528 0.650894,-2.4753 2.081752,-2.61261 0.07754,0.61236 0.174417,1.22219 0.290643,1.82837 -0.333138,-0.23784 -0.659774,-0.57399 -1.072826,-0.42479 l 0.0046,0.16792 c 0.180126,0.31094 0.50914,0.46014 0.827373,0.65755 0.556709,0.41131 0.502322,0.80534 0.555282,1.4686 z"
       id="path62"
       style="stroke-width:0.158561" /><path
       fill="#f5797b"
       d="m 95.311707,114.27616 c 0.556709,0.41131 0.502322,0.80534 0.555282,1.4686 -0.304121,0.053 -0.330442,0.0526 -0.640429,0.0423 -0.549733,-0.32965 -0.110518,-1.0205 0.08515,-1.51093 z"
       id="path63"
       style="stroke-width:0.158561" /><path
       fill="#71bfb5"
       d="m 103.60938,129.19552 c 0.49091,0.13033 0.76554,0.15872 1.26849,0.21754 -0.0135,0.4519 -0.01,1.07188 -0.10037,1.49508 l -0.13065,0.0747 c -0.59889,-0.0287 -0.91078,-0.10623 -1.50142,-0.23816 0.16173,-0.50359 0.31221,-1.03984 0.46395,-1.54914 z"
       id="path64"
       style="stroke-width:0.158561" /><path
       fill="#71bfb5"
       d="m 102.18677,128.62343 c 0.23102,0.0723 0.7806,0.36691 1.02367,0.48868 -0.10608,0.41607 -0.25116,1.09772 -0.48298,1.42896 l -0.18028,0.0208 c -0.53626,-0.23435 -0.83847,-0.40655 -1.34571,-0.70702 z"
       id="path65"
       style="stroke-width:0.158561" /><path
       fill="#71bfb5"
       d="m 106.29779,129.24245 c 0.25988,0.15507 0.46776,1.20206 0.55211,1.52917 l -0.93932,0.19725 c -0.38467,0.005 -0.36485,0.0683 -0.62045,-0.10798 -0.1565,-0.38388 -0.0674,-1.00703 -0.0633,-1.45195 0.35454,-0.0241 0.71955,-0.10227 1.07092,-0.16649 z"
       id="path66"
       style="stroke-width:0.158561" /><path
       fill="#71bfb5"
       d="m 107.61369,128.66037 c 0.27764,0.0725 0.87986,1.02875 1.0668,1.29799 -0.27843,0.16094 -0.62077,0.33076 -0.90951,0.48393 -0.29651,0.11543 -0.25132,0.15507 -0.48979,0.0829 -0.25671,-0.36247 -0.36898,-0.98546 -0.50581,-1.43434 z"
       id="path67"
       style="stroke-width:0.158561" /><path
       fill="#71bfb5"
       d="m 101.08112,127.62544 c 0.15365,0.1037 0.61141,0.57796 0.76918,0.73414 -0.26733,0.37706 -0.67055,0.9807 -1.0121,1.26136 -0.27938,-0.25227 -0.71511,-0.76078 -0.98038,-1.0557 0.42431,-0.34583 0.77568,-0.62521 1.2233,-0.9398 z"
       id="path68"
       style="stroke-width:0.158561" /><path
       fill="#71bfb5"
       d="m 108.75248,127.68776 c 0.49915,0.3279 0.84513,0.58192 1.31574,0.95089 -0.25639,0.29921 -0.55576,0.60491 -0.82753,0.89365 l -0.16998,0.10418 c -0.27701,-0.13557 -0.79217,-0.97817 -0.99037,-1.27547 z"
       id="path69"
       style="stroke-width:0.158561" /><path
       fill="#935e4a"
       d="m 109.4381,109.82106 c 0.86305,-0.0882 1.49206,0.10275 2.30136,0.35978 l -1.64983,0.0176 c -0.81025,0.0304 -1.62082,0.0544 -2.43154,0.072 0.67705,-0.25909 1.07156,-0.36358 1.78001,-0.44937 z"
       id="path70"
       style="stroke-width:0.158561" /><path
       fill="#935e4a"
       d="m 99.817862,109.82075 c 0.947088,-0.0812 1.517278,0.10179 2.356538,0.45649 -0.55322,-0.0677 -0.91743,-0.0771 -1.47652,-0.0845 -0.83784,0.0301 -1.676471,0.0314 -2.514468,0.004 0.627744,-0.18124 0.99196,-0.29302 1.63445,-0.37579 z"
       id="path71"
       style="stroke-width:0.158561" /><path
       fill="#71bfb5"
       d="m 109.00681,127.15436 c 0.43858,-0.039 1.16067,0.12589 1.53757,0.41575 0.0679,0.24783 0.0309,0.19059 -0.12289,0.49835 l -0.10036,0.1397 -0.14001,-8e-4 c -0.40893,-0.24371 -0.89191,-0.66738 -1.17431,-1.053 z"
       id="path72"
       style="stroke-width:0.158561" /><path
       fill="#71bfb5"
       d="m 100.7066,127.08744 0.0975,0.0173 0.0477,0.10465 c -0.23641,0.30745 -0.874941,0.76141 -1.207602,1.01717 l -0.347567,-0.76062 c 0.464585,-0.13969 0.939789,-0.25734 1.409929,-0.37849 z"
       id="path73"
       style="stroke-width:0.158561" /></g></svg>
