<?xml version="1.0" encoding="UTF-8" standalone="no"?>
<!-- Created with Inkscape (http://www.inkscape.org/) -->

<svg
   width="44.042355mm"
   height="47.08847mm"
   viewBox="0 0 44.042355 47.08847"
   version="1.1"
   id="svg1"
   xml:space="preserve"
   xmlns="http://www.w3.org/2000/svg"
   xmlns:svg="http://www.w3.org/2000/svg"><defs
     id="defs1"><linearGradient
       id="gradient_0"
       gradientUnits="userSpaceOnUse"
       x1="919.22369"
       y1="771.16449"
       x2="902.70154"
       y2="759.32349"
       gradientTransform="matrix(0.15856136,0,0,0.15856136,23.771517,70.944355)"><stop
         offset="0"
         stop-color="#371732"
         id="stop89" /><stop
         offset="1"
         stop-color="#522C3D"
         id="stop90" /></linearGradient></defs><g
     id="layer1"
     transform="translate(-132.36314,-160.21032)"><path
       fill="#3e2036"
       d="m 155.70725,160.24976 c 0.30159,-0.0408 0.33314,-0.0507 0.63028,-0.0262 0.75999,0.67198 -0.92996,2.98761 2.79497,3.90188 0.081,-0.57558 0.1205,-1.11533 0.16538,-1.69487 0.84243,0.32537 1.85231,0.8686 2.36557,1.60988 0.75761,1.09407 1.84962,1.3752 2.99824,2.00056 2.04671,1.11453 3.82878,2.42219 5.46482,4.0958 4.10594,4.15399 6.36782,9.7853 6.27633,15.62527 -0.0744,5.81175 -2.48846,11.34808 -6.69668,15.35715 -4.56038,4.38834 -9.95401,6.28156 -16.21211,6.17533 -3.44664,-0.21247 -6.05355,-0.80327 -9.17309,-2.40157 -5.24822,-2.6789 -9.20084,-7.35313 -10.97054,-12.97349 -1.70374,-5.46371 -1.18794,-11.37837 1.43577,-16.4647 1.90068,-3.65262 4.88433,-6.91692 8.487,-8.96664 0.64962,-0.54847 3.02376,-1.24487 3.48708,-1.67203 1.48905,-1.37298 1.61241,-1.83075 3.66071,-2.47467 0.0341,0.38705 0.0574,1.2011 0.27716,1.4789 0.47172,-0.10116 0.97452,-1.11183 1.32431,-1.49301 1.09597,-1.19476 2.15373,-1.64587 3.6848,-2.07763 z"
       id="path74"
       style="stroke-width:0.158561" /><path
       fill="#fdeac2"
       d="m 146.08987,165.69254 0.0557,0.0637 c -0.10148,0.30666 -0.25893,0.538 -0.38594,0.83134 -0.31823,0.73461 -0.42447,1.41389 -0.49043,2.20067 -0.54767,-0.50375 -0.65423,-0.74143 -0.97674,-1.38789 -2.24761,2.64798 -0.97277,9.27061 -0.5093,12.56551 -0.24846,0.15524 -0.47568,0.29556 -0.68926,0.49725 -0.56179,0.52199 -0.87907,1.25549 -0.87463,2.02229 0.0152,0.82341 0.36374,1.60528 0.9658,2.1669 0.82119,0.77347 1.59687,0.86955 2.6402,0.84196 0.0994,0.29683 0.20518,0.59144 0.31729,0.88367 1.01606,2.66335 2.57249,4.16842 5.11804,5.3145 -0.0528,0.57653 -0.0672,1.23503 -0.0929,1.82012 -3.84289,1.27547 -7.15445,1.40375 -9.82034,4.56879 -0.78377,1.05998 -1.14513,1.7456 -1.72641,2.90516 -2.10284,-2.0502 -3.6753,-4.16525 -4.8791,-6.8703 -2.30278,-5.1515 -2.46562,-11.00638 -0.45285,-16.27791 2.19021,-5.67666 6.29394,-9.69793 11.80093,-12.1458 z"
       id="path75"
       style="stroke-width:0.158561" /><path
       fill="#b77657"
       d="m 148.53901,172.91009 c 2.18862,-0.0736 3.85542,1.3427 5.93892,1.41183 2.02483,0.0672 5.01387,-2.44533 6.89234,-0.89476 1.25121,1.17811 1.06823,3.61821 1.15623,5.17877 0.0793,1.40676 -0.626,3.23735 0.60777,4.18269 l 0.0783,0.059 c -0.41496,2.76055 -1.43023,5.24885 -3.54734,7.11591 -3.03106,2.27425 -6.41967,2.6548 -9.72583,0.59984 -2.77245,-1.72324 -3.69147,-4.59241 -4.32445,-7.63806 1.33382,-1.0021 0.63599,-2.37651 0.69228,-3.73983 0.0834,-2.01801 -0.27796,-5.66095 2.23175,-6.27538 z"
       id="path76"
       style="stroke-width:0.158561" /><path
       fill="#3e2036"
       d="m 151.95537,185.92988 c 0.85164,0.001 4.5263,-0.0834 5.12931,0.0641 0.57811,0.50565 -0.39466,1.73213 -0.80375,2.11695 -1.6649,1.11865 -3.66657,0.76617 -4.55658,-1.09074 -0.21437,-0.4473 -0.28462,-0.9057 0.23102,-1.09027 z"
       id="path77"
       style="stroke-width:0.158561" /><path
       fill="#d2d1d1"
       d="m 151.96806,186.32407 c 0.9241,-0.0132 4.02492,-0.0851 4.78538,0.0227 l 0.0655,0.18108 c -0.0766,0.48123 -0.34868,0.81675 -0.66168,1.17716 -1.59925,1.21014 -3.72017,0.70544 -4.18919,-1.38091 z"
       id="path78"
       style="stroke-width:0.158561" /><path
       fill="#935e4a"
       d="m 153.3726,183.93486 c 0.40623,-0.58731 0.19265,-3.40732 1.0771,-3.88919 0.97531,0.42272 0.74461,3.10352 1.09265,4.01715 l 0.0915,0.0972 c 0.10814,1.05063 -1.98471,1.20903 -2.39158,0.34376 -0.005,-0.38863 -0.0541,-0.2602 0.13034,-0.56892 z"
       id="path79"
       style="stroke-width:0.158561" /><path
       fill="#3e2036"
       d="m 153.3726,183.93486 c 0.19598,0.31094 0.45856,0.75174 0.87177,0.79582 0.6658,0.071 0.97388,-0.46759 1.29798,-0.66786 l 0.0915,0.0972 c 0.10814,1.05063 -1.98471,1.20903 -2.39158,0.34376 -0.005,-0.38863 -0.0541,-0.2602 0.13034,-0.56892 z"
       id="path80"
       style="stroke-width:0.158561" /><path
       fill="#3e2036"
       d="m 149.81099,180.81612 c 1.28007,0.24212 1.35665,1.81791 0.26036,2.47863 -1.31352,-0.28573 -1.3048,-1.80015 -0.26036,-2.47863 z"
       id="path81"
       style="stroke-width:0.158561" /><path
       fill="#3e2036"
       d="m 158.6622,180.90365 c 1.41833,-0.0211 1.4112,1.50569 0.55259,2.31785 -1.31416,0.17489 -1.5325,-1.50015 -0.55259,-2.31785 z"
       id="path82"
       style="stroke-width:0.158561" /><path
       fill="#f99477"
       d="m 159.52081,183.54591 c 0.5667,0.0227 1.72785,0.0758 1.42975,0.94534 -0.37849,0.38816 -0.65089,0.36739 -1.19666,0.4278 -0.59825,-0.0136 -1.03921,-0.009 -1.45227,-0.47378 -0.0869,-0.30888 -0.0935,-0.16094 0.0186,-0.45967 0.38673,-0.37499 0.67293,-0.36072 1.20062,-0.43969 z"
       id="path83"
       style="stroke-width:0.158561" /><path
       fill="#f99477"
       d="m 148.56803,183.61615 0.0653,-0.002 c 0.69259,-0.0184 1.49491,-0.046 2.03989,0.46903 0.1806,0.5028 -0.2908,0.63726 -0.68737,0.78948 -0.73731,0.0866 -1.68312,0.0997 -2.19607,-0.54197 -0.0683,-0.47203 0.39085,-0.59444 0.77822,-0.71432 z"
       id="path84"
       style="stroke-width:0.158561" /><path
       fill="#3e2036"
       d="m 158.5593,178.70995 c 0.66342,-0.0799 2.07334,0.0182 2.41425,0.66564 l -0.10497,0.10766 c -0.32663,0.0823 -0.54275,-0.0277 -0.87208,-0.13033 -1.04334,-0.28827 -1.71849,0.20692 -2.55332,-0.0631 l -0.0327,-0.1167 c 0.37309,-0.38166 0.64075,-0.37817 1.14878,-0.46316 z"
       id="path85"
       style="stroke-width:0.158561" /><path
       fill="#3e2036"
       d="m 149.20766,178.70329 c 0.61047,-0.0295 1.94127,-0.0886 2.21542,0.59064 l -0.13731,0.10449 c -0.38848,0.0853 -0.7278,-0.0512 -1.1242,-0.1557 -0.60269,-0.0262 -1.92811,0.33519 -2.22573,0.13192 l 0.006,-0.14001 c 0.29207,-0.33044 0.84386,-0.43589 1.26547,-0.53134 z"
       id="path86"
       style="stroke-width:0.158561" /><path
       fill="#fdeac2"
       d="m 162.81762,165.77626 c 1.51601,0.45983 3.89347,2.07715 5.11345,3.0634 4.45287,3.57842 7.28526,8.79255 7.86353,14.47586 0.60586,5.8701 -1.24344,11.27784 -4.93411,15.8203 l -0.0243,-3.3236 c 1.40406,-1.7835 2.38999,-4.02873 1.27388,-6.31169 -0.44477,-0.90951 -1.22869,-1.15528 -2.12837,-1.43673 0.29191,-0.94265 0.91379,-1.94 1.22489,-2.86901 0.2307,-0.68895 0.23498,-1.85437 0.2667,-2.61674 l -0.71004,0.51295 c -1.53884,1.27293 -1.7502,2.32736 -2.58756,4.07503 -0.0369,0.0771 -0.95121,-0.10878 -1.20523,0.18884 -0.54117,0.63409 -0.24783,1.52838 -0.35359,2.2909 -0.10925,0.79709 -0.63298,1.85215 -0.68562,2.59818 -0.10243,1.45211 0.0915,2.82684 0.0423,4.3273 -2.49322,-1.59703 -5.56297,-2.09998 -8.39202,-3.10003 -0.0723,-0.51977 -0.0695,-1.20475 -0.0825,-1.74402 3.15854,-1.56199 4.3043,-2.88106 5.48765,-6.22987 0.365,0.0171 0.71003,0.0406 1.07108,-0.0339 0.81326,-0.17267 1.52504,-0.6604 1.97964,-1.35649 1.00971,-1.5382 0.51992,-3.14062 -0.96057,-4.11704 0.41527,-2.70411 0.76316,-5.46165 0.78361,-8.20333 0.006,-0.85639 -0.34725,-3.95659 -1.32668,-4.21678 -0.28953,0.47647 -0.47981,0.83545 -0.89762,1.21125 -0.20089,-1.35364 -0.31538,-1.7242 -0.81865,-3.00474 z"
       id="path87"
       style="stroke-width:0.158561" /><path
       fill="#fdce72"
       d="m 159.68714,194.56799 c 2.11157,0.65406 4.60082,1.20364 6.29394,2.56933 l 0.0136,6.22591 -0.8632,0.57748 c -0.0249,-0.75888 0.12764,-2.67588 -0.22389,-3.1327 l -0.0964,0.0277 c -0.19994,0.44556 -0.11131,2.70252 -0.10655,3.3577 -1.75115,0.88524 -2.77625,1.29497 -4.64141,1.85976 -5.34288,1.42579 -11.10786,0.88335 -15.9443,-1.86357 -0.001,-0.55925 0.15349,-3.13143 -0.16268,-3.3929 -0.40274,0.3574 -0.23166,2.58994 -0.2288,3.20485 -1.4242,-0.86353 -2.504,-1.57801 -3.75838,-2.7114 1.92144,-4.73798 4.47587,-5.30895 8.88134,-6.67005 0.24719,-0.0233 0.52341,0.59984 0.65977,0.82769 1.23519,2.06416 3.6596,2.88313 5.9868,2.48736 2.02832,-0.34503 3.36166,-1.45766 4.19014,-3.36721 z"
       id="path88"
       style="stroke-width:0.158561" /><path
       fill="#b77657"
       d="m 167.99972,189.50148 c -0.1982,-0.16633 -0.46331,-0.34329 -0.55877,-0.55861 0.43985,-0.88953 2.69301,-0.55624 3.38751,-0.14985 1.84898,1.08187 1.4548,4.10135 0.50755,5.63908 -0.25385,0.41781 -0.55972,0.80185 -0.91014,1.14291 l 0.0636,3.89728 c -0.89619,1.29101 -2.82667,2.76705 -4.10182,3.69718 -0.0954,-3.36468 -0.006,-6.71302 -0.0495,-10.07594 -0.007,-0.52468 0.10623,-1.0898 0.20185,-1.60496 -0.0457,-0.46665 0.27478,-0.99735 0.50898,-1.43308 l 0.0848,0.0251 c -1.6e-4,0.22865 -0.0247,0.24879 0.0898,0.43747 l 0.2529,0.0305 0.0772,-0.0775 c 1.10295,-1.08821 1.75623,-0.48044 3.04834,-0.63964 l 0.0937,-0.11987 c -0.0338,-0.12225 -0.0258,-0.20676 -0.11178,-0.23372 -0.72368,-0.22817 -1.89561,-0.0579 -2.58424,0.0238 z"
       id="path89"
       style="stroke-width:0.158561" /><path
       fill="url(#gradient_0)"
       d="m 166.54001,191.48857 c -0.0457,-0.46665 0.27478,-0.99735 0.50898,-1.43308 l 0.0848,0.0251 c -1.6e-4,0.22865 -0.0247,0.24879 0.0898,0.43747 l 0.2529,0.0305 0.12289,0.45396 c 0.30253,0.13509 2.50939,-1.03572 3.07291,-0.10576 l -0.0495,0.21088 c -0.21405,0.059 -0.77679,-0.0688 -1.05855,-0.0828 -0.67199,-0.0333 -2.63989,0.39275 -1.9798,1.45369 0.6455,-0.27225 2.46563,-1.11374 2.92118,-0.29715 l -0.0357,0.15761 c -0.35074,0.15841 -2.26505,-0.5158 -2.7994,0.92426 -0.43256,1.16606 0.58224,1.1697 0.57938,2.03577 l -0.10465,0.0923 c -1.11009,-0.23214 -0.99021,-1.86024 -0.82214,-2.68191 -0.57526,-0.44334 -0.58335,-0.51231 -0.78313,-1.22076 z"
       id="path90"
       style="fill:url(#gradient_0);stroke-width:0.158561" /><path
       fill="#b77657"
       d="m 151.6503,191.83756 c 1.95205,0.59413 3.40653,0.67309 5.37381,0.0455 l 0.0959,1.08488 c 0.19725,1.30654 0.29096,0.60903 0.7021,1.12071 -0.63123,2.94845 -6.90645,2.31816 -6.81877,-0.0187 0.63869,-0.38578 0.50391,-0.42511 0.59381,-1.15671 0.0262,-0.36485 0.0572,-0.70924 0.0531,-1.07568 z"
       id="path91"
       style="stroke-width:0.158561" /><path
       fill="#935e4a"
       d="m 151.6503,191.83756 c 1.95205,0.59413 3.40653,0.67309 5.37381,0.0455 l 0.0959,1.08488 c -2.478,0.60221 -3.07435,0.53514 -5.52286,-0.0547 0.0262,-0.36485 0.0572,-0.70924 0.0531,-1.07568 z"
       id="path92"
       style="stroke-width:0.158561" /><path
       fill="#fdce72"
       d="m 150.39719,194.16017 c 0.4714,0.30618 0.59239,1.20903 1.83424,1.86119 1.10517,0.57494 2.39428,0.68451 3.58047,0.30428 1.20539,-0.38515 1.89798,-1.07409 2.4566,-2.15992 l 1.02383,0.28446 c -0.15127,0.37721 -0.32363,0.68118 -0.51485,1.03778 -0.54894,0.71987 -1.1028,1.20634 -1.92621,1.59957 -1.39819,0.65628 -2.99982,0.73081 -4.45272,0.20676 -1.50443,-0.54402 -2.29834,-1.4326 -2.96731,-2.84633 0.32156,-0.0977 0.64344,-0.19361 0.96595,-0.28779 z"
       id="path93"
       style="stroke-width:0.158561" /><path
       fill="#b77657"
       d="m 145.75071,185.11123 c -0.67167,0.006 -0.99862,0.0365 -1.63556,-0.29572 -0.67642,-0.35153 -1.17859,-0.96595 -1.38836,-1.69882 -0.45777,-1.61685 0.56955,-2.64592 2.0429,-3.02821 0.12067,0.69038 0.19995,1.32209 0.28287,2.01532 -0.42129,-0.2935 -0.59936,-0.46617 -1.09534,-0.54212 l -0.0488,0.10702 c 0.15332,0.34266 0.42526,0.46792 0.74682,0.68626 0.73699,0.51231 0.5315,0.73319 0.7668,1.55548 0.0704,0.33362 0.23277,0.85782 0.3287,1.20079 z"
       id="path94"
       style="stroke-width:0.158561" /><path
       fill="#935e4a"
       d="m 144.65521,182.35496 c 0.73699,0.51231 0.5315,0.73319 0.7668,1.55548 -0.44238,0.0243 -0.79756,0.13986 -1.09962,-0.20755 -0.0392,-0.33774 0.22262,-0.92061 0.33282,-1.34793 z"
       id="path95"
       style="stroke-width:0.158561" /><path
       fill="#b77657"
       d="m 164.11529,180.04488 c 4.45319,1.5864 0.4825,6.03294 -0.95153,4.97851 0.0431,-0.45381 0.17838,-0.81374 0.26829,-1.25296 0.13224,-0.60919 0.056,-0.97435 0.60554,-1.34729 0.31554,-0.22468 0.59778,-0.37024 0.76506,-0.70734 l -0.0184,-0.12765 c -0.40418,-0.0243 -0.6677,0.21834 -0.99783,0.45032 0.0964,-0.69672 0.18187,-1.30227 0.32886,-1.99359 z"
       id="path96"
       style="stroke-width:0.158561" /><path
       fill="#935e4a"
       d="m 163.43205,183.77043 c 0.13224,-0.60919 0.056,-0.97435 0.60554,-1.34729 0.14033,0.31189 0.39815,0.78599 0.39292,1.10374 -0.22881,0.36438 -0.59413,0.25703 -0.99846,0.24355 z"
       id="path97"
       style="stroke-width:0.158561" /><path
       fill="#f8bc76"
       d="m 170.46361,185.06652 c 0.12843,0.046 0.0618,0.0101 0.18916,0.12526 -0.01,0.40798 -1.001,2.65336 -1.30575,2.93846 l -0.17458,-0.1278 c 0.006,-0.41416 1.0037,-2.5308 1.29117,-2.93592 z"
       id="path98"
       style="stroke-width:0.158561" /><path
       fill="#f8bc76"
       d="m 169.83951,184.6912 c 0.0766,0.1037 0.0611,0.11845 0.0969,0.25497 -0.13351,0.49534 -1.14418,2.88026 -1.51363,3.19231 l -0.0869,-0.11337 c 0.0265,-0.51199 1.20126,-2.80114 1.50364,-3.33391 z"
       id="path99"
       style="stroke-width:0.158561" /><path
       fill="#f8dbb3"
       d="m 170.74997,183.72667 c 0.31221,0.16792 0.37167,0.62648 0.1481,0.89492 -0.10085,0.1213 -0.24086,0.092 -0.40798,0.11147 -0.29239,-0.16585 -0.35962,-0.21041 -0.35835,-0.52547 0.18567,-0.27653 0.31522,-0.31284 0.61823,-0.48092 z"
       id="path100"
       style="stroke-width:0.158561" /><path
       fill="#935e4a"
       d="m 167.44,187.54245 c 0.29223,0.0138 0.36771,-0.004 0.52389,0.22056 -0.071,0.29477 -0.41638,0.59128 -0.64091,0.84228 -0.0544,0.14397 -0.008,0.0878 -0.13826,0.16871 -0.24831,-0.41607 -0.0317,-0.90063 0.25528,-1.23155 z"
       id="path101"
       style="stroke-width:0.158561" /></g></svg>
