<?xml version="1.0" encoding="UTF-8" standalone="no"?>
<!-- Created with Inkscape (http://www.inkscape.org/) -->

<svg
   width="44.092312mm"
   height="51.18092mm"
   viewBox="0 0 44.092312 51.18092"
   version="1.1"
   id="svg1"
   xml:space="preserve"
   xmlns="http://www.w3.org/2000/svg"
   xmlns:svg="http://www.w3.org/2000/svg"><defs
     id="defs1" /><g
     id="layer1"
     transform="translate(-33.594489,-89.608634)"><path
       fill="#3e2036"
       d="m 56.293879,90.524146 c 1.282444,-1.1881 2.355588,-1.290055 3.395592,0.110359 1.033661,1.391693 1.893698,0.539108 1.879744,2.775775 0.380865,0.553696 0.667702,1.148935 1.04603,1.650306 0.128434,0.170295 0.634721,0.379596 0.883979,0.689108 0.301267,0.681021 0.513581,1.729429 -0.07452,2.330694 0.210411,0.260833 1.994385,0.945342 2.522712,1.222983 3.660072,1.961249 6.706194,4.897009 8.801265,8.482239 2.942582,5.132 3.712714,11.22694 2.139151,16.9296 -1.475889,5.42914 -5.351604,10.36404 -10.240051,13.14109 -5.127874,2.92482 -11.205373,3.69987 -16.903275,2.15596 -5.672691,-1.59275 -10.478448,-5.37714 -13.356971,-10.51817 -2.844401,-5.11186 -3.549777,-11.14163 -1.962007,-16.77199 1.476429,-5.18289 4.811989,-9.63958 9.368487,-12.51715 1.426735,-0.883661 2.542056,-1.224092 3.841942,-1.954268 l 0.07579,-0.04344 c -0.790587,-1.864523 -0.442703,-2.153898 1.016062,-3.304419 0.198994,-0.567333 0.311414,-1.069972 0.781707,-1.445445 0.01126,-0.05772 0.0078,-0.165856 0.0086,-0.229439 -0.236097,-0.210886 -0.402428,-0.305389 -0.460303,-0.610461 -0.468549,-1.394706 1.769545,-1.318438 2.319594,-1.607971 1.365372,-0.7186 1.249622,-1.287201 2.937349,-1.059507 0.636941,0.271616 1.288311,0.307134 1.979163,0.574151 z"
       id="path1"
       style="stroke-width:0.158561" /><path
       fill="#d2d1d1"
       d="m 54.149178,90.220342 c -0.549257,0.321404 -0.692596,0.444448 -1.109137,0.922035 -1.517115,0.09371 -1.693752,0.640746 -2.151519,1.929374 -0.280812,0.06691 -1.216007,0.374364 -1.379008,0.385622 0.01126,-0.05772 0.0078,-0.165856 0.0086,-0.229439 -0.236097,-0.210886 -0.402428,-0.305389 -0.460303,-0.610461 0.397037,-0.120507 0.337735,-0.367862 0.682765,-0.72193 0.440642,-0.4519 1.270552,-0.296351 1.736088,-0.482502 1.425467,-0.570345 0.980385,-1.150046 2.672552,-1.192699 z"
       id="path2"
       style="stroke-width:0.158561" /><path
       fill="#d2d1d1"
       d="m 62.352984,95.499801 c 0.153646,0.09086 0.368021,0.191701 0.531498,0.274946 0.197884,0.01998 0.412418,-0.0095 0.614742,-0.02505 0.301267,0.681021 0.513581,1.729429 -0.07452,2.330694 l -0.207873,-0.03155 c -0.189323,-0.03361 -0.700366,-0.212314 -0.90824,-0.27891 -0.08388,-0.323782 -0.271457,-0.760618 -0.397672,-1.082181 0.179175,-0.39561 0.302852,-0.778378 0.442069,-1.187942 z"
       id="path3"
       style="stroke-width:0.158561" /><path
       fill="#3b1538"
       d="m 62.884482,95.774747 c 0.197884,0.01998 0.412418,-0.0095 0.614742,-0.02505 0.301267,0.681021 0.513581,1.729429 -0.07452,2.330694 l -0.207873,-0.03155 c -0.198678,-0.839424 0.650101,-1.300838 -0.332345,-2.274087 z"
       id="path4"
       style="stroke-width:0.158561" /><path
       fill="#fdeac2"
       d="m 62.316832,98.412098 c 2.853153,0.679277 6.427285,3.109862 8.513794,5.182262 4.064086,4.02127 6.342613,9.50655 6.323586,15.22395 -6.35e-4,6.24193 -2.411085,11.27229 -6.765972,15.63732 -1.7965,-3.34929 -2.846652,-4.66138 -6.458363,-5.89277 0.544975,-2.71965 -1.384399,-3.58174 -3.589354,-4.12529 -0.09387,-1.6e-4 -0.115274,-0.0166 -0.208508,-0.0436 0.170612,-0.29778 0.860196,-0.64677 1.171134,-0.92917 1.441323,-1.3094 2.085717,-2.53698 2.735818,-4.30161 0.3417,0.43335 0.789319,0.76585 1.094232,1.23139 0.645345,1.01638 -0.711623,1.62557 -0.774731,2.58376 -0.04107,0.62378 0.963419,1.43149 1.493173,1.37044 l 0.04693,-0.14809 c -0.187737,-0.40338 -0.588104,-0.45143 -0.867014,-0.78013 -0.842119,-0.99322 0.773463,-1.30289 0.722564,-2.37414 -0.04107,-0.86479 -0.593495,-1.31954 -1.139263,-1.87736 2.840627,-0.44825 4.161126,-2.66383 2.382067,-5.12439 0.660091,-1.17985 0.515325,-1.94888 0.70988,-3.17408 0.295558,-1.8604 -0.23039,-2.08128 -1.057605,-3.53623 0.47727,0.52801 1.21902,1.02002 1.573563,1.56278 0.689901,1.05602 -0.630598,2.60072 0.14223,3.74696 0.24799,0.36786 0.280812,0.58953 0.718441,0.70671 l 0.149841,-0.0894 c 0.0068,-0.21469 -0.65248,-1.03588 -0.67341,-1.34524 -0.06406,-0.94788 0.518812,-1.74798 0.297778,-2.70188 -0.134302,-0.94075 -1.37885,-1.29751 -1.650782,-2.07065 -0.518337,-1.47336 0.301583,-1.95982 -1.278322,-2.95178 l -0.02664,-0.0603 c -0.374205,-0.8169 -0.711782,-1.17541 -1.127055,-1.87086 -0.946452,-1.5845 -0.701634,-1.77779 -2.692054,-1.88656 l -0.655969,-0.614746 c 0.590324,-0.529119 0.658981,-0.587946 0.890005,-1.347296 z"
       id="path5"
       style="stroke-width:0.158561" /><path
       fill="#fdeac2"
       d="m 40.669718,134.1929 c -0.564478,-0.5445 -1.098989,-1.11929 -1.601295,-1.7215 -3.66781,-4.40373 -5.414284,-10.09561 -4.847633,-15.79858 0.560625,-5.64574 3.335386,-10.83926 7.716785,-14.44367 0.866855,-0.7064 4.881787,-3.51198 5.93289,-3.403048 -0.02997,0.205971 -1.035405,0.682448 -1.407549,1.155436 -0.06929,0.326952 -0.09339,0.182192 0.02363,0.454592 l 0.169978,0.0322 0.177113,-0.14476 0.102589,0.0531 c 0.119396,0.0606 0.182662,0.0882 0.304596,0.13637 l 0.0138,0.1213 c -0.27669,0.3474 -0.529119,0.70226 -0.789318,1.06172 -0.77711,0.21691 -1.509822,0.38657 -1.946975,1.15607 -0.03805,0.0672 -0.07199,0.13668 -0.101638,0.20804 -0.381657,0.92124 -0.01395,2.98475 -0.576371,4.09738 -0.392915,0.77711 -1.513944,1.08123 -1.647611,1.9752 -0.273201,1.82663 1.033027,2.24396 -0.317123,3.94627 l 0.0024,0.1462 c 0.668653,0.088 1.021611,-0.77822 1.054433,-1.32573 0.0685,-1.138 -0.879064,-2.44613 0.144925,-3.3864 0.410991,-0.38467 0.746824,-0.54275 1.07901,-1.0075 l 0.124312,0.0417 c -0.186785,0.36596 -0.8464,1.09122 -0.896823,1.43498 -0.20058,1.36934 0.0084,3.79993 0.620768,5.00721 -1.470974,1.58435 -1.042858,3.64929 0.817384,4.70737 0.556074,0.31617 0.972615,0.36295 1.587833,0.45174 -1.520762,1.43308 -1.435297,1.95364 -0.301584,3.53481 0.515008,0.71844 -0.862098,0.99482 -1.019232,1.57388 l 0.116067,0.0928 c 0.371985,0.0338 1.088365,-0.54434 1.265795,-0.83181 0.786306,-1.27452 -1.804111,-2.15469 -0.346139,-3.45791 0.270823,-0.24212 0.582237,-0.59048 0.801369,-0.88667 1.108661,2.68285 1.711828,3.6458 4.136073,5.24743 -2.322607,0.38039 -4.633004,1.12467 -4.063452,4.07138 -3.578571,1.22742 -4.538185,2.39855 -6.328977,5.70044 z"
       id="path6"
       style="stroke-width:0.158561" /><path
       fill="#b56b7d"
       d="m 58.555281,125.06706 c 1.955062,-0.75761 5.372059,0.53292 5.072378,3.01298 -0.187737,1.55485 -4.1838,1.80934 -4.330469,2.49322 l 0.172039,0.0731 c 1.319389,-0.0856 3.179789,-0.86844 4.237552,-1.76653 3.367209,1.2983 4.754621,2.48783 6.340552,5.89357 -1.436566,1.22219 -2.273929,1.76098 -3.854151,2.74279 l -0.0089,-2.23555 c -0.0038,-0.31269 0.05122,-0.74255 -0.09672,-0.95423 l -0.172515,0.0113 c -0.259882,0.32822 -0.103858,2.79766 -0.07849,3.35104 -1.186039,0.77663 -3.609966,1.59703 -4.973435,1.95078 -5.141511,1.33413 -11.167001,0.60776 -15.75212,-2.12155 -0.01792,-0.6658 0.115591,-2.89232 -0.121775,-3.2754 l -0.178699,-0.0101 c -0.223096,0.28969 -0.09482,2.55204 -0.09006,3.09194 -1.418331,-0.88826 -2.510343,-1.69724 -3.740462,-2.82794 1.718488,-3.31726 2.774824,-4.39659 6.219728,-5.65572 0.831496,0.6937 3.487557,1.98915 4.480785,1.75924 l 0.0044,-0.14223 c -0.607132,-0.76586 -4.326981,-0.68911 -4.362657,-2.63228 -0.04297,-2.33735 2.338304,-2.85839 4.157003,-3.01362 0.263529,-0.008 0.651687,0.14746 0.915692,0.23372 -0.01554,0.57035 -0.06041,1.164 -0.09545,1.73561 -0.362472,0.17379 -0.884297,0.36549 -1.269918,0.51882 -0.883187,-0.5602 -0.283666,-0.6593 -0.618548,-1.18795 -0.508665,0.17886 -0.529119,0.84022 -0.132716,1.11215 1.69185,1.1602 3.512134,2.23398 5.225073,3.37673 0.948831,-0.64487 1.909871,-1.27135 2.882804,-1.87927 0.515166,-0.32125 3.362452,-1.7854 2.433758,-2.60326 -0.287789,-0.0301 -0.216912,-0.0753 -0.421298,0.0214 0.06105,0.45745 0.161892,0.6371 -0.154597,0.97928 -0.602692,0.20946 -0.953746,-0.033 -1.566269,-0.27479 -0.0991,-0.50502 -0.103223,-1.24518 -0.122568,-1.77715 z"
       id="path7"
       style="stroke-width:0.158561" /><path
       fill="#3e2036"
       d="m 53.558378,130.19192 c 0.08356,0.0193 0.189164,0.0596 0.272885,0.088 0.160622,0.38388 -0.1676,3.61964 -0.199312,4.3866 0.757289,0.51009 0.789318,1.02621 0.115908,1.61923 -1.136885,0.0122 -1.223776,-0.91173 -0.501529,-1.63223 0.013,-0.71464 0.08927,-3.92424 0.312048,-4.4616 z"
       id="path8"
       style="stroke-width:0.158561" /><path
       fill="#3e2036"
       d="m 57.108884,130.18811 0.26892,0.0744 c 0.31966,0.53736 0.341066,3.6431 0.349628,4.40087 0.732078,0.55972 0.611889,1.14893 -0.09038,1.65427 -1.026209,-0.12891 -1.03049,-1.03398 -0.327429,-1.65649 0.0059,-1.48414 -0.173942,-2.98666 -0.200739,-4.47302 z"
       id="path9"
       style="stroke-width:0.158561" /><path
       fill="#b77657"
       d="m 55.541505,105.25133 c 0.305231,0.27415 0.70322,0.55179 1.036992,0.79978 -0.01586,0.78377 0.03504,1.78191 0.869867,1.9335 2.165948,0.39339 1.578479,0.98863 0.827056,2.47736 -0.232609,0.46062 0.626159,1.34571 1.010512,0.96817 -0.07278,-0.28794 -0.261785,-0.31236 -0.419871,-0.4928 -0.429067,-0.61427 0.505653,-1.30481 0.553697,-1.9511 0.142071,-1.91051 -2.804158,-0.53372 -2.434076,-2.67652 0.01633,-0.0945 0.11353,-0.10386 0.211362,-0.14667 0.99418,0.16396 1.600836,1.01004 2.324034,1.57008 0.170612,0.13208 1.225838,0.37246 1.508395,0.59064 0.448411,0.34614 -0.0888,1.23979 0.09514,1.7058 0.423993,1.0741 1.378533,0.62251 1.790634,0.84418 0.209142,0.2908 0.235305,0.55259 0.186944,0.9 l -0.103699,0.75189 0.320928,0.23864 c 1.473035,1.08155 0.142388,1.7881 -0.356605,3.05373 0.25798,0.87352 0.413053,1.0075 1.132921,1.49761 -0.683241,4.4727 -4.014139,7.79837 -8.613529,7.9387 -4.728616,-0.10989 -7.689116,-3.46076 -8.579596,-7.88574 1.113259,-0.80723 1.330964,-1.39185 0.524679,-2.51018 -0.841168,-1.16701 -0.413845,-1.66426 0.633929,-2.37541 -0.06517,-0.38324 -0.206606,-0.9723 -0.10037,-1.35189 0.173308,-0.61918 0.906654,-0.10846 1.442592,-0.41908 1.13736,-0.6593 0.393707,-1.31685 0.66231,-2.16531 0.13668,-0.42194 1.41516,-0.60936 1.567062,-0.80312 0.906178,-1.15575 0.997827,-1.11944 2.397448,-1.58117 -0.08309,1.94903 -1.024623,1.22267 -2.287565,2.08524 -0.819286,0.55972 0.553221,1.82663 0.573834,2.44375 0.01142,0.34281 -0.484722,0.47552 -0.516276,0.84989 0.214058,0.0851 0.580652,0.0889 0.734298,-0.11322 0.768229,-1.00956 -0.43319,-1.71563 -0.532766,-2.58582 -0.0723,-0.6325 1.769544,-0.69116 2.05654,-1.19618 0.490272,-0.56686 0.40449,-0.78678 0.405125,-1.52536 0.449997,-0.32331 0.676105,-0.49059 1.078058,-0.86939 z"
       id="path10"
       style="stroke-width:0.158561" /><path
       fill="#3e2036"
       d="m 52.765572,119.23612 c 1.020183,-0.003 4.430838,-0.0988 5.472904,0.0924 0.545451,0.10005 -0.39466,1.59878 -0.802797,2.02483 -0.389902,0.28525 -0.624414,0.45174 -1.106441,0.58668 -0.818018,0.2315 -1.695496,0.11226 -2.422025,-0.32918 -0.666116,-0.40211 -1.666162,-1.58862 -1.141641,-2.37477 z"
       id="path11"
       style="stroke-width:0.158561" /><path
       fill="#d2d1d1"
       d="m 53.001828,119.62777 4.996586,-0.0208 c -0.207716,0.64646 -0.315696,0.86749 -0.755387,1.38092 -1.623034,1.2872 -3.703835,0.72304 -4.241199,-1.36014 z"
       id="path12"
       style="stroke-width:0.158561" /><path
       fill="#935e4a"
       d="m 54.421111,117.22746 0.0222,-0.0726 c 0.243075,-0.82008 0.510885,-3.18978 0.995766,-3.53956 0.910618,-0.0147 0.824994,3.22783 1.154644,3.77756 l 0.08055,0.0736 c 0.375632,1.09026 -2.894062,1.3863 -2.253157,-0.23896 z"
       id="path13"
       style="stroke-width:0.158561" /><path
       fill="#3e2036"
       d="m 54.421111,117.22746 c 0.93567,1.17019 1.140215,1.00433 2.172608,0.16538 l 0.08055,0.0736 c 0.375632,1.09026 -2.894062,1.3863 -2.253157,-0.23896 z"
       id="path14"
       style="stroke-width:0.158561" /><path
       fill="#3e2036"
       d="m 50.869178,114.37875 c 1.360456,0.21644 1.350625,1.70898 0.332503,2.44819 -1.271028,-0.0544 -1.446238,-1.79904 -0.332503,-2.44819 z"
       id="path15"
       style="stroke-width:0.158561" /><path
       fill="#3e2036"
       d="m 59.656331,114.45898 c 1.453374,-0.10481 1.552157,1.60084 0.592385,2.36209 -1.326365,0.0934 -1.406915,-1.57102 -0.592385,-2.36209 z"
       id="path16"
       style="stroke-width:0.158561" /><path
       fill="#f99477"
       d="m 60.144859,117.09158 0.153011,-0.006 c 0.676899,-0.027 1.25977,-0.0252 1.803953,0.47647 0.179333,0.53023 -0.257028,0.63488 -0.687046,0.78203 -0.609827,0.0609 -2.117587,0.0929 -2.223982,-0.72907 0.208667,-0.33884 0.585884,-0.4343 0.954064,-0.52293 z"
       id="path17"
       style="stroke-width:0.158561" /><path
       fill="#f99477"
       d="m 49.516808,117.10093 c 0.761253,-0.0967 1.591797,-0.0572 2.197026,0.47458 0.111627,0.27859 0.114799,0.14508 3.17e-4,0.41368 -0.288106,0.23214 -0.316013,0.23198 -0.677057,0.34646 -0.581603,0.0545 -2.231909,0.13145 -2.120282,-0.75761 0.17743,-0.27843 0.298412,-0.30983 0.599996,-0.47711 z"
       id="path18"
       style="stroke-width:0.158561" /><path
       fill="#3e2036"
       d="m 50.681283,112.27654 c 0.498041,-3.1e-4 1.486829,0.0896 1.770813,0.53325 l -0.108615,0.11067 c -0.558611,0.12463 -0.942647,-0.0133 -1.514736,-0.12272 l -0.111469,0.005 c -0.707501,0.0263 -0.802638,0.25861 -1.445445,0.34979 -0.21057,-0.11084 -0.124471,-0.0338 -0.25021,-0.25655 l 0.08071,-0.15381 c 0.519922,-0.32616 0.987203,-0.39577 1.578954,-0.46554 z"
       id="path19"
       style="stroke-width:0.158561" /><path
       fill="#3e2036"
       d="m 59.435614,112.34488 c 0.66897,-0.036 2.093961,-0.094 2.445967,0.6203 l -0.07341,0.12843 c -0.389426,0.0636 -0.331234,0.0132 -0.758716,-0.13874 -0.732078,-0.20756 -2.177999,0.1944 -2.493219,-0.1186 0.171405,-0.38975 0.492175,-0.3926 0.879382,-0.49139 z"
       id="path20"
       style="stroke-width:0.158561" /><path
       fill="#b77657"
       d="m 52.72609,125.14285 c 1.825041,0.59777 3.577144,0.71162 5.424701,0.0937 l 0.05058,1.03635 c 0.117018,1.00719 0.413845,0.98626 1.244231,1.37679 -1.312254,0.71813 -2.71346,1.62098 -3.963875,2.43662 -1.27198,-0.90539 -2.585978,-1.66474 -3.924711,-2.46072 l 0.258613,-0.11622 c 0.865587,-0.38071 0.888261,-0.44065 0.903959,-1.37996 z"
       id="path21"
       style="stroke-width:0.158561" /><path
       fill="#935e4a"
       d="m 52.72609,125.14285 c 1.825041,0.59777 3.577144,0.71162 5.424701,0.0937 l 0.05058,1.03635 c -2.152629,0.55418 -3.332484,0.44857 -5.481783,-0.14349 z"
       id="path22"
       style="stroke-width:0.158561" /><path
       fill="#b77657"
       d="m 65.418134,113.62765 c 0.802479,0.30602 1.411355,0.60903 1.793012,1.46447 0.261626,0.58874 0.275262,1.25818 0.0379,1.85723 -0.325209,0.8391 -1.827737,2.08143 -2.695068,1.77953 0.05169,-0.46268 0.296827,-0.85306 0.429226,-1.29338 -0.204386,-0.61379 -0.210252,-0.70972 -0.0195,-1.32653 0.470134,-0.25496 0.822299,-0.37579 1.086621,-0.83799 l -0.06247,-0.10814 c -0.317281,0.0146 -0.323941,0.0579 -0.576371,0.22611 l -0.412576,0.27114 c 0.163476,-0.70433 0.305389,-1.31606 0.419236,-2.03244 z"
       id="path23"
       style="stroke-width:0.158561" /><path
       fill="#935e4a"
       d="m 64.963697,116.10897 c 0.242123,0.32775 0.528009,0.6555 0.646455,1.03509 l -0.03266,0.19979 c -0.246404,0.16126 -0.216119,0.13811 -0.594288,0.0917 -0.204386,-0.61379 -0.210252,-0.70972 -0.0195,-1.32653 z"
       id="path24"
       style="stroke-width:0.158561" /><path
       fill="#b77657"
       d="m 45.712287,113.57326 c 0.0075,0.88049 0.01681,1.24233 0.286679,2.07351 -0.119239,-0.0874 -0.239428,-0.17331 -0.360569,-0.25782 -0.283032,-0.19678 -0.38689,-0.29414 -0.742226,-0.22944 l -0.03504,0.13335 c 0.171722,0.29571 0.440801,0.40005 0.747776,0.57621 0.256076,0.18869 0.492808,0.35074 0.721295,0.57415 -0.13113,0.33076 -0.266383,0.69371 -0.411149,1.0159 l 0.473147,1.31939 c -3.281586,-0.58176 -4.121961,-4.11514 -0.679911,-5.20525 z"
       id="path25"
       style="stroke-width:0.158561" /><path
       fill="#935e4a"
       d="m 45.608905,115.86907 c 0.256076,0.18869 0.492808,0.35074 0.721295,0.57415 -0.13113,0.33076 -0.266383,0.69371 -0.411149,1.0159 l -0.112579,-0.0672 c -0.274787,0.0479 -0.432397,0.0564 -0.592068,-0.16522 0.02474,-0.32901 0.277641,-1.00861 0.394501,-1.3576 z"
       id="path26"
       style="stroke-width:0.158561" /><path
       fill="#d2d1d1"
       d="m 57.746777,90.133768 c 1.429906,-0.088 1.094707,0.399099 1.956805,1.246292 0.275422,0.284459 0.865111,0.427799 1.120712,0.705757 0.297778,0.323941 0.504542,0.885882 0.03139,1.148935 -0.311573,-0.03504 -0.322355,-0.05835 -0.595239,-0.193762 -0.765059,-1.780009 -1.091695,-2.084764 -3.030583,-1.713889 L 56.61782,90.7474 c 0.435251,-0.327429 0.617438,-0.440007 1.128957,-0.613632 z"
       id="path27"
       style="stroke-width:0.158561" /><path
       fill="#ee6970"
       d="m 54.815294,97.843021 c 1.139422,-0.148572 2.102841,0.130655 3.164568,0.485198 -0.736042,0.03742 -1.129908,0.111469 -1.823773,0.323941 l -0.641222,0.318233 c -0.933292,-0.479014 -1.371556,-0.583982 -2.398241,-0.640113 0.612682,-0.272725 1.045554,-0.387048 1.698668,-0.487259 z"
       id="path28"
       style="stroke-width:0.158561" /><path
       fill="#fdeac2"
       d="m 48.486635,98.086254 c 0.39339,0.770926 0.474891,1.04825 1.042224,1.720708 -0.200263,0.18298 -0.419078,0.374678 -0.61062,0.564638 -0.743177,-0.0178 -0.983081,-0.0636 -1.663626,0.26274 l -0.0138,-0.1213 c -0.121934,-0.0482 -0.1852,-0.0758 -0.304596,-0.13637 l -0.102589,-0.0531 c 0.629488,-0.952324 1.025733,-0.499473 1.462094,-1.30877 0.05058,-0.09371 0.148889,-0.756814 0.190908,-0.928536 z"
       id="path29"
       style="stroke-width:0.158561" /><path
       fill="#d2d1d1"
       d="m 48.718451,95.508364 c 0.128911,0.37912 0.283984,0.771401 0.425738,1.147667 -0.05803,0.174259 -0.118604,0.347566 -0.181553,0.520081 -0.183773,0.501371 -0.231975,0.662945 -0.704964,0.88287 -0.05692,-0.0704 -0.111151,-0.143023 -0.162525,-0.217546 -0.746666,-1.101209 -0.385621,-1.724355 0.623304,-2.333072 z"
       id="path30"
       style="stroke-width:0.158561" /><path
       fill="#fdeac2"
       d="m 44.469641,106.60718 c 0.277324,-2.03085 -0.432397,-3.98195 2.025939,-4.41989 l 0.09688,0.0312 c -2.229532,1.31923 -1.174623,2.61293 -1.884661,4.48206 z"
       id="path31"
       style="stroke-width:0.158561" /><path
       fill="#fdeac2"
       d="m 46.49558,102.18729 c 1.102318,-0.65011 0.374363,-1.4112 2.200356,-1.39661 -0.677057,1.06537 -0.858927,1.04317 -2.103475,1.42784 z"
       id="path32"
       style="stroke-width:0.158561" /><path
       fill="#fdeac2"
       d="m 62.323016,100.81113 c 1.232973,0.0252 1.442116,0.36786 1.982651,1.40914 -1.115479,-0.2916 -1.350308,-0.50122 -1.982651,-1.40914 z"
       id="path33"
       style="stroke-width:0.158561" /><path
       fill="#fdeac2"
       d="m 65.949949,104.75836 c 0.712892,0.39228 0.612205,1.53677 0.676898,2.27868 -0.523887,-0.52262 -0.60507,-1.59338 -0.676898,-2.27868 z"
       id="path34"
       style="stroke-width:0.158561" /><path
       fill="#f8dbb3"
       d="m 44.469641,106.60718 0.238159,0.0934 c -0.117652,0.24973 -0.279543,0.62536 -0.427164,0.84671 l -0.124312,-0.0417 c 0.152219,-0.3233 0.214058,-0.56115 0.313317,-0.89841 z"
       id="path35"
       style="stroke-width:0.158561" /></g></svg>
