<?xml version="1.0" encoding="UTF-8" standalone="no"?>
<!-- Created with Inkscape (http://www.inkscape.org/) -->

<svg
   width="43.938869mm"
   height="43.938923mm"
   viewBox="0 0 43.938869 43.938923"
   version="1.1"
   id="svg1"
   xml:space="preserve"
   xmlns="http://www.w3.org/2000/svg"
   xmlns:svg="http://www.w3.org/2000/svg"><defs
     id="defs1"><linearGradient
       id="gradient_1"
       gradientUnits="userSpaceOnUse"
       x1="225.93781"
       y1="639.81714"
       x2="217.30414"
       y2="654.6311"
       gradientTransform="matrix(0.15856136,0,0,0.15856136,23.771517,70.944355)"><stop
         offset="0"
         stop-color="#2F0A27"
         id="stop219" /><stop
         offset="1"
         stop-color="#3E2737"
         id="stop220" /></linearGradient></defs><g
     id="layer1"
     transform="translate(-33.681212,-163.45246)"><path
       fill="#3e2036"
       d="m 54.262867,163.4971 c 12.094743,-0.76554 22.524909,8.40771 23.310264,20.50119 0.785195,12.09347 -8.371089,22.5387 -20.463137,23.34372 -12.120113,0.80692 -22.594692,-8.37521 -23.381807,-20.49659 -0.787114,-12.12139 8.412029,-22.58089 20.53468,-23.34832 z"
       id="path203"
       style="stroke-width:0.158561" /><path
       fill="#fdeac2"
       d="m 54.17867,164.13213 c 0.283508,-0.0204 0.56765,-0.0334 0.851792,-0.0392 5.866453,-0.12495 11.36885,1.90591 15.608622,6.00171 4.113716,3.91757 6.466608,9.33339 6.522897,15.01385 0.07468,6.22956 -2.246973,11.25358 -6.536058,15.65064 -2.69364,-4.8274 -3.737608,-5.10551 -9.02341,-6.66687 -0.494553,-0.14619 -2.159288,-0.59111 -2.548398,-0.76601 -0.317123,-0.30443 -0.28985,-1.23138 -0.31744,-1.71436 0.397672,-0.16824 1.823139,-0.97579 2.027049,-0.98324 2.322289,-0.0859 4.445585,-0.45095 6.417454,-1.9725 1.480963,-1.12817 2.442479,-2.80765 2.665575,-4.656 0.395769,-3.11082 -1.035723,-5.11773 -2.020072,-7.88748 -0.22484,-0.71653 -0.358032,-1.49031 -0.517069,-2.22271 -1.062519,-4.89114 -4.936649,-8.10629 -9.824303,-8.66855 -2.306751,-0.16681 -4.971374,-0.0377 -6.450276,2.03498 l -0.111627,3.1e-4 c -1.864365,0.0125 -3.414936,0.54133 -4.740509,1.90131 -0.65581,0.67833 -1.170817,1.4797 -1.515213,2.35813 -0.687522,1.72451 -0.547671,2.89263 -0.987837,4.3839 -0.818969,2.5419 -2.128528,4.4023 -2.075092,7.19901 0.09514,4.96455 4.46477,7.59509 9.110777,7.47934 0.664055,0.40528 1.13736,0.65914 1.838994,0.98212 -0.01808,0.66232 -0.05185,1.12357 -0.12891,1.78239 -1.871024,0.4963 -3.727778,1.04524 -5.567724,1.64635 -3.371648,1.12895 -4.56514,2.74961 -6.114284,5.859 -3.728206,-3.58698 -6.043741,-8.39393 -6.524816,-13.54511 -0.510599,-5.63384 1.265256,-11.23645 4.928071,-15.54742 3.854976,-4.62079 9.093209,-7.10592 15.031807,-7.62363 z"
       id="path204"
       style="stroke-width:0.158561" /><path
       fill="#fbc6a6"
       d="m 51.809605,172.15407 c 1.257075,1.78382 2.111086,2.53127 3.838929,3.81277 l 0.794868,0.51437 1.649356,0.90729 c 0.172356,0.0886 0.37357,0.18536 0.539742,0.27923 2.461031,1.03841 3.888876,1.4919 6.520519,2.01753 -0.472195,2.81002 -0.964211,6.28553 -2.709021,8.60211 -1.388838,1.8474 -3.454576,3.06721 -5.742933,3.39115 -2.18339,0.29921 -4.34141,-0.44666 -6.100332,-1.73291 -3.154261,-2.30675 -3.896962,-6.88172 -4.394369,-10.56954 1.992323,-3.2911 2.207015,-5.07603 5.603241,-7.222 z"
       id="path205"
       style="stroke-width:0.158561" /><path
       fill="#f99477"
       d="m 58.6325,177.66773 -0.231975,0.20058 c -0.312524,0.0771 -2.168644,-0.13621 -2.637827,-0.17537 -0.678008,-0.0564 -2.827466,0.16934 -3.173447,0.006 l -0.04773,-0.16934 c 0.544976,-0.61205 5.220316,0.0382 5.551234,-0.1408 0.172356,0.0886 0.37357,0.18536 0.539742,0.27923 z"
       id="path206"
       style="stroke-width:0.158561" /><path
       fill="#f99477"
       d="m 55.648534,175.96684 0.794868,0.51437 c -0.528643,0.0108 -3.212294,0.14255 -3.524184,0.013 l -0.04551,-0.12716 c 0.521509,-0.47918 2.055748,-0.1083 2.774824,-0.40021 z"
       id="path207"
       style="stroke-width:0.158561" /><path
       fill="#f99477"
       d="m 54.519419,183.89173 c 0.171563,-1.02906 0.407978,-2.0586 0.602057,-3.08481 0.07104,-0.37515 0.153488,-0.73033 0.581286,-0.73889 0.678484,0.50708 0.660408,2.83793 0.9788,3.69717 0.993386,1.3982 -2.779264,1.48049 -2.162143,0.12653 z"
       id="path208"
       style="stroke-width:0.158561" /><path
       fill="#3e2036"
       d="m 56.681562,183.7652 c 0.993386,1.3982 -2.779264,1.48049 -2.162143,0.12653 0.806443,0.25783 1.131177,1.40232 2.162143,-0.12653 z"
       id="path209"
       style="stroke-width:0.158561" /><path
       fill="#f99477"
       d="m 60.360027,183.46568 c 0.227059,-0.016 0.573833,-0.0289 0.794868,-0.0116 0.414955,0.0301 0.799783,0.22817 1.065056,0.54863 0.110518,0.6038 -0.429067,0.6945 -0.903324,0.85052 -0.674996,0.0422 -1.531544,0.0404 -1.91003,-0.63995 0.0041,-0.5491 0.496773,-0.63932 0.95343,-0.74762 z"
       id="path210"
       style="stroke-width:0.158561" /><path
       fill="#3e2036"
       d="m 50.94719,180.72653 c 1.39534,0.0141 1.45924,1.61432 0.477428,2.40728 -1.355065,-0.019 -1.401365,-1.60099 -0.477428,-2.40728 z"
       id="path211"
       style="stroke-width:0.158561" /><path
       fill="#3e2036"
       d="m 59.91986,180.7278 c 1.319231,0.008 1.459875,1.7261 0.402429,2.42805 -1.340002,-0.18694 -1.346027,-1.66473 -0.402429,-2.42805 z"
       id="path212"
       style="stroke-width:0.158561" /><path
       fill="#f99477"
       d="m 50.061783,183.46933 c 0.249259,0.002 0.498359,0.0135 0.746666,0.0352 0.445716,0.0387 0.772035,0.17981 1.060934,0.52293 0.08356,0.57637 -0.468232,0.65502 -0.918229,0.77553 -0.687998,0.0304 -1.533288,0.0491 -1.913836,-0.65581 0.02347,-0.56908 0.558453,-0.60571 1.024465,-0.67785 z"
       id="path213"
       style="stroke-width:0.158561" /><path
       fill="#3e2036"
       d="m 53.560281,186.29077 c 1.662357,0.61173 2.152629,1.07235 3.980049,0.0916 0.0861,-0.0461 0.156183,0.055 0.208825,0.0989 l 0.0097,0.2093 c -0.93456,0.60031 -3.25352,0.99497 -4.19918,-0.0295 -0.08943,-0.0969 -0.02426,-0.22405 6.34e-4,-0.3704 z"
       id="path214"
       style="stroke-width:0.158561" /><path
       fill="#62545c"
       d="m 60.099193,178.79779 c 0.568443,-0.0588 1.727843,0.0571 1.938096,0.71511 l -0.108298,0.11116 c -0.338053,0.0427 -0.560831,-0.10624 -0.881442,-0.25196 -0.869868,-0.11194 -1.889418,0.23404 -2.238094,-0.007 l 0.02838,-0.13335 c 0.422249,-0.41289 0.669447,-0.36897 1.261356,-0.43351 z"
       id="path215"
       style="stroke-width:0.158561" /><path
       fill="#62545c"
       d="m 50.510512,178.85646 c 0.579225,-0.0354 1.670285,-0.0667 2.035294,0.48139 l -0.07468,0.11306 c -0.465536,0.13335 -0.724784,0.005 -1.210457,-0.10925 -0.828325,-0.0807 -1.362518,0.39006 -1.981224,0.19598 l -0.01395,-0.10703 c 0.376583,-0.42526 0.69656,-0.44017 1.245024,-0.57415 z"
       id="path216"
       style="stroke-width:0.158561" /><path
       fill="#c6433c"
       d="m 57.558089,184.35743 c 0.999571,0.0986 2.092534,2.55078 1.708815,3.51737 -0.585408,-0.42098 -0.242281,-1.16575 -0.562258,-1.75861 -0.259565,-0.4806 -0.828008,-1.05396 -1.183185,-1.52488 z"
       id="path217"
       style="stroke-width:0.158561" /><path
       fill="#c6433c"
       d="m 53.542047,184.36726 c 0.24355,0.11068 0.173624,0.0222 0.26781,0.22563 -0.138266,0.36691 -0.905227,0.87716 -1.128799,1.30544 -0.344078,0.65882 -0.209301,1.26785 -0.44968,1.85675 l -0.184882,-0.11448 c -0.56321,-1.10248 0.782342,-2.56283 1.495551,-3.27334 z"
       id="path218"
       style="stroke-width:0.158561" /><path
       fill="#d2d1d1"
       d="m 55.857677,165.56093 c 5.034799,-0.10893 9.630224,2.91943 10.912827,7.92522 0.273201,1.066 0.439849,2.22509 0.834032,3.25304 0.715271,1.86579 1.749249,3.64073 1.867378,5.683 0.245135,3.24559 -1.527898,5.79462 -4.50346,6.99747 -1.325573,0.53578 -2.334023,0.67293 -3.76393,0.77774 0.570663,-0.53958 1.035882,-0.98894 1.520604,-1.60575 0.863366,-1.19317 1.191588,-1.96949 1.694386,-3.33819 l 0.05185,0.005 c 0.901421,0.098 1.551681,0.023 2.303104,-0.55988 1.657759,-1.1502 1.760982,-4.02873 -0.150158,-4.96677 -1.319706,-0.64773 -3.291099,-0.78885 -4.798701,-1.29719 -3.277146,-1.10486 -6.443934,-2.69349 -8.764479,-5.32148 -1.510773,-1.71088 -1.910823,-3.32757 -1.733551,-5.54917 0.102906,-0.13557 0.209935,-0.26766 0.321245,-0.39641 1.072985,-1.23567 2.674454,-1.50443 4.208853,-1.60686 z"
       id="path219"
       style="stroke-width:0.158561" /><path
       fill="url(#gradient_1)"
       d="m 52.621756,169.92771 c 0.09942,-10e-4 0.308085,-10e-4 0.370241,0.0806 2.535555,3.32757 6.182942,5.3746 10.366425,5.73659 0.432872,0.0374 2.283442,0.0236 2.491316,0.16713 l 0.02489,0.29333 c -4.692782,0.16522 -9.11046,-1.23947 -12.300873,-4.84135 -0.383402,-0.43303 -0.92029,-0.84688 -0.952003,-1.43625 z"
       id="path220"
       style="fill:url(#gradient_1);stroke-width:0.158561" /><path
       fill="#fdeac2"
       d="m 51.589839,194.00002 c 0.100845,-0.0154 0.03219,-0.0102 0.205496,0.0205 0.204385,0.53387 0.115908,11.05648 0.117969,12.47988 -2.548556,-0.48329 -4.38216,-1.14592 -6.664968,-2.35828 -0.013,-0.71241 0.07849,-2.92799 -0.145084,-3.42699 l -0.136997,-0.0384 c -0.21263,0.22706 -0.147779,0.13827 -0.150633,0.54561 0.01855,0.89841 0.02125,1.79714 0.0082,2.6957 -1.503478,-0.89666 -2.436771,-1.55865 -3.754891,-2.76531 1.86262,-3.7254 2.920383,-4.81535 6.861584,-6.05498 1.216007,-0.37848 2.43582,-0.74444 3.659279,-1.09772 z"
       id="path221"
       style="stroke-width:0.158561" /><path
       fill="#fdeac2"
       d="m 59.515053,193.94056 c 1.680116,0.39751 3.970694,1.14798 5.609425,1.72277 2.466105,0.86511 4.101983,3.12207 5.140401,5.44547 -1.20903,1.09867 -2.364467,1.90543 -3.729522,2.77816 -0.02299,-0.68277 -0.01158,-1.42341 -0.01411,-2.11093 -7.93e-4,-0.34646 0.05661,-0.80089 -0.0899,-1.07758 l -0.154756,-0.04 c -0.296351,0.3065 -0.157768,2.86298 -0.149365,3.45616 -2.258231,1.23963 -4.168578,1.84169 -6.648319,2.37493 -0.02585,-3.92915 -0.09577,-8.63366 0.03615,-12.54902 z"
       id="path222"
       style="stroke-width:0.158561" /><path
       fill="#d2d1d1"
       d="m 50.301052,167.69691 c 0.469025,-0.001 0.600948,-0.0545 0.571614,0.44144 -0.08705,1.46732 0.143974,2.31642 0.740482,3.65151 -2.46341,1.53091 -3.312347,2.75008 -4.632053,5.33733 -0.367387,0.72034 -0.849096,1.52124 -1.230437,2.27456 -0.728748,0.15952 -1.290848,0.38229 -1.795231,0.96961 -0.486308,0.57224 -0.711148,1.32208 -0.619817,2.06764 0.209936,1.79808 1.815052,3.08893 3.629153,2.79163 0.758082,2.1049 1.445287,3.30553 3.074029,4.8442 l 0.02283,0.0499 -0.08071,0.0642 c -3.790251,-0.2204 -7.449213,-2.29375 -7.933935,-6.37084 -0.390536,-2.76325 1.151314,-5.01371 1.917007,-7.48917 0.694499,-2.24602 0.498041,-4.53929 2.168168,-6.4739 1.168439,-1.35332 2.384763,-1.9863 4.168895,-2.15818 z"
       id="path223"
       style="stroke-width:0.158561" /><path
       fill="#fdce72"
       d="m 56.392821,199.35353 c 1.063154,-0.17616 1.659186,-0.34868 2.673979,-0.71448 l 0.03361,4.52566 c 0.0036,1.13022 -0.0051,2.26045 -0.02584,3.39052 -2.496073,0.35787 -4.280364,0.36215 -6.761533,0.007 l -0.0082,-7.92426 c 0.867648,0.35169 1.672506,0.52579 2.576622,0.72922 -1.959818,2.77673 3.649132,2.51431 1.511407,-0.0136 z"
       id="path224"
       style="stroke-width:0.158561" /><path
       fill="#fbc6a6"
       d="m 52.952991,191.65062 c 2.086668,0.6019 3.243214,0.70908 5.368888,0.0805 0.01792,0.26067 0.0769,0.87145 0.0463,1.10216 0.07452,0.39053 0.153487,0.4752 0.363898,0.82689 -0.438581,0.90476 -2.379689,4.88401 -3.068955,5.27613 l -0.142705,-0.0423 c -0.599045,-0.62616 -2.45231,-4.27022 -2.898343,-5.18956 0.206922,-0.44207 0.241013,-0.51167 0.294448,-0.99354 z"
       id="path225"
       style="stroke-width:0.158561" /><path
       fill="#f99477"
       d="m 52.952991,191.65062 c 2.086668,0.6019 3.243214,0.70908 5.368888,0.0805 0.01792,0.26067 0.0769,0.87145 0.0463,1.10216 -0.175528,-0.0266 -0.119873,-0.0344 -0.27114,0 -1.437993,0.32695 -2.454689,0.59936 -3.903781,0.16966 -0.248466,-0.0737 -1.03271,-0.29873 -1.276736,-0.29207 z"
       id="path226"
       style="stroke-width:0.158561" /><path
       fill="#fbc6a6"
       d="m 65.595881,179.7536 c 0.342176,0.11781 0.667068,0.21311 0.983398,0.43604 2.230007,1.57214 0.681655,5.04178 -1.931753,4.65663 -0.0222,-0.0136 -0.04424,-0.0274 -0.06644,-0.0411 -0.0333,-0.25941 0.185359,-0.90808 0.266542,-1.19571 0.144132,-0.65534 0.03695,-1.06617 0.647565,-1.44767 0.385462,-0.24466 0.747299,-0.41226 0.924254,-0.83609 l -0.08039,-0.0604 c -0.449838,0.0793 -0.459986,0.10307 -0.835618,0.34123 l -0.325527,0.20343 c 0.119873,-0.61712 0.258773,-1.46542 0.417968,-2.05638 z"
       id="path227"
       style="stroke-width:0.158561" /><path
       fill="#f99477"
       d="m 64.84763,183.6095 c 0.144132,-0.65534 0.03695,-1.06617 0.647565,-1.44767 0.144766,0.49868 0.369448,0.93171 0.592226,1.4001 -0.413211,0.0187 -0.826421,0.0346 -1.239791,0.0476 z"
       id="path228"
       style="stroke-width:0.158561" /><path
       fill="#fbc6a6"
       d="m 46.555675,183.73952 c 0.104491,0.31633 0.183455,0.49138 0.199311,0.82007 -0.136046,0.30983 -0.03425,0.18647 -0.325209,0.37611 -1.917641,0.2667 -4.724019,-3.99606 -0.569077,-5.16593 0.09054,0.71575 0.202324,1.34016 0.334723,2.0456 -0.400209,-0.26876 -0.678008,-0.52896 -1.155595,-0.53514 l -0.04551,0.11067 c 0.253539,0.46491 0.515641,0.55354 0.968968,0.84403 0.556868,0.35597 0.492333,0.86971 0.592386,1.50459 z"
       id="path229"
       style="stroke-width:0.158561" /><path
       fill="#f99477"
       d="m 45.963289,182.23493 c 0.556868,0.35597 0.492333,0.86971 0.592386,1.50459 -0.476319,-0.0233 -0.885883,0.0436 -1.064899,-0.44794 0.04598,-0.38594 0.275263,-0.70925 0.472513,-1.05665 z"
       id="path230"
       style="stroke-width:0.158561" /><path
       fill="#fbc6a6"
       d="m 52.277203,194.03031 c 0.206129,0.2334 0.893493,1.60131 1.083132,1.94998 0.532449,0.97912 1.115321,1.98234 1.624303,2.97113 -1.005438,-0.14889 -1.795073,-0.33124 -2.684603,-0.82706 -0.05867,-1.36394 -0.06628,-2.72947 -0.02283,-4.09405 z"
       id="path231"
       style="stroke-width:0.158561" /><path
       fill="#fbc6a6"
       d="m 59.022403,194.0533 c 0.173942,0.23958 0.06739,3.51927 0.05486,4.10277 -0.926315,0.39926 -1.473986,0.56258 -2.465153,0.75222 l -0.142706,-0.0433 c 0.04884,-0.29762 2.243802,-4.23327 2.552997,-4.8117 z"
       id="path232"
       style="stroke-width:0.158561" /><path
       fill="#f99477"
       d="m 55.580194,199.50369 c 0.410199,-0.0493 0.78694,0.23181 0.85639,0.63916 0.06945,0.40734 -0.19281,0.79756 -0.596191,0.88699 -0.279226,0.0618 -0.569869,-0.035 -0.756179,-0.25211 -0.186151,-0.21707 -0.237525,-0.51913 -0.133825,-0.78568 0.103699,-0.26654 0.345822,-0.45427 0.629805,-0.48836 z"
       id="path233"
       style="stroke-width:0.158561" /></g></svg>
