<?xml version="1.0" encoding="UTF-8" standalone="no"?>
<!-- Created with Inkscape (http://www.inkscape.org/) -->

<svg
   width="43.875149mm"
   height="44.945061mm"
   viewBox="0 0 43.875149 44.945061"
   version="1.1"
   id="svg1"
   xml:space="preserve"
   xmlns="http://www.w3.org/2000/svg"
   xmlns:svg="http://www.w3.org/2000/svg"><defs
     id="defs1" /><g
     id="layer1"
     transform="translate(-83.155393,-162.35978)"><path
       fill="#3e2036"
       d="m 104.52285,162.38828 c 2.3169,-0.16602 5.12487,0.39418 7.10546,1.64983 0.43905,0.27827 1.22409,1.05871 1.56912,1.21696 2.38476,1.09248 4.34395,2.14771 6.36544,3.89728 4.33761,3.743 7.00525,9.06003 7.41243,14.7749 0.41575,5.84553 -1.5279,11.61383 -5.39648,16.01581 -4.09706,4.64743 -9.52922,6.98161 -15.64889,7.35645 -6.046582,0.1148 -11.09248,-1.6197 -15.630823,-5.696 -4.262764,-3.86588 -6.820041,-9.26347 -7.111794,-15.01084 -0.315062,-5.76561 1.713097,-11.41388 5.623854,-15.66222 1.73371,-1.93571 3.814669,-3.52973 6.135215,-4.69944 1.723403,-0.87002 2.317691,-0.88984 3.876508,-2.19322 1.29846,-1.08567 4.00938,-1.56865 5.69996,-1.64951 z"
       id="path157"
       style="stroke-width:0.158561" /><path
       fill="#fdeac2"
       d="m 96.32206,166.15982 0.05233,0.0447 c 0.0059,0.15523 -0.738737,1.28657 -0.894603,1.54708 -0.377852,0.48346 -0.615377,2.0659 -0.913789,2.44137 -1.195394,1.50364 -1.943169,4.53946 -0.78472,6.33834 -0.0057,1.15876 0.146986,2.31277 0.453802,3.43015 -0.210886,0.15555 -0.362471,0.27796 -0.541804,0.47426 -0.48377,0.53657 -0.732395,1.24439 -0.690217,1.96553 0.123043,1.97868 1.77113,3.06531 3.656583,2.90405 0.01808,0.058 0.03679,0.11591 0.05629,0.17362 1.134824,3.34343 2.576623,4.64395 5.632578,6.13823 -0.55084,0.063 -1.35126,0.0618 -1.92271,0.0777 -0.713375,0.53197 -2.063525,1.96679 -2.58979,2.71631 -2.990626,0.99053 -4.214244,1.04429 -6.386535,3.53735 -0.715111,0.90554 -1.061726,1.5409 -1.593858,2.54681 -1.844386,-1.9817 -3.193268,-3.79802 -4.314455,-6.29822 -2.321972,-5.11899 -2.490048,-10.95627 -0.466329,-16.20021 2.019913,-5.28818 6.069095,-9.54983 11.247233,-11.83708 z"
       id="path158"
       style="stroke-width:0.158561" /><path
       fill="#fdeac2"
       d="m 113.96344,166.28413 c 1.44751,0.23943 4.77317,2.81367 5.87359,3.84844 4.10705,3.82625 6.51449,9.13536 6.68621,14.74589 0.16744,6.36243 -2.14058,11.33698 -6.42712,15.87358 -0.46855,-0.86257 -0.77505,-1.45258 -1.31495,-2.28868 -1.99867,-2.56504 -3.3049,-2.92292 -6.16883,-3.94135 0.0809,0.0287 -2.36336,-2.55617 -2.61833,-2.82018 -0.70512,-0.017 -1.2631,-0.0423 -1.9633,-0.11067 0.29936,-0.13985 0.59746,-0.28224 0.89428,-0.42733 2.66431,-1.31146 3.86478,-3.11684 4.79014,-5.83283 0.10846,0.004 0.21707,0.006 0.32553,0.008 1.79016,0.0239 3.24844,-1.30543 3.24622,-3.14379 -10e-4,-0.99735 -0.52024,-1.6067 -1.20728,-2.24523 0.36469,-1.20871 0.30697,-1.99137 0.46728,-3.21008 0.0415,-0.31617 0.41939,-0.78028 0.48472,-1.29465 0.1703,-1.33762 0.18155,-2.57995 -0.40782,-3.82466 -0.20359,-0.43002 -0.7121,-1.2298 -0.85512,-1.63318 -0.55306,-1.55818 -0.86543,-2.32831 -1.80522,-3.7032 z"
       id="path159"
       style="stroke-width:0.158561" /><path
       fill="#fbc6a6"
       d="m 109.67483,172.63039 c 0.11908,0.11321 0.42304,0.63139 0.52611,0.80375 0.78345,1.31193 1.50347,2.01579 3.01441,2.33481 0.35993,1.91939 0.52119,3.70415 0.29587,5.64748 -0.0604,0.52104 -0.19202,1.14846 -0.11353,1.64714 0.017,0.10845 0.21216,0.1389 0.31379,0.17648 0.0225,0.0523 0.055,0.11448 0.0474,0.1741 -0.86209,6.74773 -7.93742,10.84813 -13.75123,6.3434 -1.751468,-1.36458 -3.033278,-3.95927 -3.354682,-6.11238 l -0.01633,-0.11559 c -0.0021,-0.013 -0.0043,-0.026 -0.0063,-0.039 0.156659,0.01 0.192177,0.008 0.348518,-0.009 0.108456,-0.215 -0.07135,-0.89428 -0.123202,-1.15591 -0.267334,-1.34713 -0.230072,-2.44945 -0.02347,-3.80055 2.861557,0.0339 4.111336,-0.60397 6.395416,-2.17103 -0.36501,0.38293 -0.92632,0.93282 -1.19746,1.35856 l 0.0312,0.13319 c 0.64487,0.3455 2.54253,-0.20137 3.22625,-0.49313 2.31372,-0.98768 3.45838,-2.43931 4.38723,-4.72243 z"
       id="path160"
       style="stroke-width:0.158561" /><path
       fill="#3e2036"
       d="m 102.48471,185.67587 c 0.828,0.013 4.73559,-0.0274 5.26392,0.0812 0.61125,0.55433 -0.27939,1.64856 -0.70941,2.08476 -0.43366,0.34567 -0.95359,0.56591 -1.50348,0.6371 -0.8418,0.11163 -1.692,-0.13382 -2.3448,-0.67689 -0.55243,-0.45793 -1.31923,-1.45369 -0.70623,-2.12615 z"
       id="path161"
       style="stroke-width:0.158561" /><path
       fill="#d2d1d1"
       d="m 103.32064,186.10018 c 1.19191,-0.0488 3.0967,-0.0498 4.26498,0.0138 -0.25702,0.84593 -0.38657,1.10866 -1.0882,1.62589 -0.59825,0.2797 -1.09915,0.39894 -1.76511,0.31998 -0.83324,-0.0986 -2.07731,-0.85465 -1.92937,-1.8252 0.18647,-0.16697 0.2028,-0.11147 0.5177,-0.13446 z"
       id="path162"
       style="stroke-width:0.158561" /><path
       fill="#f99477"
       d="m 104.03972,183.7541 c 0.42351,-0.98054 0.20851,-3.0504 1.02605,-3.65119 0.83879,0.0165 0.82246,2.99903 1.16098,3.64057 0.87273,1.57895 -3.15331,1.4104 -2.18703,0.0106 z"
       id="path163"
       style="stroke-width:0.158561" /><path
       fill="#3e2036"
       d="m 106.22675,183.74348 c 0.87273,1.57895 -3.15331,1.4104 -2.18703,0.0106 0.80898,1.14434 1.35934,0.96834 2.18703,-0.0106 z"
       id="path164"
       style="stroke-width:0.158561" /><path
       fill="#f99477"
       d="m 109.81563,183.46838 c 0.14065,-0.008 0.28145,-0.0136 0.42225,-0.0166 0.57843,-0.0113 0.99878,0.0863 1.42483,0.49201 0.17981,0.58605 -0.34122,0.69577 -0.80152,0.86559 -0.1305,0.0162 -0.26131,0.0301 -0.39244,0.0417 -0.57415,0.049 -1.63366,-0.0974 -1.59624,-0.85195 0.22706,-0.35375 0.55005,-0.43795 0.94312,-0.5307 z"
       id="path165"
       style="stroke-width:0.158561" /><path
       fill="#3e2036"
       d="m 100.42277,180.72637 c 1.34698,0.0826 1.42262,1.61907 0.45064,2.39634 -1.368865,0.0596 -1.421032,-1.60448 -0.45064,-2.39634 z"
       id="path166"
       style="stroke-width:0.158561" /><path
       fill="#3e2036"
       d="m 109.40321,180.73827 c 1.36966,-0.005 1.45576,1.59861 0.4611,2.41219 -1.33968,-0.15301 -1.39058,-1.64587 -0.4611,-2.41219 z"
       id="path167"
       style="stroke-width:0.158561" /><path
       fill="#f99477"
       d="m 99.469345,183.53529 c 0.196616,-0.0111 0.39339,-0.017 0.590325,-0.0178 0.49281,-0.001 0.95676,0.13208 1.31241,0.48742 0.15872,0.52309 -0.34836,0.66738 -0.75396,0.82325 -0.705596,0.0866 -1.568329,0.0698 -2.035768,-0.55941 -0.06216,-0.54624 0.451742,-0.62298 0.886993,-0.7335 z"
       id="path168"
       style="stroke-width:0.158561" /><path
       fill="#3e2036"
       d="m 99.794712,178.70916 c 0.608558,-0.0401 1.904798,-0.0991 2.229528,0.52832 l -0.0916,0.11433 c -0.349,0.0905 -0.57479,-0.0258 -0.92791,-0.13605 -1.04111,-0.16903 -1.602734,0.29857 -2.306905,0.10957 l -0.03488,-0.1148 c 0.3065,-0.41226 0.632343,-0.40655 1.131811,-0.50137 z"
       id="path169"
       style="stroke-width:0.158561" /><path
       fill="#3e2036"
       d="m 109.29222,178.70931 c 0.58906,-0.0623 2.07969,-0.0312 2.32721,0.61871 l -0.0897,0.10481 c -0.29667,0.0669 -0.52325,-0.0577 -0.81485,-0.16585 -1.02399,-0.22263 -1.58704,0.15761 -2.54047,-0.0308 l -0.0155,-0.17172 -0.0699,0.11512 c 0.28208,-0.35581 0.76966,-0.40069 1.20332,-0.4703 z"
       id="path170"
       style="stroke-width:0.158561" /><path
       fill="#9b9146"
       d="m 97.855348,194.86402 c 0.04884,0.004 0.09752,0.008 0.146353,0.0119 0.712416,0.90396 1.730221,2.9326 2.425509,3.70305 0.66469,-0.51311 1.92367,-1.79016 2.54872,-2.39793 l 0.007,10.52768 c -2.1807,-0.17314 -4.539137,-0.83514 -6.543195,-1.68566 -0.758874,-0.3666 -1.366164,-0.6861 -2.098083,-1.09487 -0.01,-0.63393 0.129703,-2.94861 -0.182505,-3.27556 l -0.150157,0.0111 c -0.123044,0.18409 -0.07833,2.62165 -0.07881,3.05833 -1.378533,-0.86368 -2.612457,-1.76653 -3.740146,-2.94242 0.132875,-0.27162 0.270823,-0.54054 0.413687,-0.80692 1.833762,-3.4097 3.824183,-4.09374 7.251962,-5.10869 z"
       id="path171"
       style="stroke-width:0.158561" /><path
       fill="#3e2036"
       d="m 95.766937,200.87461 c 1.886721,-0.023 3.773602,-0.0185 5.660163,0.013 0.0163,0.53134 -0.009,1.18287 -0.0168,1.7234 l -5.623692,0.0105 c -0.03203,-0.54561 -0.01823,-1.19223 -0.01966,-1.74687 z"
       id="path172"
       style="stroke-width:0.158561" /><path
       fill="#9b9146"
       d="m 101.06923,201.24469 0.006,0.9964 -4.922065,-0.0106 0.0055,-0.94804 c 1.636987,0.009 3.273975,-0.004 4.910805,-0.0377 z"
       id="path173"
       style="stroke-width:0.158561" /><path
       fill="#9b9146"
       d="m 112.231,194.91413 c 4.09802,1.28942 5.61117,2.06034 7.52706,6.14631 -1.30797,1.19952 -2.37984,1.91812 -3.85922,2.8503 -0.004,-0.43351 0.0333,-2.97445 -0.0611,-3.19628 l -0.17077,-0.0534 -0.12748,0.0932 c -0.0994,0.78361 -0.0564,2.51922 -0.0561,3.38243 -0.48393,0.28081 -0.85719,0.46173 -1.36474,0.6991 -2.24967,1.10184 -4.33903,1.59037 -6.81195,1.8669 l 0.0121,-10.53149 c 0.79804,0.74191 1.69581,1.68931 2.4772,2.47181 0.62568,-0.70084 1.90559,-2.87408 2.43503,-3.72888 z"
       id="path174"
       style="stroke-width:0.158561" /><path
       fill="#3e2036"
       d="m 110.91954,199.72615 c 0.43461,-0.73795 1.00195,-1.2658 1.77097,-0.53404 0.98451,0.93694 2.63862,0.97357 1.07171,2.4864 0.0162,0.11718 0.008,0.14794 0.0542,0.25275 0.25687,0.59794 -0.21818,1.20015 -0.79978,1.35491 -0.47537,0.12653 -0.58668,-0.25481 -0.99894,-0.35106 -0.58858,0.22104 -0.56099,0.53372 -1.24978,0.26892 -0.96548,-0.37103 -0.29001,-1.04222 -0.52769,-1.57768 -1.01479,-0.81596 -0.53404,-2.02134 0.67928,-1.9002 z"
       id="path175"
       style="stroke-width:0.158561" /><path
       fill="#3e2036"
       d="m 110.91954,199.72615 c 0.43461,-0.73795 1.00195,-1.2658 1.77097,-0.53404 0.98451,0.93694 2.63862,0.97357 1.07171,2.4864 0.0162,0.11718 0.008,0.14794 0.0542,0.25275 l -0.22309,0.18472 c -0.0791,-0.0628 -0.43097,-0.45158 -0.52024,-0.54719 l 0.0921,-0.23784 c -0.12415,-0.42891 -0.14635,-0.50946 -0.38324,-0.88414 -0.0723,-0.0617 -0.18457,-0.18758 -0.25465,-0.26099 -0.56829,-0.17458 -0.66279,0.12922 -1.15163,-0.25196 -0.17854,-0.12621 -0.25037,-0.13684 -0.45618,-0.20771 z"
       id="path176"
       style="stroke-width:0.158561" /><path
       fill="#f5797b"
       d="m 111.37572,199.93386 c 0.27716,-0.79391 0.97737,-0.93186 1.30401,-0.18282 -0.0205,0.30872 0.0239,0.1676 -0.15238,0.43478 -0.56829,-0.17458 -0.66279,0.12922 -1.15163,-0.25196 z"
       id="path177"
       style="stroke-width:0.158561" /><path
       fill="#f5797b"
       d="m 112.782,200.44681 c 0.2028,-0.13113 0.40988,-0.33298 0.65612,-0.2629 0.463,0.13145 0.52167,0.48235 0.35455,0.86702 -0.18029,0.19297 -0.36041,0.26495 -0.62743,0.28002 -0.12415,-0.42891 -0.14635,-0.50946 -0.38324,-0.88414 z"
       id="path178"
       style="stroke-width:0.158561" /><path
       fill="#f5797b"
       d="m 113.07312,201.56879 c 0.0893,0.0956 0.44111,0.4844 0.52024,0.54719 -0.21168,0.97896 -0.88795,0.81993 -1.47018,0.2491 0.38324,-0.26701 0.66151,-0.42129 0.94994,-0.79629 z"
       id="path179"
       style="stroke-width:0.158561" /><path
       fill="#fdce72"
       d="m 111.79892,200.61155 c 0.30348,-0.13699 0.66072,-0.004 0.80026,0.29858 0.13969,0.30221 0.01,0.66056 -0.2916,0.80279 -0.30475,0.14413 -0.66849,0.0119 -0.80993,-0.29413 -0.14128,-0.30602 -0.006,-0.66865 0.30127,-0.80724 z"
       id="path180"
       style="stroke-width:0.158561" /><path
       fill="#f5797b"
       d="m 110.55056,200.07482 c 0.28018,0.0182 0.37548,0.0228 0.5778,0.20217 0.0641,0.22833 0.0531,0.23974 -0.0258,0.46839 l -0.21057,0.6233 c -0.85544,-0.18361 -1.09471,-0.70211 -0.34139,-1.29386 z"
       id="path181"
       style="stroke-width:0.158561" /><path
       fill="#f5797b"
       d="m 110.8485,201.69865 c 0.36041,0.0855 0.75761,0.28858 0.92996,0.62838 -0.0189,0.25909 -0.0393,0.19852 -0.26654,0.4435 -0.90491,0.20422 -1.14862,-0.35915 -0.66342,-1.07188 z"
       id="path182"
       style="stroke-width:0.158561" /><path
       fill="#f8dbb3"
       d="m 104.23189,162.78452 c 1.8325,-0.22278 4.43211,0.2361 6.09669,1.05126 2.69729,1.32098 3.97767,3.26082 4.95393,6.00948 -2.64544,-1.94222 -5.9895,-2.53667 -9.19799,-2.69221 -3.55415,-0.20138 -8.053961,0.59064 -10.98259,2.69855 1.541375,-4.47825 4.418471,-6.65085 9.12996,-7.06708 z"
       id="path183"
       style="stroke-width:0.158561" /><path
       fill="#be97c1"
       d="m 104.20858,171.66428 c 0.36929,-0.0355 0.91031,-0.0251 1.29815,-0.0293 -1.14386,4.19379 -4.22107,6.38923 -8.512687,6.46391 0.47616,-1.23804 0.869075,-1.94824 1.71722,-3.00014 0.380071,-0.47124 1.308767,-1.30496 1.498247,-1.78952 l -0.0683,-0.11955 c -0.812787,0.0474 -2.512564,2.62006 -2.940363,3.3615 -1.175098,2.11298 -1.104538,4.05298 -0.688632,6.39271 -0.82991,-1.40548 -0.719076,-2.25696 -1.23662,-3.47455 -0.234354,-0.007 -0.431604,0.17965 -0.639954,0.32378 -0.353909,-1.21299 -0.45951,-2.19369 -0.375949,-3.45426 1.984713,-3.24416 6.394618,-4.43908 9.948928,-4.67454 z"
       id="path184"
       style="stroke-width:0.158561" /><path
       fill="#fdeac2"
       d="m 103.3977,196.20926 c 1.46146,0.43763 2.08112,0.4205 3.53053,0.0149 -0.0241,3.49913 -0.0273,6.99827 -0.01,10.49724 -0.79836,0.17489 -2.6659,0.0774 -3.53085,0.0316 z"
       id="path185"
       style="stroke-width:0.158561" /><path
       fill="#f8dbb3"
       d="m 104.58771,167.54105 c 1.43957,-0.0772 3.96419,0.17647 5.3497,0.49154 0.10227,1.50554 0.14286,2.30817 -0.043,3.81054 -1.26532,-0.40211 -2.62625,-0.52499 -3.94358,-0.60776 -2.2086,-0.0534 -3.40241,0.12177 -5.50113,0.56511 -0.13668,-1.48651 -0.101,-2.26442 -0.002,-3.73174 1.3056,-0.35106 2.791,-0.45365 4.13957,-0.52769 z"
       id="path186"
       style="stroke-width:0.158561" /><path
       fill="#fbc6a6"
       d="m 102.51689,191.58434 c 1.99439,0.65137 3.33011,0.58493 5.33179,0.0324 l 0.0419,1.00416 c 0.0878,0.47886 0.1194,0.72701 0.31173,1.18414 -0.45111,0.64852 -0.87906,1.25375 -1.28371,1.93461 -0.0674,0.0312 -0.1351,0.0615 -0.20328,0.0909 -1.10549,0.47204 -2.17768,0.36676 -3.25891,-0.0675 -0.42098,-0.69482 -0.90554,-1.35396 -1.37679,-2.01643 0.13843,-0.4213 0.21327,-0.73889 0.31094,-1.1659 0.0404,-0.32965 0.0772,-0.66881 0.12637,-0.99624 z"
       id="path187"
       style="stroke-width:0.158561" /><path
       fill="#f99477"
       d="m 102.51689,191.58434 c 1.99439,0.65137 3.33011,0.58493 5.33179,0.0324 l 0.0419,1.00416 c -0.33631,0.084 -0.62299,0.212 -0.99339,0.30064 -1.49761,0.35835 -3.0661,0.19423 -4.50663,-0.34091 0.0404,-0.32965 0.0772,-0.66881 0.12637,-0.99624 z"
       id="path188"
       style="stroke-width:0.158561" /><path
       fill="#be97c1"
       d="m 106.01888,171.63748 c 1.25771,0.19138 1.9484,0.17267 3.34406,0.45745 -0.0379,0.14001 -0.0775,0.27954 -0.11908,0.4186 -0.5973,1.98741 -1.91114,3.31298 -3.6986,4.27228 -0.93869,0.45412 -1.77002,0.64661 -2.79481,0.75189 1.17637,-1.20046 2.83968,-4.30636 3.26843,-5.90022 z"
       id="path189"
       style="stroke-width:0.158561" /><path
       fill="#be97c1"
       d="m 110.09264,172.31311 c 2.29644,0.66421 4.81868,1.95125 6.02898,4.11007 0.0553,1.13355 -0.16253,2.26203 -0.41781,3.35849 -0.28145,-0.13129 -0.51279,-0.2832 -0.77505,-0.44572 -0.22928,1.00623 -0.34424,1.6308 -0.77854,2.55458 -0.0837,0.17775 -0.23736,0.42114 -0.34138,0.59762 0.16269,-1.03937 0.26416,-2.78244 0.19995,-3.7874 -0.055,-0.86099 -0.35106,-4.1134 -0.83626,-4.68897 l -0.11717,0.0468 c -0.14461,0.40893 -0.0166,0.87875 0.0485,1.32589 -1.65776,-0.6826 -2.33704,-1.46511 -3.01124,-3.07133 z"
       id="path190"
       style="stroke-width:0.158561" /><path
       fill="#9b9146"
       d="m 100.48778,192.1634 c 0.83467,1.1575 1.64746,2.39539 2.46817,3.57445 -0.69815,0.53388 -1.65855,1.49762 -2.31262,2.12631 l -0.0844,0.0725 c -0.35248,-0.18139 -1.933816,-2.95003 -2.245389,-3.48406 0.674044,-0.78964 1.402158,-1.59402 2.174189,-2.28916 z"
       id="path191"
       style="stroke-width:0.158561" /><path
       fill="#9b9146"
       d="m 109.7928,192.15167 c 0.71717,0.6222 1.56389,1.55961 2.19148,2.27139 -0.40402,0.74936 -1.73673,2.97303 -2.26315,3.60743 -0.68594,-0.76284 -1.58609,-1.60733 -2.33085,-2.33735 0.82277,-1.1575 1.66473,-2.32958 2.40252,-3.54147 z"
       id="path192"
       style="stroke-width:0.158561" /><path
       fill="#f8dbb3"
       d="m 113.7118,169.38876 c 1.3205,0.49233 2.45517,1.71881 2.79068,3.07482 0.23229,0.93821 0.40592,2.68635 -0.0928,3.54781 -0.89793,-1.30083 -1.57071,-1.82234 -2.91023,-2.71409 0.25782,-1.17399 0.26067,-2.70871 0.21231,-3.90854 z"
       id="path193"
       style="stroke-width:0.158561" /><path
       fill="#f8dbb3"
       d="m 96.470315,169.47248 0.07944,0.0146 c 0.02949,0.0496 0.201373,3.14142 0.367863,3.77899 -1.252318,0.76474 -2.068909,1.44021 -2.911504,2.63941 l -0.09117,-0.032 c -0.454278,-0.73065 -0.283508,-2.35194 -0.09244,-3.17756 0.421773,-1.82283 1.144496,-2.29375 2.647816,-3.2234 z"
       id="path194"
       style="stroke-width:0.158561" /><path
       fill="#f8dbb3"
       d="m 110.35046,168.13391 c 1.0056,0.2353 1.98265,0.57859 2.91452,1.02367 0.0709,1.33651 0.13176,2.57218 -0.15206,3.8865 -1.05507,-0.50692 -1.75972,-0.80359 -2.86124,-1.15164 0.27764,-1.29909 0.18535,-2.44184 0.0988,-3.75853 z"
       id="path195"
       style="stroke-width:0.158561" /><path
       fill="#f8dbb3"
       d="m 99.693867,168.22476 0.227219,-0.006 c 0.127324,0.15064 0.06549,0.84307 0.0574,1.10486 -0.02727,0.88985 -9.51e-4,1.69946 0.09355,2.58756 -1.013865,0.31237 -1.728501,0.60602 -2.675905,1.07521 l -0.100845,-0.0355 c -0.306658,-0.60142 -0.240855,-2.9846 -0.23372,-3.76456 0.821031,-0.40703 1.754799,-0.69688 2.632277,-0.96184 z"
       id="path196"
       style="stroke-width:0.158561" /><path
       fill="#fbc6a6"
       d="m 95.072121,179.93404 c 0.05455,0.24736 0.354702,1.43958 0.292546,1.57277 -0.299047,-0.1362 -0.510727,-0.33615 -0.740799,-0.0848 l 0.03599,0.14429 c 0.201215,0.23198 0.615218,0.38118 0.909508,0.51533 0.398941,0.48979 0.514056,0.97578 0.649151,1.58577 0.07944,0.28953 0.277165,0.88017 0.240061,1.14576 -0.288898,0.12305 -0.719075,0.0731 -1.020659,0.006 -0.678008,-0.14667 -1.262307,-0.57304 -1.608922,-1.17398 -0.894445,-1.54265 -0.239904,-2.93498 1.243121,-3.71066 z"
       id="path197"
       style="stroke-width:0.158561" /><path
       fill="#f5797b"
       d="m 95.569369,182.0816 c 0.398941,0.48979 0.514056,0.97578 0.649151,1.58577 -0.06549,0.0141 -0.131131,0.0274 -0.196934,0.04 -0.380388,0.0728 -0.42875,0.0786 -0.717173,-0.11639 -0.205337,-0.44984 0.09292,-1.01701 0.264956,-1.50934 z"
       id="path198"
       style="stroke-width:0.158561" /><path
       fill="#fbc6a6"
       d="m 115.22464,179.97685 c 0.70242,0.37484 1.27927,0.71987 1.54422,1.5352 0.49662,1.52869 -0.67753,3.06435 -2.14327,3.44109 -0.27193,0.0699 -0.67071,0.0982 -0.763,-0.23276 l 0.25212,-0.99387 c 0.12336,-0.63044 0.0991,-1.13736 0.58303,-1.50522 0.36437,-0.20882 0.84259,-0.39498 0.90221,-0.85021 -0.3417,-0.12542 -0.58588,0.12178 -0.86574,0.31602 0.19027,-0.58985 0.36564,-1.10343 0.49043,-1.71025 z"
       id="path199"
       style="stroke-width:0.158561" /><path
       fill="#f99477"
       d="m 114.11471,183.72651 c 0.12336,-0.63044 0.0991,-1.13736 0.58303,-1.50522 0.25576,0.44318 0.55956,0.80359 0.4576,1.27547 -0.27494,0.2529 -0.65866,0.21469 -1.04063,0.22975 z"
       id="path200"
       style="stroke-width:0.158561" /><path
       fill="#9b9146"
       d="m 108.32056,192.07699 1.0354,0.009 c -0.13366,0.27367 -0.33092,0.59555 -0.48551,0.86447 -0.13066,0.18044 -0.11908,0.19868 -0.3157,0.29017 l -0.13208,-0.10529 c -0.10988,-0.34265 -0.0921,-0.69449 -0.10211,-1.05855 z"
       id="path201"
       style="stroke-width:0.158561" /><path
       fill="#9b9146"
       d="m 101.00311,192.10505 c 0.30856,-0.0176 0.69434,-0.0117 1.00988,-0.0162 -0.053,0.36089 -0.12796,0.71226 -0.19979,1.06981 l -0.0915,0.0149 c -0.25037,-0.19979 -0.5824,-0.76982 -0.7186,-1.06855 z"
       id="path202"
       style="stroke-width:0.158561" /></g></svg>
