<?xml version="1.0" encoding="utf-8" ?><svg xmlns="http://www.w3.org/2000/svg" xmlns:xlink="http://www.w3.org/1999/xlink" width="1024" height="1024" viewBox="0 0 1024 1024"><path fill="#3E2036" d="M205.109 123.484C213.197 115.991 219.965 115.348 226.524 124.18C233.043 132.957 238.467 127.58 238.379 141.686C240.781 145.178 242.59 148.932 244.976 152.094C245.786 153.168 248.979 154.488 250.551 156.44C252.451 160.735 253.79 167.347 250.081 171.139C251.408 172.784 262.659 177.101 265.991 178.852C289.074 191.221 308.285 209.736 321.498 232.347C340.056 264.713 344.913 303.152 334.989 339.117C325.681 373.357 301.238 404.48 270.408 421.994C238.068 440.44 199.739 445.328 163.804 435.591C128.028 425.546 97.7195 401.679 79.5655 369.256C61.6267 337.017 57.1781 298.989 67.1917 263.48C76.5031 230.793 97.5395 202.686 126.276 184.538C135.274 178.965 142.308 176.818 150.506 172.213L150.984 171.939C145.998 160.18 148.192 158.355 157.392 151.099C158.647 147.521 159.356 144.351 162.322 141.983C162.393 141.619 162.371 140.937 162.376 140.536C160.887 139.206 159.838 138.61 159.473 136.686C156.518 127.89 170.633 128.371 174.102 126.545C182.713 122.013 181.983 118.427 192.627 119.863C196.644 121.576 200.752 121.8 205.109 123.484Z"/><path fill="#D2D1D1" d="M191.583 121.568C188.119 123.595 187.215 124.371 184.588 127.383C175.02 127.974 173.906 131.424 171.019 139.551C169.248 139.973 163.35 141.912 162.322 141.983C162.393 141.619 162.371 140.937 162.376 140.536C160.887 139.206 159.838 138.61 159.473 136.686C161.977 135.926 161.603 134.366 163.779 132.133C166.558 129.283 171.792 130.264 174.728 129.09C183.718 125.493 180.911 121.837 191.583 121.568Z"/><path fill="#D2D1D1" d="M243.322 154.864C244.291 155.437 245.643 156.073 246.674 156.598C247.922 156.724 249.275 156.538 250.551 156.44C252.451 160.735 253.79 167.347 250.081 171.139L248.77 170.94C247.576 170.728 244.353 169.601 243.042 169.181C242.513 167.139 241.33 164.384 240.534 162.356C241.664 159.861 242.444 157.447 243.322 154.864Z"/><path fill="#3B1538" d="M246.674 156.598C247.922 156.724 249.275 156.538 250.551 156.44C252.451 160.735 253.79 167.347 250.081 171.139L248.77 170.94C247.517 165.646 252.87 162.736 246.674 156.598Z"/><path fill="#FDEAC2" d="M243.094 173.231C261.088 177.515 283.629 192.844 296.788 205.914C322.419 231.275 336.789 265.869 336.669 301.927C336.665 341.293 321.463 373.018 293.998 400.547C282.668 379.424 276.045 371.149 253.267 363.383C256.704 346.231 244.536 340.794 230.63 337.366C230.038 337.365 229.903 337.261 229.315 337.091C230.391 335.213 234.74 333.012 236.701 331.231C245.791 322.973 249.855 315.231 253.955 304.102C256.11 306.835 258.933 308.932 260.856 311.868C264.926 318.278 256.368 322.12 255.97 328.163C255.711 332.097 262.046 337.191 265.387 336.806L265.683 335.872C264.499 333.328 261.974 333.025 260.215 330.952C254.904 324.688 265.093 322.735 264.772 315.979C264.513 310.525 261.029 307.657 257.587 304.139C275.502 301.312 283.83 287.339 272.61 271.821C276.773 264.38 275.86 259.53 277.087 251.803C278.951 240.07 275.634 238.677 270.417 229.501C273.427 232.831 278.105 235.934 280.341 239.357C284.692 246.017 276.364 255.759 281.238 262.988C282.802 265.308 283.009 266.706 285.769 267.445L286.714 266.881C286.757 265.527 282.599 260.348 282.467 258.397C282.063 252.419 285.739 247.373 284.345 241.357C283.498 235.424 275.649 233.174 273.934 228.298C270.665 219.006 275.836 215.938 265.872 209.682L265.704 209.302C263.344 204.15 261.215 201.889 258.596 197.503C252.627 187.51 254.171 186.291 241.618 185.605L237.481 181.728C241.204 178.391 241.637 178.02 243.094 173.231Z"/><path fill="#FDEAC2" d="M106.572 398.89C103.012 395.456 99.641 391.831 96.4731 388.033C73.3413 360.26 62.3268 324.363 65.9005 288.396C69.4362 252.79 86.9358 220.036 114.568 197.304C120.035 192.849 145.356 175.155 151.985 175.842C151.796 177.141 145.455 180.146 143.108 183.129C142.671 185.191 142.519 184.278 143.257 185.996L144.329 186.199L145.446 185.286L146.093 185.621C146.846 186.003 147.245 186.177 148.014 186.481L148.101 187.246C146.356 189.437 144.764 191.675 143.123 193.942C138.222 195.31 133.601 196.38 130.844 201.233C130.604 201.657 130.39 202.095 130.203 202.545C127.796 208.355 130.115 221.369 126.568 228.386C124.09 233.287 117.02 235.205 116.177 240.843C114.454 252.363 122.692 254.995 114.177 265.731L114.192 266.653C118.409 267.208 120.635 261.745 120.842 258.292C121.274 251.115 115.298 242.865 121.756 236.935C124.348 234.509 126.466 233.512 128.561 230.581L129.345 230.844C128.167 233.152 124.007 237.726 123.689 239.894C122.424 248.53 123.742 263.859 127.604 271.473C118.327 281.465 121.027 294.488 132.759 301.161C136.266 303.155 138.893 303.45 142.773 304.01C133.182 313.048 133.721 316.331 140.871 326.303C144.119 330.834 135.434 332.577 134.443 336.229L135.175 336.814C137.521 337.027 142.039 333.381 143.158 331.568C148.117 323.53 131.78 317.979 140.975 309.76C142.683 308.233 144.647 306.036 146.029 304.168C153.021 321.088 156.825 327.161 172.114 337.262C157.466 339.661 142.895 344.355 146.487 362.939C123.918 370.68 117.866 378.066 106.572 398.89Z"/><path fill="#B56B7D" d="M219.371 341.336C231.701 336.558 253.251 344.697 251.361 360.338C250.177 370.144 224.975 371.749 224.05 376.062L225.135 376.523C233.456 375.983 245.189 371.046 251.86 365.382C273.096 373.57 281.846 381.072 291.848 402.551C282.788 410.259 277.507 413.657 267.541 419.849L267.485 405.75C267.461 403.778 267.808 401.067 266.875 399.732L265.787 399.803C264.148 401.873 265.132 417.447 265.292 420.937C257.812 425.835 242.525 431.009 233.926 433.24C201.5 441.654 163.499 437.073 134.582 419.86C134.469 415.661 135.311 401.619 133.814 399.203L132.687 399.139C131.28 400.966 132.089 415.234 132.119 418.639C123.174 413.037 116.287 407.935 108.529 400.804C119.367 379.883 126.029 373.076 147.755 365.135C152.999 369.51 169.75 377.68 176.014 376.23L176.042 375.333C172.213 370.503 148.753 370.987 148.528 358.732C148.257 343.991 163.275 340.705 174.745 339.726C176.407 339.675 178.855 340.656 180.52 341.2C180.422 344.797 180.139 348.541 179.918 352.146C177.632 353.242 174.341 354.451 171.909 355.418C166.339 351.885 170.12 351.26 168.008 347.926C164.8 349.054 164.671 353.225 167.171 354.94C177.841 362.257 189.321 369.029 200.124 376.236C206.108 372.169 212.169 368.218 218.305 364.384C221.554 362.358 239.511 353.124 233.654 347.966C231.839 347.776 232.286 347.491 230.997 348.101C231.382 350.986 232.018 352.119 230.022 354.277C226.221 355.598 224.007 354.069 220.144 352.544C219.519 349.359 219.493 344.691 219.371 341.336Z"/><path fill="#3E2036" d="M187.857 373.657C188.384 373.779 189.05 374.033 189.578 374.212C190.591 376.633 188.521 397.04 188.321 401.877C193.097 405.094 193.299 408.349 189.052 412.089C181.882 412.166 181.334 406.339 185.889 401.795C185.971 397.288 186.452 377.046 187.857 373.657Z"/><path fill="#3E2036" d="M210.249 373.633L211.945 374.102C213.961 377.491 214.096 397.078 214.15 401.857C218.767 405.387 218.009 409.103 213.58 412.29C207.108 411.477 207.081 405.769 211.515 401.843C211.552 392.483 210.418 383.007 210.249 373.633Z"/><path fill="#B77657" d="M200.364 216.364C202.289 218.093 204.799 219.844 206.904 221.408C206.804 226.351 207.125 232.646 212.39 233.602C226.05 236.083 222.345 239.837 217.606 249.226C216.139 252.131 221.555 257.713 223.979 255.332C223.52 253.516 222.328 253.362 221.331 252.224C218.625 248.35 224.52 243.995 224.823 239.919C225.719 227.87 207.138 236.553 209.472 223.039C209.575 222.443 210.188 222.384 210.805 222.114C217.075 223.148 220.901 228.484 225.462 232.016C226.538 232.849 233.193 234.365 234.975 235.741C237.803 237.924 234.415 243.56 235.575 246.499C238.249 253.273 244.269 250.425 246.868 251.823C248.187 253.657 248.352 255.308 248.047 257.499L247.393 262.241L249.417 263.746C258.707 270.567 250.315 275.023 247.168 283.005C248.795 288.514 249.773 289.359 254.313 292.45C250.004 320.658 228.997 341.632 199.99 342.517C170.168 341.824 151.497 320.691 145.881 292.784C152.902 287.693 154.275 284.006 149.19 276.953C143.885 269.593 146.58 266.457 153.188 261.972C152.777 259.555 151.885 255.84 152.555 253.446C153.648 249.541 158.273 252.762 161.653 250.803C168.826 246.645 164.136 242.498 165.83 237.147C166.692 234.486 174.755 233.304 175.713 232.082C181.428 224.793 182.006 225.022 190.833 222.11C190.309 234.402 184.371 229.821 176.406 235.261C171.239 238.791 179.895 246.781 180.025 250.673C180.097 252.835 176.968 253.672 176.769 256.033C178.119 256.57 180.431 256.594 181.4 255.319C186.245 248.952 178.668 244.499 178.04 239.011C177.584 235.022 189.2 234.652 191.01 231.467C194.102 227.892 193.561 226.505 193.565 221.847C196.403 219.808 197.829 218.753 200.364 216.364Z"/><path fill="#3E2036" d="M182.857 304.562C189.291 304.542 210.801 303.939 217.373 305.145C220.813 305.776 214.884 315.228 212.31 317.915C209.851 319.714 208.372 320.764 205.332 321.615C200.173 323.075 194.639 322.323 190.057 319.539C185.856 317.003 179.549 309.52 182.857 304.562Z"/><path fill="#D2D1D1" d="M184.347 307.032L215.859 306.901C214.549 310.978 213.868 312.372 211.095 315.61C200.859 323.728 187.736 320.17 184.347 307.032Z"/><path fill="#935E4A" d="M193.298 291.894L193.438 291.436C194.971 286.264 196.66 271.319 199.718 269.113C205.461 269.02 204.921 289.47 207 292.937L207.508 293.401C209.877 300.277 189.256 302.144 193.298 291.894Z"/><path fill="#3E2036" d="M193.298 291.894C199.199 299.274 200.489 298.228 207 292.937L207.508 293.401C209.877 300.277 189.256 302.144 193.298 291.894Z"/><path fill="#3E2036" d="M170.897 273.928C179.477 275.293 179.415 284.706 172.994 289.368C164.978 289.025 163.873 278.022 170.897 273.928Z"/><path fill="#3E2036" d="M226.315 274.434C235.481 273.773 236.104 284.53 230.051 289.331C221.686 289.92 221.178 279.423 226.315 274.434Z"/><path fill="#F99477" d="M229.396 291.037L230.361 290.996C234.63 290.826 238.306 290.837 241.738 294.001C242.869 297.345 240.117 298.005 237.405 298.933C233.559 299.317 224.05 299.519 223.379 294.335C224.695 292.198 227.074 291.596 229.396 291.037Z"/><path fill="#F99477" d="M162.368 291.096C167.169 290.486 172.407 290.735 176.224 294.089C176.928 295.846 176.948 295.004 176.226 296.698C174.409 298.162 174.233 298.161 171.956 298.883C168.288 299.227 157.88 299.712 158.584 294.105C159.703 292.349 160.466 292.151 162.368 291.096Z"/><path fill="#3E2036" d="M169.712 260.67C172.853 260.668 179.089 261.235 180.88 264.033L180.195 264.731C176.672 265.517 174.25 264.647 170.642 263.957L169.939 263.988C165.477 264.154 164.877 265.619 160.823 266.194C159.495 265.495 160.038 265.981 159.245 264.576L159.754 263.606C163.033 261.549 165.98 261.11 169.712 260.67Z"/><path fill="#3E2036" d="M224.923 261.101C229.142 260.874 238.129 260.508 240.349 265.013L239.886 265.823C237.43 266.224 237.797 265.906 235.101 264.948C230.484 263.639 221.365 266.174 219.377 264.2C220.458 261.742 222.481 261.724 224.923 261.101Z"/><path fill="#B77657" d="M182.608 341.814C194.118 345.584 205.168 346.302 216.82 342.405L217.139 348.941C217.877 355.293 219.749 355.161 224.986 357.624C216.71 362.153 207.873 367.847 199.987 372.991C191.965 367.281 183.678 362.492 175.235 357.472L176.866 356.739C182.325 354.338 182.468 353.96 182.567 348.036L182.608 341.814Z"/><path fill="#935E4A" d="M182.608 341.814C194.118 345.584 205.168 346.302 216.82 342.405L217.139 348.941C203.563 352.436 196.122 351.77 182.567 348.036L182.608 341.814Z"/><path fill="#B77657" d="M262.653 269.191C267.714 271.121 271.554 273.032 273.961 278.427C275.611 282.14 275.697 286.362 274.2 290.14C272.149 295.432 262.673 303.267 257.203 301.363C257.529 298.445 259.075 295.983 259.91 293.206C258.621 289.335 258.584 288.73 259.787 284.84C262.752 283.232 264.973 282.47 266.64 279.555L266.246 278.873C264.245 278.965 264.203 279.238 262.611 280.299L260.009 282.009C261.04 277.567 261.935 273.709 262.653 269.191Z"/><path fill="#935E4A" d="M259.787 284.84C261.314 286.907 263.117 288.974 263.864 291.368L263.658 292.628C262.104 293.645 262.295 293.499 259.91 293.206C258.621 289.335 258.584 288.73 259.787 284.84Z"/><path fill="#B77657" d="M138.374 268.848C138.421 274.401 138.48 276.683 140.182 281.925C139.43 281.374 138.672 280.832 137.908 280.299C136.123 279.058 135.468 278.444 133.227 278.852L133.006 279.693C134.089 281.558 135.786 282.216 137.722 283.327C139.337 284.517 140.83 285.539 142.271 286.948C141.444 289.034 140.591 291.323 139.678 293.355L142.662 301.676C121.966 298.007 116.666 275.723 138.374 268.848Z"/><path fill="#935E4A" d="M137.722 283.327C139.337 284.517 140.83 285.539 142.271 286.948C141.444 289.034 140.591 291.323 139.678 293.355L138.968 292.931C137.235 293.233 136.241 293.287 135.234 291.889C135.39 289.814 136.985 285.528 137.722 283.327Z"/><path fill="#D2D1D1" d="M214.272 121.022C223.29 120.467 221.176 123.539 226.613 128.882C228.35 130.676 232.069 131.58 233.681 133.333C235.559 135.376 236.863 138.92 233.879 140.579C231.914 140.358 231.846 140.211 230.125 139.357C225.3 128.131 223.24 126.209 211.012 128.548L207.152 124.892C209.897 122.827 211.046 122.117 214.272 121.022Z"/><path fill="#EE6970" d="M195.784 169.642C202.97 168.705 209.046 170.466 215.742 172.702C211.1 172.938 208.616 173.405 204.24 174.745L200.196 176.752C194.31 173.731 191.546 173.069 185.071 172.715C188.935 170.995 191.665 170.274 195.784 169.642Z"/><path fill="#FDEAC2" d="M155.871 171.176C158.352 176.038 158.866 177.787 162.444 182.028C161.181 183.182 159.801 184.391 158.593 185.589C153.906 185.477 152.393 185.188 148.101 187.246L148.014 186.481C147.245 186.177 146.846 186.003 146.093 185.621L145.446 185.286C149.416 179.28 151.915 182.136 154.667 177.032C154.986 176.441 155.606 172.259 155.871 171.176Z"/><path fill="#D2D1D1" d="M157.333 154.918C158.146 157.309 159.124 159.783 160.018 162.156C159.652 163.255 159.27 164.348 158.873 165.436C157.714 168.598 157.41 169.617 154.427 171.004C154.068 170.56 153.726 170.102 153.402 169.632C148.693 162.687 150.97 158.757 157.333 154.918Z"/><path fill="#FDEAC2" d="M130.537 224.915C132.286 212.107 127.81 199.802 143.314 197.04L143.925 197.237C129.864 205.557 136.517 213.716 132.039 225.504L130.537 224.915Z"/><path fill="#FDEAC2" d="M143.314 197.04C150.266 192.94 145.675 188.14 157.191 188.232C152.921 194.951 151.774 194.811 143.925 197.237L143.314 197.04Z"/><path fill="#FDEAC2" d="M243.133 188.361C250.909 188.52 252.228 190.681 255.637 197.248C248.602 195.409 247.121 194.087 243.133 188.361Z"/><path fill="#FDEAC2" d="M266.007 213.255C270.503 215.729 269.868 222.947 270.276 227.626C266.972 224.33 266.46 217.577 266.007 213.255Z"/><path fill="#F8DBB3" d="M130.537 224.915L132.039 225.504C131.297 227.079 130.276 229.448 129.345 230.844L128.561 230.581C129.521 228.542 129.911 227.042 130.537 224.915Z"/><path fill="#3E2036" d="M525.096 146.833C534.525 148.8 541.592 151.991 547.572 160.222C548.81 161.925 549.957 164.984 551.312 166.377L553.459 163.595C553.579 162.793 555.306 158.198 555.685 157.14C559.047 159.156 560.194 160.117 562.831 162.904C566.168 167.095 567.554 169.697 569.913 174.538C575.157 176.485 581.261 179.982 586.06 182.936C610.14 197.881 629.02 219.895 640.121 245.972C654.649 280.313 655.061 318.996 641.27 353.639C627.242 387.992 600.171 415.385 565.986 429.819C533.145 443.709 493.459 443.69 460.543 430.067C425.634 415.534 398.056 387.545 384.04 352.425C370.83 320.17 371.386 279.978 384.875 247.947C397.091 218.94 415.598 197.165 442.85 181.076C449.04 177.422 454.736 175.109 460.854 171.884C466.799 168.751 468.053 165.033 475.489 162.083C479.92 160.336 484.557 159.166 489.286 158.602C498.382 157.606 507.637 158.491 516.508 156.09C521.998 154.603 523.366 151.985 525.096 146.833Z"/><path fill="#935E4A" d="M555.685 157.14C559.047 159.156 560.194 160.117 562.831 162.904L561.269 164.907C573.493 182.246 569.239 193.515 555.074 207.013C544.653 204.862 534.55 209.603 523.946 210.848C540.102 200.019 554.447 190.893 551.088 168.473C551.395 168.281 551.702 168.089 552.009 167.897C553.172 165.976 553.537 165.747 553.459 163.595C553.579 162.793 555.306 158.198 555.685 157.14Z"/><path fill="#3E2036" d="M555.685 157.14C559.047 159.156 560.194 160.117 562.831 162.904L561.269 164.907L557.183 160.974C555.585 164.508 555.294 165.767 552.009 167.897C553.172 165.976 553.537 165.747 553.459 163.595C553.579 162.793 555.306 158.198 555.685 157.14Z"/><path fill="#FDEAC2" d="M570.553 178.591C582.182 183.783 595.262 192.727 604.564 201.33C631.208 225.87 646.871 260.089 648.031 296.294C649.296 335.309 635.958 367.613 609.562 395.841C606.458 390.546 605.011 387.49 601.361 382.278C588.166 365.659 580.045 363.707 560.198 357.606C551.359 354.889 542.303 352.109 533.138 350.209C532.568 346.077 532.529 343.266 532.462 339.061C555.945 330.081 562.701 316.31 567.469 293.157C570.427 293.059 573.127 292.889 575.932 291.837C581.369 289.818 585.711 285.613 587.904 280.244C592.298 269.34 586.482 260.535 576.195 256.585C577.265 244.813 578.251 232.87 578.642 221.055C579.015 209.8 579.497 199.001 570.064 191.006C570.685 186.411 570.696 183.201 570.553 178.591Z"/><path fill="#FDEAC2" d="M457.041 177.526C457.155 177.752 457.27 177.977 457.384 178.202C455.77 182.725 454.624 185.712 454.463 190.493C445.25 197.972 445.174 206.396 445.175 217.399C445.177 230.489 446.433 243.429 447.798 256.428C444.985 257.549 442.718 258.533 440.462 260.63C436.941 263.85 434.918 268.39 434.877 273.161C434.864 278.563 437.057 283.736 440.948 287.484C445.763 292.139 450.429 293.17 456.742 293.039C461.892 318.12 467.341 328.463 491.513 339.021C491.475 343.087 491.318 346.146 490.959 350.2C481.462 352.119 473.704 354.374 464.549 357.213C445.495 363.122 436.792 365.026 423.867 381.015C420.668 385.008 417.626 390.42 414.98 394.884C405.183 384.27 397.402 373.454 391.074 360.386C375.373 327.846 373.288 290.391 385.281 256.309C397.925 220.019 422.773 193.987 457.041 177.526Z"/><path fill="#71BFB5" d="M472.771 357.487C473.119 357.61 473.468 357.734 473.816 357.858C475.892 361.765 479.91 368.528 483.408 371.249C505.316 388.29 538.808 384.026 550.638 357.573C579.2 366.074 593.812 368.821 607.508 398.163C598.81 406.447 593.39 410.369 583.659 416.896C583.581 413.557 583.855 398.793 582.983 397.194L581.863 397.101C580.271 398.759 581.004 414.807 581.05 418.355C576.68 421.244 571.376 423.796 566.627 425.985C527.547 443.354 479.506 440.353 443.307 417.402C443.327 412.622 443.813 400.353 442.639 396.438L441.941 396.357C439.744 399.002 440.823 411.88 440.944 416.165C430.876 409.456 425.704 405.376 417.162 396.917C432.888 367.803 443.503 366.715 472.771 357.487Z"/><path fill="#935E4A" d="M527.164 149.795C540.443 154.01 550.078 161.369 549.04 176.908C548.252 188.705 538.957 198.028 529.463 203.922C525.505 206.379 520.115 208.783 516.733 211.888C508.967 213.014 500.568 211.083 492.851 209.667C492.863 209.28 492.872 208.894 492.88 208.507C493.55 183.475 523.826 183.997 524.171 163.782L523.618 163.337C521.676 164.53 521.008 167.267 520.135 169.511C509.242 186.663 491.202 183.804 490.212 209.094C480.763 206.659 473.9 204.475 464.874 209.112C444.551 184.111 467.35 161.548 493.1 160.856C501.309 160.635 510.394 160.357 518.317 158.287C522.703 157.141 525.083 153.564 527.164 149.795Z"/><path fill="#FBC6A6" d="M505.85 260.741L505.054 260.976C501.819 254.847 503.194 253.225 496.218 249.074C495.127 248.424 497.562 244.958 493.275 244.196C485.445 241.625 475.664 241.888 468.075 244.888C463.927 246.527 463.387 257.855 456.919 257.485L455.625 256.558C456.253 251.986 458.15 247.469 458.758 242.687C460.621 228.028 456.904 205.221 479.948 209.408C494.572 212.598 507.569 216.071 522.685 213.864C531.257 212.613 541.831 208.939 550.279 208.89C567.967 208.788 563.303 234.389 565.886 245.631C566.459 248.125 568.557 255.341 567.312 257.449C563.136 257.768 558.518 246.685 554.995 244.73C549.397 241.623 532.525 240.986 528.248 246.082C528.178 247.086 528.155 247.705 528.18 248.71C526.107 250.587 523.143 252.716 521.52 254.816C520.213 256.507 520.115 260.579 518.475 261.249C512.798 258.943 511.511 258.843 505.85 260.741Z"/><path fill="#F99477" d="M505.85 260.741C507.706 257.714 508.58 255.278 511.866 254.251C515.704 254.487 516.904 258.181 518.475 261.249C512.798 258.943 511.511 258.843 505.85 260.741Z"/><path fill="#935E4A" d="M458.507 287.415C459.146 288.226 460.813 291.906 461.45 293.172C464.991 299.963 468.509 308.71 474.905 313.346C486.105 321.171 484.661 309.094 488.133 302.673C493.282 293.151 504.893 297.209 512.204 296.919C526.436 296.355 534.877 294.408 539.08 311.002C539.535 312.797 540.097 314.443 541.784 315.519C552.17 317.458 561.604 295.641 564.892 288.378L565.281 288.302L564.653 292.043C563.28 302.935 561.241 311.949 554.193 320.635C545.289 331.609 532.137 338.471 518.155 339.999C503.353 341.575 488.533 337.198 476.963 327.832C464.234 317.472 460.152 303.354 458.507 287.415Z"/><path fill="#3E2036" d="M495.031 301.114C500.429 300.866 506.507 301.383 511.999 301.27C518.056 301.145 523.88 300.903 529.945 301.019C535.728 306.642 537.807 315.321 533.756 322.853C531.613 326.837 528.255 328.001 524.109 329.101C519.136 329.306 518.983 328.232 516.721 324.202C514.082 323.998 511.019 324.066 508.342 324.054C507.498 325.178 505.598 327.891 504.388 328.233C492.205 331.679 486.367 316.503 490.04 306.93C491.182 303.956 492.397 302.32 495.031 301.114Z"/><path fill="#FBC6A6" d="M530.838 305.594C537.516 312.628 530.684 331.071 520.619 325.808C517.991 321.67 515.413 320.264 510.286 321.319C506.072 322.187 505.391 323.319 503.238 326.857C502.545 326.668 501.854 326.474 501.165 326.274C496.871 325.028 494.563 324.262 492.369 320.293C490.913 314.173 491.591 311.221 493.076 305.439C495.479 310.802 498.469 315.101 503.993 317.647C508.826 319.817 514.326 319.961 519.265 318.047C525.205 315.712 528.377 311.144 530.838 305.594Z"/><path fill="#D2D1D1" d="M496.259 303.73C506.979 303.473 517.703 303.444 528.424 303.641C527.201 307.555 526.491 309.188 523.867 312.312C513.797 319.585 497.697 317.554 496.259 303.73Z"/><path fill="#FBC6A6" d="M542.268 313.652C538.985 304.06 537.993 294.193 524.964 294.226C514.616 294.252 502.849 293.019 492.755 295.698C482.604 298.391 485.886 309.132 481.264 312.995C473.249 314.331 464.769 293.108 461.672 287.59C457.557 280.256 455.049 275.946 454.793 267.266C454.732 265.181 452.861 261.97 454.109 259.863L455.314 259.572C455.95 259.776 456.586 259.979 457.222 260.183C458.251 263.012 458.534 268.89 459.372 271.673C460.176 274.343 460.887 276.383 461.951 278.119C464.582 282.41 470.535 285.672 475.172 286.766C481.698 288.306 489.176 287.601 494.718 283.849C502.053 278.884 503.238 273.761 504.7 265.721C505.038 263.861 505.603 263.885 506.997 263.009L512.228 261.754C516.663 263.059 520.144 263.462 519.421 269.17C520.011 270.83 520.649 272.473 521.336 274.095C530.217 294.907 564.986 291.034 565.584 267.232C565.674 263.659 565.115 261.277 568.443 259.95C569.593 260.316 569.131 259.96 569.663 260.797C570.675 262.392 567.253 279.178 566.785 279.84C557.728 292.657 558.118 306.964 542.268 313.652Z"/><path fill="#F99477" d="M512.228 261.754C516.663 263.059 520.144 263.462 519.421 269.17C517.332 266.388 519.748 267.329 517.998 266.307C517.305 268.364 519.109 282.058 520.091 284.024C517.885 286.348 515.498 289.215 512.032 289.034C508.228 288.835 506.411 285.928 504.108 284.376C505.738 283.01 508.579 265.095 506.997 263.009L512.228 261.754Z"/><path fill="#3E2036" d="M520.091 284.024C522.572 291.85 507.051 294.874 503.793 286.497C503.883 285.837 503.968 285.009 504.108 284.376C506.411 285.928 508.228 288.835 512.032 289.034C515.498 289.215 517.885 286.348 520.091 284.024Z"/><path fill="#FBC6A6" d="M534.582 251.25C542.076 251.015 549.113 251.26 556.612 251.489C569.29 261.075 563.8 278.481 549.819 284.254C534.667 286.607 520.656 280.289 521.714 261.871C521.954 257.711 525.18 253.871 528.505 251.437L534.582 251.25Z"/><path fill="#3E2036" d="M539.916 260.408C549.047 260.131 549.187 270.503 542.977 275.632C534.337 274.517 534.327 265.493 539.916 260.408Z"/><path fill="#FBC6A6" d="M477.026 251.238C482.52 251.12 489.762 250.949 495.147 251.595C509.018 260.189 501.633 280.771 485.997 284.57C482.958 284.818 480.51 285.061 477.44 284.545C472.071 283.697 467.274 280.714 464.138 276.275C458.072 267.668 459.645 257.594 468.234 251.497L477.026 251.238Z"/><path fill="#3E2036" d="M480.472 260.396C489.235 260.235 490.111 270.65 483.745 275.521C475.174 275.769 474.756 265.499 480.472 260.396Z"/><path fill="#FBC6A6" d="M494.135 339.726C508.092 343.918 515.918 343.81 529.994 340.083L530.209 346.921C530.814 351.662 530.355 351.524 534.506 353.666C534.046 356.25 533.123 357.98 530.922 359.698C519.54 368.585 501.464 368.232 491.414 357.474C490.621 356.625 489.684 354.952 489.818 353.755C491.172 353.066 491.6 352.837 492.895 351.941C493.85 349.977 493.688 347.826 493.772 345.581L494.135 339.726Z"/><path fill="#F99477" d="M494.135 339.726C508.092 343.918 515.918 343.81 529.994 340.083L530.209 346.921C528.856 346.702 524.521 347.996 522.754 348.347C512.127 350.459 503.755 349.293 493.772 345.581L494.135 339.726Z"/><path fill="#935E4A" d="M568.821 193.19C571.108 194.292 572.177 196.24 573.322 198.388C574.545 200.681 575.643 205.573 575.818 208.08C576.433 216.845 575.492 249.018 572.957 255.707L572.067 255.836C570.791 254.86 570.401 253.274 569.772 251.713C567.929 243.942 567.332 238.104 567.045 230.081C566.72 220.984 565.588 213.783 557.757 208.088C563.46 202.352 565.068 200.341 568.821 193.19Z"/><path fill="#935E4A" d="M453.397 194.232L454.113 194.648C456.326 200.725 459.098 205.727 462.844 210.963C454.25 222.953 458.929 236.574 454.253 251.894C453.502 253.54 453.04 254.942 451.484 255.542L450.916 255.055C449.134 250.039 448.506 238.182 448.401 232.564C448.184 221.051 445.339 203.448 453.397 194.232Z"/><path fill="#FBC6A6" d="M573.381 258.475C596.306 265.397 586.142 291.186 569.009 290.268L568.188 289.737C568.32 286.762 568.818 284.051 569.29 281.117L570.17 275.334L573.991 272.168C575.655 271.167 577.316 270.477 578.055 268.745L577.834 267.86C575.194 267.144 573.299 269.039 571.254 270.515L573.381 258.475Z"/><path fill="#F99477" d="M570.17 275.334L573.991 272.168C573.953 274.887 575.318 279.959 574.958 281.499C573.115 282.927 571.424 281.828 569.29 281.117L570.17 275.334Z"/><path fill="#FBC6A6" d="M454.685 282.543C455.17 285.217 455.663 287.461 455.742 290.191C452.768 291.531 447.651 289.243 445.174 287.532C441.183 284.77 438.497 280.494 437.74 275.7C436.318 266.585 441.845 260.089 450.869 259.223C451.358 263.085 451.969 266.931 452.702 270.754C450.601 269.254 448.541 267.134 445.936 268.075L445.965 269.134C447.101 271.095 449.176 272.036 451.183 273.281C454.694 275.875 454.351 278.36 454.685 282.543Z"/><path fill="#F5797B" d="M451.183 273.281C454.694 275.875 454.351 278.36 454.685 282.543C452.767 282.877 452.601 282.875 450.646 282.81C447.179 280.731 449.949 276.374 451.183 273.281Z"/><path fill="#71BFB5" d="M503.514 367.373C506.61 368.195 508.342 368.374 511.514 368.745C511.429 371.595 511.453 375.505 510.881 378.174L510.057 378.645C506.28 378.464 504.313 377.975 500.588 377.143C501.608 373.967 502.557 370.585 503.514 367.373Z"/><path fill="#71BFB5" d="M494.542 363.765C495.999 364.221 499.465 366.079 500.998 366.847C500.329 369.471 499.414 373.77 497.952 375.859L496.815 375.99C493.433 374.512 491.527 373.426 488.328 371.531L494.542 363.765Z"/><path fill="#71BFB5" d="M520.469 367.669C522.108 368.647 523.419 375.25 523.951 377.313L518.027 378.557C515.601 378.586 515.726 378.988 514.114 377.876C513.127 375.455 513.689 371.525 513.715 368.719C515.951 368.567 518.253 368.074 520.469 367.669Z"/><path fill="#71BFB5" d="M528.768 363.998C530.519 364.455 534.317 370.486 535.496 372.184C533.74 373.199 531.581 374.27 529.76 375.236C527.89 375.964 528.175 376.214 526.671 375.759C525.052 373.473 524.344 369.544 523.481 366.713L528.768 363.998Z"/><path fill="#71BFB5" d="M487.569 357.471C488.538 358.125 491.425 361.116 492.42 362.101C490.734 364.479 488.191 368.286 486.037 370.056C484.275 368.465 481.527 365.258 479.854 363.398C482.53 361.217 484.746 359.455 487.569 357.471Z"/><path fill="#71BFB5" d="M535.95 357.864C539.098 359.932 541.28 361.534 544.248 363.861C542.631 365.748 540.743 367.676 539.029 369.497L537.957 370.154C536.21 369.299 532.961 363.985 531.711 362.11L535.95 357.864Z"/><path fill="#935E4A" d="M540.274 245.184C545.717 244.628 549.684 245.832 554.788 247.453L544.383 247.564C539.273 247.756 534.161 247.907 529.048 248.018C533.318 246.384 535.806 245.725 540.274 245.184Z"/><path fill="#935E4A" d="M479.602 245.182C485.575 244.67 489.171 245.824 494.464 248.061C490.975 247.634 488.678 247.575 485.152 247.528C479.868 247.718 474.579 247.726 469.294 247.552C473.253 246.409 475.55 245.704 479.602 245.182Z"/><path fill="#71BFB5" d="M537.554 354.5C540.32 354.254 544.874 355.294 547.251 357.122C547.679 358.685 547.446 358.324 546.476 360.265L545.843 361.146L544.96 361.141C542.381 359.604 539.335 356.932 537.554 354.5Z"/><path fill="#71BFB5" d="M485.207 354.078L485.822 354.187L486.123 354.847C484.632 356.786 480.605 359.649 478.507 361.262L476.315 356.465C479.245 355.584 482.242 354.842 485.207 354.078Z"/><path fill="#3E2036" d="M832.08 563.223C833.982 562.966 834.181 562.903 836.055 563.058C840.848 567.296 830.19 581.9 853.682 587.666C854.193 584.036 854.442 580.632 854.725 576.977C860.038 579.029 866.407 582.455 869.644 587.13C874.422 594.03 881.309 595.803 888.553 599.747C901.461 606.776 912.7 615.023 923.018 625.578C948.913 651.776 963.178 687.291 962.601 724.122C962.132 760.775 946.907 795.691 920.367 820.975C891.606 848.651 857.59 860.591 818.122 859.921C796.385 858.581 779.944 854.855 760.27 844.775C727.171 827.88 702.243 798.401 691.082 762.955C680.337 728.497 683.59 691.195 700.137 659.117C712.124 636.081 730.941 615.494 753.662 602.567C757.759 599.108 772.732 594.716 775.654 592.022C785.045 583.363 785.823 580.476 798.741 576.415C798.956 578.856 799.103 583.99 800.489 585.742C803.464 585.104 806.635 578.73 808.841 576.326C815.753 568.791 822.424 565.946 832.08 563.223Z"/><path fill="#FDEAC2" d="M771.426 597.549L771.777 597.951C771.137 599.885 770.144 601.344 769.343 603.194C767.336 607.827 766.666 612.111 766.25 617.073C762.796 613.896 762.124 612.397 760.09 608.32C745.915 625.02 753.955 666.787 756.878 687.567C755.311 688.546 753.878 689.431 752.531 690.703C748.988 693.995 746.987 698.621 747.015 703.457C747.111 708.65 749.309 713.581 753.106 717.123C758.285 722.001 763.177 722.607 769.757 722.433C770.384 724.305 771.051 726.163 771.758 728.006C778.166 744.803 787.982 754.295 804.036 761.523C803.703 765.159 803.612 769.312 803.45 773.002C779.214 781.046 758.329 781.855 741.516 801.816C736.573 808.501 734.294 812.825 730.628 820.138C717.366 807.208 707.449 793.869 699.857 776.809C685.334 744.32 684.307 707.395 697.001 674.149C710.814 638.348 736.695 612.987 771.426 597.549Z"/><path fill="#B77657" d="M786.872 643.068C800.675 642.604 811.187 651.536 824.327 651.972C837.097 652.396 855.948 636.55 867.795 646.329C875.686 653.759 874.532 669.148 875.087 678.99C875.587 687.862 871.139 699.407 878.92 705.369L879.414 705.741C876.797 723.151 870.394 738.844 857.042 750.619C837.926 764.962 816.555 767.362 795.704 754.402C778.219 743.534 772.423 725.439 768.431 706.231C776.843 699.911 772.442 691.243 772.797 682.645C773.323 669.918 771.044 646.943 786.872 643.068Z"/><path fill="#3E2036" d="M808.418 725.18C813.789 725.188 836.964 724.654 840.767 725.584C844.413 728.773 838.278 736.508 835.698 738.935C825.198 745.99 812.574 743.767 806.961 732.056C805.609 729.235 805.166 726.344 808.418 725.18Z"/><path fill="#D2D1D1" d="M808.498 727.666C814.326 727.583 833.882 727.129 838.678 727.809L839.091 728.951C838.608 731.986 836.892 734.102 834.918 736.375C824.832 744.007 811.456 740.824 808.498 727.666Z"/><path fill="#935E4A" d="M817.356 712.598C819.918 708.894 818.571 691.109 824.149 688.07C830.3 690.736 828.845 707.643 831.04 713.405L831.617 714.018C832.299 720.644 819.1 721.643 816.534 716.186C816.502 713.735 816.193 714.545 817.356 712.598Z"/><path fill="#3E2036" d="M817.356 712.598C818.592 714.559 820.248 717.339 822.854 717.617C827.053 718.065 828.996 714.668 831.04 713.405L831.617 714.018C832.299 720.644 819.1 721.643 816.534 716.186C816.502 713.735 816.193 714.545 817.356 712.598Z"/><path fill="#3E2036" d="M794.894 692.929C802.967 694.456 803.45 704.394 796.536 708.561C788.252 706.759 788.307 697.208 794.894 692.929Z"/><path fill="#3E2036" d="M850.716 693.481C859.661 693.348 859.616 702.977 854.201 708.099C845.913 709.202 844.536 698.638 850.716 693.481Z"/><path fill="#F99477" d="M856.131 710.145C859.705 710.288 867.028 710.623 865.148 716.107C862.761 718.555 861.043 718.424 857.601 718.805C853.828 718.719 851.047 718.749 848.442 715.817C847.894 713.869 847.852 714.802 848.559 712.918C850.998 710.553 852.803 710.643 856.131 710.145Z"/><path fill="#F99477" d="M787.055 710.588L787.467 710.574C791.835 710.458 796.895 710.284 800.332 713.532C801.471 716.703 798.498 717.551 795.997 718.511C791.347 719.057 785.382 719.14 782.147 715.093C781.716 712.116 784.612 711.344 787.055 710.588Z"/><path fill="#3E2036" d="M850.067 679.646C854.251 679.142 863.143 679.761 865.293 683.844L864.631 684.523C862.571 685.042 861.208 684.348 859.131 683.701C852.551 681.883 848.293 685.006 843.028 683.303L842.822 682.567C845.175 680.16 846.863 680.182 850.067 679.646Z"/><path fill="#3E2036" d="M791.089 679.604C794.939 679.418 803.332 679.045 805.061 683.329L804.195 683.988C801.745 684.526 799.605 683.665 797.105 683.006C793.304 682.841 784.945 685.12 783.068 683.838L783.108 682.955C784.95 680.871 788.43 680.206 791.089 679.604Z"/><path fill="#FDEAC2" d="M876.923 598.077C886.484 600.977 901.478 611.177 909.172 617.397C937.255 639.965 955.118 672.849 958.765 708.692C962.586 745.713 950.923 779.818 927.647 808.466L927.494 787.505C936.349 776.257 942.567 762.097 935.528 747.699C932.723 741.963 927.779 740.413 922.105 738.638C923.946 732.693 927.868 726.403 929.83 720.544C931.285 716.199 931.312 708.849 931.512 704.041L927.034 707.276C917.329 715.304 915.996 721.954 910.715 732.976C910.482 733.462 904.716 732.29 903.114 734.167C899.701 738.166 901.551 743.806 900.884 748.615C900.195 753.642 896.892 760.296 896.56 765.001C895.914 774.159 897.137 782.829 896.827 792.292C881.103 782.22 861.743 779.048 843.901 772.741C843.445 769.463 843.463 765.143 843.381 761.742C863.301 751.891 870.527 743.572 877.99 722.452C880.292 722.56 882.468 722.708 884.745 722.238C889.874 721.149 894.363 718.073 897.23 713.683C903.598 703.982 900.509 693.876 891.172 687.718C893.791 670.664 895.985 653.273 896.114 635.982C896.154 630.581 893.924 611.029 887.747 609.388C885.921 612.393 884.721 614.657 882.086 617.027C880.819 608.49 880.097 606.153 876.923 598.077Z"/><path fill="#FDCE72" d="M857.18 779.658C870.497 783.783 886.196 787.249 896.874 795.862L896.96 835.127L891.516 838.769C891.359 833.983 892.321 821.893 890.104 819.012L889.496 819.187C888.235 821.997 888.794 836.231 888.824 840.363C877.78 845.946 871.315 848.53 859.552 852.092C825.856 861.084 789.498 857.663 758.996 840.339C758.989 836.812 759.964 820.59 757.97 818.941C755.43 821.195 756.509 835.275 756.527 839.153C747.545 833.707 740.735 829.201 732.824 822.053C744.942 792.172 761.052 788.571 788.836 779.987C790.395 779.84 792.137 783.77 792.997 785.207C800.787 798.225 816.077 803.39 830.754 800.894C843.546 798.718 851.955 791.701 857.18 779.658Z"/><path fill="#B77657" d="M909.605 747.705C908.355 746.656 906.683 745.54 906.081 744.182C908.855 738.572 923.065 740.674 927.445 743.237C939.106 750.06 936.62 769.103 930.646 778.801C929.045 781.436 927.116 783.858 924.906 786.009L925.307 810.588C919.655 818.73 907.48 828.039 899.438 833.905C898.836 812.685 899.399 791.568 899.126 770.359C899.084 767.05 899.796 763.486 900.399 760.237C900.111 757.294 902.132 753.947 903.609 751.199L904.144 751.357C904.143 752.799 903.988 752.926 904.71 754.116L906.305 754.308L906.792 753.819C913.748 746.956 917.868 750.789 926.017 749.785L926.608 749.029C926.395 748.258 926.445 747.725 925.903 747.555C921.339 746.116 913.948 747.19 909.605 747.705Z"/><defs><linearGradient id="gradient_0" gradientUnits="userSpaceOnUse" x1="919.22369" y1="771.16449" x2="902.70154" y2="759.32349"><stop offset="0" stop-color="#371732"/><stop offset="1" stop-color="#522C3D"/></linearGradient></defs><path fill="url(#gradient_0)" d="M900.399 760.237C900.111 757.294 902.132 753.947 903.609 751.199L904.144 751.357C904.143 752.799 903.988 752.926 904.71 754.116L906.305 754.308L907.08 757.171C908.988 758.023 922.906 750.639 926.46 756.504L926.148 757.834C924.798 758.206 921.249 757.4 919.472 757.312C915.234 757.102 902.823 759.789 906.986 766.48C911.057 764.763 922.536 759.456 925.409 764.606L925.184 765.6C922.972 766.599 910.899 762.347 907.529 771.429C904.801 778.783 911.201 778.806 911.183 784.268L910.523 784.85C903.522 783.386 904.278 773.118 905.338 767.936C901.71 765.14 901.659 764.705 900.399 760.237Z"/><path fill="#B77657" d="M806.494 762.438C818.805 766.185 827.978 766.683 840.385 762.725L840.99 769.567C842.234 777.807 842.825 773.408 845.418 776.635C841.437 795.23 801.861 791.255 802.414 776.517C806.442 774.084 805.592 773.836 806.159 769.222C806.324 766.921 806.52 764.749 806.494 762.438Z"/><path fill="#935E4A" d="M806.494 762.438C818.805 766.185 827.978 766.683 840.385 762.725L840.99 769.567C825.362 773.365 821.601 772.942 806.159 769.222C806.324 766.921 806.52 764.749 806.494 762.438Z"/><path fill="#FDCE72" d="M798.591 777.086C801.564 779.017 802.327 784.711 810.159 788.824C817.129 792.45 825.259 793.141 832.74 790.743C840.342 788.314 844.71 783.969 848.233 777.121L854.69 778.915C853.736 781.294 852.649 783.211 851.443 785.46C847.981 790 844.488 793.068 839.295 795.548C830.477 799.687 820.376 800.157 811.213 796.852C801.725 793.421 796.718 787.817 792.499 778.901C794.527 778.285 796.557 777.68 798.591 777.086Z"/><path fill="#B77657" d="M769.287 720.017C765.051 720.054 762.989 720.247 758.972 718.152C754.706 715.935 751.539 712.06 750.216 707.438C747.329 697.241 753.808 690.751 763.1 688.34C763.861 692.694 764.361 696.678 764.884 701.05C762.227 699.199 761.104 698.11 757.976 697.631L757.668 698.306C758.635 700.467 760.35 701.257 762.378 702.634C767.026 705.865 765.73 707.258 767.214 712.444C767.658 714.548 768.682 717.854 769.287 720.017Z"/><path fill="#935E4A" d="M762.378 702.634C767.026 705.865 765.73 707.258 767.214 712.444C764.424 712.597 762.184 713.326 760.279 711.135C760.032 709.005 761.683 705.329 762.378 702.634Z"/><path fill="#B77657" d="M885.107 688.065C913.192 698.07 888.15 726.113 879.106 719.463C879.378 716.601 880.231 714.331 880.798 711.561C881.632 707.719 881.151 705.416 884.617 703.064C886.607 701.647 888.387 700.729 889.442 698.603L889.326 697.798C886.777 697.645 885.115 699.175 883.033 700.638C883.641 696.244 884.18 692.425 885.107 688.065Z"/><path fill="#935E4A" d="M880.798 711.561C881.632 707.719 881.151 705.416 884.617 703.064C885.502 705.031 887.128 708.021 887.095 710.025C885.652 712.323 883.348 711.646 880.798 711.561Z"/><path fill="#F8BC76" d="M925.144 719.735C925.954 720.025 925.534 719.799 926.337 720.525C926.276 723.098 920.024 737.259 918.102 739.057L917.001 738.251C917.039 735.639 923.331 722.29 925.144 719.735Z"/><path fill="#F8BC76" d="M921.208 717.368C921.691 718.022 921.593 718.115 921.819 718.976C920.977 722.1 914.603 737.141 912.273 739.109L911.725 738.394C911.892 735.165 919.301 720.728 921.208 717.368Z"/><path fill="#F8DBB3" d="M926.95 711.285C928.919 712.344 929.294 715.236 927.884 716.929C927.248 717.694 926.365 717.509 925.311 717.632C923.467 716.586 923.043 716.305 923.051 714.318C924.222 712.574 925.039 712.345 926.95 711.285Z"/><path fill="#935E4A" d="M906.075 735.35C907.918 735.437 908.394 735.327 909.379 736.741C908.931 738.6 906.753 740.47 905.337 742.053C904.994 742.961 905.286 742.607 904.465 743.117C902.899 740.493 904.265 737.437 906.075 735.35Z"/><path fill="#3E2036" d="M816.674 163.024C893.612 159.075 959.039 218.553 962.418 295.518C965.798 372.482 905.837 437.467 828.849 440.277C752.664 443.057 688.503 383.855 685.159 307.693C681.814 231.53 740.539 166.933 816.674 163.024Z"/><path fill="#FDEAC2" d="M817.76 166.709C820.919 166.539 824.083 166.492 827.245 166.569C863.276 167.27 897.515 182.415 922.273 208.602C947.047 234.899 960.38 269.947 959.349 306.061C958.077 340.467 943.718 375.029 918.263 398.501C916.428 395.634 914.213 391.085 912.58 387.969C914.549 378.51 913.45 375.432 906.239 369.057C906.399 365.946 906.041 364.676 904.469 361.997C908.389 352.299 909.456 349.144 902.939 340.099C907.483 328.584 905.906 324.039 897.188 315.5C898.868 308.179 898.705 305.378 896.241 298.285C903.788 290.455 905.343 282.96 899.988 273.484C907.389 224.271 885.645 173.926 829.385 176.642C821.086 178.03 813.519 175.838 803.752 177.823C763.086 186.086 741.621 233.954 750.064 272.689C744.272 282.526 745.802 290.162 753.489 298.409C751.421 305.489 751.654 308.696 753.25 315.664C743.85 323.094 744.244 329.183 748.086 339.534C741.188 346.65 742.475 352.704 746.058 360.967C744.878 363.507 744.475 369.084 744.012 369.623C738.929 375.528 736.395 375.959 738.464 385.776C735.873 390.622 733.555 395.007 730.623 399.666C705.871 376.408 690.798 344.673 688.412 310.792C686.003 274.952 698.028 239.637 721.808 212.715C747.128 183.712 779.781 169.333 817.76 166.709Z"/><path fill="#935E4A" d="M813.286 179.213C816.793 178.901 820.36 179.79 823.529 179.702C830.679 179.503 835.541 178.546 842.818 179.518C859.067 181.712 873.774 190.283 883.693 203.338C898.393 222.605 900.867 247.465 897.833 270.789C893.786 268.084 890.752 267.875 886.165 266.777C864.204 261.525 837.848 241.349 826.094 222.374C825.779 213.425 825.893 203.87 825.851 194.875C825.836 191.829 826.279 184.682 824.602 182.724L823.942 183.241C823.073 185.211 823.484 217.358 823.446 222.229C811.94 241.04 790.262 256.88 769.865 265.057C762.645 267.952 759.525 265.483 751.841 270.744C751.616 269.104 751.438 267.459 751.305 265.809C747.748 225.35 769.376 182.951 813.286 179.213Z"/><path fill="#3E2036" d="M831.919 188.585C835.409 188.49 839.992 189.011 843.391 189.704C859.239 192.967 873.154 202.362 882.104 215.842C889.236 226.679 893.509 239.478 894.537 252.394C894.724 254.742 895.898 260.337 893.655 261.506C892.393 260.751 890.426 251.355 889.037 248.496C878.889 227.608 867.337 217.205 846.079 208.941C842.282 207.665 834.574 206.191 831.869 204.107L832.445 203.662C836.777 203.527 841.191 204.409 845.284 205.803C867.942 213.52 880.165 225.726 890.809 246.287C888.771 219.245 864.747 193.69 837.454 191.425C835.725 191.281 834.848 191.38 833.011 191.013C831.674 189.897 832.131 190.62 831.919 188.585Z"/><path fill="#3E2036" d="M812.789 188.634C814.632 188.462 815.596 188.109 816.519 189.932C815.184 191.308 806.959 192.518 803.623 193.656C796.17 196.193 789.271 200.131 783.297 205.258C767.39 218.945 759.686 239.352 758.139 259.877C757.879 261.248 758.141 260.652 757.207 261.623L756.348 261.422C754.904 259.398 755.843 255.971 756.169 253.551C760.532 221.182 779.637 194.543 812.789 188.634Z"/><path fill="#3E2036" d="M816.132 203.6L817.211 204.041L817.639 205.219C816.534 206.743 807.3 209.251 804.728 210.396C784.089 219.586 773.629 234.378 765.419 254.276C763.881 253.371 764.439 253.971 763.604 252.486C763.664 250.326 765.112 247.608 766.034 245.573C775.109 225.544 794.358 208.07 816.132 203.6Z"/><path fill="#FBC6A6" d="M824.684 225.457C827.488 228.927 830.711 233.581 833.708 236.714C847.461 251.084 864.861 262.971 883.737 269.244C883.485 273.699 882.54 277.895 881.896 282.251C877.132 314.476 859.961 340.444 824.55 342.019C813.193 341.458 803.031 338.385 793.674 331.794C772.77 317.071 769.472 292.678 765.483 269.366C788.74 261.819 810.628 245.446 824.684 225.457Z"/><path fill="#3E2036" d="M809.541 303.681C816.177 303.881 822.817 303.955 829.456 303.905C832.858 303.905 838.684 303.645 841.748 304.258C845.307 308.075 839.193 315.117 836.37 317.741C831.92 320.599 828.225 322.137 822.692 321.633C817.59 321.141 812.922 318.549 809.809 314.477C807.626 311.66 806.382 308.9 806.863 305.344C808.007 303.688 807.242 304.351 809.541 303.681Z"/><path fill="#D2D1D1" d="M809.062 306.431C819.586 306.319 830.111 306.339 840.635 306.491C839.147 310.436 838.666 311.489 836.073 314.703C825.706 322.83 812.654 319.745 809.062 306.431Z"/><path fill="#F99477" d="M817.549 291.441C819.706 284.994 819.555 273.156 824.469 268.357L825.539 268.213C828.957 271.177 829.889 289.862 831.616 291.742L832.361 293.283C831.555 300.568 814.852 300.588 817.549 291.441Z"/><path fill="#3E2036" d="M817.549 291.441C823.295 297.311 825.514 298.551 831.616 291.742L832.361 293.283C831.555 300.568 814.852 300.588 817.549 291.441Z"/><path fill="#3E2036" d="M852.529 273.494C860.758 274.96 860.765 284.476 854.498 288.655C846.411 288.266 845.354 277.759 852.529 273.494Z"/><path fill="#F99477" d="M853.056 290.587C857.626 290.197 863.188 290.277 866.711 293.658C867.799 296.776 865.301 297.367 862.708 298.345C858.245 299.393 852.857 299.326 849.079 296.437C848.221 294.727 848.334 295.603 848.764 293.711C850.212 291.826 850.849 291.702 853.056 290.587Z"/><path fill="#3E2036" d="M794.423 273.88C803.328 273.306 803.941 283.717 797.799 288.535C789.259 288.276 789.158 278.689 794.423 273.88Z"/><path fill="#F99477" d="M787.295 290.597C791.882 290.371 796.564 290.193 800.432 293.292C801.989 296.505 799.33 297.413 796.747 298.622C792.222 299.298 786.572 299.315 783.125 295.816C782.177 292.583 784.687 291.782 787.295 290.597Z"/><path fill="#3E2036" d="M791.711 260.085C795.718 259.878 802.966 259.675 805.138 263.743L804.429 264.395C802.227 264.845 800.6 264.073 798.391 263.403C792.753 262.754 787.274 265.649 784.116 264.186L784.171 263.371C786.602 260.83 788.31 260.82 791.711 260.085Z"/><path fill="#3E2036" d="M851.112 260.098C855.224 259.763 863.753 259.829 865.326 264.449L864.505 265.134C862.849 265.353 862.111 264.804 860.557 264.102L859.925 263.811C857.592 263.433 855.744 263.267 853.381 263.495C850.951 263.729 846.057 264.973 844.269 263.328C845.605 260.821 848.556 260.633 851.112 260.098Z"/><path fill="#F8BC76" d="M855.24 357.18L876.728 363.614C870.755 367.746 870.238 370.079 870.066 377.126L870.339 383.498C863.486 383.439 854.525 381.803 852.47 390.089C854.933 396.962 849.536 396.396 853.768 404.143C852.028 408.103 853.021 409.371 855.021 413.027L854.685 413.891C854.656 419.931 857.133 421.028 862.603 422.636C866.033 422.75 875.291 423.156 877.831 424.975L877.734 425.706C873.502 428.459 868.423 429.788 863.581 431.235C841.748 437.901 818.589 438.966 796.237 434.332C784.364 431.849 776.288 428.823 765.365 423.845C763.822 423.201 763.617 423.102 762.226 422.182C760.882 419.73 761.399 416.987 761.512 414.077L761.527 404.25C761.573 401.055 761.743 400.334 760.552 397.429C758.398 399.965 758.854 406.874 758.947 410.033C750.514 407.135 741.8 403.931 733.805 399.99C735.803 396.087 737.452 393.145 739.747 389.409C741.367 392.677 742.962 395.957 744.53 399.249C748.873 396.599 754.024 393.022 757.636 389.444C760.8 384.578 761.087 382.679 760.362 377.188C759.59 374.832 759.2 373.549 758.085 371.295C764.287 365.072 784.767 359.965 793.933 357.223C795.917 360.378 797.76 363.609 800.583 366.067C818.352 381.539 843.778 377.412 855.24 357.18Z"/><path fill="#F5797B" d="M761.527 404.25C767.435 404.856 777.633 404.771 783.825 404.798L821.778 404.738C826.981 404.714 849.385 404.902 853.768 404.143C852.028 408.103 853.021 409.371 855.021 413.027L854.685 413.891C854.656 419.931 857.133 421.028 862.603 422.636C866.033 422.75 875.291 423.156 877.831 424.975L877.734 425.706C873.502 428.459 868.423 429.788 863.581 431.235C841.748 437.901 818.589 438.966 796.237 434.332C784.364 431.849 776.288 428.823 765.365 423.845C763.822 423.201 763.617 423.102 762.226 422.182C760.882 419.73 761.399 416.987 761.512 414.077L761.527 404.25Z"/><path fill="#F99477" d="M761.527 404.25C767.435 404.856 777.633 404.771 783.825 404.798L821.778 404.738C826.981 404.714 849.385 404.902 853.768 404.143C852.028 408.103 853.021 409.371 855.021 413.027L854.685 413.891C824.998 415.18 791.399 414.452 761.512 414.077L761.527 404.25Z"/><path fill="#F8BC76" d="M761.512 414.077C791.399 414.452 824.998 415.18 854.685 413.891C854.656 419.931 857.133 421.028 862.603 422.636C859.633 424.445 839.575 423.743 834.424 423.726L785.258 423.509C781.356 423.487 768.208 423.087 765.365 423.845C763.822 423.201 763.617 423.102 762.226 422.182C760.882 419.73 761.399 416.987 761.512 414.077Z"/><path fill="#F5797B" d="M757.636 389.444C761.244 390.227 776.437 389.825 780.998 389.826L833.16 389.744C836.991 389.709 849.608 389.339 852.47 390.089C854.933 396.962 849.536 396.396 853.768 404.143C849.385 404.902 826.981 404.714 821.778 404.738L783.825 404.798C777.633 404.771 767.435 404.856 761.527 404.25C761.573 401.055 761.743 400.334 760.552 397.429C758.398 399.965 758.854 406.874 758.947 410.033C750.514 407.135 741.8 403.931 733.805 399.99C735.803 396.087 737.452 393.145 739.747 389.409C741.367 392.677 742.962 395.957 744.53 399.249C748.873 396.599 754.024 393.022 757.636 389.444Z"/><path fill="#F5797B" d="M855.24 357.18L876.728 363.614C870.755 367.746 870.238 370.079 870.066 377.126C856.619 376.524 838.419 377.314 824.749 377.388L760.362 377.188C759.59 374.832 759.2 373.549 758.085 371.295C764.287 365.072 784.767 359.965 793.933 357.223C795.917 360.378 797.76 363.609 800.583 366.067C818.352 381.539 843.778 377.412 855.24 357.18Z"/><path fill="#FBC6A6" d="M877.039 366.474C878.506 366.417 879.122 366.272 880.477 366.868C881.613 370.074 880.755 374.624 881.581 377.939C882.058 379.853 883.707 382.665 884.433 384.561C889.051 396.619 898.943 399.96 909.612 406.411C903.096 412.299 890.185 420.202 882.367 424.077C879.492 422.39 877.72 421.356 874.426 420.954C870.082 420.47 857.38 421.064 857.232 415.452C858.878 412.784 858.734 414.667 861.335 412.359L861.124 411.533C858.127 410.57 856.011 410.757 855.05 407.495C855.868 403.686 857.645 405.903 860.529 403.701L860.575 402.767L859.738 402.037C857.626 401.772 857.264 401.797 855.358 400.96C854.311 399.722 854.396 399.798 854.023 398.205C855.442 394.55 859.143 396.707 861.08 394.502C860.929 393.063 861.172 393.711 860.107 392.626C858.469 392.677 858.082 392.769 856.464 392.405C854.984 390.956 854.114 390.596 855.038 388.607C859.576 385.228 867.362 385.912 872.965 385.985C873.098 378.141 870.101 372.02 877.039 366.474Z"/><path fill="#FDEAC2" d="M867.96 323.865C868.359 324.211 870.397 327.06 870.798 327.594C873.066 330.607 875.092 331.809 878.216 333.715C875.955 342.754 877.141 345.934 883.286 352.457C882.707 357.745 883.395 360.1 886.219 364.461C880.947 362.039 874.346 360.248 868.73 358.532C860.684 355.894 852.57 353.468 844.397 351.255C844.045 348.224 843.916 344.268 843.731 341.153C854.649 336.741 860.277 332.511 867.96 323.865Z"/><path fill="#FDEAC2" d="M781.526 324.373C781.632 324.441 787.053 329.58 787.455 329.961C793.162 335.353 797.508 337.425 804.582 340.673C804.499 344.233 804.397 347.793 804.276 351.353L783.562 357.541C777.639 359.437 771.725 361.362 765.821 363.317C767.806 359.258 767.961 356.676 767.085 352.211C773.93 345.663 774.155 342.384 772.369 333.492C777.018 330.206 778.334 329.054 781.526 324.373Z"/><path fill="#FBC6A6" d="M806.996 341.579C821.132 345.197 826.815 345.549 841.126 342.18C841.264 343.922 841.569 346.566 841.414 348.235C841.816 351.802 843.8 353.204 842.454 355.852C840.861 358.988 837.878 360.551 834.775 361.792C828.137 364.52 820.679 364.453 814.09 361.607C810.033 359.861 807.525 358.159 805.89 354.084C806.575 351.59 806.724 350.865 806.893 348.274L806.928 347.658L806.996 341.579Z"/><path fill="#F99477" d="M806.996 341.579C821.132 345.197 826.815 345.549 841.126 342.18C841.264 343.922 841.569 346.566 841.414 348.235C839.048 348.684 836.291 349.632 833.689 350.117C824.208 351.883 816.01 350.28 806.928 347.658L806.996 341.579Z"/><path fill="#FBC6A6" d="M886.651 269.489C891.937 270.394 894.739 270.867 898.277 275.742C900.481 278.78 901.01 283.248 900.211 286.896C899.139 291.578 896.174 295.608 892.022 298.025C888.998 299.78 884.25 301.057 880.83 300.115C880.408 298.677 882.355 292.975 882.884 291.012C883.05 289.914 883.233 288.819 883.435 287.727C883.938 285.109 884.285 284.918 886.267 283.584C888.917 281.879 890.832 281.093 892.428 278.431L892.195 277.843C888.752 278.23 887.527 279.43 884.68 281.398L886.651 269.489Z"/><path fill="#F99477" d="M886.267 283.584C887.655 286.529 889.937 289.371 888.985 292.121C886.692 292.958 885.334 292.131 883.08 291.104L882.884 291.012C883.05 289.914 883.233 288.819 883.435 287.727C883.938 285.109 884.285 284.918 886.267 283.584Z"/><path fill="#FBC6A6" d="M769.35 300.475C746.122 301.839 741.372 270.344 763.138 269.985C763.568 273.643 764.265 277.52 764.863 281.178C762.917 279.91 759.597 277.037 757.404 278.581L757.664 279.694C759.171 281.633 761.319 282.498 763.535 283.688C766.759 285.483 766.574 288.743 767.254 292.283C767.649 294.397 768.776 298.27 769.35 300.475Z"/><path fill="#F99477" d="M763.535 283.688C766.759 285.483 766.574 288.743 767.254 292.283C764.124 292.732 762.657 293.9 760.605 291.279C760.251 288.5 762.096 286.141 763.535 283.688Z"/><path fill="#F5797B" d="M846.568 354.435L852.616 356.345C840.997 375.751 816.836 378.25 800.876 362.752C798.782 360.33 798.101 359.186 796.698 356.376L802.412 354.701C804.796 357.926 806.017 359.583 809.467 361.95C815.458 366.086 822.879 367.592 830.008 366.118C837.751 364.543 842.352 360.753 846.568 354.435Z"/><path fill="#935E4A" d="M903.042 371.121C914.411 372.282 911.263 392.442 905.274 395.331L903.674 394.533C897.883 391.074 889.877 383.672 893.868 375.879C895.675 372.349 899.463 371.921 903.042 371.121Z"/><path fill="#935E4A" d="M747.111 370.598L755.813 372.775C760.828 382.031 758.114 386.524 750.283 392.246L745.532 395.439C740.722 385.916 736.26 377.793 747.111 370.598Z"/><path fill="#935E4A" d="M893.897 300.005C898.303 305.875 894.164 316.378 891.308 322.088C888.445 319.309 887.014 318.101 883.791 315.808C881.057 314.087 878.831 312.958 875.956 311.5L879.56 302.651C886.156 303.196 887.994 303.047 893.897 300.005Z"/><path fill="#935E4A" d="M755.708 299.859C761.138 303.054 763.849 303.42 769.883 302.739C770.977 305.711 772.18 308.642 773.489 311.525C770.702 312.896 768.411 314.441 765.807 316.121C763.572 317.813 761.269 319.878 759.123 321.713C758.757 321.07 758.4 320.422 758.05 319.77C754.391 312.926 753.406 307.356 755.708 299.859Z"/><path fill="#935E4A" d="M874.772 313.81C881.284 318.62 882.423 317.058 889.92 324.601C889.431 326.544 887.869 333.53 886.967 334.749C878.612 331.158 874.744 329.84 869.785 321.967L874.772 313.81Z"/><path fill="#935E4A" d="M774.324 313.898C776.082 315.169 778.521 320.273 779.633 322.381C775.757 329.048 771.417 330.935 764.649 333.815L764.187 333.898C762.966 332.802 761.125 326.364 760.461 324.388C765.45 319.78 768.7 317.567 774.324 313.898Z"/><path fill="#935E4A" d="M896.121 318.18C906.23 324.965 903.113 334.798 897.624 343.294C895.359 340.883 892.288 338.419 889.725 336.248C891.751 328.146 892.409 325.545 896.121 318.18Z"/><path fill="#935E4A" d="M753.708 318.332C756.986 320.214 760.086 332.278 760.967 336.009L754.314 341.487L753.507 341.984C750.536 339.918 747.905 331.858 748.125 328.25C748.397 323.773 750.502 321.197 753.708 318.332Z"/><path fill="#935E4A" d="M880.305 334.596C887.047 337.037 891.564 340.189 895.889 345.809L892.444 352.704L892.023 353.553L891.308 353.541C881.965 348.199 877.975 346.058 880.305 334.596Z"/><path fill="#935E4A" d="M768.83 334.97L769.762 335.076C774.858 340.709 764.37 353.675 758.896 353.573C757.767 350.933 756.177 347.835 754.903 345.204C760.024 339.971 761.951 337.735 768.83 334.97Z"/><path fill="#935E4A" d="M900.982 342.799C906.416 345.869 906.372 359.087 900.143 361.397C897.933 359.034 896.785 358.138 894.261 356.148C895.86 352.124 898.607 346.375 900.982 342.799Z"/><path fill="#935E4A" d="M749.436 341.873C751.83 344.11 755.26 352.686 756.651 355.88L751.738 359.282L750.505 360.077C747.457 360.168 746.519 356.619 746.274 354.06C745.769 348.781 746.127 346.103 749.436 341.873Z"/><path fill="#F8DBB3" d="M736.708 405.076C742.748 406.73 752.579 410.762 758.725 413.084L758.75 420.23C754.806 419.403 739.721 408.277 736.708 405.076Z"/><path fill="#EE6970" d="M883.589 366.288C888.638 368.571 893.524 369.476 891.816 375.883L891.305 376.412C889.806 375.967 885.469 376.424 884.054 376.933L883.736 373.376L883.589 366.288Z"/><path fill="#F5797B" d="M883.736 373.376C888.01 373.323 888.697 372.677 891.816 375.883L891.305 376.412C889.806 375.967 885.469 376.424 884.054 376.933L883.736 373.376Z"/><path fill="#935E4A" d="M885.85 353.692C888.599 354.965 894.597 359.058 896.67 361.249L896.524 361.978L895.264 362.454C893.462 363.3 891.889 364.304 890.187 365.332C886.538 360.64 885.407 359.662 885.85 353.692Z"/><path fill="#EE6970" d="M911.171 390.997C912.747 393.868 914.79 397.364 916.198 400.251L911.209 403.61C909.586 402.885 907.34 401.969 905.84 401.127L907.396 399.663C908.858 396.702 909.805 393.869 911.171 390.997Z"/><path fill="#FDCE72" d="M884.054 376.933C885.469 376.424 889.806 375.967 891.305 376.412C890.336 380.628 890.48 383.069 892.323 387.108C891.105 388.52 891.59 388.076 889.203 388.391C886.647 384.194 885.469 381.553 884.054 376.933Z"/><path fill="#935E4A" d="M763.77 354.448L764.381 354.583C765.974 357.292 763.897 362.603 761.008 363.903C759.491 364.586 758.524 363.55 757.215 362.812C755.86 362.354 755.865 362.418 754.757 361.547C755.231 358.939 761.384 355.883 763.77 354.448Z"/><path fill="#EE6970" d="M892.323 387.108C895.875 392.057 901.776 397.31 907.396 399.663L905.84 401.127C898.963 397.4 893.346 395.225 889.203 388.391C891.59 388.076 891.105 388.52 892.323 387.108Z"/><path fill="#F5797B" d="M747.729 363.184C750.855 363.292 755.252 363.944 757.367 366.368C757.758 368.303 757.696 367.614 756.632 369.772C753.548 370.291 749.817 369.179 747.556 366.984C746.887 364.916 747.069 365.617 747.729 363.184Z"/><path fill="#F5797B" d="M901.452 363.572C902.812 364.19 903.499 364.797 903.915 366.218C902.594 368.803 898.148 369.65 895.001 370.819L893.206 368.902C892.822 367.309 892.747 368.079 893.592 366.537C895.668 364.961 898.848 364.323 901.452 363.572Z"/><path fill="#3E2036" d="M509.275 576.71C523.887 575.663 541.596 579.196 554.087 587.115C556.856 588.87 561.807 593.792 563.983 594.79C579.023 601.68 591.379 608.335 604.128 619.369C631.484 642.975 648.308 676.508 650.876 712.55C653.498 749.416 641.24 785.795 616.842 813.557C591.003 842.867 556.744 857.588 518.149 859.952C480.015 860.676 448.192 849.737 419.57 824.029C392.686 799.648 376.558 765.607 374.718 729.36C372.731 692.998 385.522 657.376 410.186 630.583C421.12 618.375 434.244 608.322 448.879 600.945C459.748 595.458 463.496 595.333 473.327 587.113C481.516 580.266 498.613 577.22 509.275 576.71Z"/><path fill="#FDEAC2" d="M457.555 600.496L457.885 600.778C457.922 601.757 453.226 608.892 452.243 610.535C449.86 613.584 448.362 623.564 446.48 625.932C438.941 635.415 434.225 654.561 441.531 665.906C441.495 673.214 442.458 680.492 444.393 687.539C443.063 688.52 442.107 689.292 440.976 690.53C437.925 693.914 436.357 698.378 436.623 702.926C437.399 715.405 447.793 722.258 459.684 721.241C459.798 721.607 459.916 721.972 460.039 722.336C467.196 743.422 476.289 751.624 495.562 761.048C492.088 761.445 487.04 761.438 483.436 761.538C478.937 764.893 470.422 773.942 467.103 778.669C448.242 784.916 440.525 785.255 426.825 800.978C422.315 806.689 420.129 810.696 416.773 817.04C405.141 804.542 396.634 793.087 389.563 777.319C374.919 745.035 373.859 708.221 386.622 675.149C399.361 641.798 424.898 614.921 457.555 600.496Z"/><path fill="#FDEAC2" d="M568.814 601.28C577.943 602.79 598.917 619.025 605.857 625.551C631.759 649.682 646.942 683.165 648.025 718.549C649.081 758.675 634.525 790.048 607.491 818.659C604.536 813.219 602.603 809.498 599.198 804.225C586.593 788.048 578.355 785.791 560.293 779.368C560.803 779.549 545.388 763.247 543.78 761.582C539.333 761.475 535.814 761.315 531.398 760.884C533.286 760.002 535.166 759.104 537.038 758.189C553.841 749.918 561.412 738.532 567.248 721.403C567.932 721.426 568.617 721.443 569.301 721.453C580.591 721.604 589.788 713.22 589.774 701.626C589.767 695.336 586.493 691.493 582.16 687.466C584.46 679.843 584.096 674.907 585.107 667.221C585.369 665.227 587.752 662.3 588.164 659.056C589.238 650.62 589.309 642.785 585.592 634.935C584.308 632.223 581.101 627.179 580.199 624.635C576.711 614.808 574.741 609.951 568.814 601.28Z"/><path fill="#FBC6A6" d="M541.767 641.304C542.518 642.018 544.435 645.286 545.085 646.373C550.026 654.647 554.567 659.086 564.096 661.098C566.366 673.203 567.383 684.459 565.962 696.715C565.581 700.001 564.751 703.958 565.246 707.103C565.353 707.787 566.584 707.979 567.225 708.216C567.367 708.546 567.572 708.938 567.524 709.314C562.087 751.87 517.465 777.73 480.799 749.32C469.753 740.714 461.669 724.35 459.642 710.771L459.539 710.042C459.526 709.96 459.512 709.878 459.499 709.796C460.487 709.857 460.711 709.846 461.697 709.74C462.381 708.384 461.247 704.1 460.92 702.45C459.234 693.954 459.469 687.002 460.772 678.481C478.819 678.695 486.701 674.672 501.106 664.789C498.804 667.204 495.264 670.672 493.554 673.357L493.751 674.197C497.818 676.376 509.786 672.927 514.098 671.087C528.69 664.858 535.909 655.703 541.767 641.304Z"/><path fill="#3E2036" d="M496.421 723.578C501.643 723.66 526.287 723.405 529.619 724.09C533.474 727.586 527.857 734.487 525.145 737.238C522.41 739.418 519.131 740.807 515.663 741.256C510.354 741.96 504.992 740.412 500.875 736.987C497.391 734.099 492.555 727.819 496.421 723.578Z"/><path fill="#D2D1D1" d="M501.693 726.254C509.21 725.946 521.223 725.94 528.591 726.341C526.97 731.676 526.153 733.333 521.728 736.595C517.955 738.359 514.796 739.111 510.596 738.613C505.341 737.991 497.495 733.223 498.428 727.102C499.604 726.049 499.707 726.399 501.693 726.254Z"/><path fill="#F99477" d="M506.228 711.458C508.899 705.274 507.543 692.22 512.699 688.431C517.989 688.535 517.886 707.345 520.021 711.391C525.525 721.349 500.134 720.286 506.228 711.458Z"/><path fill="#3E2036" d="M520.021 711.391C525.525 721.349 500.134 720.286 506.228 711.458C511.33 718.675 514.801 717.565 520.021 711.391Z"/><path fill="#F99477" d="M542.655 709.656C543.542 709.605 544.43 709.57 545.318 709.551C548.966 709.48 551.617 710.095 554.304 712.654C555.438 716.35 552.152 717.042 549.249 718.113C548.426 718.215 547.601 718.303 546.774 718.376C543.153 718.685 536.471 717.762 536.707 713.003C538.139 710.772 540.176 710.241 542.655 709.656Z"/><path fill="#3E2036" d="M483.417 692.363C491.912 692.884 492.389 702.574 486.259 707.476C477.626 707.852 477.297 697.357 483.417 692.363Z"/><path fill="#3E2036" d="M540.054 692.438C548.692 692.407 549.235 702.52 542.962 707.651C534.513 706.686 534.192 697.271 540.054 692.438Z"/><path fill="#F99477" d="M477.404 710.078C478.644 710.008 479.885 709.971 481.127 709.966C484.235 709.959 487.161 710.799 489.404 713.04C490.405 716.339 487.207 717.249 484.649 718.232C480.199 718.778 474.758 718.672 471.81 714.704C471.418 711.259 474.659 710.775 477.404 710.078Z"/><path fill="#3E2036" d="M479.456 679.641C483.294 679.388 491.469 679.016 493.517 682.973L492.939 683.694C490.738 684.265 489.314 683.531 487.087 682.836C480.521 681.77 476.979 684.719 472.538 683.527L472.318 682.803C474.251 680.203 476.306 680.239 479.456 679.641Z"/><path fill="#3E2036" d="M539.354 679.642C543.069 679.249 552.47 679.445 554.031 683.544L553.465 684.205C551.594 684.627 550.165 683.841 548.326 683.159C541.868 681.755 538.317 684.153 532.304 682.965L532.206 681.882L531.765 682.608C533.544 680.364 536.619 680.081 539.354 679.642Z"/><path fill="#9B9146" d="M467.225 781.525C467.533 781.55 467.84 781.575 468.148 781.6C472.641 787.301 479.06 800.095 483.445 804.954C487.637 801.718 495.577 793.664 499.519 789.831L499.561 856.226C485.808 855.134 470.934 850.959 458.295 845.595C453.509 843.283 449.679 841.268 445.063 838.69C445 834.692 445.881 820.094 443.912 818.032L442.965 818.102C442.189 819.263 442.471 834.636 442.468 837.39C433.774 831.943 425.992 826.249 418.88 818.833C419.718 817.12 420.588 815.424 421.489 813.744C433.054 792.24 445.607 787.926 467.225 781.525Z"/><path fill="#3E2036" d="M454.054 819.432C465.953 819.287 477.853 819.315 489.751 819.514C489.854 822.865 489.692 826.974 489.645 830.383L454.178 830.449C453.976 827.008 454.063 822.93 454.054 819.432Z"/><path fill="#9B9146" d="M487.494 821.766L487.53 828.05L456.488 827.983L456.523 822.004C466.847 822.059 477.171 821.98 487.494 821.766Z"/><path fill="#9B9146" d="M557.888 781.841C583.733 789.973 593.276 794.835 605.359 820.604C597.11 828.169 590.35 832.701 581.02 838.58C580.996 835.846 581.23 819.821 580.635 818.422L579.558 818.085L578.754 818.673C578.127 823.615 578.398 834.561 578.4 840.005C575.348 841.776 572.994 842.917 569.793 844.414C555.605 851.363 542.428 854.444 526.832 856.188L526.908 789.769C531.941 794.448 537.603 800.423 542.531 805.358C546.477 800.938 554.549 787.232 557.888 781.841Z"/><path fill="#3E2036" d="M549.617 812.189C552.358 807.535 555.936 804.206 560.786 808.821C566.995 814.73 577.427 814.961 567.545 824.502C567.647 825.241 567.597 825.435 567.887 826.096C569.507 829.867 566.511 833.665 562.843 834.641C559.845 835.439 559.143 833.034 556.543 832.427C552.831 833.821 553.005 835.793 548.661 834.123C542.572 831.783 546.832 827.55 545.333 824.173C538.933 819.027 541.965 811.425 549.617 812.189Z"/><path fill="#3E2036" d="M549.617 812.189C552.358 807.535 555.936 804.206 560.786 808.821C566.995 814.73 577.427 814.961 567.545 824.502C567.647 825.241 567.597 825.435 567.887 826.096L566.48 827.261C565.981 826.865 563.762 824.413 563.199 823.81L563.78 822.31C562.997 819.605 562.857 819.097 561.363 816.734C560.907 816.345 560.199 815.551 559.757 815.088C556.173 813.987 555.577 815.903 552.494 813.499C551.368 812.703 550.915 812.636 549.617 812.189Z"/><path fill="#F5797B" d="M552.494 813.499C554.242 808.492 558.658 807.622 560.718 812.346C560.589 814.293 560.869 813.403 559.757 815.088C556.173 813.987 555.577 815.903 552.494 813.499Z"/><path fill="#F5797B" d="M561.363 816.734C562.642 815.907 563.948 814.634 565.501 815.076C568.421 815.905 568.791 818.118 567.737 820.544C566.6 821.761 565.464 822.215 563.78 822.31C562.997 819.605 562.857 819.097 561.363 816.734Z"/><path fill="#F5797B" d="M563.199 823.81C563.762 824.413 565.981 826.865 566.48 827.261C565.145 833.435 560.88 832.432 557.208 828.832C559.625 827.148 561.38 826.175 563.199 823.81Z"/><path fill="#FDCE72" d="M555.163 817.773C557.077 816.909 559.33 817.749 560.21 819.656C561.091 821.562 560.27 823.822 558.371 824.719C556.449 825.628 554.155 824.794 553.263 822.864C552.372 820.934 553.225 818.647 555.163 817.773Z"/><path fill="#F5797B" d="M547.29 814.388C549.057 814.503 549.658 814.532 550.934 815.663C551.338 817.103 551.269 817.175 550.771 818.617L549.443 822.548C544.048 821.39 542.539 818.12 547.29 814.388Z"/><path fill="#F5797B" d="M549.169 824.629C551.442 825.168 553.947 826.449 555.034 828.592C554.915 830.226 554.786 829.844 553.353 831.389C547.646 832.677 546.109 829.124 549.169 824.629Z"/><path fill="#F8DBB3" d="M507.44 579.209C518.997 577.804 535.392 580.698 545.89 585.839C562.901 594.17 570.976 606.404 577.133 623.739C560.449 611.49 539.359 607.741 519.124 606.76C496.709 605.49 468.33 610.485 449.86 623.779C459.581 595.536 477.726 581.834 507.44 579.209Z"/><path fill="#BE97C1" d="M507.293 635.211C509.622 634.987 513.034 635.053 515.48 635.026C508.266 661.475 488.859 675.321 461.793 675.792C464.796 667.984 467.274 663.505 472.623 656.871C475.02 653.899 480.877 648.641 482.072 645.585L481.641 644.831C476.515 645.13 465.795 661.355 463.097 666.031C455.686 679.357 456.131 691.592 458.754 706.348C453.52 697.484 454.219 692.114 450.955 684.435C449.477 684.39 448.233 685.568 446.919 686.477C444.687 678.827 444.021 672.642 444.548 664.692C457.065 644.232 484.877 636.696 507.293 635.211Z"/><path fill="#FDEAC2" d="M502.179 790.009C511.396 792.769 515.304 792.661 524.445 790.103C524.293 812.171 524.273 834.239 524.385 856.306C519.35 857.409 507.572 856.794 502.117 856.505L502.179 790.009Z"/><path fill="#F8DBB3" d="M509.684 609.207C518.763 608.72 534.685 610.32 543.423 612.307C544.068 621.802 544.324 626.864 543.152 636.339C535.172 633.803 526.589 633.028 518.281 632.506C504.352 632.169 496.823 633.274 483.587 636.07C482.725 626.695 482.95 621.789 483.577 612.535C491.811 610.321 501.179 609.674 509.684 609.207Z"/><path fill="#FBC6A6" d="M496.624 760.841C509.202 764.949 517.626 764.53 530.25 761.045L530.514 767.378C531.068 770.398 531.267 771.963 532.48 774.846C529.635 778.936 526.936 782.753 524.384 787.047C523.959 787.244 523.532 787.435 523.102 787.62C516.13 790.597 509.368 789.933 502.549 787.194C499.894 782.812 496.838 778.655 493.866 774.477C494.739 771.82 495.211 769.817 495.827 767.124C496.082 765.045 496.314 762.906 496.624 760.841Z"/><path fill="#F99477" d="M496.624 760.841C509.202 764.949 517.626 764.53 530.25 761.045L530.514 767.378C528.393 767.908 526.585 768.715 524.249 769.274C514.804 771.534 504.912 770.499 495.827 767.124C496.082 765.045 496.314 762.906 496.624 760.841Z"/><path fill="#BE97C1" d="M518.71 635.042C526.642 636.249 530.998 636.131 539.8 637.927C539.561 638.81 539.311 639.69 539.049 640.567C535.282 653.101 526.996 661.461 515.723 667.511C509.803 670.375 504.56 671.589 498.097 672.253C505.516 664.682 516.006 645.094 518.71 635.042Z"/><path fill="#BE97C1" d="M544.402 639.303C558.885 643.492 574.792 651.609 582.425 665.224C582.774 672.373 581.4 679.49 579.79 686.405C578.015 685.577 576.556 684.619 574.902 683.594C573.456 689.94 572.731 693.879 569.992 699.705C569.464 700.826 568.495 702.361 567.839 703.474C568.865 696.919 569.505 685.926 569.1 679.588C568.753 674.158 566.886 653.646 563.826 650.016L563.087 650.311C562.175 652.89 562.982 655.853 563.393 658.673C552.938 654.368 548.654 649.433 544.402 639.303Z"/><path fill="#9B9146" d="M483.827 764.493C489.091 771.793 494.217 779.6 499.393 787.036C494.99 790.403 488.933 796.481 484.808 800.446L484.276 800.903C482.053 799.759 472.08 782.298 470.115 778.93C474.366 773.95 478.958 768.877 483.827 764.493Z"/><path fill="#9B9146" d="M542.511 764.419C547.034 768.343 552.374 774.255 556.332 778.744C553.784 783.47 545.379 797.494 542.059 801.495C537.733 796.684 532.056 791.358 527.359 786.754C532.548 779.454 537.858 772.062 542.511 764.419Z"/><path fill="#F8DBB3" d="M567.227 620.86C575.555 623.965 582.711 631.7 584.827 640.252C586.292 646.169 587.387 657.194 584.242 662.627C578.579 654.423 574.336 651.134 565.888 645.51C567.514 638.106 567.532 628.427 567.227 620.86Z"/><path fill="#F8DBB3" d="M458.49 621.388L458.991 621.48C459.177 621.793 460.261 641.292 461.311 645.313C453.413 650.136 448.263 654.396 442.949 661.959L442.374 661.757C439.509 657.149 440.586 646.924 441.791 641.717C444.451 630.221 449.009 627.251 458.49 621.388Z"/><path fill="#F8DBB3" d="M546.028 612.946C552.37 614.43 558.532 616.595 564.409 619.402C564.856 627.831 565.24 635.624 563.45 643.913C556.796 640.716 552.352 638.845 545.405 636.65C547.156 628.457 546.574 621.25 546.028 612.946Z"/><path fill="#F8DBB3" d="M478.82 613.519L480.253 613.483C481.056 614.433 480.666 618.8 480.615 620.451C480.443 626.063 480.609 631.169 481.205 636.77C474.811 638.74 470.304 640.592 464.329 643.551L463.693 643.327C461.759 639.534 462.174 624.504 462.219 619.585C467.397 617.018 473.286 615.19 478.82 613.519Z"/><path fill="#FBC6A6" d="M449.672 687.366C450.016 688.926 451.909 696.445 451.517 697.285C449.631 696.426 448.296 695.165 446.845 696.75L447.072 697.66C448.341 699.123 450.952 700.064 452.808 700.91C455.324 703.999 456.05 707.064 456.902 710.911C457.403 712.737 458.65 716.462 458.416 718.137C456.594 718.913 453.881 718.598 451.979 718.172C447.703 717.247 444.018 714.558 441.832 710.768C436.191 701.039 440.319 692.258 449.672 687.366Z"/><path fill="#F5797B" d="M452.808 700.91C455.324 703.999 456.05 707.064 456.902 710.911C456.489 711 456.075 711.084 455.66 711.163C453.261 711.622 452.956 711.659 451.137 710.429C449.842 707.592 451.723 704.015 452.808 700.91Z"/><path fill="#FBC6A6" d="M576.768 687.636C581.198 690 584.836 692.176 586.507 697.318C589.639 706.959 582.234 716.644 572.99 719.02C571.275 719.461 568.76 719.639 568.178 717.552L569.768 711.284C570.546 707.308 570.393 704.111 573.445 701.791C575.743 700.474 578.759 699.3 579.135 696.429C576.98 695.638 575.44 697.197 573.675 698.422C574.875 694.702 575.981 691.463 576.768 687.636Z"/><path fill="#F99477" d="M569.768 711.284C570.546 707.308 570.393 704.111 573.445 701.791C575.058 704.586 576.974 706.859 576.331 709.835C574.597 711.43 572.177 711.189 569.768 711.284Z"/><path fill="#9B9146" d="M533.226 763.948L539.756 764.006C538.913 765.732 537.669 767.762 536.694 769.458C535.87 770.596 535.943 770.711 534.703 771.288L533.87 770.624C533.177 768.463 533.289 766.244 533.226 763.948Z"/><path fill="#9B9146" d="M487.077 764.125C489.023 764.014 491.456 764.051 493.446 764.023C493.112 766.299 492.639 768.515 492.186 770.77L491.609 770.864C490.03 769.604 487.936 766.009 487.077 764.125Z"/><path fill="#3E2036" d="M192.3 583.703C268.578 578.875 334.358 636.728 339.311 712.998C344.263 789.268 286.517 855.143 210.256 860.22C133.818 865.309 67.7579 807.4 62.7938 730.954C57.8297 654.508 115.846 588.543 192.3 583.703Z"/><path fill="#FDEAC2" d="M191.769 587.708C193.557 587.579 195.349 587.497 197.141 587.461C234.139 586.673 268.841 599.481 295.58 625.312C321.524 650.019 336.363 684.175 336.718 720C337.189 759.288 322.547 790.973 295.497 818.704C278.509 788.259 271.925 786.505 238.589 776.658C235.47 775.736 224.971 772.93 222.517 771.827C220.517 769.907 220.689 764.061 220.515 761.015C223.023 759.954 232.013 754.861 233.299 754.814C247.945 754.272 261.336 751.97 273.772 742.374C283.112 735.259 289.176 724.667 290.583 713.01C293.079 693.391 284.051 680.734 277.843 663.266C276.425 658.747 275.585 653.867 274.582 649.248C267.881 618.401 243.448 598.124 212.623 594.578C198.075 593.526 181.27 594.34 171.943 607.412L171.239 607.414C159.481 607.493 149.702 610.828 141.342 619.405C137.206 623.683 133.958 628.737 131.786 634.277C127.45 645.153 128.332 652.52 125.556 661.925C120.391 677.956 112.132 689.689 112.469 707.327C113.069 738.637 140.627 755.227 169.928 754.497C174.116 757.053 177.101 758.654 181.526 760.691C181.412 764.868 181.199 767.777 180.713 771.932C168.913 775.062 157.203 778.524 145.599 782.315C124.335 789.435 116.808 799.656 107.038 819.266C83.5253 796.644 68.9219 766.328 65.8879 733.841C62.6677 698.31 73.8675 662.976 96.9678 635.788C121.28 606.646 154.316 590.973 191.769 587.708Z"/><path fill="#FBC6A6" d="M176.828 638.3C184.756 649.55 190.142 654.264 201.039 662.346L206.052 665.59L216.454 671.312C217.541 671.871 218.81 672.481 219.858 673.073C235.379 679.622 244.384 682.482 260.981 685.797C258.003 703.519 254.9 725.438 243.896 740.048C235.137 751.699 222.109 759.392 207.677 761.435C193.907 763.322 180.297 758.618 169.204 750.506C149.311 735.958 144.627 707.105 141.49 683.847C154.055 663.091 155.409 651.834 176.828 638.3Z"/><path fill="#F99477" d="M219.858 673.073L218.395 674.338C216.424 674.824 204.718 673.479 201.759 673.232C197.483 672.876 183.927 674.3 181.745 673.268L181.444 672.2C184.881 668.34 214.367 672.441 216.454 671.312C217.541 671.871 218.81 672.481 219.858 673.073Z"/><path fill="#F99477" d="M201.039 662.346L206.052 665.59C202.718 665.658 185.793 666.489 183.826 665.672L183.539 664.87C186.828 661.848 196.504 664.187 201.039 662.346Z"/><path fill="#F99477" d="M193.918 712.326C195 705.836 196.491 699.343 197.715 692.871C198.163 690.505 198.683 688.265 201.381 688.211C205.66 691.409 205.546 706.109 207.554 711.528C213.819 720.346 190.026 720.865 193.918 712.326Z"/><path fill="#3E2036" d="M207.554 711.528C213.819 720.346 190.026 720.865 193.918 712.326C199.004 713.952 201.052 721.17 207.554 711.528Z"/><path fill="#F99477" d="M230.753 709.639C232.185 709.538 234.372 709.457 235.766 709.566C238.383 709.756 240.81 711.005 242.483 713.026C243.18 716.834 239.777 717.406 236.786 718.39C232.529 718.656 227.127 718.645 224.74 714.354C224.766 710.891 227.873 710.322 230.753 709.639Z"/><path fill="#3E2036" d="M171.389 692.364C180.189 692.453 180.592 702.545 174.4 707.546C165.854 707.426 165.562 697.449 171.389 692.364Z"/><path fill="#3E2036" d="M227.977 692.372C236.297 692.42 237.184 703.258 230.515 707.685C222.064 706.506 222.026 697.186 227.977 692.372Z"/><path fill="#F99477" d="M165.805 709.662C167.377 709.673 168.948 709.747 170.514 709.884C173.325 710.128 175.383 711.018 177.205 713.182C177.732 716.817 174.252 717.313 171.414 718.073C167.075 718.265 161.744 718.383 159.344 713.937C159.492 710.348 162.866 710.117 165.805 709.662Z"/><path fill="#3E2036" d="M187.869 727.456C198.353 731.314 201.445 734.219 212.97 728.034C213.513 727.743 213.955 728.381 214.287 728.658L214.348 729.978C208.454 733.764 193.829 736.253 187.865 729.792C187.301 729.181 187.712 728.379 187.869 727.456Z"/><path fill="#62545C" d="M229.108 680.2C232.693 679.829 240.005 680.56 241.331 684.71L240.648 685.411C238.516 685.68 237.111 684.741 235.089 683.822C229.603 683.116 223.173 685.298 220.974 683.775L221.153 682.934C223.816 680.33 225.375 680.607 229.108 680.2Z"/><path fill="#62545C" d="M168.635 680.57C172.288 680.347 179.169 680.149 181.471 683.606L181 684.319C178.064 685.16 176.429 684.348 173.366 683.63C168.142 683.121 164.773 686.09 160.871 684.866L160.783 684.191C163.158 681.509 165.176 681.415 168.635 680.57Z"/><path fill="#C6433C" d="M213.082 715.263C219.386 715.885 226.279 731.35 223.859 737.446C220.167 734.791 222.331 730.094 220.313 726.355C218.676 723.324 215.091 719.708 212.851 716.738L213.082 715.263Z"/><path fill="#C6433C" d="M187.754 715.325C189.29 716.023 188.849 715.465 189.443 716.748C188.571 719.062 183.734 722.28 182.324 724.981C180.154 729.136 181.004 732.977 179.488 736.691L178.322 735.969C174.77 729.016 183.256 719.806 187.754 715.325Z"/><path fill="#D2D1D1" d="M202.358 596.719C234.111 596.032 263.093 615.131 271.182 646.701C272.905 653.424 273.956 660.734 276.442 667.217C280.953 678.984 287.474 690.178 288.219 703.058C289.765 723.527 278.583 739.603 259.817 747.189C251.457 750.568 245.097 751.433 236.079 752.094C239.678 748.691 242.612 745.857 245.669 741.967C251.114 734.442 253.184 729.546 256.355 720.914L256.682 720.947C262.367 721.565 266.468 721.092 271.207 717.416C281.662 710.162 282.313 692.008 270.26 686.092C261.937 682.007 249.504 681.117 239.996 677.911C219.328 670.943 199.356 660.924 184.721 644.35C175.193 633.56 172.67 623.364 173.788 609.353C174.437 608.498 175.112 607.665 175.814 606.853C182.581 599.06 192.681 597.365 202.358 596.719Z"/><defs><linearGradient id="gradient_1" gradientUnits="userSpaceOnUse" x1="225.93781" y1="639.81714" x2="217.30414" y2="654.6311"><stop offset="0" stop-color="#2F0A27"/><stop offset="1" stop-color="#3E2737"/></linearGradient></defs><path fill="url(#gradient_1)" d="M181.95 624.259C182.577 624.251 183.893 624.252 184.285 624.767C200.276 645.753 223.279 658.663 249.663 660.946C252.393 661.182 264.064 661.095 265.375 662L265.532 663.85C235.936 664.892 208.075 656.033 187.954 633.317C185.536 630.586 182.15 627.976 181.95 624.259Z"/><path fill="#FDEAC2" d="M175.442 776.076C176.078 775.979 175.645 776.012 176.738 776.205C178.027 779.572 177.469 845.935 177.482 854.912C161.409 851.864 149.845 847.685 135.448 840.039C135.366 835.546 135.943 821.573 134.533 818.426L133.669 818.184C132.328 819.616 132.737 819.056 132.719 821.625C132.836 827.291 132.853 832.959 132.771 838.626C123.289 832.971 117.403 828.796 109.09 821.186C120.837 797.691 127.508 790.817 152.364 782.999C160.033 780.612 167.726 778.304 175.442 776.076Z"/><path fill="#FDEAC2" d="M225.424 775.701C236.02 778.208 250.466 782.941 260.801 786.566C276.354 792.022 286.671 806.256 293.22 820.909C285.595 827.838 278.308 832.926 269.699 838.43C269.554 834.124 269.626 829.453 269.61 825.117C269.605 822.932 269.967 820.066 269.043 818.321L268.067 818.069C266.198 820.002 267.072 836.125 267.125 839.866C252.883 847.684 240.835 851.481 225.196 854.844C225.033 830.064 224.592 800.394 225.424 775.701Z"/><path fill="#D2D1D1" d="M167.314 610.19C170.272 610.181 171.104 609.846 170.919 612.974C170.37 622.228 171.827 627.583 175.589 636.003C160.053 645.658 154.699 653.347 146.376 669.664C144.059 674.207 141.021 679.258 138.616 684.009C134.02 685.015 130.475 686.42 127.294 690.124C124.227 693.733 122.809 698.462 123.385 703.164C124.709 714.504 134.832 722.645 146.273 720.77C151.054 734.045 155.388 741.617 165.66 751.321L165.804 751.636L165.295 752.041C141.391 750.651 118.315 737.575 115.258 711.862C112.795 694.435 122.519 680.242 127.348 664.63C131.728 650.465 130.489 636.002 141.022 623.801C148.391 615.266 156.062 611.274 167.314 610.19Z"/><path fill="#FDCE72" d="M205.733 809.839C212.438 808.728 216.197 807.64 222.597 805.333L222.809 833.875C222.832 841.003 222.777 848.131 222.646 855.258C206.904 857.515 195.651 857.542 180.003 855.302L179.951 805.326C185.423 807.544 190.499 808.642 196.201 809.925C183.841 827.437 219.215 825.782 205.733 809.839Z"/><path fill="#FBC6A6" d="M184.039 761.259C197.199 765.055 204.493 765.731 217.899 761.767C218.012 763.411 218.384 767.263 218.191 768.718C218.661 771.181 219.159 771.715 220.486 773.933C217.72 779.639 205.478 804.735 201.131 807.208L200.231 806.941C196.453 802.992 184.765 780.01 181.952 774.212C183.257 771.424 183.472 770.985 183.809 767.946L184.039 761.259Z"/><path fill="#F99477" d="M184.039 761.259C197.199 765.055 204.493 765.731 217.899 761.767C218.012 763.411 218.384 767.263 218.191 768.718C217.084 768.55 217.435 768.501 216.481 768.718C207.412 770.78 201 772.498 191.861 769.788C190.294 769.323 185.348 767.904 183.809 767.946L184.039 761.259Z"/><path fill="#FBC6A6" d="M263.774 686.228C265.932 686.971 267.981 687.572 269.976 688.978C284.04 698.893 274.275 720.775 257.793 718.346C257.653 718.26 257.514 718.173 257.374 718.087C257.164 716.451 258.543 712.36 259.055 710.546C259.964 706.413 259.288 703.822 263.139 701.416C265.57 699.873 267.852 698.816 268.968 696.143L268.461 695.762C265.624 696.262 265.56 696.412 263.191 697.914L261.138 699.197C261.894 695.305 262.77 689.955 263.774 686.228Z"/><path fill="#F99477" d="M259.055 710.546C259.964 706.413 259.288 703.822 263.139 701.416C264.052 704.561 265.469 707.292 266.874 710.246C264.268 710.364 261.662 710.464 259.055 710.546Z"/><path fill="#FBC6A6" d="M143.693 711.366C144.352 713.361 144.85 714.465 144.95 716.538C144.092 718.492 144.734 717.714 142.899 718.91C130.805 720.592 113.106 693.708 139.31 686.33C139.881 690.844 140.586 694.782 141.421 699.231C138.897 697.536 137.145 695.895 134.133 695.856L133.846 696.554C135.445 699.486 137.098 700.045 139.957 701.877C143.469 704.122 143.062 707.362 143.693 711.366Z"/><path fill="#F99477" d="M139.957 701.877C143.469 704.122 143.062 707.362 143.693 711.366C140.689 711.219 138.106 711.641 136.977 708.541C137.267 706.107 138.713 704.068 139.957 701.877Z"/><path fill="#FBC6A6" d="M179.777 776.267C181.077 777.739 185.412 786.366 186.608 788.565C189.966 794.74 193.642 801.067 196.852 807.303C190.511 806.364 185.531 805.214 179.921 802.087C179.551 793.485 179.503 784.873 179.777 776.267Z"/><path fill="#FBC6A6" d="M222.317 776.412C223.414 777.923 222.742 798.607 222.663 802.287C216.821 804.805 213.367 805.835 207.116 807.031L206.216 806.758C206.524 804.881 220.367 780.06 222.317 776.412Z"/><path fill="#F99477" d="M200.608 810.786C203.195 810.475 205.571 812.248 206.009 814.817C206.447 817.386 204.793 819.847 202.249 820.411C200.488 820.801 198.655 820.19 197.48 818.821C196.306 817.452 195.982 815.547 196.636 813.866C197.29 812.185 198.817 811.001 200.608 810.786Z"/></svg>