<?xml version="1.0" encoding="utf-8" ?><svg xmlns="http://www.w3.org/2000/svg" xmlns:xlink="http://www.w3.org/1999/xlink" width="1024" height="1024" viewBox="0 0 1024 1024"><path fill="#391D2E" d="M557.898 256.216C552.626 245.553 552.086 232.873 564.72 228.462C596.292 217.439 597.73 275.736 559.955 258.346C542.369 277.816 534.651 289.803 527.401 315.47C534.699 318.705 542.364 321.941 549.305 325.856C572.56 338.823 590.555 359.505 600.183 384.329C605.271 397.376 607.82 411.311 608.598 425.267C635.444 384.448 696.531 327.171 747.28 360.962C782.767 384.59 783.372 434.825 760.214 466.976C746.158 486.49 731.416 497.459 711.122 509.56C725.623 513.338 739.489 517.202 747.791 531.229C751.925 538.22 753.116 546.566 751.102 554.434C745.919 574.352 721.266 582.751 702.867 581.359C697.876 580.981 692.75 580.038 687.801 579.808C687.825 580.004 687.848 580.2 687.872 580.396C699.543 624.957 699.074 658.389 681.828 702.129C690.588 719.812 699.61 732 714.325 745.264C716.241 746.99 721.504 751.396 721.006 753.849C712.61 758.184 663.909 744.836 652.012 741.531C647.004 743.168 641.399 747.682 636.693 750.34C587.521 778.119 526.132 774.963 475.593 751.494C455.309 742.148 436.87 729.234 421.153 713.367C416.655 708.793 413.05 703.85 408.935 699.571C405.56 699.572 402.139 699.633 398.707 700.118C381.725 702.523 364.535 704.004 347.461 705.526C346.065 705.651 342.044 705.162 341.128 704.175C336.699 699.405 336.263 687.349 335.561 681.341C334.134 669.436 332.954 657.503 332.021 645.549C325.066 641.623 320.403 637.35 318.316 629.267C312.379 606.283 323.304 587.842 335.877 569.782C319.847 559.338 315.281 543.02 329.704 528.691C335.833 522.602 343.164 521.716 349.655 517.366C321.616 500.892 295.992 480.775 287.469 447.567C283.307 431.347 284.296 412.082 293.068 397.48C298.606 388.061 307.674 381.242 318.26 378.536C334.135 374.627 350.763 380.605 363.812 389.603C376.33 361.576 384.015 351.74 408.702 332.086C413.207 328.5 417.761 327.497 415.937 321.384C417.124 320.837 417.072 320.691 417.875 319.613C418.499 322.084 418.121 322.214 419.632 323.793C423.939 324.799 428.152 320.633 432.13 319.125C439.763 316.233 447.504 313.668 455.475 311.867C481.432 305.978 499.968 308.752 525.032 314.46C531.056 289.821 540.913 274.579 557.898 256.216ZM364.934 691.56C367.261 692.006 369.147 691.981 369.797 689.211L369.206 688.083C366.391 688.326 366.104 688.938 364.293 687.623C363.488 685.883 363.46 684.59 361.484 684.181L361.095 684.778C359.484 687.201 356.309 689.089 356.064 691.259C357.182 692.077 356.544 691.769 358.297 691.683C360.228 690.469 361.254 689.246 363.059 689.374L364.934 691.56ZM354.172 607.501L354.922 606.977C354.144 603.722 347.461 601.355 344.294 601.303C345.285 603.346 348.686 606.93 350.509 609.4C352.21 609.065 352.77 608.498 354.172 607.501ZM336.485 661.192C338.179 660.751 337.357 661.122 338.759 659.38L339.321 660.181L339.92 660.223C341.022 656.745 339.109 652.021 340.633 647.741L340.213 647.045C334.004 646.425 338.639 652.346 336.084 656.115C336.167 657.989 336.236 659.339 336.485 661.192ZM339.957 697.271C342.78 696.234 343.224 695.127 344.952 692.719C344.696 690.527 344.613 686.892 342.976 685.518C340.554 687.121 341.428 689.71 340.256 693.197L340.084 693.693L339.957 697.271Z"/><path fill="#F46A68" d="M420.159 328.026C454.463 308.656 486.885 308.304 524.137 317.458C523.386 323.461 523.277 326.89 523.734 332.897C526.227 328.216 526.591 323.57 527.154 318.388C551.826 326.637 574.722 344.711 588.869 366.294C602.688 385.056 608.014 413.874 604.355 436.646C599.609 466.17 582.175 492.048 558.146 509.421C528.814 530.351 492.336 538.696 456.821 532.601C450.267 531.521 441.264 529.592 435.372 526.443C433.45 525.94 425.992 522.676 424.152 521.799C403.659 512.082 386.516 496.495 374.897 477.017C361.028 453.315 357.181 425.061 364.208 398.514C372.106 368.211 390.9 345.379 417.536 329.641C417.999 331.926 418.076 333.59 419.716 335.193L420.586 335.091C421.98 332.479 420.983 330.653 420.159 328.026Z"/><path fill="#D75958" d="M588.869 366.294C602.688 385.056 608.014 413.874 604.355 436.646C599.609 466.17 582.175 492.048 558.146 509.421C528.814 530.351 492.336 538.696 456.821 532.601C450.267 531.521 441.264 529.592 435.372 526.443C438.333 525.923 455.358 526.488 460.359 526.249C488.827 524.976 516.281 515.302 539.257 498.446C576.231 471.019 591.525 428.436 589.783 383.789C589.596 379.014 587.968 370.848 588.869 366.294Z"/><path fill="#391D2E" d="M458.521 345.169C504.727 342.517 544.342 377.805 547.028 424.008C549.714 470.212 514.454 509.853 468.253 512.572C422.004 515.295 382.313 479.991 379.625 433.74C376.936 387.489 412.268 347.824 458.521 345.169Z"/><path fill="#FDD8C0" d="M454.569 348.259C499.033 343.449 538.991 375.558 543.866 420.014C548.742 464.47 516.693 504.476 472.244 509.418C427.702 514.37 387.593 482.239 382.707 437.689C377.821 393.139 410.012 353.079 454.569 348.259Z"/><path fill="#391D2E" d="M491.482 412.93C504.554 414.656 506.636 430.742 500.343 440.109C498.784 442.428 496.867 443.884 494.744 445.64C477.929 439.471 479.405 423.51 491.482 412.93Z"/><path fill="#391D2E" d="M406.27 414.423C419.778 414.534 421.908 429.651 416.725 439.332C415.115 442.339 413.868 443.523 411.463 445.799C397.963 446.547 396.505 432.86 400.523 423.003C402.062 419.226 403.559 417.362 406.27 414.423Z"/><path fill="#FDB6B4" d="M509.213 443.143C511.761 442.899 519.095 443.421 519.074 446.765C519.023 454.784 508.838 459.237 502.793 460.923C483.562 463.457 493.669 445.389 509.213 443.143Z"/><path fill="#FDB6B4" d="M392.257 446.006C400.812 446.321 419.19 450.422 408.247 462C399.655 462.033 380.175 457.132 392.257 446.006Z"/><path fill="#391D2E" d="M458.607 445.257C465.023 449.967 449.674 468.462 433.35 450.785C432.906 449.385 432.947 448.318 433.399 446.975L434.236 446.861C436.689 448.537 437.776 451.992 440.582 453.984C449.049 459.993 454.488 451.953 458.607 445.257Z"/><path fill="#FDB6B4" d="M534.319 331.352C544.455 332.032 557.557 341.779 553.591 353.336C544.576 350.29 530.98 342.703 534.319 331.352Z"/><path fill="#B2E6BE" d="M708.294 353.672C736.917 350.317 762.854 370.784 770.782 397.703C776.382 417.132 774.061 437.987 764.327 455.71C744.131 492.592 706.895 511.832 668.11 523.027L663.04 524.284C642.945 492.441 631.468 477.809 603.187 453.092C607.684 439.066 605.248 433.675 615.01 420.975C639.122 389.606 667.027 359.493 708.294 353.672Z"/><path fill="#F9B88C" d="M692.924 622.797C693.186 641.447 695.281 671.617 681.397 684.703C675.654 690.117 667.503 696.962 661.155 701.864C623.024 731.234 577.801 749.991 530.076 756.231C504.929 759.684 500.651 760.852 477.466 749.37C460.288 743.83 440.295 727.103 426.928 714.986C438.896 716.551 452.011 717.091 463.984 717.941C520.376 721.947 556.786 710.665 607.84 689.18C647.364 667.94 664.053 656.525 692.924 622.797Z"/><path fill="#FDD8C0" d="M426.928 714.986C438.896 716.551 452.011 717.091 463.984 717.941C520.376 721.947 556.786 710.665 607.84 689.18C607.02 696.485 593.34 707.721 587.607 712.375C563.992 731.543 534.145 742.559 504.213 746.699C497.235 747.688 483.053 748.15 477.466 749.37C460.288 743.83 440.295 727.103 426.928 714.986Z"/><path fill="#B2E6BE" d="M323.761 380.595C340.073 379.512 349.349 383.528 362.932 392.357C360.72 399.087 359.245 406.036 358.533 413.084C355.993 436.759 361.376 460.608 373.838 480.897C377.829 487.283 382.207 492.544 386.938 498.353C382.32 508.178 380.275 514.687 376.995 524.994C371.318 523.073 366.743 521.304 361.2 519.013C328.375 505.374 296.725 478.741 289.525 442.489C284.05 414.922 293.861 386.601 323.761 380.595Z"/><path fill="#FDD8C0" d="M602.055 455.965C610.312 462.358 623.378 475.678 630.163 483.526C628.212 485.696 626.25 487.856 624.276 490.006C616.424 498.025 610.099 504.443 601.615 511.667C562.423 545.04 515.046 561.615 463.714 562.196C435.119 562.519 400.762 557.044 375.51 542.667C378.897 529.304 382.969 512.989 389.154 500.482C406.84 516.977 420.218 526.001 444.08 532.388C448.186 533.487 455.269 535.515 459.325 536.046C484.764 536.413 501.593 539.116 526.875 529.027C566.348 513.275 585.12 493.658 602.055 455.965Z"/><path fill="#F9B88C" d="M602.055 455.965C610.312 462.358 623.378 475.678 630.163 483.526C628.212 485.696 626.25 487.856 624.276 490.006C622.845 486.39 621.148 481.725 619.512 478.285C616.157 481.559 613.218 485.093 609.987 488.493C578.215 521.938 530.258 539.793 484.515 539.578C477.742 539.546 465.058 538.987 459.325 536.046C484.764 536.413 501.593 539.116 526.875 529.027C566.348 513.275 585.12 493.658 602.055 455.965Z"/><path fill="#F9F7F1" d="M408.502 639.925C416.848 618.669 434.169 617.04 447.609 635.37C447.504 637.308 447.488 637.206 448.201 639.01L454.249 632.937L503.64 667.091L528.942 684.726C516.792 686.508 503.414 687.591 491.133 688.779L437.611 694.038C406.024 697.178 374.817 701.436 343.175 703.456C344.912 701.178 348.778 695.952 351.092 694.373C356.109 688.256 363.105 681.238 368.519 675.134C379.38 662.888 390.399 650.166 402.187 638.865L407.68 642.77C408.242 641.452 408.245 641.346 408.502 639.925ZM364.934 691.56C367.261 692.006 369.147 691.981 369.797 689.211L369.206 688.083C366.391 688.326 366.104 688.938 364.293 687.623C363.488 685.883 363.46 684.59 361.484 684.181L361.095 684.778C359.484 687.201 356.309 689.089 356.064 691.259C357.182 692.077 356.544 691.769 358.297 691.683C360.228 690.469 361.254 689.246 363.059 689.374L364.934 691.56Z"/><path fill="#FDD8C0" d="M503.64 667.091L528.942 684.726C516.792 686.508 503.414 687.591 491.133 688.779L437.611 694.038C406.024 697.178 374.817 701.436 343.175 703.456C344.912 701.178 348.778 695.952 351.092 694.373C354.874 695.816 386.465 692.194 392.919 691.397C429.619 686.868 472.291 689.545 503.64 667.091Z"/><path fill="#86BD9F" d="M408.502 639.925C416.848 618.669 434.169 617.04 447.609 635.37C447.504 637.308 447.488 637.206 448.201 639.01C447.313 646.816 448.172 651.494 441.192 657.064C432.4 664.08 418.437 662.471 411.789 653.326C409.77 650.549 409.224 645.856 407.68 642.77C408.242 641.452 408.245 641.346 408.502 639.925Z"/><path fill="#B2E6BE" d="M426.745 627.746C434.778 626.753 442.092 632.473 443.064 640.509C444.035 648.546 438.296 655.844 430.257 656.794C422.248 657.74 414.984 652.027 414.016 644.021C413.048 636.015 418.741 628.736 426.745 627.746Z"/><path fill="#F9F7F1" fill-opacity="0.82745099" d="M361.484 684.181C363.46 684.59 363.488 685.883 364.293 687.623C366.104 688.938 366.391 688.326 369.206 688.083L369.797 689.211C369.147 691.981 367.261 692.006 364.934 691.56L363.059 689.374C361.254 689.246 360.228 690.469 358.297 691.683C356.544 691.769 357.182 692.077 356.064 691.259C356.309 689.089 359.484 687.201 361.095 684.778L361.484 684.181Z"/><path fill="#F9F7F1" d="M331.744 583.21C393.421 576.362 455.159 570.072 516.951 564.342C493.98 588.157 470.865 611.834 447.609 635.37C434.169 617.04 416.848 618.669 408.502 639.925C382.676 620.712 357.016 603.291 331.744 583.21Z"/><path fill="#FDD8C0" d="M659.728 523.93C667.881 538.12 672.554 547.309 678.764 562.289C669.71 574.194 656.295 590.666 644.52 599.822C609.84 631.067 577.805 643.924 533.174 656.988L532.072 646.18C555.056 643.713 581.107 635.209 593.626 614.023C600.293 602.742 598.809 592.663 595.513 580.586C614.517 568.819 623.724 561.514 640.259 546.524C646.96 539.161 653.766 531.913 659.728 523.93Z"/><path fill="#F9B88C" d="M659.728 523.93C667.881 538.12 672.554 547.309 678.764 562.289C669.71 574.194 656.295 590.666 644.52 599.822C644.795 586.3 645.73 558.24 640.259 546.524C646.96 539.161 653.766 531.913 659.728 523.93Z"/><path fill="#B2E6BE" d="M706.349 512.048C716.583 511.524 730.853 518.348 738.781 524.653C744.717 529.373 748.922 536.062 749.531 543.792C750.149 551.115 747.801 558.379 743.013 563.955C734.802 573.609 721.448 577.587 709.233 578.575C700.577 579.15 694.724 577.913 686.412 576.213C680.076 556.536 674.463 545.214 664.841 527.054C681.365 522.841 690.844 518.889 706.349 512.048Z"/><path fill="#F9F7F1" d="M519.811 566.487C521.016 574.861 521.959 583.271 522.638 591.705C511.628 601.835 485.601 615.628 498.965 634.751C504.12 642.127 514.674 644.654 523.147 646.026C525.337 646.184 527.178 646.332 529.349 646.646C530.796 659.931 532.683 669.978 532.5 683.453C525.553 679.176 512.807 671.27 506.899 665.907C490.732 655.538 472.273 641.857 456.358 630.664C471.129 617.178 484.573 602.44 498.619 588.203C505.817 580.908 512.149 573.405 519.811 566.487Z"/><path fill="#FDD8C0" d="M523.147 646.026C525.337 646.184 527.178 646.332 529.349 646.646C530.796 659.931 532.683 669.978 532.5 683.453C525.553 679.176 512.807 671.27 506.899 665.907C512.325 662.421 519.418 651.548 523.147 646.026Z"/><path fill="#F9F7F1" d="M335.16 646.678C351.296 644.263 355.952 639.079 355.709 623.195C355.519 610.79 328.939 595.738 330.722 588.239C332.969 587.499 335.085 589.522 336.889 590.828C343.201 595.399 349.442 600.074 355.678 604.747C370.127 615.623 384.682 626.357 399.341 636.948C386.518 651.332 373.564 665.598 360.48 679.746C356.329 684.225 345.772 695.926 341.575 699.157C340.215 698.641 340.853 699.031 339.957 697.271C342.78 696.234 343.224 695.127 344.952 692.719C344.696 690.527 344.613 686.892 342.976 685.518C340.554 687.121 341.428 689.71 340.256 693.197L340.084 693.693C338.639 685.848 337.073 669.353 336.485 661.192C338.179 660.751 337.357 661.122 338.759 659.38L339.321 660.181L339.92 660.223C341.022 656.745 339.109 652.021 340.633 647.741L340.213 647.045C334.004 646.425 338.639 652.346 336.084 656.115C335.655 652.823 335.397 649.992 335.16 646.678ZM354.172 607.501L354.922 606.977C354.144 603.722 347.461 601.355 344.294 601.303C345.285 603.346 348.686 606.93 350.509 609.4C352.21 609.065 352.77 608.498 354.172 607.501Z"/><path fill="#F9F7F1" fill-opacity="0.87450981" d="M344.294 601.303C347.461 601.355 354.144 603.722 354.922 606.977L354.172 607.501C352.77 608.498 352.21 609.065 350.509 609.4C348.686 606.93 345.285 603.346 344.294 601.303Z"/><path fill="#B2E6BE" d="M353.359 520.083C359.103 520.759 370.305 525.64 376.158 527.992L374.156 535.928C361.062 545.087 353.634 551.776 342.27 562.931L337.654 568.013C319.364 554.447 318.892 538.29 339.096 525.721C343.319 523.095 348.621 521.642 353.359 520.083Z"/><path fill="#F9F7F1" fill-opacity="0.89411765" d="M336.084 656.115C338.639 652.346 334.004 646.425 340.213 647.045L340.633 647.741C339.109 652.021 341.022 656.745 339.92 660.223L339.321 660.181L338.759 659.38C337.357 661.122 338.179 660.751 336.485 661.192C336.236 659.339 336.167 657.989 336.084 656.115Z"/><path fill="#F9F7F1" fill-opacity="0.65490198" d="M340.084 693.693L340.256 693.197C341.428 689.71 340.554 687.121 342.976 685.518C344.613 686.892 344.696 690.527 344.952 692.719C343.224 695.127 342.78 696.234 339.957 697.271L340.084 693.693Z"/><path fill="#391D2E" d="M383.384 271.279C381.542 270.982 374.641 273.893 372.113 274.491C363.247 276.589 354.684 270.086 352.989 261.278C352.058 256.486 353.151 251.523 356.009 247.565C361.966 239.213 370.939 237.67 379.469 243.594C392.7 252.784 383.294 260.067 385.218 269.377L383.384 271.279Z"/><path fill="#040103" d="M385.218 269.377C398.575 282.534 413.222 301.182 417.875 319.613C417.072 320.691 417.124 320.837 415.937 321.384C412.953 315.807 409.315 306.856 406.6 300.852C400.417 287.174 391.854 281.943 383.384 271.279L385.218 269.377Z"/><defs><linearGradient id="gradient_0" gradientUnits="userSpaceOnUse" x1="753.00098" y1="353.9982" x2="757.30792" y2="347.53909"><stop offset="0" stop-color="#311821"/><stop offset="1" stop-color="#492C3F"/></linearGradient></defs><path fill="url(#gradient_0)" d="M772.281 367.71C766.024 359.797 760.302 352.553 752.051 346.478C747.333 343.004 735.956 340.822 732.983 337.384L733.614 336.723C735.172 336.364 736.2 336.403 737.77 336.869C755.264 342.064 765.463 352 774.628 366.753L772.281 367.71Z"/><path fill="#040103" fill-opacity="0.98039216" d="M273.99 391.423C275.434 392.974 272.648 399.744 272.023 401.937C267.234 418.77 271.387 431.878 273.292 447.7L272.727 447.727C269.512 441.822 268.138 437.006 267.527 430.21C266.627 420.193 267.35 399.376 273.99 391.423Z"/><path fill="#040103" fill-opacity="0.98823529" d="M772.807 537.717C777.822 545.637 771.557 561.701 766.537 568.525C761.318 575.619 756.709 579.21 748.978 583.059C748.452 582.958 748.799 583.06 748.039 582.517C748.91 580.753 756.041 575.926 758.185 574.061C769.763 563.985 771.7 552.198 772.807 537.717Z"/><path fill="#040103" fill-opacity="0.98431373" d="M256.712 408.766C257.141 409.159 257.665 409.708 257.64 410.353C257.452 415.2 259.864 430.208 257.624 433.69C254.368 426.055 253.767 416.582 256.712 408.766Z"/><path fill="#391D2E" d="M760.912 336.477C769.009 336.228 775.678 344.625 777.381 351.908C774.731 351.371 768.447 343.182 766.043 341.108C764.534 339.806 762.248 337.885 760.912 336.477Z"/><path fill="#391D2E" d="M783.515 557.765C788.97 562.512 779.717 573.043 775.848 576.412L775.35 576.36C774.255 574.07 777.958 571.084 779.22 569.005C781.35 565.494 782.327 561.651 783.515 557.765Z"/><path fill="#040103" d="M772.281 367.71L774.628 366.753C776.764 370.717 777.041 371.93 778.411 376.236C775.939 373.116 774.434 371.051 772.281 367.71Z"/></svg>