<?xml version="1.0" encoding="utf-8" ?><svg xmlns="http://www.w3.org/2000/svg" xmlns:xlink="http://www.w3.org/1999/xlink" width="1024" height="1024" viewBox="0 0 1024 1024"><defs><linearGradient id="gradient_0" gradientUnits="userSpaceOnUse" x1="753.56622" y1="411.86969" x2="499.48953" y2="669.07684"><stop offset="0" stop-color="#1B0E17"/><stop offset="1" stop-color="#401F38"/></linearGradient></defs><path fill="url(#gradient_0)" d="M456.746 302.336C478.76 291.37 511.449 285.005 535.443 290.766C547.68 292.459 557.08 296.9 568.025 301.55C567.45 303.091 567.85 302.651 566.726 303.627L572.983 306.817C575.318 306.575 575.974 307.051 577.982 307.061C582.227 309.176 589.024 314.67 592.755 318.01C597.616 322.616 603.114 327.751 607.504 332.808C637.27 369.795 642.994 414.798 616.691 455.793C618.401 457.923 627.586 469.956 629.385 470.207L629.735 469.889C633.442 465.358 638.162 461.35 642.161 457.155C673.866 423.894 719.848 402.356 763.989 426.205C818.468 455.638 823.054 521.075 785.086 566.051C769.696 584.459 748.886 597.536 725.624 603.419C726.138 617.088 724.508 625.816 714.815 636.215C711.311 639.902 707.452 643.235 703.295 646.167C704.085 649.082 705.136 652.591 705.756 655.489C706.803 659.29 708.287 665.439 709.55 668.983C704.848 670.504 687.675 674.109 685.797 676.604L685.117 679.34C683.589 687.48 682.171 694.051 679.681 702.024L678.113 706.873C675.481 714.721 672.299 722.374 668.591 729.775C666.974 732.975 664.081 737.691 662.812 740.418C658.261 748.176 653.942 753.09 648.628 760.154C630.957 783.877 591.19 812.445 562.32 819.701L561.912 819.85C557.469 821.432 551.494 821.455 549.463 824.873L549.488 828.152C549.049 826.376 549.288 826.006 548.175 824.97C547.013 828.157 547.983 839.066 547.414 843.508C546.946 837.984 547.162 829.464 547.156 823.701C531.73 825.61 519.489 827.824 503.692 826.585C497.97 826.136 487.235 824.287 482.245 824.71C481.26 824.577 481.097 824.46 480.146 824.136C479.519 823.021 465.723 819.604 462.691 818.641C430.22 808.329 403.798 787.644 381.929 761.971C377.844 757.176 369.028 746.019 366.222 740.399C356.596 724.714 355.576 717.923 348.487 702.336C339.889 710.82 332.035 716.641 319.445 717.654C310.646 718.449 301.909 715.584 295.29 709.733C285.501 701.17 283.577 690.584 282.784 678.338C283.06 679.169 280.077 660.224 280.014 659.786C277.762 644.173 281.766 629.415 288.93 615.611C291.123 611.386 293.887 605.622 296.778 601.81L297.318 600.29C300.883 596.482 305.343 590.025 308.455 585.625C330.851 553.964 357.619 526.751 382.706 497.464C386.297 490.798 394.499 479.779 398.98 472.634L400.069 470.867L400.021 470.711C403.203 467.302 407.805 461.339 411.017 457.552C411.32 456.391 402.643 438.732 401.528 435.764C395.161 418.821 392.802 381.493 401.652 365.424C402.634 362.174 406.138 355.061 407.741 351.942C418.664 330.686 434.333 316.384 454.185 303.744L452.85 299.045L455.311 297.038C456.018 298.898 456.304 300.39 456.746 302.336ZM347.666 697.078C344.843 693.341 341.601 659.658 341.17 653.011C332.283 665.5 327.745 676.709 311.289 682.825C306.148 684.736 297.368 685.813 292.8 682.644C290.8 681.256 286.812 678.42 284.886 677.513L284.379 679.05L284.601 679.964C285.206 682.539 285.514 686.261 286.028 689.106C287.671 698.201 292.801 705.856 300.621 710.858C307.452 715.324 315.809 716.807 323.759 714.965C330.623 713.393 347.672 704.543 347.666 697.078ZM698.916 556.923C699.54 557.326 703.382 561.752 704.226 562.741C716.24 576.802 720 584.781 725.696 601.399C742.094 597.046 757.277 588.994 770.08 577.863C808.25 545.034 823.202 488.737 787.757 448.076C766.205 423.353 732.157 412.84 700.6 422.107C680.7 427.95 664.787 439.003 649.913 453.102C643.261 459.306 637.02 466.427 630.29 472.489C632.391 476.93 635.857 480.865 638.045 485.01C647.003 501.978 660.409 512.651 672.399 526.957C677.534 532.976 682.766 538.91 688.096 544.756C691.19 548.16 696.258 553.391 698.916 556.923Z"/><defs><linearGradient id="gradient_1" gradientUnits="userSpaceOnUse" x1="661.26428" y1="577.2074" x2="276.93298" y2="635.46997"><stop offset="0" stop-color="#090001"/><stop offset="1" stop-color="#31172D"/></linearGradient></defs><path fill="url(#gradient_1)" d="M411.017 457.552C411.603 458.286 412.159 458.975 412.721 459.727C414.421 459.943 415.325 461.323 416.511 462.931C423.587 472.524 432.724 479.783 442.447 486.636C441.052 488.677 438.592 495.842 437.698 498.364C431.997 514.453 427.485 529.896 424.809 546.746L426.928 547.072C426.499 549.28 426.676 549.58 424.313 550.273C423.317 554.591 422.958 590.303 423.792 596.21C420.942 596.584 420.434 596.036 418.879 598.471C420.493 598.452 422.911 598.345 424.452 598.457L433.875 598.717L436.669 598.539C443.27 598.846 450.556 598.63 457.206 598.656C460.504 598.668 467.155 598.834 470.241 598.519C475.643 598.711 505.908 599.528 509.35 598.428C509.255 597.848 509.27 598.228 509.584 597.31C511.469 596.818 510.658 596.665 512.218 597.196L510.035 598.143C512.41 599.964 521.18 595.354 525.543 596.277C521.039 597.569 517.414 598.378 512.839 599.336C516.021 614.025 520.912 628.656 524.572 643.255C525.409 646.596 526.662 650.155 527.296 653.502C528.884 654.131 535.602 659.868 537.615 661.37C579.225 692.43 631.284 675.892 675.967 662.468C680.603 661.075 684.915 658.211 689.292 656.737C693.814 655.214 698.159 654.733 702.751 652.826L704.118 657.928C704.385 657.412 705.377 656.043 705.756 655.489C706.803 659.29 708.287 665.439 709.55 668.983C704.848 670.504 687.675 674.109 685.797 676.604L685.117 679.34C683.589 687.48 682.171 694.051 679.681 702.024L678.113 706.873C675.481 714.721 672.299 722.374 668.591 729.775C666.974 732.975 664.081 737.691 662.812 740.418C658.261 748.176 653.942 753.09 648.628 760.154C630.957 783.877 591.19 812.445 562.32 819.701L561.912 819.85C557.469 821.432 551.494 821.455 549.463 824.873L549.488 828.152C549.049 826.376 549.288 826.006 548.175 824.97C547.013 828.157 547.983 839.066 547.414 843.508C546.946 837.984 547.162 829.464 547.156 823.701C531.73 825.61 519.489 827.824 503.692 826.585C497.97 826.136 487.235 824.287 482.245 824.71C481.26 824.577 481.097 824.46 480.146 824.136C479.519 823.021 465.723 819.604 462.691 818.641C430.22 808.329 403.798 787.644 381.929 761.971C377.844 757.176 369.028 746.019 366.222 740.399C356.596 724.714 355.576 717.923 348.487 702.336C339.889 710.82 332.035 716.641 319.445 717.654C310.646 718.449 301.909 715.584 295.29 709.733C285.501 701.17 283.577 690.584 282.784 678.338C283.06 679.169 280.077 660.224 280.014 659.786C277.762 644.173 281.766 629.415 288.93 615.611C291.123 611.386 293.887 605.622 296.778 601.81L297.318 600.29C300.883 596.482 305.343 590.025 308.455 585.625C330.851 553.964 357.619 526.751 382.706 497.464C386.297 490.798 394.499 479.779 398.98 472.634L400.069 470.867L400.021 470.711C403.203 467.302 407.805 461.339 411.017 457.552ZM347.666 697.078C344.843 693.341 341.601 659.658 341.17 653.011C332.283 665.5 327.745 676.709 311.289 682.825C306.148 684.736 297.368 685.813 292.8 682.644C290.8 681.256 286.812 678.42 284.886 677.513L284.379 679.05L284.601 679.964C285.206 682.539 285.514 686.261 286.028 689.106C287.671 698.201 292.801 705.856 300.621 710.858C307.452 715.324 315.809 716.807 323.759 714.965C330.623 713.393 347.672 704.543 347.666 697.078Z"/><path fill="#060102" fill-opacity="0.027450981" d="M340.381 669.236C341.144 668.997 340.691 669.029 341.72 669.489L341.55 670.197L340.124 670.105L338.314 672.315L338.157 672.736L338.239 670.902L337.5 670.935L337.902 670.07L340.381 669.236Z"/><path fill="#1F0F1A" d="M656.44 746.648L662.011 737.416L662.812 740.418C658.261 748.176 653.942 753.09 648.628 760.154C630.957 783.877 591.19 812.445 562.32 819.701L561.912 819.85C557.469 821.432 551.494 821.455 549.463 824.873L549.488 828.152C549.049 826.376 549.288 826.006 548.175 824.97C547.013 828.157 547.983 839.066 547.414 843.508C546.946 837.984 547.162 829.464 547.156 823.701C531.73 825.61 519.489 827.824 503.692 826.585C497.97 826.136 487.235 824.287 482.245 824.71C481.26 824.577 481.097 824.46 480.146 824.136C479.519 823.021 465.723 819.604 462.691 818.641C430.22 808.329 403.798 787.644 381.929 761.971C377.844 757.176 369.028 746.019 366.222 740.399L368.654 739.915C369.946 741.933 371.633 744.752 373.033 746.61L455.378 746.774C463.943 746.72 476.393 747.061 484.642 746.609C505.195 746.265 526.247 746.734 546.864 746.714L604.274 746.588C612.171 746.586 626.836 746.193 634.237 746.911C638.166 746.375 651.708 746.666 656.44 746.648Z"/><path fill="#381B32" d="M656.44 746.648L662.011 737.416L662.812 740.418C658.261 748.176 653.942 753.09 648.628 760.154C630.957 783.877 591.19 812.445 562.32 819.701C560.502 816.846 548.867 808.583 545.5 805.853C527.612 791.344 509.604 776.57 494.558 759.033C491.825 755.848 487.939 751.522 485.971 747.946C493.279 747.004 545.562 747.563 546.864 746.714L604.274 746.588C612.171 746.586 626.836 746.193 634.237 746.911C638.166 746.375 651.708 746.666 656.44 746.648Z"/><path fill="#060102" d="M546.864 746.714L604.274 746.588C612.171 746.586 626.836 746.193 634.237 746.911C632.738 748.119 632.365 748.702 630.231 748.713C598.434 748.879 566.444 749.529 534.677 748.239C520.145 747.65 499.992 750.391 485.971 747.946C493.279 747.004 545.562 747.563 546.864 746.714Z"/><path fill="#060102" d="M656.44 746.648L662.011 737.416L662.812 740.418C658.261 748.176 653.942 753.09 648.628 760.154C648.584 754.707 652.958 750.863 656.44 746.648Z"/><path fill="#F6C89A" d="M541.133 714.993L578.478 704.951C595.816 700.281 610.228 697.653 628.272 699.359C638.462 700.322 668.936 697.543 676.563 699.736C677.729 701.331 677.269 701.998 676.741 703.981C676.969 705.594 676.931 706.006 676.669 707.543C677.662 707.562 677.162 707.661 678.113 706.873C675.481 714.721 672.299 722.374 668.591 729.775C666.974 732.975 664.081 737.691 662.812 740.418L662.011 737.416L656.44 746.648C651.708 746.666 638.166 746.375 634.237 746.911C626.836 746.193 612.171 746.586 604.274 746.588L546.864 746.714C526.247 746.734 505.195 746.265 484.642 746.609C482.877 743.981 480.371 740.587 478.365 738.13C468.607 726.181 462.495 712.372 454.703 699.329L536.936 699.406C538.222 704.353 539.585 710.188 541.133 714.993Z"/><path fill="#060102" d="M676.741 703.981C676.969 705.594 676.931 706.006 676.669 707.543C677.662 707.562 677.162 707.661 678.113 706.873C675.481 714.721 672.299 722.374 668.591 729.775C666.974 732.975 664.081 737.691 662.812 740.418L662.011 737.416C668.665 724.655 671.803 717.582 676.741 703.981Z"/><path fill="#381B32" d="M470.241 598.519C475.643 598.711 505.908 599.528 509.35 598.428C510.68 601.873 521.95 644.36 521.67 645.231L519.918 645.53L520.511 647.129L522.03 647.527C524.142 649.702 534.419 689.943 536.497 697.109C517.106 696.722 497.163 697.554 477.706 697.237C469.955 697.111 461.655 697.487 453.972 696.97C448.931 692.398 441.533 669.812 438.435 662.598C436.612 658.354 435.624 648.983 433.649 645.056L433.834 644.937C430.217 639.818 425.01 606.144 424.452 598.457L433.875 598.717L436.669 598.539C443.27 598.846 450.556 598.63 457.206 598.656C460.504 598.668 467.155 598.834 470.241 598.519Z"/><path fill="#F6C89A" d="M470.241 598.519C475.643 598.711 505.908 599.528 509.35 598.428C510.68 601.873 521.95 644.36 521.67 645.231L519.918 645.53C515.637 645.27 510.236 645.45 505.868 645.48C501.16 644.973 487.786 645.245 482.588 645.226C466.337 645.223 450.085 645.126 433.834 644.937C430.217 639.818 425.01 606.144 424.452 598.457L433.875 598.717L436.669 598.539C443.27 598.846 450.556 598.63 457.206 598.656C460.504 598.668 467.155 598.834 470.241 598.519Z"/><path fill="#260A1B" d="M505.868 645.48C510.236 645.45 515.637 645.27 519.918 645.53L520.511 647.129C516.9 647.737 509.248 647.235 505.868 645.48Z"/><path fill="#F1B27F" d="M362.969 549.414C368.513 548.798 421.007 549.304 424.313 550.273C423.317 554.591 422.958 590.303 423.792 596.21C420.942 596.584 420.434 596.036 418.879 598.471C420.493 598.452 422.911 598.345 424.452 598.457C425.01 606.144 430.217 639.818 433.834 644.937L433.649 645.056C424.538 644.711 415.209 645.105 406.049 644.863C387.468 644.37 369.077 644.468 350.527 645.504C349.223 645.576 344.737 644.646 343.106 644.374C342.858 637.055 343.602 631.045 344.056 623.793C345.181 616.422 347.037 606.246 347.611 599.027L348.053 598.748C347.689 593.527 350.379 583.493 351.708 578.079C354.501 572.027 357.042 557.195 360.898 550.521C361.535 549.418 361.333 549.836 362.969 549.414Z"/><path fill="#260A1B" d="M362.969 549.414C368.513 548.798 421.007 549.304 424.313 550.273C423.317 554.591 422.958 590.303 423.792 596.21C420.942 596.584 420.434 596.036 418.879 598.471C403.541 598.617 388.201 598.614 372.863 598.461C365.489 598.426 355.177 598.105 348.053 598.748C347.689 593.527 350.379 583.493 351.708 578.079C354.501 572.027 357.042 557.195 360.898 550.521C361.535 549.418 361.333 549.836 362.969 549.414Z"/><path fill="#F1B27F" d="M350.632 699.962C352.235 699.266 356.244 699.193 358.101 699.186C385.145 699.079 412.191 699.398 439.236 699.233C444.109 699.204 449.933 698.852 454.703 699.329C462.495 712.372 468.607 726.181 478.365 738.13C480.371 740.587 482.877 743.981 484.642 746.609C476.393 747.061 463.943 746.72 455.378 746.774L373.033 746.61C371.633 744.752 369.946 741.933 368.654 739.915C360.575 726.578 355.851 714.545 350.632 699.962Z"/><path fill="#F1B27F" d="M527.296 653.502C528.884 654.131 535.602 659.868 537.615 661.37C579.225 692.43 631.284 675.892 675.967 662.468C680.603 661.075 684.915 658.211 689.292 656.737C693.814 655.214 698.159 654.733 702.751 652.826L704.118 657.928C704.385 657.412 705.377 656.043 705.756 655.489C706.803 659.29 708.287 665.439 709.55 668.983C704.848 670.504 687.675 674.109 685.797 676.604L685.117 679.34C683.589 687.48 682.171 694.051 679.681 702.024C679.102 700.788 679.296 699.488 679.365 698.13C677.203 697.863 676.271 697.658 674.169 697.073C668.36 697.346 611.223 697.323 608.437 696.415L610.044 695.867C608.496 695.463 608.253 695.149 606.953 694.231C586.268 699.402 563.636 706.087 542.906 711.698C537.926 692.03 532.504 673.047 527.296 653.502Z"/><path fill="#381B32" d="M623.048 692.093C631.576 689.591 641.245 688.011 649.867 685.513C656.883 683.48 663.999 681.676 671.067 679.832C674.452 678.949 679.859 677.044 683.108 676.55C683.701 677.679 683.382 677.924 683.181 679.482L685.117 679.34C683.589 687.48 682.171 694.051 679.681 702.024C679.102 700.788 679.296 699.488 679.365 698.13C677.203 697.863 676.271 697.658 674.169 697.073C668.36 697.346 611.223 697.323 608.437 696.415L610.044 695.867C613.997 694.934 619.186 693.347 623.048 692.093Z"/><path fill="#060102" d="M683.181 679.482L685.117 679.34C683.589 687.48 682.171 694.051 679.681 702.024C679.102 700.788 679.296 699.488 679.365 698.13C677.203 697.863 676.271 697.658 674.169 697.073C675.104 697.025 677.629 696.948 678.222 696.456C681.245 693.949 682.292 683.505 683.181 679.482Z"/><defs><linearGradient id="gradient_2" gradientUnits="userSpaceOnUse" x1="663.20404" y1="661.94019" x2="666.04443" y2="685.97137"><stop offset="0" stop-color="#040200"/><stop offset="1" stop-color="#270E14"/></linearGradient></defs><path fill="url(#gradient_2)" d="M705.756 655.489C706.803 659.29 708.287 665.439 709.55 668.983C704.848 670.504 687.675 674.109 685.797 676.604L685.117 679.34L683.181 679.482C683.382 677.924 683.701 677.679 683.108 676.55C679.859 677.044 674.452 678.949 671.067 679.832C663.999 681.676 656.883 683.48 649.867 685.513C641.245 688.011 631.576 689.591 623.048 692.093L621.572 690.114C649.162 682.906 679.266 675.093 706.467 667.13C705.665 664.76 704.746 660.491 704.118 657.928C704.385 657.412 705.377 656.043 705.756 655.489Z"/><path fill="#060102" d="M606.953 694.231C611.684 692.696 616.752 691.417 621.572 690.114L623.048 692.093C619.186 693.347 613.997 694.934 610.044 695.867C608.496 695.463 608.253 695.149 606.953 694.231Z"/><path fill="#F1B27F" d="M411.017 457.552C411.603 458.286 412.159 458.975 412.721 459.727C414.421 459.943 415.325 461.323 416.511 462.931C423.587 472.524 432.724 479.783 442.447 486.636C441.052 488.677 438.592 495.842 437.698 498.364C431.997 514.453 427.485 529.896 424.809 546.746L426.928 547.072C426.499 549.28 426.676 549.58 424.313 550.273C421.007 549.304 368.513 548.798 362.969 549.414C361.059 548.96 361.613 549.487 360.741 548.276C361.346 546.56 360.938 547.374 362.586 545.943C368.27 532.286 374 519.031 381.021 505.998C384.767 499.045 388.814 492.759 392.829 485.988L391.81 485.692C388.656 489.115 385.563 496.213 382.706 497.464C386.297 490.798 394.499 479.779 398.98 472.634L400.069 470.867L400.021 470.711C403.203 467.302 407.805 461.339 411.017 457.552Z"/><path fill="#381B32" d="M362.969 549.414C361.059 548.96 361.613 549.487 360.741 548.276C361.346 546.56 360.938 547.374 362.586 545.943C365.932 547.391 417.656 546.492 424.809 546.746L426.928 547.072C426.499 549.28 426.676 549.58 424.313 550.273C421.007 549.304 368.513 548.798 362.969 549.414Z"/><path fill="#060102" d="M400.069 470.867C401.398 471.124 401.818 471.114 403.061 471.66C401.493 473.851 394.116 484.593 392.829 485.988L391.81 485.692C388.656 489.115 385.563 496.213 382.706 497.464C386.297 490.798 394.499 479.779 398.98 472.634L400.069 470.867Z"/><path fill="#260A1B" d="M411.017 457.552C411.603 458.286 412.159 458.975 412.721 459.727C409.347 463.647 406.36 467.771 403.061 471.66C401.818 471.114 401.398 471.124 400.069 470.867L400.021 470.711C403.203 467.302 407.805 461.339 411.017 457.552Z"/><path fill="#060102" d="M282.784 678.338L283.755 677.924L284.379 679.05L284.601 679.964C285.206 682.539 285.514 686.261 286.028 689.106C287.671 698.201 292.801 705.856 300.621 710.858C307.452 715.324 315.809 716.807 323.759 714.965C330.623 713.393 347.672 704.543 347.666 697.078C348.611 697.691 350.178 698.917 350.632 699.962C355.851 714.545 360.575 726.578 368.654 739.915L366.222 740.399C356.596 724.714 355.576 717.923 348.487 702.336C339.889 710.82 332.035 716.641 319.445 717.654C310.646 718.449 301.909 715.584 295.29 709.733C285.501 701.17 283.577 690.584 282.784 678.338Z"/><path fill="#381B32" d="M346.858 598.111L347.611 599.027C347.037 606.246 345.181 616.422 344.056 623.793C343.891 623.435 343.129 621.847 343.16 621.493C343.734 614.869 342.804 603.374 346.858 598.111Z"/><path fill="#381B32" d="M346.858 598.111C347.667 590.449 348.628 585.52 350.807 578.104L351.708 578.079C350.379 583.493 347.689 593.527 348.053 598.748L347.611 599.027L346.858 598.111Z"/><path fill="#73544A" d="M343.174 644.88C344.61 646.357 344.038 647.763 343.746 649.678L343.18 649.532C342.592 648.026 342.978 646.54 343.174 644.88Z"/><path fill="#060102" d="M456.746 302.336C478.76 291.37 511.449 285.005 535.443 290.766C547.68 292.459 557.08 296.9 568.025 301.55C567.45 303.091 567.85 302.651 566.726 303.627L572.983 306.817C575.318 306.575 575.974 307.051 577.982 307.061C582.227 309.176 589.024 314.67 592.755 318.01C597.616 322.616 603.114 327.751 607.504 332.808C637.27 369.795 642.994 414.798 616.691 455.793C618.401 457.923 627.586 469.956 629.385 470.207L629.735 469.889L630.074 470.322L629.679 470.895C624.465 470.403 621.853 460.019 618.043 461.173C617.012 460.186 615.992 459.186 614.985 458.174C589.76 487.733 561.03 504.139 521.655 507.471C492.208 509.963 467.876 499.791 442.447 486.636C432.724 479.783 423.587 472.524 416.511 462.931C415.325 461.323 414.421 459.943 412.721 459.727C412.159 458.975 411.603 458.286 411.017 457.552C411.32 456.391 402.643 438.732 401.528 435.764C395.161 418.821 392.802 381.493 401.652 365.424C402.634 362.174 406.138 355.061 407.741 351.942C418.664 330.686 434.333 316.384 454.185 303.744L452.85 299.045L455.311 297.038C456.018 298.898 456.304 300.39 456.746 302.336Z"/><path fill="#F16661" d="M624.522 367.157C631.097 385.528 632.915 401.217 628.894 420.62C623.215 448.022 604.595 470.824 581.169 485.349C555.131 501.493 519.101 509.949 488.809 502.394C457.41 494.562 429.181 480.299 411.77 451.685C399.828 432.058 396.436 408.759 399.644 386.214C400.408 380.842 402.278 374.246 403.57 368.898L404.036 368.919C407.786 371.082 423.97 384.697 426.754 387.999C425.207 392.697 425.058 400.505 425.438 405.441C429.183 454.171 475.41 487.378 523.052 483.329C545.929 481.534 567.151 470.709 582.036 453.244C598.429 433.637 602.555 412.761 600.353 387.795C606.457 383.294 618.273 372.44 624.522 367.157Z"/><path fill="#F16661" d="M456.746 302.336C478.76 291.37 511.449 285.005 535.443 290.766C547.68 292.459 557.08 296.9 568.025 301.55C567.45 303.091 567.85 302.651 566.726 303.627L572.983 306.817C575.318 306.575 575.974 307.051 577.982 307.061C582.227 309.176 589.024 314.67 592.755 318.01C597.616 322.616 603.114 327.751 607.504 332.808L606.846 335.295C613.597 344.345 619.066 353.192 623.269 363.724C615.601 370.276 606.994 377.328 599.583 384.02C597.576 378.473 595.36 372.148 592.743 366.938C583.84 349.488 569.355 335.518 551.595 327.251C507.677 306.821 454.021 325.036 432.765 368.789C432.528 369.277 432.377 369.866 432.232 370.386C432.064 372.503 427.805 386.406 426.754 387.999C423.97 384.697 407.786 371.082 404.036 368.919L403.57 368.898L403.227 367.501C401.944 370.261 398.981 384.384 398.242 387.594C395.718 384.673 402.169 369.888 401.652 365.424C402.634 362.174 406.138 355.061 407.741 351.942C418.664 330.686 434.333 316.384 454.185 303.744L452.85 299.045L455.311 297.038C456.018 298.898 456.304 300.39 456.746 302.336Z"/><path fill="#260A1B" d="M456.746 302.336C478.76 291.37 511.449 285.005 535.443 290.766C537.716 292.242 541.236 292.59 542.11 293.248C535.866 293.051 528.696 290.183 523.217 291.403C488.844 290.377 458.294 299.468 432.818 323.372C428.884 327.02 425.234 330.963 421.9 335.166C418.729 339.159 404.146 360.661 405.835 365.341C405.551 366.867 405.608 367.25 404.74 368.54L404.036 368.919L403.57 368.898L403.227 367.501C401.944 370.261 398.981 384.384 398.242 387.594C395.718 384.673 402.169 369.888 401.652 365.424C402.634 362.174 406.138 355.061 407.741 351.942C418.664 330.686 434.333 316.384 454.185 303.744L452.85 299.045L455.311 297.038C456.018 298.898 456.304 300.39 456.746 302.336Z"/><path fill="#1F0F1A" d="M405.835 365.341C413.145 371.316 420.377 377.386 427.529 383.55C428.537 379.86 430.162 373.623 432.232 370.386C432.064 372.503 427.805 386.406 426.754 387.999C423.97 384.697 407.786 371.082 404.036 368.919L404.74 368.54C405.608 367.25 405.551 366.867 405.835 365.341Z"/><path fill="#1F0F1A" d="M523.217 291.403C528.696 290.183 535.866 293.051 542.11 293.248C541.236 292.59 537.716 292.242 535.443 290.766C547.68 292.459 557.08 296.9 568.025 301.55C567.45 303.091 567.85 302.651 566.726 303.627C550.344 295.954 540.864 293.69 523.217 291.403Z"/><path fill="#1F0F1A" d="M572.983 306.817C575.318 306.575 575.974 307.051 577.982 307.061C582.227 309.176 589.024 314.67 592.755 318.01C593.221 319.651 593.466 320.807 594.179 322.362C587.556 316.187 580.509 311.743 572.983 306.817Z"/><path fill="#260A1B" d="M592.755 318.01C597.616 322.616 603.114 327.751 607.504 332.808L606.846 335.295C602.56 330.467 598.835 326.795 594.179 322.362C593.466 320.807 593.221 319.651 592.755 318.01Z"/><path fill="#F8DED4" d="M535.309 303.09C546.871 302.237 554.06 304.197 564.436 309.907C570.204 313.082 582.52 318.97 582.849 326.729C582.901 327.952 581.192 329.025 580.344 329.697C579.206 329.693 576.352 329.662 575.427 329.279C566.565 325.61 538.623 311.361 532.888 305.8C533.076 304.422 533.851 304.285 535.309 303.09Z"/><path fill="#F8DED4" d="M428.614 408.927C429.818 410.103 433.296 418.172 436.455 421.296C443.923 428.679 452.545 432.767 463.136 432.791C474.989 432.819 482.962 428.376 491.126 420.359C491.505 420.856 491.908 421.335 492.332 421.794C501.382 431.787 517.136 433.671 528.747 427.196C531.888 425.445 533.831 423.65 536.462 421.245C539.098 423.677 542.119 426.185 545.218 427.986C553.83 432.883 564.022 434.197 573.595 431.644C584.717 428.655 591.872 421.287 597.513 411.65C595.855 420.034 594.775 425.079 591.497 432.926C554.64 509.491 439.381 488.809 428.614 408.927Z"/><path fill="#F8DED4" d="M507.333 321.703C518.771 320.268 534.822 323.533 545.468 327.753C565.65 335.754 582.019 350.205 590.75 370.198C585.161 364.919 579.33 361.307 571.733 359.631C562.101 357.488 552.012 359.283 543.711 364.618C534.298 370.671 529.562 378.96 527.164 389.635C523.033 387.604 520.795 386.638 516.203 386.216C509.197 385.86 506.164 386.968 499.929 389.695C498.479 381.937 495.301 375.357 489.676 369.757C482.669 362.726 473.11 358.837 463.185 358.981C450.618 359.099 442.599 364.283 434.227 372.904C447.153 342.887 475.153 324.599 507.333 321.703Z"/><path fill="#F8DED4" d="M559.983 362.783C578.195 360.725 594.643 373.777 596.778 391.979C598.914 410.181 585.934 426.685 567.741 428.899C549.437 431.126 532.81 418.049 530.662 399.736C528.513 381.423 541.661 364.853 559.983 362.783Z"/><path fill="#381B32" d="M555.58 379.57C567.76 378.486 570.225 388.857 568.904 399.097C568.188 404.652 566.017 408.159 561.528 411.442C545.109 412.855 543.908 388.628 555.58 379.57Z"/><path fill="#F8DED4" d="M460.084 362.839C478.245 360.974 494.502 374.126 496.471 392.276C498.439 410.425 485.38 426.757 467.242 428.829C448.957 430.918 432.464 417.73 430.48 399.434C428.495 381.137 441.777 364.72 460.084 362.839Z"/><path fill="#381B32" d="M467.937 378.999C484.19 379.283 484.701 403.311 472.63 411.8C460.173 411.139 458.269 399.418 460.286 388.954C461.161 384.411 463.999 381.309 467.937 378.999Z"/><path fill="#F8DED4" d="M512.931 389.676C518.349 389.552 521.75 391.172 526.536 393.331C526.411 404.427 528.585 410.183 534.835 419.238C527.38 425.433 524.599 427.153 514.82 428.446C504.776 428.447 499.873 424.492 492.733 418.438C498.919 410.536 500.574 403.095 500.484 393.287C505.551 390.957 507.417 390.272 512.931 389.676Z"/><path fill="#F6C89A" d="M614.985 458.174C615.992 459.186 617.012 460.186 618.043 461.173C637.351 485.009 652.917 511.645 664.206 540.166C656.308 542.212 646.663 545.243 638.951 546.675C635.442 547.327 624.036 547.056 620.041 547.049L588.118 547.001L479.119 546.995L445.269 546.968C439.844 546.957 432.105 546.688 426.928 547.072L424.809 546.746C427.485 529.896 431.997 514.453 437.698 498.364C438.592 495.842 441.052 488.677 442.447 486.636C467.876 499.791 492.208 509.963 521.655 507.471C561.03 504.139 589.76 487.733 614.985 458.174Z"/><path fill="#F6C89A" d="M617.674 555.271C633.768 551.975 655.959 545.366 672.218 540.767C675.151 553 678.234 565.196 681.466 577.353C671.593 585.046 663.876 590.165 652.799 595.76C639.597 602.428 620.245 606.288 608.584 614.619C580.112 634.963 604.139 660.817 630.751 662.273C657.518 663.736 678.239 659.824 701.139 647.435L702.751 652.826C698.159 654.733 693.814 655.214 689.292 656.737C684.915 658.211 680.603 661.075 675.967 662.468C631.284 675.892 579.225 692.43 537.615 661.37C535.602 659.868 528.884 654.131 527.296 653.502C526.662 650.155 525.409 646.596 524.572 643.255C520.912 628.656 516.021 614.025 512.839 599.336C517.414 598.378 521.039 597.569 525.543 596.277C543.242 592.356 562.261 586.784 579.971 582.379C587.2 580.582 605.943 576.106 612.346 573.688C614.181 567.896 615.806 560.593 617.674 555.271Z"/><path fill="#1F0F1A" d="M436.669 598.539C438.359 597.528 441.193 597.891 443.314 597.509C451.891 595.965 461.189 596.962 469.793 597.926L470.241 598.519C467.155 598.834 460.504 598.668 457.206 598.656C450.556 598.63 443.27 598.846 436.669 598.539Z"/><path fill="#381B32" d="M423.792 596.21L424.929 597.048C428.909 595.088 431.555 594.232 433.875 598.717L424.452 598.457C422.911 598.345 420.493 598.452 418.879 598.471C420.434 596.036 420.942 596.584 423.792 596.21Z"/><path fill="#FBFAFA" d="M599.047 631.013C602.121 619.684 614.158 613.228 624.543 609.601C632.222 618.688 635.09 626.372 637.218 637.914C638.233 645.305 636.931 652.754 634.724 659.779L633.657 659.709C616.992 658.574 596.924 651.515 599.047 631.013Z"/><path fill="#E5E6EA" d="M634.724 659.779L633.657 659.709C616.992 658.574 596.924 651.515 599.047 631.013C604.13 636.234 630.604 644.458 636.653 640.959L637.218 637.914C638.233 645.305 636.931 652.754 634.724 659.779Z"/><path fill="#F1B27F" d="M609.346 567.079C609.881 567.008 610.148 567.135 610.72 567.251C611.065 568.993 610.989 568.882 610.269 570.537C608.197 572.592 529.422 592.411 519.759 594.914L519.302 594.862C518.236 593.909 518.018 591.52 517.706 589.961C528.171 587.857 540.636 584.374 551.15 581.73L609.346 567.079Z"/><path fill="#060102" d="M672.399 526.957C677.534 532.976 682.766 538.91 688.096 544.756C691.19 548.16 696.258 553.391 698.916 556.923C694.527 556.562 687.847 547.904 684.806 544.315C681.362 540.252 672.775 531.744 672.399 526.957Z"/><path fill="#060102" d="M878.136 588.376C862.387 579.832 852.586 567.996 857.526 548.896C861.821 534.451 872.244 518.556 884.879 510.192C895.451 503.194 899.869 516.648 902.189 524.066C903.95 518.984 908.643 507.504 917.056 510.32C922.499 512.142 919.635 521.776 917.647 525.979C934.473 520.293 935.889 527.467 936.669 542.24C938.529 577.501 917.028 602.907 880.704 589.301C840.002 659.297 817.203 736.339 803.052 815.631C801.82 821.464 800.786 828.76 799.658 834.766C798.391 841.516 796.652 850.006 795.898 856.666L796.125 856.698C796.98 854.117 797.633 851.685 798.274 849.041C801.258 836.743 805.385 824.941 809.778 813.111C820.763 789.142 831.823 765.561 845.773 743.145C866.319 710.133 891.826 678.709 919.255 651.164C927.805 642.577 943.253 626.362 952.74 619.839C948.281 609.681 949.743 597.051 961.178 592.809C986.939 583.251 999.632 618.64 975.489 628.256C968.402 631.079 959.685 626.73 954.075 621.969C939.632 633.297 925.924 647.444 913.293 660.554C880.777 694.303 853.057 731.639 831.53 773.34C825.275 785.456 816.595 802.328 811.625 815.252C805.056 832.334 798.831 854.925 794.654 872.844C800.78 864.496 805.059 854.892 810.64 846.254C829.945 816.391 849.023 785.338 874.727 760.465C887.521 748.085 901.908 737.467 919.815 734.74C948.758 730.333 973.125 750.154 976.656 778.873C979.763 804.138 966.122 825.86 945.356 839.26C935.404 845.855 909.147 855.267 902.918 863.33C904.15 869.931 933.26 861.425 901.988 896.95C913.743 896.347 937.044 896.737 948.414 897.862C940.208 899.382 931.711 899.078 923.354 899.082L894.009 899.043L793.79 899.027L582.455 899.027C549.761 899.038 515.51 900.249 483.062 899.248L485.345 898.786L484.584 897.368C485.711 897.1 490.96 897.002 492.681 896.896C509.203 896.225 531.563 898.086 547.416 896.461C547.957 879.627 547.261 860.639 547.414 843.508C547.983 839.066 547.013 828.157 548.175 824.97C549.288 826.006 549.049 826.376 549.488 828.152C549.651 830.678 549.507 833.299 549.555 835.84C549.897 853.885 549.045 872.236 549.735 890.252C562.642 884.027 567.904 885.165 575.656 897.042L658.016 897.056C670.177 897.051 691.866 897.48 703.576 896.561C702.045 894.739 700.561 892.878 699.124 890.981C692.906 882.582 690.281 872.057 691.827 861.722C693.338 852.696 698.386 844.646 705.854 839.356C715.012 832.748 724.038 832.525 734.683 834.164C726.27 815.125 716.663 796.285 708.37 777.313C703.864 767.004 704.572 752.301 709.412 742.258C714.559 731.579 725.619 722.78 738.163 724.577C760.969 727.269 769.805 749.464 774.349 769.06C776.684 779.131 778.65 788.973 780.527 799.195L788.195 842.051C789.311 848.347 790.311 857.028 792.416 862.869C793.419 857.828 794.044 852.205 794.906 847.051C797.456 831.419 800.228 815.824 803.221 800.27C810.321 763.965 819.778 728.161 831.531 693.084C835.22 682.069 838.932 671.096 843.256 660.308C853.415 634.967 865.477 612.445 878.136 588.376Z"/><path fill="#A8DCB4" d="M793.663 880.36C800.722 867.178 808.687 854.684 816.84 841.876C837.296 809.741 859.316 774.504 889.721 750.836C902.044 741.243 919.047 734.203 934.667 736.912C946.431 738.953 958.519 746.02 965.53 755.829C973.525 766.918 976.699 780.768 974.329 794.233C972.735 803.381 969.075 812.045 963.626 819.565C946.892 842.194 925.012 844.168 902.966 859.788C890.657 859.422 871.605 860.978 859.3 863.127C856.11 863.684 852.958 866.176 850.991 864.341C855.704 856.897 866.342 841.123 873.492 836.353C884.584 828.954 901.364 823.99 914.59 822.215C918.05 821.751 924.907 821.793 927.536 819.874C927.214 819.355 927.191 819.022 926.482 819.003C909.451 818.542 891.671 823.811 876.701 831.722C884.21 821.802 894.354 812.69 903.49 804.307C907.432 800.69 924.157 789.332 925.851 786.726L925.499 785.957C922.418 785.71 916.326 791.238 913.71 793.073C893.969 806.919 879.2 823.953 863.81 842.184C859.934 842.732 858.626 844.054 855.634 846.313C838.676 859.119 815.256 877.892 793.663 880.36Z"/><path fill="#8BCAA2" d="M710.613 745.45C712.731 741.035 715.289 736.4 718.996 733.274C739.93 715.625 762.639 736.033 768.854 756.902C773.711 773.213 776.272 787.535 779.143 804.169C781.188 816.42 783.938 829.456 785.814 841.623C787.796 850.853 789.578 859.731 790.732 869.131C791.121 872.291 790.179 878.502 790.916 880.513L791.754 880.986C792.446 880.79 793.043 880.68 793.663 880.36C815.256 877.892 838.676 859.119 855.634 846.313C858.626 844.054 859.934 842.732 863.81 842.184C853.298 855.002 834.692 881.741 827.913 896.801C809.077 896.731 788.9 897.049 770.186 896.51C764.932 888.563 761.531 883.166 755.094 876.101C758.355 876.419 760.498 878.034 763.13 878.527C767.704 879.383 774.376 878.938 779.133 878.766C780.704 880.465 779.793 880.058 781.763 880.401L781.851 880.576C783.456 877.174 773.814 865.102 771.537 862.089C761.024 848.173 753.08 841.699 737.441 834.787C733.349 824.681 728.024 813.782 723.292 803.961C712.727 782.034 702.711 770.344 710.613 745.45Z"/><path fill="#A8DCB4" d="M710.613 745.45C712.731 741.035 715.289 736.4 718.996 733.274C739.93 715.625 762.639 736.033 768.854 756.902C773.711 773.213 776.272 787.535 779.143 804.169C781.188 816.42 783.938 829.456 785.814 841.623C784.626 842.413 783.838 842.743 782.866 841.39C774.03 829.078 764.386 818.858 756.741 805.631C752.926 799.06 749.253 792.408 745.723 785.679C736.488 767.769 730.454 754.449 710.613 745.45Z"/><path fill="#F16661" d="M859.409 563.265C856.928 546.538 868.11 531 878.43 518.891C896.499 497.692 899.314 525.536 902.884 538.141C908.48 533.813 919.23 526.467 926.596 526.743C935.748 527.085 934.578 540.583 934.172 546.846C933.684 559.875 931.183 573.303 921.323 582.709C907.346 596.043 879.072 591.068 866.771 577.515C863.097 573.502 860.556 568.584 859.409 563.265Z"/><path fill="#D95250" d="M859.409 563.265L861.383 564.63C872.489 572.549 886.054 576.247 899.642 575.061C910.792 574.12 922.154 569.192 927.694 558.921C929.566 555.45 931.691 549.562 934.172 546.846C933.684 559.875 931.183 573.303 921.323 582.709C907.346 596.043 879.072 591.068 866.771 577.515C863.097 573.502 860.556 568.584 859.409 563.265Z"/><path fill="#A8DCB4" d="M695.233 878.312C686.947 842.256 722.566 823.596 750.484 844.496C760.971 852.347 774.149 866.472 779.133 878.766C774.376 878.938 767.704 879.383 763.13 878.527C760.498 878.034 758.355 876.419 755.094 876.101C744.885 866.744 740.064 860.916 726.84 854.225L725.763 854.845C727.596 858.609 733.548 860.997 736.974 863.581C742.449 867.709 747.288 872.049 752.144 876.889C745.754 875.396 734.703 873.065 728.328 875.035C718.015 878.841 699.473 876.254 695.233 878.312Z"/><path fill="#8BCAA2" d="M850.991 864.341C852.958 866.176 856.11 863.684 859.3 863.127C871.605 860.978 890.657 859.422 902.966 859.788C900.044 862.213 897.151 864.673 894.287 867.165C906.617 868.552 922.404 868.768 909.028 884.548C905.419 888.806 902.002 892.847 898.177 896.985L831.059 896.866C835.32 888.159 844.885 871.735 850.991 864.341Z"/><path fill="#8BCAA2" d="M695.233 878.312C699.473 876.254 718.015 878.841 728.328 875.035C730.22 876.305 750.472 879.339 754.286 879.705C760.241 884.874 762.699 890.583 767.188 896.864C747.607 896.423 727.43 897.355 707.938 896.711C702.176 892.11 697.839 885.157 695.233 878.312Z"/><path fill="#F1B27F" d="M967.199 593.448C976.24 592.21 984.603 598.455 985.981 607.476C987.36 616.496 981.246 624.955 972.247 626.473C966.301 627.477 960.275 625.198 956.481 620.511C952.687 615.823 951.714 609.455 953.934 603.848C956.155 598.242 961.225 594.267 967.199 593.448Z"/><path fill="#D95250" d="M912.866 512.469C922.297 512.07 915.886 524.485 912.588 527.574C910.984 529.075 909.143 529.961 907.25 530.957C905.506 531.875 906.289 531.901 904.812 531.494C901.792 526.161 908.196 515.777 912.866 512.469Z"/><path fill="#060102" d="M134.759 507.481C143.243 508.185 148.252 513.151 153.705 519.154C164.352 530.873 176.171 546.125 173.014 562.954C171.918 563.767 171.541 564.18 170.24 564.576C168.275 570.321 166.965 572.258 162.847 576.884C162.423 577.359 160.131 579.715 159.935 580.063C159.003 581.354 158.112 582.247 157.971 583.79C155.838 585.569 153.383 586.979 151.016 588.455C183.134 650.079 206.672 715.807 220.976 783.81C225.881 808.006 228.343 830.379 232.174 854.453C241.673 831.994 245.881 803.52 252.317 779.877C257.738 759.961 260.756 737.488 282.559 728.633C289.949 725.607 298.24 725.657 305.593 728.771C313.566 732.199 318.889 738.597 322.064 746.576C328.418 762.544 321.781 778.192 315.388 793.002C308.636 808.64 299.074 822.449 290.667 837.158C320.556 827.507 350.004 849.774 336.049 881.752C334.141 886.123 326.503 893.129 325.828 895.411C327.576 898.067 341.487 897.034 345.091 897.01L376.823 896.973C382.782 896.979 391.984 896.77 397.632 897.504L397.618 898.243C396.015 899.053 393.687 899.164 391.869 899.16C366.423 899.116 340.936 899.072 315.491 899.093C267.995 899.545 220.496 899.557 173 899.129L102.514 899.058C89.3244 899.051 73.497 899.575 60.6149 898.381L60.1953 898.044C63.9619 896.976 70.5596 897.048 74.5809 897.098C91.9717 897.314 109.691 896.408 127.044 896.775C124.802 889.851 121.759 884.495 118.36 878.161C117.321 876.225 114.599 871.277 114.085 869.556C115.429 867.915 116.929 867.967 119.097 867.707C123.54 867.143 127.001 866.824 131.305 865.466C128.2 861.522 121.67 857.667 117.241 855.484C95.0725 844.589 66.3704 836.429 54.609 812.439C42.125 787.107 52.4236 751.704 78.3705 739.488C119.449 720.149 151.073 753.595 174.311 782.994C193.541 807.323 216.019 832.554 229.674 860.195C229.843 830.677 214.234 802.633 200.39 777.558C168.881 720.49 127.889 663.342 77.001 621.959C75.5361 623.287 73.1426 625.225 71.3776 626.216C67.1919 628.564 62.256 629.189 57.6175 627.957C34.6171 621.723 42.1734 583.452 68.2635 592.45C80.4757 596.661 83.0364 608.39 78.4752 619.766C83.7105 624.984 90.2226 630.408 95.7658 635.439C102.373 641.543 108.801 647.839 115.039 654.319C157.765 698.636 192.284 754.501 219.608 809.387C221.301 812.788 222.229 817.72 224.694 820.739C224.761 820.486 224.827 820.234 224.894 819.981C216.189 756.12 195.251 691.434 169.842 632.569C161.873 614.107 156.612 601.841 148.564 589.382C131.078 594.575 110.153 596.018 99.2309 577.455C91.9605 565.098 90.5335 543.133 92.9959 529.254C94.5719 520.371 106.2 524.902 108.709 523.635C106.692 519.093 103.707 508.776 112.973 509.995C118.356 510.703 121.864 516.524 124.724 520.682L125.194 519.29C127.715 511.961 128.117 510.716 134.759 507.481Z"/><path fill="#A8DCB4" d="M133.648 865.531C123.674 844.224 48.7913 843.252 51.3251 786.9C51.9561 772.28 58.466 758.534 69.3776 748.783C85.3059 734.371 105.353 732.825 124.618 741.313C138.947 747.627 147.741 755.732 157.974 767.184C162.528 771.681 166.731 777.637 170.903 782.624C176.639 789.48 182.35 796.343 187.943 803.319C204.394 822.999 228.403 858.06 237.415 881.936C233.325 883.332 198.63 864.633 191.167 864.066C190.232 863.995 181.498 860.959 180.148 860.501C176.413 856.484 170.959 847.619 166.759 842.656C147.421 819.806 119.528 793.522 90.7362 783.588C93.7386 787.26 98.1727 789.754 102.398 791.826C121.105 800.999 136.754 814.439 151.065 829.5C134.556 823.35 117.308 819.462 99.4586 822.093C97.8891 822.325 98.1781 822.261 97.5672 823.161C99.4496 824.799 115.982 823.867 119.769 824.329C150.545 828.084 159.924 834.483 176.532 860.336C174.321 861.11 166.973 861.096 164.167 861.13C158.724 861.196 143.016 863.677 138.665 866.485L134.387 867.282C134.041 866.72 133.887 866.164 133.648 865.531Z"/><path fill="#FBFAFA" d="M157.974 767.184C162.528 771.681 166.731 777.637 170.903 782.624C176.639 789.48 182.35 796.343 187.943 803.319C166.575 810.102 144.012 787.806 157.974 767.184Z"/><path fill="#F16661" d="M125.045 537.152C126.704 510.708 134.399 499.322 154.689 524.183C160.716 531.567 165.238 537.309 169.178 546.114C161.675 555.608 155.785 565.98 144.206 571.248C131.041 577.237 115.899 576.134 104.039 567.763C102.674 566.8 98.0402 563.391 96.7336 562.886C95.1845 554.889 93.3162 536.248 96.6186 529.097C100.869 519.894 119.83 533.92 125.045 537.152Z"/><path fill="#A8DCB4" d="M251.14 871.991C263.253 855.399 278.244 841.395 299.133 837.423C324.406 832.618 347.276 857.462 334.136 881.424C330.62 881.514 326.155 884.362 322.53 885.256C307.527 888.957 302.553 872.782 291.178 866.872C294.002 864.317 303.036 858.884 304.19 856.698L303.838 856.022C300.293 856.54 291.229 863.712 287.324 866.107C278.369 865.002 267.921 865.309 259.825 869.395C257.354 870.642 253.539 872.725 251.14 871.991Z"/><path fill="#8BCAA2" d="M176.532 860.336C182.925 869.063 194.095 887.583 197.895 897.236L129.394 896.885C125.72 885.216 123.033 880.381 115.78 870.347C119.223 870.824 121.335 871.079 124.676 872.054C123.052 870.156 121.635 868 119.097 867.707C123.54 867.143 127.001 866.824 131.305 865.466L133.648 865.531C133.887 866.164 134.041 866.72 134.387 867.282L138.665 866.485C143.016 863.677 158.724 861.196 164.167 861.13C166.973 861.096 174.321 861.11 176.532 860.336Z"/><path fill="#6FA384" d="M138.665 866.485C136.91 868.218 135.645 868.416 133.157 868.295L133.026 867.784L134.387 867.282L138.665 866.485Z"/><path fill="#8BCAA2" d="M180.148 860.501C181.498 860.959 190.232 863.995 191.167 864.066C198.63 864.633 233.325 883.332 237.415 881.936C238.508 884 238.663 884.437 240.551 885.095C244.111 884.298 247.859 876.078 251.14 871.991C253.539 872.725 257.354 870.642 259.825 869.395C267.921 865.309 278.369 865.002 287.324 866.107C275.766 874.373 267.087 885.646 259.016 897.107C239.883 896.783 220.15 897.048 200.968 897.057C194.06 882.982 188.478 873.773 180.148 860.501Z"/><path fill="#D95250" d="M169.178 546.114C171.122 552.823 172.369 557.562 170.24 564.576C168.275 570.321 166.965 572.258 162.847 576.884C162.423 577.359 160.131 579.715 159.935 580.063C152.011 585.238 146.399 588.64 136.755 590.188C116.284 593.476 100.365 583.883 96.7336 562.886C98.0402 563.391 102.674 566.8 104.039 567.763C115.899 576.134 131.041 577.237 144.206 571.248C155.785 565.98 161.675 555.608 169.178 546.114Z"/><path fill="#8BCAA2" d="M291.178 866.872C302.553 872.782 307.527 888.957 322.53 885.256C326.155 884.362 330.62 881.514 334.136 881.424C323.335 899.701 309.689 897.25 291.158 897.147C281.724 897.075 272.289 897.053 262.855 897.08C267.633 888.177 282.375 872.382 291.178 866.872Z"/><path fill="#8BCAA2" d="M245.182 820.133C247.835 807.607 250.777 795.143 254.003 782.752C256.5 772.811 258.778 763.198 262.519 753.622C269.64 735.393 286.504 722.941 306.133 731.551C313.207 736.131 320.005 743.258 321.342 752.029C325.495 779.274 305.313 806.872 292.267 829.176C284.985 841.626 279.245 840.439 269.219 848.51C257.955 857.577 248.222 870.112 240.464 882.248C238.423 877.9 233.786 868.544 232.528 864.47C235.178 851.432 241.801 835.138 245.182 820.133Z"/><path fill="#A8DCB4" d="M245.182 820.133C247.835 807.607 250.777 795.143 254.003 782.752C256.5 772.811 258.778 763.198 262.519 753.622C269.64 735.393 286.504 722.941 306.133 731.551C305.001 738.406 303.962 745.528 301.47 752.195C291.747 778.201 272.343 801.554 250.402 818.295C249.032 819.34 248.055 819.879 246.482 820.429L245.182 820.133Z"/><path fill="#F1B27F" d="M58.2885 594.024C67.0704 591.881 75.9328 597.239 78.1157 606.011C80.2986 614.783 74.9809 623.67 66.2188 625.892C57.4003 628.129 48.4439 622.77 46.2469 613.941C44.05 605.113 49.45 596.181 58.2885 594.024Z"/><path fill="#D95250" d="M111.108 512.371C117.86 512.574 120.953 519.232 122.477 525.036C123.111 527.454 122.578 529.425 122.125 531.833L121.744 531.617C115.2 527.83 106.034 520.666 111.108 512.371Z"/><defs><linearGradient id="gradient_3" gradientUnits="userSpaceOnUse" x1="559.49658" y1="282.68268" x2="640.11224" y2="215.96915"><stop offset="0" stop-color="black"/><stop offset="1" stop-color="#241223"/></linearGradient></defs><path fill="url(#gradient_3)" d="M610.156 234.595C596.318 206.61 632.017 194.453 640.073 215.948C642.04 221.298 641.695 227.224 639.121 232.31C633.166 244.136 621.55 242.069 612.112 235.984C591.245 258.488 583.998 270.333 574.646 299.787L571.631 299.725C579.562 276.019 590.691 251.317 610.156 234.595Z"/><path fill="#381B32" d="M418.042 236.986C417.021 236.452 417.414 236.546 416.281 236.582C406.748 242.44 397.657 243.777 390.219 233.947C387.143 229.882 386.378 224.371 387.336 219.463C388.251 214.641 391.103 210.405 395.228 207.745C403.655 202.231 414.468 205.454 419.616 213.931C423.461 220.263 421.748 227.253 419.373 233.66C419.095 234.411 419.69 234.771 420.181 235.468C418.955 235.991 419.011 236.038 418.042 236.986Z"/><path fill="#060102" d="M296.778 601.81C271.37 593.426 245.124 571.019 232.393 547.739C213.836 513.805 215.257 469.77 243.587 441.622L246.614 442.382C240.05 449.364 235.067 455.425 230.801 463.998C211.892 501.99 225.652 546.445 255.908 574.122C268.703 585.826 281.869 592.854 297.318 600.29L296.778 601.81Z"/><defs><linearGradient id="gradient_4" gradientUnits="userSpaceOnUse" x1="408.01889" y1="901.62518" x2="483.82462" y2="890.7746"><stop offset="0" stop-color="black"/><stop offset="1" stop-color="#241326"/></linearGradient></defs><path fill="url(#gradient_4)" d="M480.38 886.995C480.692 885.873 480.902 885.652 481.449 884.603L482.052 884.84L482.879 887.185C482.983 890.881 482.841 890.129 485.905 892.583C485.836 894.381 483.741 895.437 482.282 896.472C485.416 896.582 489.645 896.608 492.681 896.896C490.96 897.002 485.711 897.1 484.584 897.368L485.345 898.786L483.062 899.248C471.779 898.801 413.842 900.419 406.971 897.971C410.811 896.302 447.999 897.043 454.946 897.084C461.696 879.275 475.868 890.408 480.296 888.809L480.38 886.995Z"/><path fill="#060102" d="M291.89 416.677C323.557 413.301 346.18 422.625 370.913 442.41C379.819 449.534 392.789 461.904 400.021 470.711L400.069 470.867L398.98 472.634C394.936 469.078 391.527 464.182 387.636 460.372C361.8 435.074 331.045 414.005 293.136 418.592L291.89 416.677Z"/><path fill="#DA8375" d="M127.492 331.066C123.647 332.566 119.277 331.147 117.047 327.673C114.817 324.199 115.346 319.635 118.311 316.763C121.276 313.891 125.855 313.509 129.256 315.849C132.657 318.188 133.936 322.602 132.313 326.397C131.398 328.538 129.661 330.22 127.492 331.066ZM130.381 322.342C123.761 308.325 109.889 326.238 124.978 329.65C129.318 327.591 129.643 327.105 130.381 322.342Z"/><path fill="#F16661" d="M130.381 322.342C132.385 323.675 131.973 324.005 132.313 326.397C131.398 328.538 129.661 330.22 127.492 331.066L124.978 329.65C129.318 327.591 129.643 327.105 130.381 322.342Z"/><path fill="#060102" d="M321.219 314.653C325.588 313.473 330.084 316.072 331.244 320.447C332.403 324.822 329.785 329.306 325.405 330.446C321.052 331.578 316.603 328.98 315.451 324.633C314.298 320.285 316.876 315.824 321.219 314.653ZM324.769 327.996C327.692 327.156 329.4 324.126 328.606 321.19C327.812 318.254 324.809 316.499 321.861 317.246C319.913 317.741 318.382 319.247 317.856 321.187C317.33 323.128 317.891 325.201 319.323 326.612C320.755 328.023 322.837 328.552 324.769 327.996Z"/><path fill="#060102" d="M418.042 236.986C419.011 236.038 418.955 235.991 420.181 235.468C437.408 253.508 448.163 273.299 455.311 297.038L452.85 299.045C447.784 279.95 439.213 262.763 427.215 246.916C424.87 243.818 420.954 240.689 418.609 237.716L418.042 236.986Z"/><path fill="#060102" d="M480.146 824.136C481.097 824.46 481.26 824.577 482.245 824.71C482.742 831.7 482.557 840.404 482.582 847.577C482.571 860.781 482.67 873.984 482.879 887.185L482.052 884.84L481.449 884.603C480.902 885.652 480.692 885.873 480.38 886.995C479.973 882.592 480.023 877.012 480.111 872.529C480.426 856.542 479.463 840.073 480.146 824.136Z"/><defs><linearGradient id="gradient_5" gradientUnits="userSpaceOnUse" x1="266.15631" y1="424.79944" x2="269.03568" y2="431.75006"><stop offset="0" stop-color="#06000C"/><stop offset="1" stop-color="#201028"/></linearGradient></defs><path fill="url(#gradient_5)" d="M243.587 441.622C257.403 427.04 272.172 419.865 291.89 416.677L293.136 418.592C276.67 421.305 257.784 429.734 246.614 442.382L243.587 441.622Z"/><path fill="#545355" fill-opacity="0.011764706" d="M803.052 815.631C806.851 814.016 805.689 811.954 808.467 809.313C810.382 812.338 807.87 809.893 809.778 813.111C805.385 824.941 801.258 836.743 798.274 849.041C797.633 851.685 796.98 854.117 796.125 856.698L795.898 856.666C796.652 850.006 798.391 841.516 799.658 834.766C800.786 828.76 801.82 821.464 803.052 815.631Z"/><path fill="#060102" d="M491.579 162.291C493.392 163.482 493.523 164.925 493.823 167C494.474 171.504 497.462 170.466 500.781 172.5L500.599 173.245C498.754 174.264 497.047 174.374 494.952 174.726C493.879 178.062 494.416 181.283 491.237 182.948L489.569 175.339C485.96 174.288 482.812 173.602 479.128 172.815C488.102 169.596 489.235 172.446 491.579 162.291Z"/><path fill="#E5E6EA" d="M491.386 170.687C492.167 170.513 492.98 170.774 493.513 171.37C494.046 171.966 494.215 172.804 493.955 173.56C493.696 174.316 493.048 174.872 492.261 175.015C491.078 175.229 489.941 174.458 489.703 173.28C489.465 172.101 490.213 170.949 491.386 170.687Z"/><path fill="#060102" d="M237.539 211.783C238.914 213.1 239.055 215.172 239.252 217.081C239.769 222.089 243.475 220.305 247.072 222.912C245.312 224.592 241.704 224.26 239.317 224.206C238.684 227.177 238.268 231.324 236.736 233.647C235.577 230.827 235.224 227.522 234.788 224.493C231.24 224.045 227.454 223.279 223.911 222.63C227.247 221.393 231.192 221.345 234.212 219.995C235.616 219.368 236.759 213.485 237.539 211.783ZM237.341 225.825C239.042 224.084 239.301 224.378 239.755 222.383C238.915 220.899 238.341 220.561 237.051 219.484C235.254 221.259 235.179 220.742 234.998 222.674C235.824 223.866 236.436 224.695 237.341 225.825Z"/><path fill="#060102" d="M198.341 402.127L199.631 403.228C200.525 405.564 200.496 407.85 200.667 410.369C202.507 410.952 206.41 411.752 207.513 412.821C206.365 414.56 202.696 414.872 201.227 416.378C198.976 418.687 201.255 421.346 198.977 423.981C195.32 415.232 197.707 415.576 187.758 413.2C190.558 412.296 193.225 411.658 196.078 410.953C197.391 407.512 197.668 405.743 198.341 402.127Z"/><path fill="#060102" fill-opacity="0.98823529" d="M170.24 564.576C171.541 564.18 171.918 563.767 173.014 562.954C170.613 571.812 165.837 578.831 157.971 583.79C158.112 582.247 159.003 581.354 159.935 580.063C160.131 579.715 162.423 577.359 162.847 576.884C166.965 572.258 168.275 570.321 170.24 564.576Z"/><path fill="#060102" d="M571.631 299.725L574.646 299.787L573.077 304.449C574.445 305.164 576.754 306.276 577.982 307.061C575.974 307.051 575.318 306.575 572.983 306.817L566.726 303.627C567.85 302.651 567.45 303.091 568.025 301.55L570.056 302.326C571.403 301.565 570.988 301.704 571.631 299.725Z"/></svg>