<?xml version="1.0" encoding="utf-8" ?><svg xmlns="http://www.w3.org/2000/svg" xmlns:xlink="http://www.w3.org/1999/xlink" width="1024" height="1024" viewBox="0 0 1024 1024"><path fill="#321728" d="M553.839 271.438L554.202 273.1C552.345 275.743 550.464 276.291 549.718 279.418C536.393 295.512 527.659 309.463 522.19 330.009C535.816 337.552 545.923 343.447 558.214 355.51C589.865 386.573 599.01 431.51 583.267 472.816C583.136 473.16 584.872 474.274 585.515 474.858C588.588 472.744 590.993 468.326 593.488 465.469C620.231 434.846 657.873 403.792 701.372 412.011C722.86 415.945 741.843 428.405 753.999 446.555C782.826 489.178 762.578 545.608 721.75 571.341C717.072 574.289 712.17 577.384 707.265 579.916C708.052 580.605 711.575 583.581 712.073 584.161C719.502 590.299 726.788 599.964 730.214 609.006C737.744 626.665 733.351 651.736 714.04 659.615C700.631 665.084 688.072 660.87 676.487 653.638C679.224 675.149 680.936 702.383 676.308 723.968C675.273 728.799 672.365 732.352 670.401 736.311C678.63 743.829 689.209 751.699 697.789 759.054C700.925 761.741 713.203 771.901 715.841 773.305C730.884 775.367 744.203 777.896 758.881 781.931C763.647 783.241 768.194 783.74 773.117 785.361L778.68 785.686C781.814 797.488 772.168 814.709 766.258 824.926L765.963 825.434L766.144 826.437C766.538 828.503 767.565 830.17 767.66 831.828C766.806 830.453 766.187 829.399 765.437 827.965C761.979 833.548 759.066 836.778 754.935 841.878C754.761 842.092 754.688 844.292 754.681 844.776C753.078 844.429 753.677 844.607 752.25 843.518C751.177 844.335 751.275 845.043 750.761 846.625C750.289 847.437 749.288 848.902 749.165 849.74C731.212 856.953 700.579 860.837 681.24 862.909C677.9 863.267 667.548 864.516 664.736 864.382C640.428 868.691 605.771 867.879 580.735 867.984C555.723 868.089 530.033 868.62 505.092 868.173C477.779 867.684 449.778 864.026 422.378 862.549C409.303 861.844 393.574 859.611 380.437 857.993C352.733 854.578 321.329 851.221 296.376 838.002C292.722 836.067 287.005 832.743 284.527 829.498C274.359 816.185 282.635 792.092 283.668 777.353L283.718 776.574C282.314 774.331 281.264 773.143 279.575 771.162L280.406 769.928C289.434 777.306 291.882 780.69 297.522 791.057C295.549 783.543 294.462 776.335 292.683 768.853C290.886 761.293 287.485 753.77 284.056 746.825C298.822 753.669 301.029 766.79 304.563 781.086C304.382 764.475 303.924 747.432 310.807 731.914C311.868 729.521 313.047 725.948 315.042 724.233L315.751 724.305C315.77 729.392 314.256 733.128 313.841 737.39C312.909 746.967 311.649 763.54 312.922 772.883C314.37 763.218 317.254 747.246 323.869 739.734L324.84 739.303C326.355 741.424 319.24 771.594 321.589 776.721C321.558 776.653 321.808 778.498 321.812 778.52C323.593 775.728 325.13 773.245 326.756 770.363L328.437 770.418C331.334 769.515 334.147 768.358 336.843 766.963C340.736 765.866 344.042 765.002 347.991 764.153C335.582 743.609 329.219 686.131 330.523 662.402C304.513 669.876 284.975 656.367 285.452 628.263C285.798 607.898 297.865 595.371 311.907 582.184C295.746 573.407 287.123 568.467 274.175 554.22C257.711 536.105 248.253 514.294 249.654 489.526C250.714 470.776 259.579 450.665 273.817 438.218C288.758 425.347 308.204 418.948 327.868 420.433C333.046 412.176 338.85 405.472 344.655 397.755C345.937 395.609 347.07 392.906 347.956 390.605C355.478 371.089 370.07 354.413 387.144 342.584C391.537 339.541 396.31 336.756 400.83 333.701L399.241 327.372C400.173 326.13 400.589 325.915 401.806 324.966C402.479 327.169 403.111 330.069 403.681 332.355C406.198 331.108 408.744 329.92 411.317 328.793C437.637 317.463 473.03 314.707 500.632 322.375C507.594 324.309 512.693 326.335 519.335 329.02C524.12 309.484 537.92 283.878 553.839 271.438Z"/><defs><linearGradient id="gradient_0" gradientUnits="userSpaceOnUse" x1="358.00479" y1="908.70667" x2="542.62268" y2="740.56317"><stop offset="0" stop-color="#B7DDD6"/><stop offset="1" stop-color="#D4DAD8"/></linearGradient></defs><path fill="url(#gradient_0)" d="M304.563 781.086C304.382 764.475 303.924 747.432 310.807 731.914C311.868 729.521 313.047 725.948 315.042 724.233L315.751 724.305C315.77 729.392 314.256 733.128 313.841 737.39C312.909 746.967 311.649 763.54 312.922 772.883C314.37 763.218 317.254 747.246 323.869 739.734L324.84 739.303C326.355 741.424 319.24 771.594 321.589 776.721C321.558 776.653 321.808 778.498 321.812 778.52C323.593 775.728 325.13 773.245 326.756 770.363L328.437 770.418C331.334 769.515 334.147 768.358 336.843 766.963C340.736 765.866 344.042 765.002 347.991 764.153C359.233 782.25 370.856 792.628 390.52 801.483C392.306 802.244 394.263 803.029 396.009 803.838C404.607 807.718 413.369 811.224 422.27 814.347L427.118 815.764C434.168 817.973 443.61 820.635 450.891 822.394C453.158 822.946 463.05 825.509 464.752 825.611L467.679 826.376C474.667 828.368 481.411 829.695 488.46 831.352C491.562 831.872 494.25 832.429 497.319 833.114C508.859 835.922 522.266 838.566 533.995 840.763L534.836 842.371C536.325 842.816 536.304 842.677 537.846 842.264L538.678 842.912L538.891 845.51L539.262 845.721L539.58 844.116C541.394 843.739 541.429 843.799 543.193 843.941C544.602 844.981 544.466 845.222 545.993 845.418L547.338 845.261C547.697 845.852 548.042 846.335 548.509 846.852C549.795 846.389 549.368 846.615 550.422 845.757L551.349 846.16C551.69 847.346 551.658 847.402 551.684 848.65L552.722 849.526C551.268 851.623 550.67 851.984 548.616 853.55L547.692 853.552C548.217 856.427 548.056 856.45 546.374 858.82C549.022 858.789 559.949 859.102 562.11 859.936C563.499 860.854 577.53 862.596 579.375 862.36C582.281 862.738 582.631 862.735 585.237 861.416C586.952 862.582 587.282 862.941 589.343 863.057C591.076 863.027 606.473 863.516 607.193 863.85L609.463 864.038C611.448 864.042 613.434 864.035 615.419 864.017L618.709 863.873C629.171 863.861 638.903 863.481 649.243 863.326L649.821 863.036C655.616 863.949 662.04 860.859 664.736 864.382C640.428 868.691 605.771 867.879 580.735 867.984C555.723 868.089 530.033 868.62 505.092 868.173C477.779 867.684 449.778 864.026 422.378 862.549C409.303 861.844 393.574 859.611 380.437 857.993C352.733 854.578 321.329 851.221 296.376 838.002C292.722 836.067 287.005 832.743 284.527 829.498C274.359 816.185 282.635 792.092 283.668 777.353L283.718 776.574C282.314 774.331 281.264 773.143 279.575 771.162L280.406 769.928C289.434 777.306 291.882 780.69 297.522 791.057C295.549 783.543 294.462 776.335 292.683 768.853C290.886 761.293 287.485 753.77 284.056 746.825C298.822 753.669 301.029 766.79 304.563 781.086Z"/><path fill="#A5B6B4" d="M488.46 831.352C491.562 831.872 494.25 832.429 497.319 833.114C508.859 835.922 522.266 838.566 533.995 840.763L534.836 842.371C536.325 842.816 536.304 842.677 537.846 842.264L538.678 842.912L538.891 845.51L539.262 845.721L539.58 844.116C541.394 843.739 541.429 843.799 543.193 843.941C544.602 844.981 544.466 845.222 545.993 845.418L547.338 845.261C547.697 845.852 548.042 846.335 548.509 846.852C549.795 846.389 549.368 846.615 550.422 845.757L551.349 846.16C551.69 847.346 551.658 847.402 551.684 848.65L552.722 849.526C551.268 851.623 550.67 851.984 548.616 853.55L547.692 853.552C548.217 856.427 548.056 856.45 546.374 858.82L545.623 858.297L543.78 857.312C541.865 857.785 541.445 858.06 539.638 857.261L536.453 857.051C533.703 856.513 530.867 855.953 528.07 855.752L527.918 854.956C526.653 854.601 525.225 855.1 522.43 854.102L521.62 852.963L521.029 853.46L520.393 854.009C518.615 853.109 518.79 852.822 517.921 850.939L517.209 851.046L517.389 852.871L516.784 852.946C515.249 851.797 512.995 850.635 511.05 850.995C510.224 852.064 510.711 851.664 509.483 852.093C508.282 850.923 508.365 850.249 507.832 848.469C506.988 849.062 507.035 849.465 506.023 850.498L505.475 850.381L504.764 845.97L503.796 845.681L502.903 846.226C502.864 847.238 502.808 848.25 502.737 849.26L501.803 849.732C499.24 849.383 498.713 848.992 496.312 847.852C492.438 848.375 479.06 843.944 474.519 843.438C471.561 843.108 474.995 843.142 472.131 841.993C472.485 841.465 473.236 840.881 473.75 840.419L473.054 840.079L474.591 838.474C477.971 837.785 476.922 840.737 481.557 838.899L481.967 838.517C481.78 837.127 480.824 836.81 479.71 835.163L480.491 834.492L481.363 834.682C481.99 835.749 482.244 836.434 483.238 837.141L483.973 836.685C484.195 835.39 484.039 836.027 484.442 834.772L485.909 834.455C488.263 833.552 487.806 833.568 488.46 831.352Z"/><path fill="#B2C2BF" d="M488.46 831.352C491.562 831.872 494.25 832.429 497.319 833.114C498.493 837.186 497.874 838.113 497.775 842.222L498.512 842.432C499.411 840.783 499.349 840.128 500.685 839.594L501.494 840.143C502.956 839.207 503.233 838.925 504.481 837.791C505.592 837.817 506.634 837.689 507.73 837.528C507.801 838.169 508.051 838.726 507.521 839.057C502.972 841.901 502.308 842.306 501.09 848.165L499.887 848.65L499.074 848.175C499.039 847.037 499.04 845.897 499.077 844.759L498.507 844.597L496.985 845.907C495.672 845.327 495.929 845.419 494.751 844.532L494.047 844.849L495.67 846.72C496.203 847.338 496.025 847.069 496.312 847.852C492.438 848.375 479.06 843.944 474.519 843.438C471.561 843.108 474.995 843.142 472.131 841.993C472.485 841.465 473.236 840.881 473.75 840.419L473.054 840.079L474.591 838.474C477.971 837.785 476.922 840.737 481.557 838.899L481.967 838.517C481.78 837.127 480.824 836.81 479.71 835.163L480.491 834.492L481.363 834.682C481.99 835.749 482.244 836.434 483.238 837.141L483.973 836.685C484.195 835.39 484.039 836.027 484.442 834.772L485.909 834.455C488.263 833.552 487.806 833.568 488.46 831.352Z"/><path fill="#9CAEAD" d="M488.46 831.352C491.562 831.872 494.25 832.429 497.319 833.114L496.932 833.856C496.201 835.285 495.465 837.162 494.913 838.684C494.682 837.391 494.757 836.274 493.996 835.585C492.505 836.445 489.542 838.84 488.7 838.805C489.318 836.834 489.616 836.958 489.235 835.231L488.165 835.045C486.436 836.593 487.803 837.075 485.896 839.087C484.623 839.241 485.209 839.347 484.142 838.601C484.977 837.217 485.19 836.973 486.198 835.791L485.909 834.455C488.263 833.552 487.806 833.568 488.46 831.352Z"/><path fill="#9CAEAD" d="M492.843 839.918C493.959 840.169 493.878 840.153 494.69 840.969C494.041 841.871 492.836 841.874 491.536 842.133L490.984 842.943L490.372 842.744C491.051 840.835 490.934 841.378 492.843 839.918Z"/><path fill="#B2C2BF" d="M545.993 845.418L547.338 845.261C547.697 845.852 548.042 846.335 548.509 846.852C549.795 846.389 549.368 846.615 550.422 845.757L551.349 846.16C551.69 847.346 551.658 847.402 551.684 848.65L552.722 849.526C551.268 851.623 550.67 851.984 548.616 853.55L547.692 853.552C548.217 856.427 548.056 856.45 546.374 858.82L545.623 858.297L543.78 857.312C541.865 857.785 541.445 858.06 539.638 857.261C540.055 856.2 539.905 855.227 539.906 854.013C541.963 852.446 543.715 850.21 544.872 847.905C545.564 847.574 545.62 847.516 546.25 847.088L545.993 845.418Z"/><path fill="#B2C2BF" d="M545.623 858.297C545.275 857.069 545.264 856.455 545.144 855.19C546.148 853.603 545.46 854.28 547.692 853.552C548.217 856.427 548.056 856.45 546.374 858.82L545.623 858.297Z"/><path fill="#B2C2BF" d="M528.934 846.605L529.194 846.031L530.146 845.817L530.271 845.328C530.591 846.527 530.553 846.519 530.669 847.765L531.628 847.871L532.784 846.319C534.592 846.775 533.948 846.285 534.944 847.593C534.548 849.152 534.241 849.211 533.045 850.297C530.869 849.327 530.789 848.525 529.062 848.774C527.761 850.25 527.471 852.585 528.102 854.413L527.918 854.956C526.653 854.601 525.225 855.1 522.43 854.102C523.363 853.102 523.138 853.557 523.518 852.298C522.319 851.053 522.545 851.581 521.985 850.092C524.181 847.397 524.764 849.634 527.691 846.954L528.934 846.605Z"/><path fill="#B2C2BF" d="M527.691 846.954C526.559 845.175 527.295 845.692 525.706 844.925C525.017 845.587 524.425 846.216 523.771 846.913C521.338 846.849 523.883 845.89 521.319 844.138L520.65 845.683L520.127 845.733C519.252 844.354 518.923 843.889 518.308 842.326L519.384 841.714L519.228 840.496L519.848 839.812C522.26 840.074 521.804 840.864 523.759 842.187C523.578 842.065 527.185 841.278 528.201 841.26C528.423 843.694 529.045 844.597 528.934 846.605L527.691 846.954Z"/><path fill="#B2C2BF" d="M507.832 848.469L508.897 848.089C507.852 847.311 507.397 847.109 506.225 846.511C507.204 844.496 509.095 843.992 510.93 845.316C511.772 847.367 511.638 848.866 511.05 850.995C510.224 852.064 510.711 851.664 509.483 852.093C508.282 850.923 508.365 850.249 507.832 848.469Z"/><path fill="#B2C2BF" d="M528.07 855.752L529.682 855.311L530.048 854.528L529.081 852.036L529.608 851.156L530.538 850.952C530.958 851.995 531.357 853.046 531.733 854.105C533.953 854.299 533.311 852.348 535.424 852.594C536.311 854.549 535.707 855.365 536.453 857.051C533.703 856.513 530.867 855.953 528.07 855.752Z"/><path fill="#B2C2BF" d="M422.27 814.347L427.118 815.764C434.168 817.973 443.61 820.635 450.891 822.394C453.158 822.946 463.05 825.509 464.752 825.611L467.679 826.376C474.667 828.368 481.411 829.695 488.46 831.352C487.806 833.568 488.263 833.552 485.909 834.455L484.442 834.772C484.039 836.027 484.195 835.39 483.973 836.685L483.238 837.141C482.244 836.434 481.99 835.749 481.363 834.682L480.491 834.492L479.71 835.163C480.824 836.81 481.78 837.127 481.967 838.517L481.557 838.899C476.922 840.737 477.971 837.785 474.591 838.474L473.054 840.079L473.75 840.419C473.236 840.881 472.485 841.465 472.131 841.993L471.191 842.754C469.345 841.868 468.909 841.714 467.353 840.443L467.448 838.05C466.434 838.523 465.431 839.021 464.44 839.541C461.451 839.505 454.373 836.617 452.939 834.233L451.07 834.246L450.979 834.419C449.674 834.981 445.695 832.973 443.883 832.271C441.509 831.535 439.684 831.052 437.658 829.635L435.298 829.348L433.618 828.689L432.074 827.881C429.307 828.229 429.513 828.117 428.719 825.741C427.293 825.267 426.866 825.443 425.396 825.671L424.904 825.751L424.568 822.803L423.959 822.746L422.042 824.79L421.52 824.515C421.44 823.125 421.368 821.809 421.341 820.412L422.531 820.206L423.602 819.143L423.688 818.402L422.871 817.939C421.952 816.414 422.283 816.447 422.27 814.347Z"/><path fill="#A5B6B4" d="M467.679 826.376C474.667 828.368 481.411 829.695 488.46 831.352C487.806 833.568 488.263 833.552 485.909 834.455L484.442 834.772C484.039 836.027 484.195 835.39 483.973 836.685L483.238 837.141C482.244 836.434 481.99 835.749 481.363 834.682L480.491 834.492L479.71 835.163C480.824 836.81 481.78 837.127 481.967 838.517L481.557 838.899C476.922 840.737 477.971 837.785 474.591 838.474L473.054 840.079L473.75 840.419C473.236 840.881 472.485 841.465 472.131 841.993L471.191 842.754C469.345 841.868 468.909 841.714 467.353 840.443L467.448 838.05L467.678 837.685C468.366 837.881 468.99 838.108 469.646 838.388L470.513 837.678L470.344 836.801C467.213 834.863 460.878 836.8 460.111 833.802L460.75 833.365C462.408 834.158 464.152 835.357 465.866 834.621C466.924 832.47 466.721 831.796 465.33 830.134C466.153 828.698 466.718 827.718 467.679 826.376Z"/><path fill="#CEE1D9" d="M473.054 840.079C471.901 838.805 471.888 838.93 471.655 837.248C473.619 834.315 479.35 837.378 481.557 838.899C476.922 840.737 477.971 837.785 474.591 838.474L473.054 840.079Z"/><path fill="#B2C2BF" d="M469.118 829.276C471.293 829.16 475.329 829.652 476.802 831.24L476.55 832.002C474.912 832.576 475.778 832.404 473.681 831.88C473.231 834 473.619 833.58 472.358 835.038C470.26 835.606 471.274 835.616 469.202 835.041C467.629 833.488 468.123 834.382 467.59 832.302C467.983 830.569 467.998 830.687 469.118 829.276Z"/><path fill="#A5B6B4" d="M450.891 822.394C453.158 822.946 463.05 825.509 464.752 825.611C463.188 827.125 460.205 834.286 456.373 830.904C456.892 828.333 458.03 826.123 455.743 824.292C453.929 824.035 454.696 823.806 453.276 824.531L453.108 825.522L454.417 826.787L454.289 827.794L453.603 828.239C452.039 826.817 451.301 824.422 450.891 822.394Z"/><path fill="#A5B6B4" d="M443.883 832.271C447.108 830.703 450.32 831.21 453.664 829.524L453.999 830.175C452.868 832.368 452.218 832.518 451.07 834.246L450.979 834.419C449.674 834.981 445.695 832.973 443.883 832.271Z"/><path fill="#A5B6B4" d="M422.27 814.347L427.118 815.764C425.044 818.168 425.495 817.279 425.731 821.232C424.2 821.129 423.979 820.848 422.531 820.206L423.602 819.143L423.688 818.402L422.871 817.939C421.952 816.414 422.283 816.447 422.27 814.347Z"/><path fill="#CEE1D9" d="M436.91 826.239C439.002 826.267 438.685 825.915 439.773 826.996C439.105 828.809 439.327 828.239 437.658 829.635L435.298 829.348L436.91 826.239Z"/><path fill="#9CAEAD" d="M433.618 828.689C435.704 827.442 435.703 826.271 436.666 823.924C437.356 824.77 437.018 824.539 436.91 826.239L435.298 829.348L433.618 828.689Z"/><path fill="#B2C2BF" d="M396.009 803.838C404.607 807.718 413.369 811.224 422.27 814.347C422.283 816.447 421.952 816.414 422.871 817.939L423.688 818.402L423.602 819.143C420.175 818.133 420.344 821.345 419.174 816.276L418.632 816.585L418.455 817.307C417.934 819.371 417.955 820.114 416.55 821.54L415.416 821.252C414 820.192 413.289 818.745 412.283 817.297C410.604 816.701 410.975 816.969 408.834 817.669L407.433 817.521L407.093 816.972L408.597 814.521C408.628 810.917 406.614 813.165 404.454 810.779L404.818 809.284C404.336 808.204 404.724 808.552 403.753 808.139C403.312 809.624 403.537 811.978 403.571 813.634C402.648 813.189 402.467 813.195 401.473 813.101L400.527 813.018L400.236 812.5C401.866 811.128 402.016 811.456 402.507 809.773C399.941 805.062 397.45 809.668 394.344 809.388C393.296 808.598 393.345 808.678 392.912 807.442L394.071 806.253L393.949 805.437C394.911 804.258 394.588 804.646 396.009 803.838Z"/><path fill="#CEE1D9" d="M408.834 817.669C410.757 815.484 413.894 813.92 416.667 815.477C417.984 817.959 416.99 819.184 415.416 821.252C414 820.192 413.289 818.745 412.283 817.297C410.604 816.701 410.975 816.969 408.834 817.669Z"/><path fill="#A5B6B4" d="M390.52 801.483C392.306 802.244 394.263 803.029 396.009 803.838C394.588 804.646 394.911 804.258 393.949 805.437C392.244 805.426 391.914 805.593 390.471 804.702C389.845 803.017 390.04 803.545 390.52 801.483Z"/><path fill="#050307" d="M364.057 820.254C366.208 821.345 368.053 822.923 367.631 825.468C366.567 826.852 366.614 826.733 364.96 827.361L364.853 826.748C365.766 824.696 365.782 824.856 365.359 823.12C364.007 822.392 363.751 822.702 361.961 822.77C362.177 821.64 363.01 821.243 364.057 820.254Z"/><path fill="#F5F2EA" d="M704.286 581.232C705.976 582.114 707.975 583.579 709.581 584.68C713.415 588.222 716.333 591.077 719.704 595.09C724.472 602.163 728.479 608.736 730.262 617.285C733.868 634.445 727.117 655.216 707.822 658.825C695.354 661.157 685.891 656.812 675.866 649.917C670.934 626.855 668.759 614.876 660.361 591.913C677.295 590.067 688.356 587.56 704.286 581.232Z"/><path fill="#B2C2BF" d="M765.963 825.434L766.144 826.437C766.538 828.503 767.565 830.17 767.66 831.828C766.806 830.453 766.187 829.399 765.437 827.965C761.979 833.548 759.066 836.778 754.935 841.878C754.761 842.092 754.688 844.292 754.681 844.776C753.078 844.429 753.677 844.607 752.25 843.518C751.177 844.335 751.275 845.043 750.761 846.625C750.289 847.437 749.288 848.902 749.165 849.74C731.212 856.953 700.579 860.837 681.24 862.909C677.9 863.267 667.548 864.516 664.736 864.382C662.04 860.859 655.616 863.949 649.821 863.036L649.243 863.326L649.312 861.962C650.342 860.709 650.15 861.115 652.35 860.842C647.762 859.351 647.183 858.973 642.352 859.937C642.921 855.939 645.696 855.81 648.511 854.663C663.718 855.396 678.953 855.381 694.159 854.62C699.328 849.22 706.937 836.567 710.108 829.725C719.57 832.718 745.166 839.417 755.044 840.177C759.026 836.089 762.767 830.243 765.963 825.434Z"/><defs><linearGradient id="gradient_1" gradientUnits="userSpaceOnUse" x1="694.63922" y1="846.68329" x2="697.05463" y2="860.41937"><stop offset="0" stop-color="#ADB8B7"/><stop offset="1" stop-color="#D7D9D9"/></linearGradient></defs><path fill="url(#gradient_1)" d="M729.074 849.536L730.001 848.769C736.462 849.25 744.954 844.136 750.761 846.625C750.289 847.437 749.288 848.902 749.165 849.74C731.212 856.953 700.579 860.837 681.24 862.909C677.9 863.267 667.548 864.516 664.736 864.382C662.04 860.859 655.616 863.949 649.821 863.036L649.243 863.326L649.312 861.962C650.342 860.709 650.15 861.115 652.35 860.842C647.762 859.351 647.183 858.973 642.352 859.937C642.921 855.939 645.696 855.81 648.511 854.663C663.718 855.396 678.953 855.381 694.159 854.62C700.796 855.634 703.693 853.398 709.005 852.057C709.301 853.21 709.076 852.87 709.75 853.758C712.144 852.916 709.671 852.872 712.221 851.536C713.952 853.225 713.828 853.241 715.945 852.56C718.602 852.485 719.203 852.557 721.572 851.428C722.949 851.139 723.084 851.25 724.132 850.374C724.379 849.042 724.584 848.23 725.085 846.942C726.033 847.863 726.994 848.77 727.966 849.665L729.074 849.536Z"/><path fill="#CEE1D9" d="M652.35 860.842C654.134 860.836 654.81 861.009 656.523 861.34L656.846 861.694C654.776 861.841 652.913 862.013 650.831 861.953L649.821 863.036L649.243 863.326L649.312 861.962C650.342 860.709 650.15 861.115 652.35 860.842Z"/><path fill="#A5B6B4" d="M717.565 851.837L717.328 851.045C718.033 849.643 718.221 849.649 718.325 848.143C717.369 847.954 716.446 847.944 715.474 847.953L715.153 846.971L716.044 845.245C715.758 843.472 715.516 842.905 716.143 841.208L716.889 840.961C718.081 842.026 717.722 841.821 718.205 843.68L720.045 842.402C720.637 843.231 720.244 842.885 721.501 843.157C722.771 841.83 722.519 840.654 723.524 839.201L724.914 838.979C726.082 839.791 725.607 839.248 725.99 840.97C725.334 843.585 723.513 845.305 720.748 844.838L720.143 845.536L719.858 846.457C719.292 848.334 719.367 850.475 718.548 851.746L717.565 851.837Z"/><path fill="#CEE1D9" d="M720.143 845.536C721.785 848.367 721.011 848.677 721.572 851.428C719.203 852.557 718.602 852.485 715.945 852.56L717.565 851.837L718.548 851.746C719.367 850.475 719.292 848.334 719.858 846.457L720.143 845.536Z"/><path fill="#A5B6B4" d="M725.085 846.942L725.876 845.049L726.516 844.849C727.588 846.201 728.747 847.805 729.074 849.536L727.966 849.665C726.994 848.77 726.033 847.863 725.085 846.942Z"/><path fill="#A5B6B4" d="M712.171 837.714C713.924 837.752 715.003 837.828 716.206 839.105C715.582 841.712 714.349 840.666 713.486 843.728C713.908 844.275 713.656 843.901 714.107 844.928L713.33 845.001L712.455 844.242C712.133 841.094 713.652 841.562 712.171 837.714Z"/><path fill="#A5B6B4" d="M566.597 846.538L567.665 847.026L577.845 848.728C601.262 852.107 624.859 854.089 648.511 854.663C645.696 855.81 642.921 855.939 642.352 859.937C647.183 858.973 647.762 859.351 652.35 860.842C650.15 861.115 650.342 860.709 649.312 861.962L649.243 863.326C638.903 863.481 629.171 863.861 618.709 863.873L615.419 864.017C613.434 864.035 611.448 864.042 609.463 864.038L607.193 863.85C606.473 863.516 591.076 863.027 589.343 863.057C587.282 862.941 586.952 862.582 585.237 861.416C582.631 862.735 582.281 862.738 579.375 862.36C577.53 862.596 563.499 860.854 562.11 859.936C562.154 857.422 562.128 857.287 563.033 854.991C564.504 853.732 563.667 854.153 565.706 853.838L565.989 853.378C565.393 852.712 564.985 852.208 564.431 851.514C565.65 849.297 564.409 849.253 566.597 846.538Z"/><path fill="#B2C2BF" d="M566.597 846.538L567.665 847.026L577.845 848.728C577.264 849.676 576.714 850.493 576.247 851.503C577.352 853.182 577.022 853.34 578.488 853.724L579.648 853.355L579.953 854.691C579.295 854.966 578.77 855.258 578.162 855.652C578.051 857.026 577.864 857.472 578.218 858.755C579.867 857.819 579.711 858.341 580.186 857.119L580.02 856.107C581.753 854.736 583.856 855.044 586.101 855.21C587.649 854.295 587.916 853.705 588.95 852.261C590.641 851.545 589.755 851.713 591.733 851.951C593.457 853.25 593.707 854.382 594.629 856.434L595.207 856.207C596.863 855.576 597.413 855.17 599.094 855.674L600.17 855.622L600.843 854.446L601.901 854.303C604.498 856.656 606.657 859.341 607.552 862.732L607.193 863.85C606.473 863.516 591.076 863.027 589.343 863.057C587.282 862.941 586.952 862.582 585.237 861.416C582.631 862.735 582.281 862.738 579.375 862.36C577.53 862.596 563.499 860.854 562.11 859.936C562.154 857.422 562.128 857.287 563.033 854.991C564.504 853.732 563.667 854.153 565.706 853.838L565.989 853.378C565.393 852.712 564.985 852.208 564.431 851.514C565.65 849.297 564.409 849.253 566.597 846.538Z"/><path fill="#9CAEAD" d="M579.375 862.36L579.582 861.209L577.996 861.704L577.749 861.482C578.374 859.798 577.83 860.285 579.039 859.492L579.834 859.71C580.733 859.947 581.1 860.026 581.99 860.164C582.761 855.211 586.51 855.576 590.025 857.709C591.388 860.386 590.877 860.483 589.343 863.057C587.282 862.941 586.952 862.582 585.237 861.416C582.631 862.735 582.281 862.738 579.375 862.36Z"/><path fill="#9CAEAD" d="M567.665 847.026L577.845 848.728C577.264 849.676 576.714 850.493 576.247 851.503C574.344 852.225 575.029 852.399 573.682 851.897L573.764 849.818L573 849.458L572.159 849.905L572.34 851.973L571.792 852.366C570.883 851.656 571.215 851.946 570.396 851.19L569.84 850.67L568.507 851.113L568.003 850.685C568.044 849.485 568.027 849.157 567.834 848.005L567.665 847.026Z"/><path fill="#9CAEAD" d="M599.094 855.674L600.17 855.622C599.601 857.944 599.043 857.971 598.317 859.951L599.111 861.555L598.551 862.331L597.737 862.278C596.689 860.885 596.748 860.996 596.516 859.264C598.173 857.902 598.486 857.723 599.094 855.674Z"/><path fill="#B2C2BF" d="M618.709 863.873L621.057 863.397C623.14 861.306 623.602 860.698 626.342 859.714C629.889 860.891 631.391 859.571 632.59 860.059C631.986 861.372 631.863 861.566 631.549 862.957C632.702 863.608 633.212 863.308 634.788 863.246C634.224 862.596 633.718 861.977 633.18 861.306L633.506 860.522C636.519 859.269 636.198 859.688 637.439 857.173L638.09 857.271L637.154 859.165L637.493 859.954C639.222 860.383 640.574 860.108 642.352 859.937C647.183 858.973 647.762 859.351 652.35 860.842C650.15 861.115 650.342 860.709 649.312 861.962L649.243 863.326C638.903 863.481 629.171 863.861 618.709 863.873Z"/><path fill="#CEE1D9" d="M609.463 864.038C610.586 861.488 612.763 860.672 615.549 860.666L616.386 861.23C616.394 863.069 616.541 862.145 615.419 864.017C613.434 864.035 611.448 864.042 609.463 864.038Z"/><path fill="#CEE1D9" d="M715.841 773.305C730.884 775.367 744.203 777.896 758.881 781.931C763.647 783.241 768.194 783.74 773.117 785.361C765.807 791.45 763.021 798.164 758.335 806.362C753.501 803.786 746.702 798.155 742.194 794.581C733.621 787.783 723.996 780.537 715.841 773.305Z"/><path fill="#A5B6B4" d="M555.898 850.005C556.831 847.836 559.035 846.338 561.308 847.453C562.095 849.291 562.173 849.805 562.576 851.795C563.319 851.486 562.964 851.678 563.637 851.217L564.431 851.514C564.985 852.208 565.393 852.712 565.989 853.378L565.706 853.838C563.667 854.153 564.504 853.732 563.033 854.991C562.128 857.287 562.154 857.422 562.11 859.936C559.949 859.102 549.022 858.789 546.374 858.82C548.056 856.45 548.217 856.427 547.692 853.552L548.616 853.55C550.67 851.984 551.268 851.623 552.722 849.526C553.716 849.694 554.913 849.942 555.898 850.005Z"/><path fill="#8FA3A3" d="M552.722 849.526C553.716 849.694 554.913 849.942 555.898 850.005C554.025 852.193 551.538 853.841 548.616 853.55C550.67 851.984 551.268 851.623 552.722 849.526Z"/><path fill="#9CAEAD" d="M533.995 840.763C539.613 841.803 562.572 846.687 566.597 846.538C564.409 849.253 565.65 849.297 564.431 851.514L563.637 851.217C562.964 851.678 563.319 851.486 562.576 851.795C562.173 849.805 562.095 849.291 561.308 847.453C559.035 846.338 556.831 847.836 555.898 850.005C554.913 849.942 553.716 849.694 552.722 849.526L551.684 848.65C551.658 847.402 551.69 847.346 551.349 846.16L550.422 845.757C549.368 846.615 549.795 846.389 548.509 846.852C548.042 846.335 547.697 845.852 547.338 845.261L545.993 845.418C544.466 845.222 544.602 844.981 543.193 843.941C541.429 843.799 541.394 843.739 539.58 844.116L539.262 845.721L538.891 845.51L538.678 842.912L537.846 842.264C536.304 842.677 536.325 842.816 534.836 842.371L533.995 840.763Z"/><path fill="#050307" d="M709.581 584.68C709.643 584.328 709.865 584.023 710.025 583.702L711.403 584.699L712.073 584.161C719.502 590.299 726.788 599.964 730.214 609.006C726.292 605.395 724.731 596.476 719.704 595.09C716.333 591.077 713.415 588.222 709.581 584.68Z"/><path fill="#EA6963" d="M464.315 320.715C495.602 320.716 529.429 331.718 551.99 353.437C633.309 431.723 567.323 540.568 465.71 544.063C364.617 546.67 300.004 443.07 370.241 360.837C378.345 351.35 390.076 343.889 400.741 337.527C420.373 325.815 441.623 321.622 464.315 320.715Z"/><path fill="#321728" d="M440.195 352.737C486.968 347.57 529.066 381.318 534.199 428.095C539.332 474.872 505.554 516.945 458.774 522.044C412.041 527.138 370.02 493.402 364.892 446.673C359.765 399.944 393.47 357.899 440.195 352.737Z"/><defs><linearGradient id="gradient_2" gradientUnits="userSpaceOnUse" x1="485.47797" y1="510.01218" x2="412.72226" y2="364.38699"><stop offset="0" stop-color="#FAD2C9"/><stop offset="1" stop-color="#F8ECE3"/></linearGradient></defs><path fill="url(#gradient_2)" d="M442.644 355.277C487.991 351.484 527.819 385.187 531.581 430.537C535.343 475.886 501.613 515.692 456.261 519.423C410.952 523.151 371.193 489.46 367.435 444.154C363.676 398.848 397.34 359.066 442.644 355.277Z"/><path fill="#321728" d="M480.077 426.524C492.009 427.896 492.012 441.132 489.685 450.409C488.615 454.675 486.105 456.96 482.274 458.831C470.013 457.952 469.183 443.394 472.4 434.115C473.791 430.104 476.235 428.095 480.077 426.524Z"/><path fill="#321728" d="M398.096 425.49C410.23 425.067 411.003 439.899 408.633 448.662C407.465 452.983 405.367 455.239 401.478 457.248C400.575 457.382 400.124 457.473 399.185 457.313C396.596 456.874 394.313 455.36 392.9 453.147C390.166 448.926 389.777 440.845 391.044 435.984C392.473 430.499 393.528 428.381 398.096 425.49Z"/><path fill="#F5D4C7" d="M499.187 456.648C505.556 457.56 510.445 461.019 505.279 467.567C501.518 472.334 494.276 474.948 488.324 475.605C485.108 475.582 483.709 475.493 480.952 473.761C477.881 471.832 479.083 468.525 480.741 466.114C484.757 460.275 492.561 457.92 499.187 456.648Z"/><path fill="#321728" d="M471.612 401.477C479.378 400.972 477.982 407.953 483.629 411.281C488.012 413.863 506.63 414.146 496.514 423.223C484.225 427.937 462.641 412.145 471.612 401.477Z"/><path fill="#321728" d="M407.625 401.988C414.937 401.473 416.571 405.826 412.229 411.303C406.72 418.251 400.286 421.784 391.628 423.198C390.468 423.075 387.287 422.391 386.722 421.664C379.616 412.46 393.653 413.267 398.208 410.866C401.126 409.329 405.186 404.527 407.625 401.988Z"/><path fill="#F5D4C7" d="M380.334 457.093C390.59 456.519 406.866 469.432 391.753 473.752C380.494 473.141 362.253 461.113 380.334 457.093Z"/><path fill="#321728" d="M423.251 457.707C426.011 458.679 428.03 464.975 431.443 466.594C442.256 471.726 445.495 460.588 449.164 459.5L449.817 460.32L449.425 462.586C439.603 479.697 419.434 465.812 423.251 457.707Z"/><path fill="#F5D4C7" d="M518.525 347.338C528.224 347.402 541.057 358.341 538.429 368.524C530.315 370.242 521.338 360.784 518.963 353.736C518.28 351.707 518.436 349.449 518.525 347.338Z"/><path fill="#F5F2EA" d="M680.152 413.675C696.365 411.013 717.102 417.86 730.649 426.865C747.635 438.255 759.414 455.913 763.405 475.971C767.844 499.026 762.021 522.233 748.675 541.216C730.102 567.635 704.37 581.389 673.373 587.213C668.792 588.074 664.255 588.53 659.629 589.053C644.281 549.624 620.286 505.931 588.079 477.767C611.303 446.833 640.428 419.579 680.152 413.675Z"/><path fill="#F3CCA9" d="M671.803 645.445C675.206 649.026 676.507 684.235 676.502 690.851C646.811 719.389 605.714 736.794 568.313 751.971C543.698 736.396 505.653 727.199 477.25 737.974C462.123 743.712 452.023 754.936 442.631 767.572C415.83 768.237 396.163 766.425 370.314 758.574C360.759 755.672 353.506 753.914 344.416 748.886C343.059 745.153 341.974 740.699 340.928 736.82C337.833 725.374 336.106 711.38 334.363 699.499C346.159 703.634 356.805 707.947 368.998 711.179C439.907 729.98 510.771 723.406 579.644 700.444C584.334 706.466 589.644 711.529 596.926 714.632C604.172 717.72 620.195 718.756 623.658 709.784C627.358 700.196 616.54 693.334 613.331 685.65C618.434 682.351 626.525 678.575 632.332 675.136C647.376 666.227 658.842 657.209 671.803 645.445Z"/><path fill="#F5D4C7" d="M522.232 801.81C530.451 781.758 544.059 763.549 562.386 751.756C590.083 767.022 617.951 780.491 646.205 794.645C662.015 802.565 678.438 813.106 694.85 819.355C689.391 827.922 685.116 836.148 680.394 845.164C679.227 847.588 678.053 849.86 677.176 852.405C652.65 852.494 612.934 851.231 588.987 847.221C565.616 844.177 537.071 838.853 513.756 834.05C515 824.532 517.207 810.052 522.232 801.81Z"/><path fill="#EFB6A6" d="M513.756 834.05C515 824.532 517.207 810.052 522.232 801.81C526.465 802.186 529.102 804.089 532.917 805.932C535.287 807.732 535.24 808.736 535.664 811.743L536.469 812.758C538.094 812.562 537.299 812.784 538.788 811.312C538.48 810.857 540.494 816.744 540.622 817.137C542.111 815.152 541.54 815.237 543.378 814.876C545.129 815.521 545.674 816.118 546.772 817.658C548.125 817.014 549.514 816.465 550.898 815.889L552.025 816.58C554.941 817.73 582.353 827.979 582.54 828.127C593.634 831.581 605.151 833.595 616.376 836.571C618.82 837.219 621.287 837.689 623.793 838.024L629.543 838.948C639.047 840.421 648.645 842.25 658.169 843.486C664.808 844.347 673.97 843.885 680.394 845.164C679.227 847.588 678.053 849.86 677.176 852.405C652.65 852.494 612.934 851.231 588.987 847.221C565.616 844.177 537.071 838.853 513.756 834.05Z"/><path fill="#F3CCA9" d="M552.025 816.58C554.941 817.73 582.353 827.979 582.54 828.127C581.787 830.455 580.168 830.53 577.756 830.631L577.228 829.85L576.504 831.45C573.262 832.314 554.946 826.914 552.476 822.413L553.957 821.528C555.99 822.278 554.922 822.306 557.031 821.913L556.728 821.066C555.01 819.996 554.396 819.781 552.396 819.232L552.025 816.58Z"/><path fill="#F5D4C7" d="M540.622 817.137C542.111 815.152 541.54 815.237 543.378 814.876C545.129 815.521 545.674 816.118 546.772 817.658C548.125 817.014 549.514 816.465 550.898 815.889L552.025 816.58L552.396 819.232C554.396 819.781 555.01 819.996 556.728 821.066L557.031 821.913C554.922 822.306 555.99 822.278 553.957 821.528L552.476 822.413C551.646 823.571 551.3 824.34 549.977 824.821C549.871 823.63 549.954 823.661 549.238 822.728C546.43 822.395 544.862 824.631 542.54 824.332C542.534 822.732 542.617 823.033 543.386 821.472C541.69 819.683 541.494 819.435 540.622 817.137Z"/><path fill="#F1B78C" d="M540.622 817.137C542.111 815.152 541.54 815.237 543.378 814.876C545.129 815.521 545.674 816.118 546.772 817.658C547.718 819.11 548.173 819.201 548.013 820.516C545.511 820.18 545.171 819.523 543.386 821.472C541.69 819.683 541.494 819.435 540.622 817.137Z"/><path fill="#F5D4C7" d="M625.685 842.336C628.864 843.063 629.456 842.225 631.82 843.056L632.09 843.899L631.338 844.965C628.801 846.196 621.517 845.049 620.259 842.309L621.498 842.1C623.441 842.877 623.556 842.789 625.685 842.336Z"/><path fill="#F1B78C" d="M623.793 838.024L629.543 838.948C628.016 841.231 628.148 841.374 625.685 842.336C623.556 842.789 623.441 842.877 621.498 842.1C623.033 841.847 623.684 841.876 624.929 840.929C625.083 839.3 624.986 839.767 623.793 838.024Z"/><path fill="#F1B78C" d="M539.016 818.701L539.727 819.162C539.683 821.482 540.36 822.72 540.232 824.135C538.58 823.473 538.079 823.407 536.886 822.052C537.05 820.265 537.484 820.394 539.016 818.701Z"/><path fill="#F3CCA9" d="M532.917 805.932C537.888 805.483 547.592 815.611 550.898 815.889C549.514 816.465 548.125 817.014 546.772 817.658C545.674 816.118 545.129 815.521 543.378 814.876C541.54 815.237 542.111 815.152 540.622 817.137C540.494 816.744 538.48 810.857 538.788 811.312C537.299 812.784 538.094 812.562 536.469 812.758L535.664 811.743C535.24 808.736 535.287 807.732 532.917 805.932Z"/><path fill="#F3CCA9" d="M339.413 598.485C382.738 619.676 444.359 625.036 491.813 618.948C502.073 617.675 512.272 615.948 522.379 613.772C528.908 612.31 535.276 610.433 541.827 608.96C543.551 624.092 550.35 637.286 556.332 651.026L548.121 653.702C491.568 671.664 431.021 672.847 373.81 657.108C358.991 653.005 347.777 649.38 333.963 642.599C334.233 629.306 337.074 611.472 339.413 598.485Z"/><path fill="#F3CCA9" d="M581.56 475.53C591.971 483.443 606.242 499.786 613.806 510.572C607.792 516.275 601.52 521.698 595.01 526.826C544.383 564.329 480.861 580.031 418.592 570.434C396.696 567.117 372.171 561.062 352.605 550.282C356.976 537.753 363.598 522.478 370.096 510.859C393.348 530.176 398.935 534.436 428.412 543.261C453.712 548.325 476.965 548.689 501.91 541.273C530.608 532.742 556.259 515.219 573.116 490.25C576.266 485.584 578.89 480.478 581.56 475.53Z"/><path fill="#F1B78C" d="M581.56 475.53C591.971 483.443 606.242 499.786 613.806 510.572C607.792 516.275 601.52 521.698 595.01 526.826C593.967 520.727 588.864 507.524 585.831 502.389C556.838 533.641 512.681 549.305 470.684 550.893C460.881 551.264 438.122 549.773 429.32 544.875L428.412 543.261C453.712 548.325 476.965 548.689 501.91 541.273C530.608 532.742 556.259 515.219 573.116 490.25C576.266 485.584 578.89 480.478 581.56 475.53Z"/><path fill="#F5F2EA" d="M317.725 423.198C319.435 422.929 323.565 422.92 325.473 422.861C313.832 441.144 305.135 458.502 302.698 480.575C299.609 508.544 309.998 534.448 326.826 556.326C331.772 562.756 337.371 568.029 342.388 574.263C340.863 578.215 339.832 584.297 339.103 588.447C327.685 585.885 321.207 583.105 310.704 578.444C281.725 566.039 255.257 533.73 252.737 501.786C249.421 459.765 275.862 427.587 317.725 423.198Z"/><defs><linearGradient id="gradient_3" gradientUnits="userSpaceOnUse" x1="670.79865" y1="804.77179" x2="696.08185" y2="750.27618"><stop offset="0" stop-color="#F4CABC"/><stop offset="1" stop-color="#F7E5D9"/></linearGradient></defs><path fill="url(#gradient_3)" d="M599.526 767.89C602.491 763.942 608.534 757.756 612.375 754.546C629.84 739.95 638.623 731.835 661.677 733.166C669.268 739.93 679.097 746.894 687.255 753.713C701.782 766.076 716.599 778.095 731.694 789.758C739.524 795.912 749.09 803.983 757.487 808.681L755.432 813.804C751.692 822.679 749.792 826.59 749.388 836.301L743.987 835.091C733.056 832.775 722.175 830.225 711.353 827.441C712.354 824.813 713.542 822.144 714.647 819.55C716.124 815.288 720.486 803.152 716.941 799.62C710.687 797.5 699.653 813.368 696.162 817.761C689.592 814.005 681.618 810.478 674.818 806.693C650.03 792.898 624.846 780.613 599.526 767.89Z"/><path fill="#EFB6A6" d="M714.647 819.55C721.908 818.502 724.769 821.843 729.593 820.053C730.555 819.696 730.404 819.293 732.026 819.46C732.89 820.542 732.627 820.065 732.894 821.508L733.828 821.702C735.26 819.034 734.458 819.567 736.757 818.751L737.17 819.407C739.207 822.611 739.806 822.779 741.981 825.144C743.139 826.403 743.284 832.532 743.987 835.091C733.056 832.775 722.175 830.225 711.353 827.441C712.354 824.813 713.542 822.144 714.647 819.55Z"/><path fill="#F5D4C7" d="M749.078 815.775C750.4 813.612 753.238 813.565 755.432 813.804C751.692 822.679 749.792 826.59 749.388 836.301L743.987 835.091C743.284 832.532 743.139 826.403 741.981 825.144C739.806 822.779 739.207 822.611 737.17 819.407L736.757 818.751C738.043 818.457 738.328 818.342 739.63 818.338L740.507 820.15L740.836 819.832L740.621 818.475L741.421 818.43C743.553 816.168 746.071 816.064 749.078 815.775Z"/><path fill="#F5F2EA" d="M314.408 583.874C316.881 584.085 333.485 590.155 338.218 591.442C333.988 610.787 330.152 639.782 330.302 659.631C324.522 661.427 319.45 662.211 313.444 661.824C313.073 661.789 312.702 661.748 312.332 661.7C293.576 659.224 285.572 640.303 288.198 623.322C290.788 606.58 301.251 593.822 314.408 583.874Z"/><path fill="#F1B78C" d="M640.273 552.388C643.896 556.402 655.405 586.179 657.506 592.462C647.287 602.66 636.994 610.664 625.24 618.865C624.526 619.241 624.385 619.218 623.596 619.431C621.92 617.766 622.184 611.168 621.311 607.762C618.32 596.077 615.476 587.347 608.613 577.329C613.554 573.564 618.959 570.065 623.85 566.159C629.419 561.712 634.836 557.003 640.273 552.388Z"/><path fill="#F5F2EA" d="M778.68 785.686C794.905 788.678 807.37 797.176 803.655 815.834C802.3 822.639 797.412 828.351 791.366 831.705C781.393 836.675 759.248 847.87 749.165 849.74C749.288 848.902 750.289 847.437 750.761 846.625C751.275 845.043 751.177 844.335 752.25 843.518C753.677 844.607 753.078 844.429 754.681 844.776C754.688 844.292 754.761 842.092 754.935 841.878C759.066 836.778 761.979 833.548 765.437 827.965C766.187 829.399 766.806 830.453 767.66 831.828C767.565 830.17 766.538 828.503 766.144 826.437L765.963 825.434L766.258 824.926C772.168 814.709 781.814 797.488 778.68 785.686Z"/><path fill="#B2C2BF" d="M791.773 814.968C790.176 813.443 790.009 813.781 789.615 812.01L790.91 810.414C791.184 808.4 790.393 807.683 789.389 805.584L790.199 806.093L789.777 806.145L789.555 805.434C790.905 806.447 791.912 807.934 792.956 809.285L793.438 810.57C794.636 809.998 794.735 809.776 795.713 808.843L796.246 808.94C797.46 811.962 797.474 814.109 795.023 816.472C793.19 817.011 794.064 817.019 792.309 816.59C791.804 815.621 791.802 815.948 791.773 814.968Z"/><path fill="#444649" d="M791.773 814.968C790.176 813.443 790.009 813.781 789.615 812.01L790.91 810.414C791.184 808.4 790.393 807.683 789.389 805.584L790.199 806.093L789.777 806.145L789.555 805.434C790.905 806.447 791.912 807.934 792.956 809.285C791.437 811.793 791.56 811.882 791.773 814.968Z"/><path fill="#CEE1D9" d="M776.941 818.349C778.724 818.289 779.325 818.33 780.62 819.298L780.499 820.309C779.025 821.957 779.103 821.837 776.987 822.618L776.353 822.854L776.144 824.019C776.562 824.377 776.392 824.126 776.457 824.872C774.905 825.388 775.631 825.445 774.204 824.767C774.225 823.625 774.212 823.248 774.029 822.149L773.872 821.233C774.695 819.503 775.119 819.643 776.941 818.349Z"/><path fill="#321728" d="M553.839 271.438C550.506 268.249 549.94 262.743 550.075 258.356C550.4 247.797 559.68 241.833 569.658 242.953C574.606 243.513 579.129 246.018 582.229 249.915C592.746 263.369 578 287.614 555.324 273.451C553.462 275.51 551.708 277.47 549.718 279.418C550.464 276.291 552.345 275.743 554.202 273.1L553.839 271.438Z"/><path fill="#321728" d="M366.448 275.43C357.489 284.121 343.784 282.226 338.656 270.435C336.57 265.589 336.499 260.111 338.458 255.213C344.102 241.36 364.991 242.167 370.591 255.373C372.537 259.964 371.751 267.014 369.547 271.312C369.007 272.365 368.714 272.709 368.575 273.941L366.448 275.43Z"/><path fill="#050307" d="M366.448 275.43L368.575 273.941C383.104 288.179 395.952 305.184 401.806 324.966C400.589 325.915 400.173 326.13 399.241 327.372C394.649 312.393 388.795 300.747 378.42 288.862C374.601 284.486 369.773 280.064 366.448 275.43Z"/><path fill="#F5F2EA" fill-opacity="0.86666667" d="M326.756 770.363C329.602 766.439 337.337 762.75 341.978 761.933L341.982 762.445L341.699 762.243C341.163 763.313 339.536 763.637 338.085 764.256C334.274 766.023 331.216 767.184 328.437 770.418L326.756 770.363Z"/><path fill="#F5F2EA" fill-opacity="0.035294119" d="M338.085 764.256L338.326 765.373C336.974 766.244 337.313 765.666 336.83 766.897L336.843 766.963C334.147 768.358 331.334 769.515 328.437 770.418C331.216 767.184 334.274 766.023 338.085 764.256Z"/><path fill="#F5F2EA" fill-opacity="0.93333334" d="M279.575 771.162C278.475 769.953 276.562 768.418 276.315 766.977C277.903 767.373 279.148 768.781 280.406 769.928L279.575 771.162Z"/></svg>