<?xml version="1.0" encoding="utf-8" ?><svg xmlns="http://www.w3.org/2000/svg" xmlns:xlink="http://www.w3.org/1999/xlink" width="1024" height="1024" viewBox="0 0 1024 1024"><path fill="#2C1327" d="M559.529 346.405C562.566 334.462 568.391 321.061 575.178 310.836C576.593 311.51 576.59 311.479 577.757 312.507C570.285 324.51 566.415 333.778 562.099 347.202C564.179 348.482 565.887 349.536 568.073 350.662C571.8 352.631 586.439 361.154 588.525 364.202C590.951 365.659 592.695 367.244 594.739 369.18C610.466 384.074 622.555 401.854 627.882 423.051C633.702 446.215 631.589 466.72 623.625 488.94C623.837 489.17 625.967 491.572 626.241 491.238C656.936 453.821 699.965 413.774 753.342 431.429C773.462 438.281 790.058 452.809 799.512 471.845C809.189 491.129 810.439 514.874 803.455 535.24C794.026 562.738 773.326 582.561 747.79 595.352C759.745 605.275 768.839 615.981 772.661 631.456C775.215 641.801 774.353 654.014 768.567 663.197C764.221 670.139 757.281 675.058 749.291 676.858C737.652 679.45 725.735 675.573 715.963 669.275C720.129 688.227 719.447 716.536 717.927 735.676C726.877 744.538 736.887 751.678 747.578 758.248C751.061 760.389 775.01 772.086 775.91 773.489C776.34 774.161 776.031 774.65 775.887 775.376C774.332 776.793 772.09 777.15 770.03 777.272C754.403 778.195 738.506 777.724 722.87 778.12C670.897 778.998 618.916 779.291 566.936 779.002L354.377 778.962C314.104 778.968 273.735 779.021 233.458 778.867C230.94 778.857 227.045 778.377 225.154 776.575C223.9 775.381 221.889 770.595 221.401 768.803C218.788 759.218 216.063 749.75 213.251 740.221L191.962 668.907L182.682 637.7C180.896 631.759 178.094 624.798 177.477 618.765C176.068 605.002 195.247 607.946 203.801 607.957L236.338 607.996L344.263 607.957C348.076 604.119 350.866 601.553 354.933 598.034C316.285 580.878 286.128 542.614 292.288 498.436C293.96 486.451 299.82 473.009 307.709 463.787C320.937 443.714 352.541 433.643 375.578 437.573C377.104 437.758 377.949 437.833 379.479 437.873C380.356 436.735 382.006 425.816 382.84 422.801C390.903 393.664 411.215 368.769 437.537 354.129C439.571 352.998 440.862 352.39 441.562 350.445L443.868 349.931C445.12 350.046 453.843 345.79 455.7 345.025C486.202 332.46 529.748 332.374 559.529 346.405Z"/><path fill="#F46865" d="M559.529 346.405C562.566 334.462 568.391 321.061 575.178 310.836C576.593 311.51 576.59 311.479 577.757 312.507C570.285 324.51 566.415 333.778 562.099 347.202C564.179 348.482 565.887 349.536 568.073 350.662C571.8 352.631 586.439 361.154 588.525 364.202C590.951 365.659 592.695 367.244 594.739 369.18C610.466 384.074 622.555 401.854 627.882 423.051C633.702 446.215 631.589 466.72 623.625 488.94L622.808 489.619C622.804 487.43 625.676 479.287 626.635 477.077L626.16 476.608C624.634 479.415 622.008 489.898 620.133 490.589L619.817 490.458C616.685 496.034 614.239 501.058 610.31 506.617C574.128 557.808 500.711 575.525 444.742 547.885C444.463 547.723 444.185 547.56 443.907 547.397C433.375 542.667 425.071 536.235 416.387 528.871C412.994 528.499 412.79 525.14 410.32 524.5L409.189 525.866L408.821 525.625C408.031 524.589 406.822 523.259 405.956 522.255C385.317 498.326 377.054 472.281 379.543 440.885L370.865 439.611C373.854 439.456 373.679 439.893 375.578 437.573C377.104 437.758 377.949 437.833 379.479 437.873C380.356 436.735 382.006 425.816 382.84 422.801C390.903 393.664 411.215 368.769 437.537 354.129C439.571 352.998 440.862 352.39 441.562 350.445L443.868 349.931C445.12 350.046 453.843 345.79 455.7 345.025C486.202 332.46 529.748 332.374 559.529 346.405Z"/><path fill="#D75555" d="M587.607 366.874C587.691 365.511 587.87 365.441 588.525 364.202C590.951 365.659 592.695 367.244 594.739 369.18C610.466 384.074 622.555 401.854 627.882 423.051C633.702 446.215 631.589 466.72 623.625 488.94L622.808 489.619C622.804 487.43 625.676 479.287 626.635 477.077L626.16 476.608C624.634 479.415 622.008 489.898 620.133 490.589L619.817 490.458C616.685 496.034 614.239 501.058 610.31 506.617C574.128 557.808 500.711 575.525 444.742 547.885C444.463 547.723 444.185 547.56 443.907 547.397C446.572 546.923 456.238 548.829 460.639 548.955C476.426 549.328 492.189 547.493 507.469 543.505C516.954 541.106 526.263 537.915 535.239 533.816C583.347 511.851 614.623 458.822 608.022 406.024C606.952 397.464 604.371 389.281 602.213 380.929C598.012 375.746 592.721 371.123 587.607 366.874Z"/><path fill="#0D0207" d="M587.607 366.874C587.691 365.511 587.87 365.441 588.525 364.202C590.951 365.659 592.695 367.244 594.739 369.18C610.466 384.074 622.555 401.854 627.882 423.051C633.702 446.215 631.589 466.72 623.625 488.94L622.808 489.619C622.804 487.43 625.676 479.287 626.635 477.077L626.16 476.608C624.634 479.415 622.008 489.898 620.133 490.589L619.817 490.458C625.073 477.414 627.783 467.47 628.436 453.228C629.557 426.616 620.134 400.635 602.213 380.929C598.012 375.746 592.721 371.123 587.607 366.874Z"/><path fill="#36182D" d="M559.529 346.405C562.566 334.462 568.391 321.061 575.178 310.836C576.593 311.51 576.59 311.479 577.757 312.507C570.285 324.51 566.415 333.778 562.099 347.202C564.179 348.482 565.887 349.536 568.073 350.662C571.8 352.631 586.439 361.154 588.525 364.202C587.87 365.441 587.691 365.511 587.607 366.874C582.883 363.098 579.027 360.455 574.021 357.084C562.746 350.684 552.582 346.052 539.973 342.653C486.688 328.289 423.212 350.343 395.484 399.545C381.564 424.431 378.141 453.841 385.973 481.259C391.674 501.044 402.068 514.716 416.387 528.871C412.994 528.499 412.79 525.14 410.32 524.5L409.189 525.866L408.821 525.625C408.031 524.589 406.822 523.259 405.956 522.255C385.317 498.326 377.054 472.281 379.543 440.885L370.865 439.611C373.854 439.456 373.679 439.893 375.578 437.573C377.104 437.758 377.949 437.833 379.479 437.873C380.356 436.735 382.006 425.816 382.84 422.801C390.903 393.664 411.215 368.769 437.537 354.129C439.571 352.998 440.862 352.39 441.562 350.445L443.868 349.931C445.12 350.046 453.843 345.79 455.7 345.025C486.202 332.46 529.748 332.374 559.529 346.405Z"/><path fill="#2C1327" d="M568.073 350.662C571.8 352.631 586.439 361.154 588.525 364.202C587.87 365.441 587.691 365.511 587.607 366.874C582.883 363.098 579.027 360.455 574.021 357.084C575.546 357.207 576.505 357.86 578.079 358.268C576.226 355.247 569.408 353.677 568.073 350.662Z"/><path fill="#36182D" d="M482.878 369.974C529.638 365.957 570.773 400.675 574.669 447.445C578.564 494.216 543.74 535.261 496.959 539.035C450.35 542.795 409.488 508.126 405.607 461.527C401.726 414.927 436.289 373.976 482.878 369.974Z"/><defs><linearGradient id="gradient_0" gradientUnits="userSpaceOnUse" x1="536.57983" y1="519.86615" x2="443.1163" y2="388.50403"><stop offset="0" stop-color="#FDD0C6"/><stop offset="1" stop-color="#FBECE5"/></linearGradient></defs><path fill="url(#gradient_0)" d="M484.938 372.511C530.208 369.661 569.217 404.05 572.066 449.319C574.916 494.589 540.528 533.598 495.258 536.448C449.988 539.298 410.979 504.91 408.129 459.639C405.28 414.369 439.668 375.36 484.938 372.511Z"/><path fill="#2C1327" d="M523.029 442.511C537.702 443.419 539.155 469.238 525.713 475.311C510.708 474.866 509.424 448.163 523.029 442.511Z"/><path fill="#2C1327" d="M435.073 443.087C450.606 441.544 452.998 468.559 439.429 475.139C425.674 476.884 422.351 450.644 435.073 443.087Z"/><path fill="#FBBAB2" d="M536.254 474.573C541.182 474.159 552.382 473.721 548.11 482.849C545.723 487.947 539.588 490.406 534.48 492.152C529.54 492.815 518.083 492.977 521.853 484.309C524.224 478.857 530.952 476.401 536.254 474.573Z"/><path fill="#FBBAB2" d="M421.044 474.581C431.278 474.074 448.977 485.69 434.432 491.967C422.223 492.419 406.289 477.449 421.044 474.581Z"/><path fill="#0D0207" d="M462.992 477.93C464.799 478.928 466.299 482.677 468.065 484.249C472.985 488.631 478.691 488.913 484.201 485.453C487.87 483.15 488.465 480.516 491.109 477.837L491.855 477.929C492.727 479.842 492.54 478.811 491.999 481.184C491.245 482.43 490.395 483.617 489.459 484.733C480.531 495.433 462.131 489.457 461.926 479.014L462.992 477.93Z"/><path fill="#FBBAB2" d="M560.276 364.897C568.961 364.944 584.673 379.126 578.008 386.655C570.22 386.408 560.723 376.433 558.766 369.023C558.281 367.187 559.294 366.231 560.276 364.897Z"/><path fill="#F9F4EB" d="M307.709 463.787C320.937 443.714 352.541 433.643 375.578 437.573C373.679 439.893 373.854 439.456 370.865 439.611L379.543 440.885C377.054 472.281 385.317 498.326 405.956 522.255C406.822 523.259 408.031 524.589 408.821 525.625C405.146 528.662 397.073 547.996 394.821 553.328C388.039 569.386 383.759 586.644 380.374 603.691C362.869 599.6 344.743 591.763 330.885 580.352C293.657 549.695 280.324 502.343 311.883 463.073C312.005 461.414 315.611 458.176 317.348 455.487C315.215 456.173 310.04 463.421 307.709 463.787Z"/><defs><linearGradient id="gradient_1" gradientUnits="userSpaceOnUse" x1="345.81287" y1="437.83786" x2="346.18094" y2="454.38422"><stop offset="0" stop-color="#020103"/><stop offset="1" stop-color="#1C0F1D"/></linearGradient></defs><path fill="url(#gradient_1)" d="M307.709 463.787C320.937 443.714 352.541 433.643 375.578 437.573C373.679 439.893 373.854 439.456 370.865 439.611C346.073 438.882 329.093 444.732 311.883 463.073C312.005 461.414 315.611 458.176 317.348 455.487C315.215 456.173 310.04 463.421 307.709 463.787Z"/><path fill="#F9F4EB" d="M219.036 750.811L195.295 671.008C192.367 661.259 180.039 624.449 180.183 616.749C180.212 615.194 180.992 614.054 182.115 613.038C183.771 611.54 186.064 610.805 188.258 610.653C198.385 609.954 209.03 610.591 219.211 610.581L284.491 610.578L358.641 610.542C372.579 610.508 388.919 610.05 402.61 610.694C405.651 616.809 409.716 631.594 411.838 638.626L427.366 689.841C433.763 713.06 441.553 736.425 448.274 759.596L304.102 759.688C278.241 759.72 247.195 760.557 221.734 759.566C220.794 756.661 219.894 753.742 219.036 750.811Z"/><path fill="#F8CFAA" d="M427.366 689.841C433.763 713.06 441.553 736.425 448.274 759.596L304.102 759.688C278.241 759.72 247.195 760.557 221.734 759.566C220.794 756.661 219.894 753.742 219.036 750.811C222.43 749.214 240.977 749.636 245.367 749.641L294.901 749.455C352.709 749.233 400.998 751.356 427.366 689.841Z"/><path fill="#A7DDB3" d="M301.45 666.562C330.405 664.617 341.626 704.692 312.622 710.392C281.805 712.369 272.863 673.932 301.45 666.562Z"/><path fill="#F9F4EB" d="M303.05 671.142C307.208 670.84 311.351 671.903 314.849 674.17C328.543 682.867 329.53 702.986 310.624 705.861C306.064 706.238 301.511 705.063 297.703 702.528C284.262 693.575 285.444 673.874 303.05 671.142Z"/><path fill="#F9F4EB" d="M721.838 430.207C739.544 428.751 757.196 433.593 771.682 443.879C788.819 455.791 800.488 474.054 804.099 494.609C809.675 527.188 793.654 559.035 768.417 578.938C751.875 591.983 733.053 599.627 712.367 603.153C708.372 603.942 703.589 604.444 699.489 604.909C682.693 560.446 662.553 527.327 628.84 494.117C650.481 463.994 683.515 433.795 721.838 430.207Z"/><path fill="#F8CFAA" d="M622.128 492.101C634.005 501.606 645.031 514.484 654.249 526.588C647.845 532.743 641.082 538.514 633.995 543.87C625.15 550.223 616.974 555.766 607.376 561.015C547.066 593.996 471.075 598.566 407.294 572.872C402.445 570.919 397.612 568.75 393.053 566.217C396.276 555.555 404.538 536.887 410.499 527.38C429.023 544.131 440.858 550.975 464.594 558.787C470.137 559.677 475.992 561.378 482.041 562.287C502.64 565.262 523.644 563.623 543.533 557.49C579.139 546.36 604.899 524.901 622.128 492.101Z"/><path fill="#F6B688" d="M622.128 492.101C634.005 501.606 645.031 514.484 654.249 526.588C647.845 532.743 641.082 538.514 633.995 543.87C633.726 536.4 629.988 526.004 626.746 519.176C619.023 526.223 611.071 533.271 602.291 539.03C573.164 558.135 537.396 568.347 502.575 567.163C494.182 566.878 470.028 564.805 464.594 558.787C470.137 559.677 475.992 561.378 482.041 562.287C502.64 565.262 523.644 563.623 543.533 557.49C579.139 546.36 604.899 524.901 622.128 492.101Z"/><path fill="#F8CFAA" d="M419.486 628.385C496.787 646.634 572.256 637.765 641.129 597.656C641.258 614.898 639.238 635.518 634.154 652.082C629.077 654.551 625.193 656.254 619.982 658.375C596.062 628.647 563.675 648.055 543.186 669.735C532.42 681.128 528.753 681.902 513.51 682.941C486.96 684.929 460.262 683.008 434.271 677.237L419.486 628.385Z"/><path fill="#F6B688" d="M513.719 741.962C539.649 742.353 560.314 740.745 584.789 730.371C589.219 728.494 596.589 723.003 599.719 721.979C608.424 719.129 616.485 716.523 625.092 713.264C659.656 700.179 684.558 684.975 712.208 660.854C714.782 676.563 716.364 690.043 716.583 705.869C684.899 736.191 625.58 762.781 582.625 769.916L582.595 769.268L582.532 768.248C582.293 763.971 581 759.491 575.884 759.323C537.146 758.051 497.555 760.532 458.886 759.117C457.854 755.614 456.759 752.13 455.601 748.666C454.693 745.455 453.797 742.334 453.03 739.083C455.044 737.474 455.814 736.797 457.542 734.895C464.768 735.631 471.663 736.323 478.909 736.747C480.042 742.845 481.245 747.273 486.4 751.389C499.142 757.812 504.374 747.798 513.719 741.962Z"/><path fill="#F8CFAA" d="M457.542 734.895C464.768 735.631 471.663 736.323 478.909 736.747C480.042 742.845 481.245 747.273 486.4 751.389C480.879 754.69 461.628 748.355 455.601 748.666C454.693 745.455 453.797 742.334 453.03 739.083C455.044 737.474 455.814 736.797 457.542 734.895Z"/><path fill="#36182D" d="M586.872 646.241C599.396 645.99 610.585 649.241 617.47 659.898C636.693 689.65 603.07 721.25 576.767 730.66C568.117 733.754 560.084 735.197 551.304 737.452C547.961 738.361 538.643 737.651 536.022 738.554C527.965 741.33 515.919 736.529 509.338 741.191C504.749 745.43 502.552 747.39 497.062 750.25C494.82 750.344 492.331 750.278 490.066 750.269C477.71 743.323 480.46 725.56 487.526 715.706C496.7 702.912 511.394 698.238 523.711 689.48C531.516 683.641 539.006 677.238 546.205 670.677C559.337 658.706 568.68 649.177 586.872 646.241Z"/><path fill="#F9F4EB" d="M744.185 596.953C747.618 597.743 755.32 605.772 757.77 608.577C762.7 614.221 767.302 622.066 769.426 629.255C777.334 656.015 760.521 681.421 730.444 673.37C724.539 671.245 720.617 668.856 715.575 665.258C712.194 645.12 707.734 626.747 700.426 607.687C716.326 606.203 729.33 602.534 744.185 596.953Z"/><path fill="#F8CFAA" d="M222.744 762.437L449.123 762.355C449.786 768.571 449.574 770.645 452.656 776.188C434.16 776.568 414.952 776.345 396.43 776.349L301.758 776.328L255.176 776.35C248.277 776.355 235.213 776.697 228.847 775.896C223.553 771.57 223.738 769.204 222.744 762.437Z"/><path fill="#F6B688" d="M680.299 568.118C686.468 579.641 693.472 595.816 697.549 608.245C680.216 625.293 655.942 641.391 634.154 652.082C639.238 635.518 641.258 614.898 641.129 597.656C655.182 589.206 668.31 579.306 680.299 568.118Z"/><path fill="#F8CFAA" d="M454.046 761.745C461.829 762.259 475.128 761.671 483.561 761.681L546.283 761.787C555.901 761.773 565.567 761.45 575.165 761.819C578.585 761.95 579.065 764.167 579.987 766.962C579.992 770.315 578.887 775.452 574.832 775.703C561.303 776.542 547.43 776.1 533.867 776.174C509.619 776.307 485.413 776.34 461.171 776.09C458.574 776.063 456.623 775.981 454.841 773.836C452.903 771.487 452.448 768.833 452.545 765.903L452.896 766.043C453.801 764.129 454.139 763.772 454.046 761.745Z"/><path fill="#F9F4EB" d="M454.046 761.745C461.829 762.259 475.128 761.671 483.561 761.681L546.283 761.787C555.901 761.773 565.567 761.45 575.165 761.819C578.585 761.95 579.065 764.167 579.987 766.962C577.004 768.073 493.74 768.068 485.401 767.633C479.431 767.651 473.461 767.609 467.492 767.509C463.623 766.663 455.436 768.325 452.896 766.043C453.801 764.129 454.139 763.772 454.046 761.745Z"/><path fill="#0D0207" d="M467.492 767.509C473.461 767.609 479.431 767.651 485.401 767.633C485.052 769.566 485.497 768.985 484.46 770.278C480.827 770.484 471.388 771.313 467.929 769.808C467.349 769.555 467.54 768.472 467.492 767.509Z"/><path fill="#36182D" d="M435.462 680.438C463.047 686.34 496.807 688.188 524.73 684.612C514.556 693.543 503.754 696.89 493.829 705.07C488.777 709.7 483.094 715.957 480.829 722.601C479.901 725.325 479.406 729.926 478.589 733.056C472.888 733.543 466.355 732.765 460.609 732.186C460.309 731.487 462.476 723.883 462.56 721.989C463.401 703.1 453.024 692.821 437.531 685.233C436.81 683.68 436.134 682.021 435.462 680.438Z"/><path fill="#F9F4EB" d="M452.545 765.903C452.348 761.089 445.428 741.262 444.291 736.782C441.249 724.794 406.7 615.037 406.919 611.644C412.496 609.75 416.027 626.009 417.061 629.395C420.242 639.721 423.364 650.065 426.429 660.426L456.1 759.175C455.213 759.805 454.677 760.267 453.853 760.982L454.046 761.745C454.139 763.772 453.801 764.129 452.896 766.043L452.545 765.903Z"/><path fill="#F9F4EB" d="M358.077 599.465C362.421 601.369 377.072 605.355 379.01 606.941L378.808 607.53C376.308 608.422 373.827 608.123 371.125 608.061C363.543 608.039 355.831 608.181 348.239 608.249C351.276 604.804 354.53 602.35 358.077 599.465Z"/><path fill="#36182D" d="M631.689 656.473L632.043 656.6L632.26 657.383C631.482 660.289 628.314 671.971 625.975 673.615L625.609 672.796C624.461 668.848 623.208 664.756 621.365 661.083C624.958 659.597 628.251 658.288 631.689 656.473Z"/><path fill="#2C1327" d="M406.639 294.356C389.525 306.697 372.045 290.254 378.347 273.781C379.919 269.613 383.111 266.258 387.196 264.48C399.063 259.23 412.193 267.159 412.48 280.365C412.578 284.891 411.003 287.944 408.855 291.743L412.525 295.124L410.145 297.443L406.639 294.356Z"/><path fill="#2C1327" d="M593.57 289.378C578.692 267.471 608.656 248.897 622.757 267.984C628.682 276.003 624.27 290.529 615.178 294.215C606.804 298.274 602.528 294.475 595.455 291.65C594.701 290.974 594.191 290.193 593.57 289.378Z"/><path fill="#0D0207" d="M412.525 295.124C427.749 310.668 439.346 328.31 443.868 349.931L441.562 350.445C433.793 327.029 428.135 315.084 410.145 297.443L412.525 295.124Z"/><path fill="#0D0207" d="M575.178 310.836C580.491 303.022 586.66 295.824 593.57 289.378C594.191 290.193 594.701 290.974 595.455 291.65C588.991 298.221 582.946 304.83 577.757 312.507C576.59 311.479 576.593 311.51 575.178 310.836Z"/></svg>