<?xml version="1.0" encoding="utf-8" ?><svg xmlns="http://www.w3.org/2000/svg" xmlns:xlink="http://www.w3.org/1999/xlink" width="1234" height="1234" viewBox="0 0 1234 1234"><path fill="#F9F9F9" transform="scale(1.20508 1.20508)" d="M60.8099 591.455C60.6762 589.343 60.81 589.19 61.5509 587.143C60.7846 583.523 56.3022 580.287 56.0746 574.444C55.7688 564.39 56.3654 553.531 58.0043 543.616C59.6222 533.828 60.4814 522.748 63.1976 513.293C71.1255 485.695 83.929 457.816 102.705 435.911C109.615 427.849 116.156 419.816 124.12 412.681C128.757 408.376 134.6 403.835 139.586 399.771C153.189 388.811 167.185 378.348 181.546 368.404C193.701 360.152 206.212 352.376 218.397 344.165C232.835 334.435 246.597 323.956 260.342 313.289C269.032 306.544 277.723 300.038 285.935 292.698C306.274 274.516 327.476 250.317 345.129 229.413C365.554 205.227 385.026 181.102 410.592 162.006C433.315 145.033 469.883 129.108 497.717 123.435C553.814 112.001 613.082 130.331 659.74 161.423C673.158 170.364 686.246 180.131 697.935 191.262C708.192 201.03 717.313 211.741 726.449 222.539C737.914 236.09 749.045 250.717 758.859 265.493C782.309 300.799 801.101 335.475 829.313 367.684C857.902 400.325 898.322 416.12 925.066 452.077C941.088 473.619 953.245 500.878 958.318 527.253C959.697 534.421 961.41 543.403 962.316 550.616C963.017 556.201 964.418 578.353 963.046 582.59C962.62 583.903 961.69 585.833 962.285 587.168C962.817 588.362 963.674 589.355 964.195 590.586L964.48 591.247C967.409 591.442 970.729 591.587 973.39 592.924C975.425 596.233 981.825 597.938 982.756 603.753L982.305 605.341C980.367 601.326 978.211 598.618 974.254 596.421C970.362 594.292 965.778 593.819 961.533 595.108C957.343 596.345 954.376 599.239 952.293 602.981C950.124 607.843 949.579 612.285 951.684 617.312C953.334 621.237 955.824 624.165 959.823 625.865C964.232 627.752 969.216 627.786 973.651 625.959C975.833 625.053 977.697 623.677 979.426 622.082L980.121 623.02C978.763 625.55 977.811 625.289 976.882 627.316C969.888 632.035 961.436 630.208 954.693 626.105C953.442 624.711 953.027 624.036 951.304 623.259L950.359 623.976L943.575 629.618L936.087 636.614C925.409 645.306 913.842 658.159 904.465 668.325C863.29 712.962 830.129 764.616 807.725 821.097C801.101 837.795 796.454 857.704 791.718 875.121C799.932 859.545 809.726 844.382 819.32 829.622C838.827 799.612 872.304 748.429 907.804 737.579C911.467 736.46 915.174 735.663 918.882 734.732C929.961 734.386 943.518 736.113 952.833 743.787C952.905 743.905 952.976 744.024 953.048 744.142C955.022 748.095 957.463 747.984 959.156 751.052L958.871 751.861C969.243 764.878 973.443 775.62 971.717 792.689C969.982 809.838 960.881 823.403 947.701 834.15C943.087 837.913 935.788 840.861 932.856 843.081L933.567 845.285C926.201 849.254 902.944 858.295 899.994 864.544C901.552 868.686 910.963 865.626 912.948 872.116C915.677 881.034 904.194 891.633 898.719 897.357C911.271 897.576 928.525 897.306 941.463 897.733C941.872 897.981 942.28 898.229 942.688 898.477C941.568 900.285 915.965 899.601 911.998 899.613L832.07 899.577L545.628 899.521C530.676 900.024 509.204 899.959 494.179 899.64C482.702 900.385 464.46 899.595 452.246 899.655C440.383 899.474 416.941 900.175 404.3 899.44C403.792 899.084 403.285 898.728 402.777 898.372C399.462 896.821 398.216 896.258 395.188 898.932C391.557 900.195 358.055 899.548 351.373 899.601C272.091 900.028 192.806 900.011 113.523 899.55C107.771 899.54 58.3448 899.806 56.9841 899.063L57.1756 898.219C60.1498 896.763 114.96 897.464 123.547 897.447C120.934 886.008 115.374 879.866 110 870.227L110.671 869.209C112.475 868.241 113.669 868.537 115.818 868.619C118.105 868.46 120.132 868.152 122.353 868.638C123.604 868.438 124.851 868.214 126.093 867.964C126.959 866.563 126.49 866.101 126.227 863.991C120.698 858.671 109.802 854.152 102.732 851.161C88.8854 845.207 74.2336 839.15 63.0279 828.813C39.9039 807.481 40.1709 773.064 61.7988 750.688C74.1753 737.884 85.9222 734.631 103.258 734.302C141.037 740.766 152.158 762.146 174.941 787.147C178.506 791.63 182.135 796.061 185.828 800.44L187.598 802.744C189.988 805.897 194.21 811.772 196.78 814.509C198.013 816.548 198.759 817.425 200.294 819.286L202.509 822.424L211.3 834.871L212.364 836.508L213.212 837.613C217.222 839.184 219.44 843.919 221.44 847.588L222.09 847.779C223.566 844.749 221.856 835.949 221.298 832.436L222.225 831.365C221.96 830.219 221.055 827.67 220.662 826.436L220.025 825.121C218.136 818.08 210.516 802.751 207.212 796.202L206.967 795.652C205.811 793.329 204.311 790.001 202.833 787.973C201.525 785.019 201.027 783.95 199.244 781.199L198.745 780.42C197.42 780.32 198.043 780.481 196.929 779.722C194.789 774.774 188.329 766.574 185.173 761.68C180.37 754.239 175.825 746.585 171.607 738.797C169.436 734.789 163.761 727.637 163.667 723.362C162.56 720.897 153.485 708.503 151.601 705.943C150.499 704.35 149.067 702.544 147.885 700.968C144.895 696.949 141.829 692.988 138.687 689.087L136.9 686.661C134.294 683.208 130.924 679.434 128.085 676.099C126.783 674.492 126.562 674.258 125.001 672.907C120.218 666.384 110.147 656.368 104.488 650.629C102.087 648.154 99.6295 645.83 97.1362 643.451L95.5813 641.839C91.4376 637.705 83.2419 630.157 78.6506 627.036L74.3339 623.374C71.4452 626.379 69.9661 627.056 66.2051 628.848C59.4082 630.581 52.2023 629.704 46.9374 624.782C43.0514 621.135 40.7762 616.092 40.6141 610.765C40.2927 598.806 49.4106 591.512 60.8099 591.455ZM687.874 897.19C686.17 897.581 676.114 897.44 673.679 897.431L644.01 897.333L597.548 897.373C589.973 897.386 579.972 897.691 572.545 897.266L572.238 896.673C566.239 885.264 557.746 884.985 547.3 890.894C547.461 868.539 547.503 846.184 547.425 823.83C551.892 822.892 555.567 821.926 559.971 820.69C586.1 813.493 623.245 789.038 640.332 768.114C641.683 767 646.902 760.545 648.404 758.75C663.432 740.792 670.458 725.811 677.508 703.79C690.393 716.421 709.471 724.054 726.789 714.796C735.595 710.089 741.568 700.329 744.199 690.992C745.96 684.742 745.794 678.437 746.29 672.019C746.701 667.249 747.923 662.235 748.032 657.42C748.46 638.431 739.327 618.965 730.107 602.739C796.378 581.37 837.145 496.878 782.273 442.229C766.114 425.889 744.006 416.823 721.027 417.114C679.301 417.543 653.186 444.156 626.38 471.436C622.463 466.316 618.81 461.545 614.634 456.635C615.734 454.962 616.795 453.263 617.815 451.54C649.93 396.976 623.511 335.283 571.658 304.99C578.267 278.193 590.585 256.888 609.975 237.226C620.294 244.005 632.546 244.68 637.984 231.692C640.072 226.763 640.072 221.198 637.982 216.27C628.65 194.499 593.46 208.629 607.827 235.308C588.298 254.016 575.928 277.466 568.801 303.326C529.798 284.451 493.841 284.237 454.742 303.152C448.757 279.749 438.097 257.215 421.245 239.686C419.825 238.21 417.117 235.857 416.528 234.044C414.295 234.216 415.222 233.798 413.618 235.275C413.552 236.563 413.346 236.113 413.839 237.064L414.075 237.187C430.597 248.579 448.238 285.134 451.815 304.812C424.949 319.911 405.2 345.086 396.932 374.774C389.786 400.973 393.211 428.93 406.469 452.629C407.479 454.401 408.502 456.166 409.538 457.923C405.126 462.555 401.837 466.59 397.805 471.568C374.507 445.246 344.115 418.714 307.352 416.512C284.481 415.055 261.991 422.904 244.993 438.276C228.277 453.128 218.248 474.088 217.17 496.423C214.956 539.849 242.035 577.295 279.592 596.242C284.216 598.575 288.9 600.76 293.601 602.927C283.568 620.44 274.713 637.187 276.581 658.209C277.021 663.163 279.12 668.845 279.421 673.311C280.527 689.756 282.021 705.477 298.079 714.662C305.897 719.085 315.174 720.153 323.793 717.62C331.704 715.338 340.475 709.64 345.92 703.486C349.852 712.953 360.934 741.465 367.72 747.671C368.98 749.693 369.757 751.016 371.299 752.865C374.997 758.806 380.127 764.168 384.734 769.417C408.846 796.889 441.298 817.263 477.37 824.34C477.192 838.515 477.19 852.691 477.364 866.866C477.402 873.534 477.115 884.19 477.573 890.465C470.92 888.004 465.948 885.852 458.754 889.066C455.873 890.354 452.787 894.157 452.271 897.246L452.246 899.655C464.46 899.595 482.702 900.385 494.179 899.64C509.204 899.959 530.676 900.024 545.628 899.521L832.07 899.577L911.998 899.613C915.965 899.601 941.568 900.285 942.688 898.477C942.28 898.229 941.872 897.981 941.463 897.733C928.525 897.306 911.271 897.576 898.719 897.357C904.194 891.633 915.677 881.034 912.948 872.116C910.963 865.626 901.552 868.686 899.994 864.544C902.944 858.295 926.201 849.254 933.567 845.285L932.856 843.081C935.788 840.861 943.087 837.913 947.701 834.15C960.881 823.403 969.982 809.838 971.717 792.689C973.443 775.62 969.243 764.878 958.871 751.861L959.156 751.052C957.463 747.984 955.022 748.095 953.048 744.142C952.976 744.024 952.905 743.905 952.833 743.787C943.518 736.113 929.961 734.386 918.882 734.732C915.174 735.663 911.467 736.46 907.804 737.579C872.304 748.429 838.827 799.612 819.32 829.622C809.726 844.382 799.932 859.545 791.718 875.121C796.454 857.704 801.101 837.795 807.725 821.097C830.129 764.616 863.29 712.962 904.465 668.325C913.842 658.159 925.409 645.306 936.087 636.614L943.575 629.618L950.359 623.976L951.304 623.259C953.027 624.036 953.442 624.711 954.693 626.105C961.436 630.208 969.888 632.035 976.882 627.316C977.811 625.289 978.763 625.55 980.121 623.02L979.426 622.082C977.697 623.677 975.833 625.053 973.651 625.959C969.216 627.786 964.232 627.752 959.823 625.865C955.824 624.165 953.334 621.237 951.684 617.312C949.579 612.285 950.124 607.843 952.293 602.981C954.376 599.239 957.343 596.345 961.533 595.108C965.778 593.819 970.362 594.292 974.254 596.421C978.211 598.618 980.367 601.326 982.305 605.341L982.756 603.753C981.825 597.938 975.425 596.233 973.39 592.924C970.729 591.587 967.409 591.442 964.48 591.247C951.851 594.662 944.56 603.482 948.434 616.937C948.78 618.139 949.158 619.331 949.566 620.512C893.024 670.716 848.01 725.707 816.031 794.865C807.332 813.678 799.784 830.771 795.385 851.3L794.276 851.581C795.99 843.807 796.999 835.698 798.432 827.841C808.293 773.789 821.613 716.726 841.956 665.594C849.574 646.969 857.96 628.667 867.092 610.735C870.01 604.999 876.077 595.251 878.165 590.508C919.095 603.076 936.385 577.512 934.361 538.881C934.072 533.357 933.116 529.076 928.618 525.512C922.517 524.196 921.197 524.399 915.208 526.999C916.756 522.66 918.753 518.243 916.814 513.681C915.052 509.534 910.3 509.873 907.171 512.132C902.884 515.225 901.597 519.725 900.015 524.463C897.689 518.587 892.595 504.607 883.417 510.104C870.617 517.77 860.209 534.3 855.083 548.071C848.89 567.396 859.211 581.063 875.58 589.466C862.302 612.739 850.572 636.862 840.466 661.678C834.64 676.225 829.787 691.234 825.04 706.164C808.582 757.81 796.828 810.839 789.923 864.603L789.775 864.034C788.082 857.317 787.32 850.1 785.926 843.262C781.87 823.292 778.918 801.601 774.743 781.823C770.909 763.658 765.94 739.072 748.35 729.249C718.587 712.628 695.711 746.738 704.081 773.732C707.893 786.027 713.423 795.353 719.013 806.754C723.509 816.104 727.422 825.477 732.135 834.751C721.488 832.866 712.296 833.992 703.234 840.322C695.494 845.753 690.29 854.094 688.816 863.434C687.976 868.604 688.188 871.927 689.513 876.986C689.855 878.293 692.582 886.601 692.439 886.932L692.126 887.069L690.125 886.178L689.264 886.544C688.811 888.414 689.542 890.08 689.776 892.018L682.433 892.961C684.74 895.298 685.152 895.474 687.874 897.19ZM329.745 889.326C341.82 871.975 339.917 851.95 320.766 839.978C310.904 833.813 299.063 834.542 288.104 837.364C301.123 818.243 310.876 801.177 319.118 778.88C334.907 736.17 289.571 706.19 261.766 744.905C258.137 751.023 255.533 758.358 253.655 765.11C246.831 789.638 242.025 814.459 234.914 838.916L233.702 838.258C231.394 839.014 231.473 840.809 229.567 842.453C228.305 843.541 228.609 844.789 228.473 846.691C227.609 843.175 226.346 830.963 225.826 826.808C223.979 813.543 222.395 800.042 219.52 786.947C204.891 720.322 181.438 649.127 148.832 589.364C181.862 570.59 175.144 545.536 152.483 521.061C142.324 510.088 127.78 498.895 121.987 521.318C111.651 501.744 98.0376 511.682 107.032 525.691C92.0434 520.21 89.0438 527.938 88.9684 542.306C88.9178 551.941 90.3053 561.253 92.9802 570.507C97.7363 586.961 113.694 595.457 130.141 594.265C135.79 593.872 140.679 592.12 146.024 590.328C166.938 627.799 184.575 673.844 197.584 714.739C203.729 734.057 211.633 760.648 215.168 780.419C210.828 779.446 211.62 763.961 207.271 758.838L206.76 759.12C206.86 762.884 208.838 764.022 208.003 767.062C202.756 770.291 209.695 772.077 204.801 778.319C203.784 776.82 206.755 769.981 201.785 768.97C200.971 769.506 200.175 769.969 199.277 770.35L199.222 775.393C169.289 721.13 124.908 659.704 76.0839 621.314C76.53 620.184 76.9481 619.043 77.3377 617.892C81.8396 604.456 73.2511 595.041 60.8099 591.455C49.4106 591.512 40.2927 598.806 40.6141 610.765C40.7762 616.092 43.0514 621.135 46.9374 624.782C52.2023 629.704 59.4082 630.581 66.2051 628.848C69.9661 627.056 71.4452 626.379 74.3339 623.374L78.6506 627.036C83.2419 630.157 91.4376 637.705 95.5813 641.839L97.1362 643.451C99.6295 645.83 102.087 648.154 104.488 650.629C110.147 656.368 120.218 666.384 125.001 672.907C126.562 674.258 126.783 674.492 128.085 676.099C130.924 679.434 134.294 683.208 136.9 686.661L138.687 689.087C141.829 692.988 144.895 696.949 147.885 700.968C149.067 702.544 150.499 704.35 151.601 705.943C153.485 708.503 162.56 720.897 163.667 723.362C163.761 727.637 169.436 734.789 171.607 738.797C175.825 746.585 180.37 754.239 185.173 761.68C188.329 766.574 194.789 774.774 196.929 779.722C198.043 780.481 197.42 780.32 198.745 780.42L199.244 781.199C201.027 783.95 201.525 785.019 202.833 787.973C204.311 790.001 205.811 793.329 206.967 795.652L207.212 796.202C210.516 802.751 218.136 818.08 220.025 825.121L220.662 826.436C221.055 827.67 221.96 830.219 222.225 831.365L221.298 832.436C221.856 835.949 223.566 844.749 222.09 847.779L221.44 847.588C219.44 843.919 217.222 839.184 213.212 837.613L212.364 836.508L211.3 834.871L202.509 822.424L200.294 819.286C198.759 817.425 198.013 816.548 196.78 814.509C194.21 811.772 189.988 805.897 187.598 802.744L185.828 800.44C182.135 796.061 178.506 791.63 174.941 787.147C152.158 762.146 141.037 740.766 103.258 734.302C85.9222 734.631 74.1753 737.884 61.7988 750.688C40.1709 773.064 39.9039 807.481 63.0279 828.813C74.2336 839.15 88.8854 845.207 102.732 851.161C109.802 854.152 120.698 858.671 126.227 863.991C126.49 866.101 126.959 866.563 126.093 867.964C124.851 868.214 123.604 868.438 122.353 868.638C120.132 868.152 118.105 868.46 115.818 868.619C113.669 868.537 112.475 868.241 110.671 869.209L110 870.227C115.374 879.866 120.934 886.008 123.547 897.447C114.96 897.464 60.1498 896.763 57.1756 898.219L56.9841 899.063C58.3448 899.806 107.771 899.54 113.523 899.55C192.806 900.011 272.091 900.028 351.373 899.601C358.055 899.548 391.557 900.195 395.188 898.932L394.224 897.942C390.668 896.618 340.796 897.486 333.488 897.498C336.302 895.678 349.308 893.842 353.232 893.154C349.394 892.512 346.615 892.346 342.772 892.488C336.819 892.032 336.398 893.117 333.19 888.219C331.859 888.813 331.22 889.034 329.745 889.326ZM725.491 718.98C723.263 719.82 718.142 721.418 716.688 722.603L716.654 723.511C717.849 724.389 717.766 724.328 719.227 724.63C722.026 723.669 725.659 722.492 727.699 720.348L727.711 719.637C726.641 719.035 726.692 718.951 725.491 718.98ZM438.377 892.106C433.14 891.165 410.404 891.247 405.751 893.171L405.257 893.741C412.483 894.444 445.794 896.403 450.951 894.24C451.267 892.736 451.396 893.416 450.929 892.113C447.309 891.681 442.721 892.328 438.377 892.106ZM296.987 716.772C295.314 718.668 293.735 720.442 291.975 722.27C296.785 724.045 298.1 725.567 302.23 727.433C304.124 726.326 305.861 725.293 307.828 724.303C310.046 723.527 309.906 723.967 311.077 722.413C309.925 719.994 299.942 717.189 296.987 716.772Z"/><path fill="#F9F9F9" fill-opacity="0.80392158" transform="scale(1.20508 1.20508)" d="M199.222 775.393L199.277 770.35C200.175 769.969 200.971 769.506 201.785 768.97C206.755 769.981 203.784 776.82 204.801 778.319C209.695 772.077 202.756 770.291 208.003 767.062C208.838 764.022 206.86 762.884 206.76 759.12L207.271 758.838C211.62 763.961 210.828 779.446 215.168 780.419C215.642 782.155 215.951 783.218 216.195 784.989L214.816 787.146C214.293 784.923 214.88 785.675 213.487 784.45C210.763 784.634 208.401 787.889 207.147 790.171C204.741 785.394 201.774 780.149 199.222 775.393Z"/><path fill="#F9F9F9" fill-opacity="0.47058824" transform="scale(1.20508 1.20508)" d="M207.147 790.171C208.401 787.889 210.763 784.634 213.487 784.45C214.88 785.675 214.293 784.923 214.816 787.146C209.114 793.778 219.281 795.262 213.222 802.129L207.147 790.171Z"/><path fill="#F9F9F9" fill-opacity="0.19215687" transform="scale(1.20508 1.20508)" d="M329.745 889.326C331.22 889.034 331.859 888.813 333.19 888.219C336.398 893.117 336.819 892.032 342.772 892.488C339.108 894.845 339.203 896.077 334.601 893.905C332.842 894.387 332.894 895.279 331.576 896.366C332.039 894.58 332.654 893.154 331.617 891.653C330.688 891.363 330.054 891.156 329.142 890.79L328.434 890.498L329.745 889.326Z"/><path fill="#F9F9F9" fill-opacity="0.55686277" transform="scale(1.20508 1.20508)" d="M342.772 892.488C346.615 892.346 349.394 892.512 353.232 893.154C349.308 893.842 336.302 895.678 333.488 897.498L328.006 897.405L331.576 896.366C332.894 895.279 332.842 894.387 334.601 893.905C339.203 896.077 339.108 894.845 342.772 892.488Z"/><path fill="#918E9A" fill-opacity="0.98823529" transform="scale(1.20508 1.20508)" d="M794.276 851.581L795.385 851.3C794.74 854.546 794.002 857.773 793.173 860.977C793.267 857.342 793.669 855.163 794.276 851.581Z"/><defs><linearGradient id="gradient_0" gradientUnits="userSpaceOnUse" x1="1005.7079" y1="679.63708" x2="226.72794" y2="454.66653"><stop offset="0" stop-color="black"/><stop offset="1" stop-color="#341630"/></linearGradient></defs><path fill="url(#gradient_0)" transform="scale(1.20508 1.20508)" d="M607.827 235.308C593.46 208.629 628.65 194.499 637.982 216.27C640.072 221.198 640.072 226.763 637.984 231.692C632.546 244.68 620.294 244.005 609.975 237.226C590.585 256.888 578.267 278.193 571.658 304.99C623.511 335.283 649.93 396.976 617.815 451.54C616.795 453.263 615.734 454.962 614.634 456.635C618.81 461.545 622.463 466.316 626.38 471.436C653.186 444.156 679.301 417.543 721.027 417.114C744.006 416.823 766.114 425.889 782.273 442.229C837.145 496.878 796.378 581.37 730.107 602.739C739.327 618.965 748.46 638.431 748.032 657.42C747.923 662.235 746.701 667.249 746.29 672.019C745.794 678.437 745.96 684.742 744.199 690.992C741.568 700.329 735.595 710.089 726.789 714.796C709.471 724.054 690.393 716.421 677.508 703.79C670.458 725.811 663.432 740.792 648.404 758.75C646.902 760.545 641.683 767 640.332 768.114C623.245 789.038 586.1 813.493 559.971 820.69C555.567 821.926 551.892 822.892 547.425 823.83C547.503 846.184 547.461 868.539 547.3 890.894C557.746 884.985 566.239 885.264 572.238 896.673L572.545 897.266C579.972 897.691 589.973 897.386 597.548 897.373L644.01 897.333L673.679 897.431C676.114 897.44 686.17 897.581 687.874 897.19C692.447 897.344 695.762 897.382 700.313 897.133C698.793 894.957 693.977 887.984 692.126 887.069L692.439 886.932C692.582 886.601 689.855 878.293 689.513 876.986C688.188 871.927 687.976 868.604 688.816 863.434C690.29 854.094 695.494 845.753 703.234 840.322C712.296 833.992 721.488 832.866 732.135 834.751C727.422 825.477 723.509 816.104 719.013 806.754C713.423 795.353 707.893 786.027 704.081 773.732C695.711 746.738 718.587 712.628 748.35 729.249C765.94 739.072 770.909 763.658 774.743 781.823C778.918 801.601 781.87 823.292 785.926 843.262C787.32 850.1 788.082 857.317 789.775 864.034L789.923 864.603C796.828 810.839 808.582 757.81 825.04 706.164C829.787 691.234 834.64 676.225 840.466 661.678C850.572 636.862 862.302 612.739 875.58 589.466C859.211 581.063 848.89 567.396 855.083 548.071C860.209 534.3 870.617 517.77 883.417 510.104C892.595 504.607 897.689 518.587 900.015 524.463C901.597 519.725 902.884 515.225 907.171 512.132C910.3 509.873 915.052 509.534 916.814 513.681C918.753 518.243 916.756 522.66 915.208 526.999C921.197 524.399 922.517 524.196 928.618 525.512C933.116 529.076 934.072 533.357 934.361 538.881C936.385 577.512 919.095 603.076 878.165 590.508C876.077 595.251 870.01 604.999 867.092 610.735C857.96 628.667 849.574 646.969 841.956 665.594C821.613 716.726 808.293 773.789 798.432 827.841C796.999 835.698 795.99 843.807 794.276 851.581C793.669 855.163 793.267 857.342 793.173 860.977C794.002 857.773 794.74 854.546 795.385 851.3C799.784 830.771 807.332 813.678 816.031 794.865C848.01 725.707 893.024 670.716 949.566 620.512C949.158 619.331 948.78 618.139 948.434 616.937C944.56 603.482 951.851 594.662 964.48 591.247C967.409 591.442 970.729 591.587 973.39 592.924C975.425 596.233 981.825 597.938 982.756 603.753L982.305 605.341C980.367 601.326 978.211 598.618 974.254 596.421C970.362 594.292 965.778 593.819 961.533 595.108C957.343 596.345 954.376 599.239 952.293 602.981C950.124 607.843 949.579 612.285 951.684 617.312C953.334 621.237 955.824 624.165 959.823 625.865C964.232 627.752 969.216 627.786 973.651 625.959C975.833 625.053 977.697 623.677 979.426 622.082L980.121 623.02C978.763 625.55 977.811 625.289 976.882 627.316C969.888 632.035 961.436 630.208 954.693 626.105C953.442 624.711 953.027 624.036 951.304 623.259L950.359 623.976L943.575 629.618L936.087 636.614C925.409 645.306 913.842 658.159 904.465 668.325C863.29 712.962 830.129 764.616 807.725 821.097C801.101 837.795 796.454 857.704 791.718 875.121C799.932 859.545 809.726 844.382 819.32 829.622C838.827 799.612 872.304 748.429 907.804 737.579C911.467 736.46 915.174 735.663 918.882 734.732C929.961 734.386 943.518 736.113 952.833 743.787C952.905 743.905 952.976 744.024 953.048 744.142C955.022 748.095 957.463 747.984 959.156 751.052L958.871 751.861C969.243 764.878 973.443 775.62 971.717 792.689C969.982 809.838 960.881 823.403 947.701 834.15C943.087 837.913 935.788 840.861 932.856 843.081L933.567 845.285C926.201 849.254 902.944 858.295 899.994 864.544C901.552 868.686 910.963 865.626 912.948 872.116C915.677 881.034 904.194 891.633 898.719 897.357C911.271 897.576 928.525 897.306 941.463 897.733C941.872 897.981 942.28 898.229 942.688 898.477C941.568 900.285 915.965 899.601 911.998 899.613L832.07 899.577L545.628 899.521C530.676 900.024 509.204 899.959 494.179 899.64C482.702 900.385 464.46 899.595 452.246 899.655L452.271 897.246C452.787 894.157 455.873 890.354 458.754 889.066C465.948 885.852 470.92 888.004 477.573 890.465C477.115 884.19 477.402 873.534 477.364 866.866C477.19 852.691 477.192 838.515 477.37 824.34C441.298 817.263 408.846 796.889 384.734 769.417C380.127 764.168 374.997 758.806 371.299 752.865C369.757 751.016 368.98 749.693 367.72 747.671C360.934 741.465 349.852 712.953 345.92 703.486C340.475 709.64 331.704 715.338 323.793 717.62C315.174 720.153 305.897 719.085 298.079 714.662C282.021 705.477 280.527 689.756 279.421 673.311C279.12 668.845 277.021 663.163 276.581 658.209C274.713 637.187 283.568 620.44 293.601 602.927C288.9 600.76 284.216 598.575 279.592 596.242C242.035 577.295 214.956 539.849 217.17 496.423C218.248 474.088 228.277 453.128 244.993 438.276C261.991 422.904 284.481 415.055 307.352 416.512C344.115 418.714 374.507 445.246 397.805 471.568C401.837 466.59 405.126 462.555 409.538 457.923C408.502 456.166 407.479 454.401 406.469 452.629C393.211 428.93 389.786 400.973 396.932 374.774C405.2 345.086 424.949 319.911 451.815 304.812C448.238 285.134 430.597 248.579 414.075 237.187L413.839 237.064C413.346 236.113 413.552 236.563 413.618 235.275C415.222 233.798 414.295 234.216 416.528 234.044C417.117 235.857 419.825 238.21 421.245 239.686C438.097 257.215 448.757 279.749 454.742 303.152C493.841 284.237 529.798 284.451 568.801 303.326C575.928 277.466 588.298 254.016 607.827 235.308ZM483.125 894.968C487.995 892.911 491.648 894.802 494.517 893.053C490.83 892.214 487.623 892.398 483.862 892.362L483.125 894.968ZM314.888 422.311C309.108 421.114 302.489 421.457 296.542 421.529C293.748 421.854 290.573 422.184 287.818 422.64C294.241 422.909 309.603 425.18 314.888 422.311Z"/><path fill="#A8DEB7" transform="scale(1.20508 1.20508)" d="M790.57 880.899C793.71 875.275 797.551 869.111 801.123 863.706C828.943 821.607 895.229 694.321 958.871 751.861C969.243 764.878 973.443 775.62 971.717 792.689C969.982 809.838 960.881 823.403 947.701 834.15C943.087 837.913 935.788 840.861 932.856 843.081C922.067 848.25 908.013 854.169 898.863 861.136C889.14 860.593 871.123 862.435 860.764 863.488C857.172 863.853 850.839 867.203 847.123 866.881C850.001 862.014 866.208 839.818 870.596 837.127C884.774 828.429 906.546 822.069 923.173 822.029C924.37 822.026 924.389 821.796 925.017 820.954C924.71 820.403 924.513 819.644 923.821 819.629C907.104 819.274 888.661 825.294 873.903 832.408C887.075 817.017 901.277 803.595 917.881 792.074C919.693 790.817 923.108 788.889 923.723 786.889L922.932 786.444C919.095 787.229 914.749 791.505 911.448 793.796C891.731 807.477 875.902 824.856 860.908 843.596C856.13 843.682 847.179 852.507 842.737 855.598C829.098 865.088 807.528 880.786 790.57 880.899Z"/><path fill="#F9C9A2" transform="scale(1.20508 1.20508)" d="M456.742 699.6L583.107 699.628C611.437 699.583 639.883 699.412 668.221 699.511C670.006 699.518 674.028 699.599 675.307 700.683C676.265 708.431 659.2 739.268 654.21 747.359C650.483 747.327 636.525 747.01 633.66 747.42C630.629 747.055 623.132 747.166 619.881 747.163L594.91 747.152C563.372 747.148 528.675 747.947 497.529 747.091C493.145 746.585 485.786 746.864 481.168 746.915C478.605 743.331 475.69 739.908 473.046 736.135C467.339 727.834 462.047 719.255 457.19 710.429C455.614 707.583 453.074 703.341 452.321 700.34C453.669 699.656 455.125 699.74 456.742 699.6Z"/><path fill="#3B1C35" transform="scale(1.20508 1.20508)" d="M484.848 749.558L652.082 749.528C649.63 753.098 639.741 764.954 639.895 767.388L640.332 768.114C623.245 789.038 586.1 813.493 559.971 820.69C559.612 819.128 547.767 810.707 545.471 808.86C530.159 796.545 514.575 783.892 500.825 769.808C495.268 764.115 489.49 756.312 484.09 750.193L484.848 749.558Z"/><path fill="#8CCDA1" transform="scale(1.20508 1.20508)" d="M707.734 747.108C717.602 749.125 729.891 763.771 735.272 771.903C738.661 781.383 762.741 825.079 770.401 829.511C773.081 833.503 777.883 841.355 781.552 843.958C782.853 843.956 782.32 844.181 783.316 843.591C785.555 853.144 787.005 862.691 788.253 872.429C788.652 875.55 787.306 879.654 788.098 881.789C789.771 881.83 788.939 881.992 790.57 880.899C807.528 880.786 829.098 865.088 842.737 855.598C847.179 852.507 856.13 843.682 860.908 843.596C847.609 860.778 834.805 878.072 824.887 897.501C805.714 897.377 786.54 897.357 767.366 897.439C762.933 890.517 759.192 884.69 753.973 878.271C758.004 879.203 773.538 882.129 776.963 879.845C777.292 880.333 777.885 880.878 778.316 881.322L779.697 881.289L780.072 880.516C777.269 871.474 759.514 851.526 752.013 845.147C747.475 841.29 740.614 838.035 735.162 835.744C730.562 825.889 726.041 815.575 721.44 805.796C711.112 783.843 699.931 772.03 707.734 747.108Z"/><path fill="#F8B482" transform="scale(1.20508 1.20508)" d="M347.959 699.991C357.78 699.032 376.715 699.543 387.107 699.539L456.742 699.6C455.125 699.74 453.669 699.656 452.321 700.34C453.074 703.341 455.614 707.583 457.19 710.429C462.047 719.255 467.339 727.834 473.046 736.135C475.69 739.908 478.605 743.331 481.168 746.915C485.786 746.864 493.145 746.585 497.529 747.091C487.198 748.108 470.001 747.272 459.008 747.468C429.907 747.987 399.491 746.76 370.51 747.405C359.506 731.262 354.692 718.086 347.959 699.991Z"/><path fill="#F9F9F9" transform="scale(1.20508 1.20508)" d="M479.983 825.184C502.835 829.004 521.947 829.057 544.749 824.331L544.849 872.434C544.852 876.883 544.569 891.625 544.994 895.099C545.084 896.54 545.037 898.264 545.628 899.521C530.676 900.024 509.204 899.959 494.179 899.64C482.702 900.385 464.46 899.595 452.246 899.655L452.271 897.246C452.787 894.157 455.873 890.354 458.754 889.066C465.948 885.852 470.92 888.004 477.573 890.465L479.221 891.593L479.839 891.006C479.809 889.15 479.902 888.106 480.089 886.25C480.716 866.725 479.824 845.022 479.983 825.184ZM483.125 894.968C487.995 892.911 491.648 894.802 494.517 893.053C490.83 892.214 487.623 892.398 483.862 892.362L483.125 894.968Z"/><path fill="#F9F9F9" fill-opacity="0.60784316" transform="scale(1.20508 1.20508)" d="M483.862 892.362C487.623 892.398 490.83 892.214 494.517 893.053C491.648 894.802 487.995 892.911 483.125 894.968L483.862 892.362Z"/><path fill="#230721" transform="scale(1.20508 1.20508)" d="M480.089 886.25C480.185 888.654 479.835 890.355 481.241 891.926L483.862 892.362L483.125 894.968C481.111 895.644 481.343 895.22 480.296 896.625C483.439 897.911 527.608 896.791 535.143 897.397C539.052 896.951 543.877 899.167 544.994 895.099C545.084 896.54 545.037 898.264 545.628 899.521C530.676 900.024 509.204 899.959 494.179 899.64C482.702 900.385 464.46 899.595 452.246 899.655L452.271 897.246C452.787 894.157 455.873 890.354 458.754 889.066C465.948 885.852 470.92 888.004 477.573 890.465L479.221 891.593L479.839 891.006C479.809 889.15 479.902 888.106 480.089 886.25Z"/><path fill="#38040E" transform="scale(1.20508 1.20508)" d="M544.994 895.099C545.084 896.54 545.037 898.264 545.628 899.521C530.676 900.024 509.204 899.959 494.179 899.64C489.879 899.261 485.313 899.747 481.028 898.515C484.247 896.759 526.778 898.195 535.143 897.397C539.052 896.951 543.877 899.167 544.994 895.099Z"/><path fill="#A8DEB7" transform="scale(1.20508 1.20508)" d="M707.734 747.108C722.697 712.727 757.419 727.972 766.044 756.978C774.44 785.214 777.543 814.697 783.316 843.591C782.32 844.181 782.853 843.956 781.552 843.958C777.883 841.355 773.081 833.503 770.401 829.511C762.741 825.079 738.661 781.383 735.272 771.903C729.891 763.771 717.602 749.125 707.734 747.108Z"/><path fill="#A8DEB7" transform="scale(1.20508 1.20508)" d="M692.118 878.48C689.969 868.463 690.382 860.046 696.15 851.145C700.83 843.96 708.152 838.908 716.53 837.083C742.009 831.675 766.258 859.98 776.963 879.845C773.538 882.129 758.004 879.203 753.973 878.271C749.937 874.115 727.884 853.083 722.425 855.647C722.536 856.616 722.544 857.147 723.588 857.718C733.575 863.173 741.558 869.857 749.559 877.92C744.853 876.901 729.199 872.957 725.872 875.918C722.272 879.885 698.893 876.776 692.118 878.48Z"/><path fill="#8CCDA1" transform="scale(1.20508 1.20508)" d="M847.123 866.881C850.839 867.203 857.172 863.853 860.764 863.488C871.123 862.435 889.14 860.593 898.863 861.136L891.37 867.835L892.06 868.026C897.303 869.434 908.711 868.7 910.697 873.136C913.62 879.665 898.849 893.641 895.324 897.493C872.986 897.473 850.201 897.671 827.899 897.385C830.55 892.718 844.011 869.996 847.123 866.881Z"/><path fill="#8CCDA1" transform="scale(1.20508 1.20508)" d="M692.118 878.48C698.893 876.776 722.272 879.885 725.872 875.918C727.527 877.474 735.474 877.621 738.265 878.145C742.947 879.025 747.561 879.951 752.217 880.983C756.262 885.547 761.014 892.141 764.144 897.429C744.4 897.226 724.817 897.648 705.197 897.485C698.415 891.028 695.774 887.25 692.118 878.48Z"/><path transform="scale(1.20508 1.20508)" d="M370.51 747.405C399.491 746.76 429.907 747.987 459.008 747.468C470.001 747.272 487.198 748.108 497.529 747.091C528.675 747.947 563.372 747.148 594.91 747.152L619.881 747.163C623.132 747.166 630.629 747.055 633.66 747.42C626.55 748.268 609.688 748.074 602.05 748.049L553.552 748.002L410.07 748.779C412.185 749.304 415.534 748.793 417.146 749.016C424.865 750.081 475.889 746.984 480.203 749.401C458.08 750.085 434.671 749.129 412.567 749.327C405.784 749.388 376.519 748.542 371.406 750.082L370.884 750.454L371.632 752.055L371.299 752.865C369.757 751.016 368.98 749.693 367.72 747.671C368.681 747.966 368.859 748.232 369.664 748.84C371.755 749.125 377.972 749.17 379.933 748.751C377.003 748.756 373.512 749.08 370.858 748.131L370.51 747.405Z"/><path fill="#F4665F" transform="scale(1.20508 1.20508)" d="M504.771 292.205C504.91 292.185 505.048 292.165 505.187 292.145C565.333 287.781 622.72 334.056 628.382 392.691C630.796 417.486 623.263 442.226 607.439 461.468C585.932 487.372 553.847 502.191 520.623 505.197C490.971 508.988 451.953 494.814 429.469 475.767C410.474 459.814 398.681 436.9 396.738 412.171C394.176 383.273 403.388 354.564 422.285 332.552C443.441 307.69 472.65 294.83 504.771 292.205Z"/><path transform="scale(1.20508 1.20508)" d="M503.376 319.701C524.559 317.403 551.262 325.756 567.612 339.297C627.161 388.617 596.614 476.592 520.624 483.995C496.765 485.879 473.078 478.656 454.33 463.778C445.52 456.692 438.133 448.381 432.845 438.373C403.948 383.688 445.244 325.668 503.376 319.701Z"/><defs><linearGradient id="gradient_1" gradientUnits="userSpaceOnUse" x1="484.34827" y1="476.03152" x2="538.19586" y2="327.34662"><stop offset="0" stop-color="#FDCFC5"/><stop offset="1" stop-color="#FAEBE7"/></linearGradient></defs><path fill="url(#gradient_1)" transform="scale(1.20508 1.20508)" d="M508.247 322.217C531.582 321.985 552.14 329.068 569.746 344.707C602.365 373.682 605.413 423.095 575.139 455.135C559.463 471.58 537.888 481.113 515.173 481.629C470.712 481.837 428.75 451.994 426.384 405.378C425.475 385.352 432.653 365.8 446.303 351.118C462.191 333.502 484.54 323.075 508.247 322.217Z"/><path fill="#230721" transform="scale(1.20508 1.20508)" d="M466.107 379.535C481.886 378.89 483.147 406.982 469.912 412.488C461.933 412.242 458.735 406.83 457.818 399.478C456.784 391.182 458.181 383.492 466.107 379.535Z"/><path fill="#230721" transform="scale(1.20508 1.20508)" d="M554.475 380.02C567.411 379.053 568.772 394.573 565.995 403.856C564.684 408.238 562.428 410.4 558.437 412.361C543.403 413.634 541.449 386.12 554.475 380.02Z"/><path transform="scale(1.20508 1.20508)" d="M487.709 418.354C490.43 418.604 492.459 420.914 494.735 422.725C503.775 429.92 512.423 430.358 522.896 426.693C527.314 425.146 532.487 418.342 535.104 418.86L535.706 419.932C531.701 424.496 529.004 427.1 523.219 429.398C515.414 432.42 506.737 432.27 499.041 428.981C494.371 426.944 489.637 423.185 487.709 418.354Z"/><path fill="#F8D3D0" transform="scale(1.20508 1.20508)" d="M538.807 303.208C551.781 303.858 564.683 310.629 574.876 318.383C581.079 323.101 585.772 331.561 573.271 330.476C568.381 328.789 532.833 309.522 531.224 306.939C530.723 306.136 530.878 306.479 531.104 305.376C532.971 303.413 536.14 303.449 538.807 303.208Z"/><path fill="#F1F1F3" transform="scale(1.20508 1.20508)" d="M264.864 428.272C280.875 418.423 306.393 417.122 324.127 422.245C349.958 428.684 379.88 453.176 396.273 473.99C390.289 482.965 383.93 492.827 377.866 501.637C376.122 504.17 366.419 513.686 363.433 516.957C353.453 527.977 343.619 539.127 333.932 550.405C319.755 567.787 307.942 582.478 294.97 600.808C286.073 596.789 276.687 591.965 268.546 586.591C224.018 557.194 203.365 499.853 235.451 453.158C243.191 443.196 253.434 433.818 264.864 428.272ZM314.888 422.311C309.108 421.114 302.489 421.457 296.542 421.529C293.748 421.854 290.573 422.184 287.818 422.64C294.241 422.909 309.603 425.18 314.888 422.311Z"/><path fill="#F9F9F9" fill-opacity="0.70588237" transform="scale(1.20508 1.20508)" d="M296.542 421.529C302.489 421.457 309.108 421.114 314.888 422.311C309.603 425.18 294.241 422.909 287.818 422.64C290.573 422.184 293.748 421.854 296.542 421.529Z"/><path fill="#F9F9F9" transform="scale(1.20508 1.20508)" d="M294.97 600.808C286.073 596.789 276.687 591.965 268.546 586.591C224.018 557.194 203.365 499.853 235.451 453.158C238.157 455.797 243.927 468.99 246.954 473.878C254.381 485.685 263.19 496.564 273.194 506.284C287.905 520.795 304.775 532.942 322.88 542.843C326.973 545.081 330.628 547.047 333.932 550.405C319.755 567.787 307.942 582.478 294.97 600.808Z"/><path fill="#F9F9F9" transform="scale(1.20508 1.20508)" d="M264.864 428.272C280.875 418.423 306.393 417.122 324.127 422.245C320.674 422.965 319.058 420.627 314.888 422.311C309.108 421.114 302.489 421.457 296.542 421.529C289.881 420.872 288.541 421.187 282.16 422.464C277.976 423.301 266.991 428.498 264.864 428.272Z"/><defs><linearGradient id="gradient_2" gradientUnits="userSpaceOnUse" x1="786.96173" y1="560.25439" x2="676.68359" y2="429.98984"><stop offset="0" stop-color="#E1E3F1"/><stop offset="1" stop-color="#FCFBF7"/></linearGradient></defs><path fill="url(#gradient_2)" transform="scale(1.20508 1.20508)" d="M714.27 420.198C729.041 417.988 746.978 422.469 760.15 429.252C779.926 439.52 794.797 457.244 801.475 478.503C817.634 530.57 777.611 585.528 728.446 600.524L725.126 595.521C710.844 570.881 687.004 547.576 668.748 525.757C662.327 518.082 652.687 509.914 646.886 502.032C640.307 493.092 634.755 483.297 628.128 474.111C632.225 469.284 637.541 464.157 642.019 459.661C662.137 439.459 684.967 422.756 714.27 420.198Z"/><path fill="#F9C9A2" transform="scale(1.20508 1.20508)" d="M341.766 645.352C346.208 646.198 358.272 645.374 363.874 645.78C362.421 646.113 346.045 646.341 344.08 646.175L341.937 646.009C340.992 647.297 341.139 649.712 341.055 651.427C340.668 650.885 340.753 650.56 340.717 649.723C339.534 621.734 344.536 589.952 353.432 563.441C354.731 559.569 356.512 552.055 358.827 549.309C366.13 549.484 420.627 548.852 423.388 549.842L421.932 550.366C420.464 555.838 420.8 589.758 421.406 596.798C423.424 596.794 428.515 596.673 430.253 596.927C428.826 598.243 418.486 597.604 414.818 598.022C416.774 598.165 419.703 598.223 421.418 598.926L421.886 599.03L680.447 599.024C683.607 615.377 684.555 628.969 684.585 645.456L579.878 645.313C562.111 646.007 539.049 645.326 520.981 645.319L411.849 645.28C389.045 645.227 364.503 644.785 341.766 645.352Z"/><path fill="#F8B482" transform="scale(1.20508 1.20508)" d="M341.766 645.352C346.208 646.198 358.272 645.374 363.874 645.78C362.421 646.113 346.045 646.341 344.08 646.175L341.937 646.009C340.992 647.297 341.139 649.712 341.055 651.427C340.668 650.885 340.753 650.56 340.717 649.723C339.534 621.734 344.536 589.952 353.432 563.441C354.731 559.569 356.512 552.055 358.827 549.309C366.13 549.484 420.627 548.852 423.388 549.842L421.932 550.366C420.464 555.838 420.8 589.758 421.406 596.798C423.424 596.794 428.515 596.673 430.253 596.927C428.826 598.243 418.486 597.604 414.818 598.022C416.774 598.165 419.703 598.223 421.418 598.926L421.886 599.03C423.762 615.773 425.753 628.536 430.232 644.831C446.004 644.841 577.589 644.218 579.878 645.313C562.111 646.007 539.049 645.326 520.981 645.319L411.849 645.28C389.045 645.227 364.503 644.785 341.766 645.352Z"/><path fill="#230721" transform="scale(1.20508 1.20508)" d="M341.766 645.352C346.208 646.198 358.272 645.374 363.874 645.78C362.421 646.113 346.045 646.341 344.08 646.175L341.937 646.009C340.992 647.297 341.139 649.712 341.055 651.427C340.668 650.885 340.753 650.56 340.717 649.723C339.534 621.734 344.536 589.952 353.432 563.441C354.731 559.569 356.512 552.055 358.827 549.309C366.13 549.484 420.627 548.852 423.388 549.842L421.932 550.366C420.464 555.838 420.8 589.758 421.406 596.798C423.424 596.794 428.515 596.673 430.253 596.927C428.826 598.243 418.486 597.604 414.818 598.022C416.774 598.165 419.703 598.223 421.418 598.926C396.487 599.655 370.498 598.372 345.802 599.141C343.517 608.567 340.018 635.444 341.248 644.714L341.766 645.352Z"/><path fill="#F9C9A2" transform="scale(1.20508 1.20508)" d="M613.077 458.765C634.168 482.943 653.309 517.551 664.984 547.317L421.664 547.489C423.691 535.651 426.967 522.148 430.748 510.747C433.51 502.417 437.134 495.449 439.034 486.673C481.234 510.678 521.569 516.37 567.005 495.566C587.155 486.34 599.119 475.498 613.077 458.765Z"/><path fill="#3B1C35" transform="scale(1.20508 1.20508)" d="M431.23 647.619L594.759 647.575C623.115 647.564 656.563 646.762 684.559 647.995C683.616 664.581 683.059 675.143 678.678 691.622L677.203 697.386C650.339 696.28 618.576 697.004 591.338 697.133C544.291 697.358 497.243 697.317 450.196 697.011C441.028 678.572 436.769 667.159 431.23 647.619Z"/><path fill="#3B1C35" transform="scale(1.20508 1.20508)" d="M423.388 549.842C429.593 550.511 444.032 550.126 450.74 550.107L501.733 549.95L666.101 549.537C672.075 562.742 676.785 582.757 680.154 596.87C663.173 596.573 645.634 596.874 628.589 596.888L531.29 596.731L462.954 596.595C454.394 596.62 438.321 596.245 430.253 596.927C428.515 596.673 423.424 596.794 421.406 596.798C420.8 589.758 420.464 555.838 421.932 550.366L423.388 549.842Z"/><path fill="#3B1C35" transform="scale(1.20508 1.20508)" d="M647.916 505.241C648.271 505.498 648.449 505.614 648.799 505.947C659.445 516.116 666.665 527.054 676.225 538.275C681.978 545.026 689.313 551.959 694.737 558.666C716.275 585.296 742.858 618.219 745.638 653.432C746.345 662.394 744.309 672.419 738.312 679.052C737.053 680.297 735.645 681.38 734.12 682.279C718.683 691.36 693.993 663.052 687.131 651.241C688.02 641.278 686.962 626.265 685.71 616.426C682.012 585.418 673.154 555.247 659.502 527.161C656.313 520.511 651.103 515.791 648.128 508.961C647.111 506.625 647.194 507.226 647.916 505.241Z"/><path fill="#F4665F" transform="scale(1.20508 1.20508)" d="M856.91 564.349C854.178 554.902 860.083 541.31 865.325 533.71C885.796 504.032 893.26 504.046 900.151 538.81C906.041 535.319 916.588 527.753 923.492 527.419C932.069 527.003 931.538 538.895 931.539 544.774C931.335 568.749 923.788 592.067 895.546 591.189C878.016 590.645 861.579 582.212 856.91 564.349Z"/><path fill="#DA5051" transform="scale(1.20508 1.20508)" d="M856.91 564.349C873.722 575.506 893.362 580.452 912.689 571.421C924.369 565.963 927.647 556.12 931.539 544.774C931.335 568.749 923.788 592.067 895.546 591.189C878.016 590.645 861.579 582.212 856.91 564.349Z"/><path fill="#F8B482" transform="scale(1.20508 1.20508)" d="M411.293 460.344C419.694 471.861 427.457 478.449 439.034 486.673C437.134 495.449 433.51 502.417 430.748 510.747C426.967 522.148 423.691 535.651 421.664 547.489L359.987 547.385C372.489 516.183 388.249 485.261 411.293 460.344Z"/><path fill="#F9F9F9" transform="scale(1.20508 1.20508)" d="M686.712 655.786C688.517 657.029 690.967 661.007 692.77 662.86C707.528 678.031 723.29 698.495 743.653 676.5C743.504 687.584 740.879 696.703 734.259 705.574L733.836 706.038C716.395 724.851 694.406 715.945 678.52 700.836C683.19 685.029 685.938 672.303 686.712 655.786Z"/><path fill="#F9F9F9" transform="scale(1.20508 1.20508)" d="M338.258 654.36C338.519 657.234 338.668 660.118 338.881 662.998C339.814 675.613 342.556 687.764 345.019 700.15C329.893 717.161 309.062 723.175 291.411 705.649C284.293 696.898 283.364 688.266 282.384 677.512C290.071 686.014 298.199 687.87 308.908 683.861C322.862 678.637 331.345 666.867 338.258 654.36Z"/><path fill="#3B1C35" transform="scale(1.20508 1.20508)" d="M296.9 602.384L297.35 603.022C295.556 607.17 283.752 625.36 284.765 629.087C286.246 623.808 292.146 620 296.254 616.401L296.623 616.976C296.463 618.192 295.089 623.098 295.109 623.314C296.158 634.301 297.703 645.166 298.304 656.199C298.495 659.711 303.646 668.747 303.467 672.04C300.963 675.051 300.852 675.317 297.45 677.515C292.685 680.592 291.9 679.039 287.676 678.163C290.041 680.245 291.122 680.778 293.807 682.265C298.196 682.883 304.234 683.157 308.224 680.954C312.127 678.8 311.673 678.317 316.642 677.593C307.724 681.304 300.813 686.04 291.062 681.479C285.74 678.99 283.265 673.621 281.469 668.404C275.911 652.129 280.47 634.363 287.724 619.404C290.474 613.734 294.15 608.297 296.722 602.774L296.9 602.384Z"/><path fill="#DA5051" transform="scale(1.20508 1.20508)" d="M910.793 513.432C918.593 513.703 913.295 524.549 911.546 528.198L905.282 531.714C904.177 532.503 904.097 532.539 902.843 533.068L901.925 532.437C899.676 526.435 905.411 516.664 910.793 513.432Z"/><path transform="scale(1.20508 1.20508)" d="M121.987 521.318C127.78 498.895 142.324 510.088 152.483 521.061C175.144 545.536 181.862 570.59 148.832 589.364C181.438 649.127 204.891 720.322 219.52 786.947C222.395 800.042 223.979 813.543 225.826 826.808C226.346 830.963 227.609 843.175 228.473 846.691C228.609 844.789 228.305 843.541 229.567 842.453C231.473 840.809 231.394 839.014 233.702 838.258L234.914 838.916C242.025 814.459 246.831 789.638 253.655 765.11C255.533 758.358 258.137 751.023 261.766 744.905C289.571 706.19 334.907 736.17 319.118 778.88C310.876 801.177 301.123 818.243 288.104 837.364C299.063 834.542 310.904 833.813 320.766 839.978C339.917 851.95 341.82 871.975 329.745 889.326L328.434 890.498C326.849 892.143 323.635 894.686 322.93 896.255C324.114 897.931 326.057 897.49 328.006 897.405L333.488 897.498C340.796 897.486 390.668 896.618 394.224 897.942L395.188 898.932C391.557 900.195 358.055 899.548 351.373 899.601C272.091 900.028 192.806 900.011 113.523 899.55C107.771 899.54 58.3448 899.806 56.9841 899.063L57.1756 898.219C60.1498 896.763 114.96 897.464 123.547 897.447C120.934 886.008 115.374 879.866 110 870.227L110.671 869.209C112.475 868.241 113.669 868.537 115.818 868.619C118.105 868.46 120.132 868.152 122.353 868.638C123.604 868.438 124.851 868.214 126.093 867.964C126.959 866.563 126.49 866.101 126.227 863.991C120.698 858.671 109.802 854.152 102.732 851.161C88.8854 845.207 74.2336 839.15 63.0279 828.813C39.9039 807.481 40.1709 773.064 61.7988 750.688C74.1753 737.884 85.9222 734.631 103.258 734.302C141.037 740.766 152.158 762.146 174.941 787.147C178.506 791.63 182.135 796.061 185.828 800.44L187.598 802.744C189.988 805.897 194.21 811.772 196.78 814.509C198.013 816.548 198.759 817.425 200.294 819.286L202.509 822.424L211.3 834.871L212.364 836.508L213.212 837.613C217.222 839.184 219.44 843.919 221.44 847.588L222.09 847.779C223.566 844.749 221.856 835.949 221.298 832.436L222.225 831.365C221.96 830.219 221.055 827.67 220.662 826.436L220.025 825.121C218.136 818.08 210.516 802.751 207.212 796.202L206.967 795.652C205.811 793.329 204.311 790.001 202.833 787.973C201.525 785.019 201.027 783.95 199.244 781.199L198.745 780.42C197.42 780.32 198.043 780.481 196.929 779.722C194.789 774.774 188.329 766.574 185.173 761.68C180.37 754.239 175.825 746.585 171.607 738.797C169.436 734.789 163.761 727.637 163.667 723.362C162.56 720.897 153.485 708.503 151.601 705.943C150.499 704.35 149.067 702.544 147.885 700.968C144.895 696.949 141.829 692.988 138.687 689.087L136.9 686.661C134.294 683.208 130.924 679.434 128.085 676.099C126.783 674.492 126.562 674.258 125.001 672.907C120.218 666.384 110.147 656.368 104.488 650.629C102.087 648.154 99.6295 645.83 97.1362 643.451L95.5813 641.839C91.4376 637.705 83.2419 630.157 78.6506 627.036L74.3339 623.374C71.4452 626.379 69.9661 627.056 66.2051 628.848C59.4082 630.581 52.2023 629.704 46.9374 624.782C43.0514 621.135 40.7762 616.092 40.6141 610.765C40.2927 598.806 49.4106 591.512 60.8099 591.455C73.2511 595.041 81.8396 604.456 77.3377 617.892C76.9481 619.043 76.53 620.184 76.0839 621.314C124.908 659.704 169.289 721.13 199.222 775.393C201.774 780.149 204.741 785.394 207.147 790.171L213.222 802.129C219.281 795.262 209.114 793.778 214.816 787.146L216.195 784.989C215.951 783.218 215.642 782.155 215.168 780.419C211.633 760.648 203.729 734.057 197.584 714.739C184.575 673.844 166.938 627.799 146.024 590.328C140.679 592.12 135.79 593.872 130.141 594.265C113.694 595.457 97.7363 586.961 92.9802 570.507C90.3053 561.253 88.9178 551.941 88.9684 542.306C89.0438 527.938 92.0434 520.21 107.032 525.691C98.0376 511.682 111.651 501.744 121.987 521.318ZM166.909 804.154L167.327 804.259C170.734 805.485 174.356 805.992 177.968 805.749C180.328 805.588 182.95 805.272 184.499 803.424C182.515 800.517 179.158 796.636 176.864 793.821C173.768 790.449 169.673 785.225 166.626 781.621C165.863 780.26 161.584 775.199 160.426 773.887L155.745 768.585C153.463 769.195 153.413 769.46 152.699 771.878C151.23 774.514 150.586 776.622 150.302 779.653C147.966 789.443 158.576 800.452 166.909 804.154ZM63.2181 626.613C71.866 624.482 77.1841 615.784 75.1392 607.115C73.0942 598.446 64.4493 593.042 55.7607 595C46.9487 596.986 41.4505 605.781 43.5244 614.573C45.5984 623.365 54.4475 628.775 63.2181 626.613Z"/><path fill="#F9F9F9" fill-opacity="0.29803923" transform="scale(1.20508 1.20508)" d="M150.302 779.653L150.841 780.014C151.073 779.952 151.305 779.89 151.537 779.828C153.944 780.408 155.743 779.346 158.157 778.277C165.058 783.57 159.031 785.321 164.113 789.578C167.311 792.256 167.644 791.876 170.284 795.597C168.41 798.926 167.367 800.33 166.909 804.154C158.576 800.452 147.966 789.443 150.302 779.653Z"/><path fill="#F9F9F9" fill-opacity="0.14117648" transform="scale(1.20508 1.20508)" d="M150.302 779.653C150.586 776.622 151.23 774.514 152.699 771.878C154.456 774.834 152.073 774.377 153.534 776.114C155.925 775.893 158.777 775.563 160.426 773.887C161.584 775.199 165.863 780.26 166.626 781.621C164.242 783.704 164.602 785.076 165.825 787.595C166.695 788.179 166.731 787.971 167.053 788.69C168.495 793.475 176.247 795.769 175.296 798.737C173.666 799.518 173.021 799.472 171.249 799.643C169.098 800.976 169.869 802.69 167.327 804.259L166.909 804.154C167.367 800.33 168.41 798.926 170.284 795.597C167.644 791.876 167.311 792.256 164.113 789.578C159.031 785.321 165.058 783.57 158.157 778.277C155.743 779.346 153.944 780.408 151.537 779.828C151.305 779.89 151.073 779.952 150.841 780.014L150.302 779.653Z"/><defs><linearGradient id="gradient_3" gradientUnits="userSpaceOnUse" x1="175.8647" y1="805.12653" x2="177.26933" y2="796.46259"><stop offset="0" stop-color="white" stop-opacity="0.050980393"/><stop offset="1" stop-color="white" stop-opacity="0.10196079"/></linearGradient></defs><path fill="url(#gradient_3)" transform="scale(1.20508 1.20508)" d="M167.053 788.69C169.228 790.833 171.674 793.757 174.475 794.6C175.767 794.405 175.704 794.425 176.864 793.821C179.158 796.636 182.515 800.517 184.499 803.424C182.95 805.272 180.328 805.588 177.968 805.749C174.356 805.992 170.734 805.485 167.327 804.259C169.869 802.69 169.098 800.976 171.249 799.643C173.021 799.472 173.666 799.518 175.296 798.737C176.247 795.769 168.495 793.475 167.053 788.69Z"/><path fill="#F9F9F9" fill-opacity="0.019607844" transform="scale(1.20508 1.20508)" d="M152.699 771.878C153.413 769.46 153.463 769.195 155.745 768.585L160.426 773.887C158.777 775.563 155.925 775.893 153.534 776.114C152.073 774.377 154.456 774.834 152.699 771.878Z"/><path fill="#A8DEB7" transform="scale(1.20508 1.20508)" d="M126.227 863.991C127.514 865.395 128.476 866.913 130.419 866.901L130.559 866.081C129.326 863.598 127.54 861.431 125.339 859.746C121.375 856.739 111.686 852.33 106.999 850.286C90.0212 842.816 73.1695 836.52 60.4439 822.395C30.0329 788.639 59.7787 732.15 104.593 737.269C123.727 739.455 143.626 753.647 155.745 768.585C153.463 769.195 153.413 769.46 152.699 771.878C151.23 774.514 150.586 776.622 150.302 779.653C147.966 789.443 158.576 800.452 166.909 804.154L167.327 804.259C170.734 805.485 174.356 805.992 177.968 805.749C180.328 805.588 182.95 805.272 184.499 803.424C188.157 807.093 193.368 814.641 196.661 818.911C210.548 836.918 226.219 861.526 234.837 882.643L234.42 883.244C230.417 884.082 204.711 870.217 197.137 868.036C189.801 865.923 187.482 864.503 178.672 863.193L177.104 861.003C154.517 829.706 126.957 800.656 90.8235 785.387C90.1158 785.087 89.9439 785.473 89.3967 785.88C90.2519 788.381 104.165 794.756 107.803 796.957C122.707 806.091 136.253 817.276 148.043 830.182C134.057 824.985 119.654 821.622 104.657 822.014C102.066 822.081 96.7551 822.024 94.6188 823.362L94.4815 824.342C95.5498 825.598 98.6775 824.907 100.506 824.743C115.643 823.238 131.132 827.173 145.411 831.83C156.305 835.383 167.67 851.887 173.861 861.49C171.453 862.787 157.502 862.296 153.187 862.9C142.724 864.364 132.651 870.752 122.353 868.638C123.604 868.438 124.851 868.214 126.093 867.964C126.959 866.563 126.49 866.101 126.227 863.991Z"/><path fill="#A8DEB7" transform="scale(1.20508 1.20508)" d="M247.606 873.926C262.575 850.909 298.225 823.119 325.451 846.441C335.046 854.66 337.55 870.06 331.825 881.41C326.186 883.063 322.604 888.414 313.551 886.651C304.101 884.811 301.295 879.497 295.203 873.164C293.253 871.136 290.469 870.129 288.54 867.322C291.176 865.278 300.476 859.198 301.443 857.22L301.119 856.664C296.796 857.526 288.073 864.481 284.085 867.423C275.882 867.079 269.367 866.745 261.149 868.619C256.985 869.568 250.405 874.134 247.606 873.926Z"/><path fill="#8CCDA1" transform="scale(1.20508 1.20508)" d="M173.861 861.49C179.916 869.784 191.235 888.049 194.743 897.474C172.033 897.449 148.621 897.715 125.969 897.367C123.537 888.88 120.787 882.957 116.079 875.607C117.682 872.83 118.326 873.046 121.476 872.771C121.19 871.573 121.172 871.626 120.682 870.487C119.196 869.031 117.974 869.057 115.818 868.619C118.105 868.46 120.132 868.152 122.353 868.638C132.651 870.752 142.724 864.364 153.187 862.9C157.502 862.296 171.453 862.787 173.861 861.49Z"/><path fill="#8CCDA1" transform="scale(1.20508 1.20508)" d="M178.672 863.193C187.482 864.503 189.801 865.923 197.137 868.036C204.711 870.217 230.417 884.082 234.42 883.244L234.837 882.643C235.505 884.682 235.428 885.478 237.486 886.247C240.674 885.48 244.765 876.909 247.606 873.926C250.405 874.134 256.985 869.568 261.149 868.619C269.367 866.745 275.882 867.079 284.085 867.423C272.583 876.201 264.37 885.672 256.344 897.5L197.693 897.49C192.029 884.1 186.442 875.467 178.672 863.193Z"/><path fill="#8CCDA1" transform="scale(1.20508 1.20508)" d="M288.54 867.322C290.469 870.129 293.253 871.136 295.203 873.164C301.295 879.497 304.101 884.811 313.551 886.651C322.604 888.414 326.186 883.063 331.825 881.41C321.87 899.475 310.422 897.534 292.767 897.548L259.967 897.493C266.423 887.209 278.768 874.429 288.54 867.322Z"/><path fill="#F9F9F9" transform="scale(1.20508 1.20508)" d="M198.745 780.42C197.42 780.32 198.043 780.481 196.929 779.722C194.789 774.774 188.329 766.574 185.173 761.68C180.37 754.239 175.825 746.585 171.607 738.797C169.436 734.789 163.761 727.637 163.667 723.362C173.43 737.079 182.483 751.287 190.791 765.93C193.153 770.081 196.792 776.179 198.745 780.42Z"/><path fill="#F1F1F3" transform="scale(1.20508 1.20508)" d="M213.212 837.613C217.222 839.184 219.44 843.919 221.44 847.588L222.09 847.779C223.566 844.749 221.856 835.949 221.298 832.436L222.225 831.365C225.279 841.048 226.168 851.806 227.256 861.942C223.422 853.5 218.414 845.299 213.212 837.613Z"/><path fill="#F9F9F9" transform="scale(1.20508 1.20508)" d="M216.195 784.989C217.378 791.216 218.659 797.544 219.623 803.8C217.255 806.361 218.324 805.827 215.439 806.664L213.222 802.129C219.281 795.262 209.114 793.778 214.816 787.146L216.195 784.989Z"/><path fill="#F1F1F3" transform="scale(1.20508 1.20508)" d="M228.473 846.691C228.609 844.789 228.305 843.541 229.567 842.453C231.473 840.809 231.394 839.014 233.702 838.258L234.914 838.916C233.213 844.282 231.488 850.238 229.274 855.362C229.028 852.989 228.498 848.932 228.473 846.691Z"/><path fill="#F1F1F3" transform="scale(1.20508 1.20508)" d="M219.623 803.8C220.708 810.105 222.321 818.143 222.719 824.425C220.371 818.473 217.944 812.552 215.439 806.664C218.324 805.827 217.255 806.361 219.623 803.8Z"/><path fill="#A8DEB7" transform="scale(1.20508 1.20508)" d="M112.207 870.724L121.476 872.771C118.326 873.046 117.682 872.83 116.079 875.607C114.731 874.235 113.379 872.292 112.207 870.724Z"/><path fill="#8CCDA1" transform="scale(1.20508 1.20508)" d="M242.684 821.112C244.799 810.47 247.405 799.309 250.242 788.625C256.012 766.897 259.855 735.503 286.526 730.274C293.144 728.977 298.18 730.297 304.037 732.948C339.047 754.975 306.087 802.565 291.376 827.495C290.245 829.411 284.021 838.533 282.836 839.111C262.773 848.909 250.193 864.013 237.624 882.681C235.036 877.242 231.681 870.391 229.553 864.776C234.062 849.878 239.03 836.667 242.684 821.112Z"/><path fill="#A8DEB7" transform="scale(1.20508 1.20508)" d="M242.684 821.112C244.799 810.47 247.405 799.309 250.242 788.625C256.012 766.897 259.855 735.503 286.526 730.274C293.144 728.977 298.18 730.297 304.037 732.948C302.358 740.431 301.703 748.136 298.711 755.278C289.858 776.408 274.991 795.134 258.328 810.685C255.722 813.117 245.819 820.747 242.684 821.112Z"/><path fill="#F4665F" transform="scale(1.20508 1.20508)" d="M122.131 537.867C123.607 530.245 124.161 506.024 137.455 512.002C147.338 516.445 162.368 537.047 166.411 546.572C174.035 567.518 161.772 581.285 142.977 588.531C124.672 595.588 102.586 590.495 95.9161 570.279C95.0911 567.784 94.4892 565.22 94.1174 562.619C92.4334 555.144 90.4171 536.551 93.8768 529.777C98.3888 520.944 117.044 534.725 122.131 537.867Z"/><path fill="#DA5051" transform="scale(1.20508 1.20508)" d="M166.411 546.572C174.035 567.518 161.772 581.285 142.977 588.531C124.672 595.588 102.586 590.495 95.9161 570.279C95.0911 567.784 94.4892 565.22 94.1174 562.619C95.386 563.635 96.6263 565.031 97.9061 566.103C116.759 581.884 144.486 577.762 158.647 557.861C161.274 554.17 163.057 550.387 165.952 547.086L166.411 546.572Z"/><path fill="#F8B482" fill-opacity="0.98823529" transform="scale(1.20508 1.20508)" d="M55.7607 595C64.4493 593.042 73.0942 598.446 75.1392 607.115C77.1841 615.784 71.866 624.482 63.2181 626.613C54.4475 628.775 45.5984 623.365 43.5244 614.573C41.4505 605.781 46.9487 596.986 55.7607 595Z"/><path fill="#F4665F" transform="scale(1.20508 1.20508)" d="M109.52 513.264C115.911 513.937 121.417 525.521 119.874 531.702L119.058 532.118C113.196 528.735 102.239 520.579 109.52 513.264Z"/><path fill="#3B1C35" transform="scale(1.20508 1.20508)" d="M414.075 237.187C408.02 242.794 399.927 243.758 392.848 239.371C388.732 236.855 385.838 232.751 384.848 228.029C381.334 211.777 398.927 198.883 412.943 209.574C416.859 212.575 419.418 217.012 420.054 221.904C420.594 226.057 419.256 230.861 416.528 234.044C414.295 234.216 415.222 233.798 413.618 235.275C413.552 236.563 413.346 236.113 413.839 237.064L414.075 237.187Z"/><path fill="#38040E" transform="scale(1.20508 1.20508)" d="M402.777 898.372C405.483 896.771 415.349 897.314 418.929 897.317C430.043 897.399 441.157 897.375 452.271 897.246L452.246 899.655C440.383 899.474 416.941 900.175 404.3 899.44C403.792 899.084 403.285 898.728 402.777 898.372Z"/><path transform="scale(1.20508 1.20508)" d="M317.733 315.891C320.479 314.765 323.618 315.206 325.947 317.044C328.277 318.882 329.436 321.832 328.981 324.764C328.525 327.696 326.526 330.156 323.749 331.201C319.541 332.784 314.841 330.695 313.197 326.51C311.552 322.326 313.573 317.596 317.733 315.891Z"/><path fill="#F9F9F9" transform="scale(1.20508 1.20508)" d="M318.967 318.337C320.819 317.602 322.925 317.928 324.467 319.189C326.009 320.451 326.747 322.449 326.394 324.41C326.041 326.372 324.652 327.987 322.767 328.631C319.948 329.594 316.875 328.133 315.844 325.338C314.812 322.543 316.199 319.436 318.967 318.337Z"/><path transform="scale(1.20508 1.20508)" d="M195.441 402.644C200.088 404.358 196.339 407.267 198.5 410.763C200.343 413.744 204.971 410.803 206.629 413.689C205.981 415.234 206.489 414.624 204.97 415.51C204.431 415.489 203.892 415.474 203.353 415.465C197.111 415.37 197.87 419.734 197.929 424.494C196.653 424.514 196.726 424.57 195.683 423.852C194.526 421.874 194.326 418.626 193.895 416.185C191.532 415.915 187.452 415.93 186.295 413.673C187.166 412.906 191.877 411.965 193.755 411.267C194.482 410.263 195.056 404.563 195.441 402.644Z"/><path fill="#F1F1F3" transform="scale(1.20508 1.20508)" d="M194.853 411.153C196.483 411.789 197.182 411.915 198.399 413.194C198.656 415.065 198.799 414.127 197.436 416.003C195.696 415.775 195.007 415.715 193.891 414.469C193.695 412.529 193.723 413.176 194.853 411.153Z"/><path transform="scale(1.20508 1.20508)" d="M489.955 162.713C491.914 163.921 492.106 168.496 492.821 171.46C495.239 171.713 497.557 171.677 499.347 173.3L499.123 174.191C497.173 175.43 494.996 175.316 492.609 175.508C491.654 178.877 492.66 182.302 489.517 183.936C488.376 180.652 488.333 179.155 487.984 175.701C484.705 175.288 482.323 175.105 479.189 174.022L478.894 173.393C482.032 171.172 487.672 171.498 488.199 169.336C488.796 166.89 488.24 165.465 489.955 162.713Z"/><path fill="#F9F9F9" transform="scale(1.20508 1.20508)" d="M488.67 171.738C489.632 171.045 490.965 171.205 491.734 172.107C492.503 173.009 492.451 174.35 491.615 175.191C491.01 175.799 490.115 176.015 489.299 175.75C488.483 175.485 487.885 174.784 487.752 173.937C487.62 173.089 487.974 172.239 488.67 171.738Z"/><path fill="#F9F9F9" fill-opacity="0.88235295" transform="scale(1.20508 1.20508)" d="M296.987 716.772C299.942 717.189 309.925 719.994 311.077 722.413C309.906 723.967 310.046 723.527 307.828 724.303C305.861 725.293 304.124 726.326 302.23 727.433C298.1 725.567 296.785 724.045 291.975 722.27C293.735 720.442 295.314 718.668 296.987 716.772Z"/><path fill="#F9F9F9" fill-opacity="0.94117647" transform="scale(1.20508 1.20508)" d="M450.951 894.24C445.794 896.403 412.483 894.444 405.257 893.741L405.751 893.171C410.404 891.247 433.14 891.165 438.377 892.106C435.826 893.545 419.548 891.042 415.54 892.828C419.735 896.209 436.966 893.37 443.084 893.677C445.968 893.822 448.364 894.343 450.951 894.24Z"/><path fill="#F9F9F9" fill-opacity="0.81568629" transform="scale(1.20508 1.20508)" d="M438.377 892.106C442.721 892.328 447.309 891.681 450.929 892.113C451.396 893.416 451.267 892.736 450.951 894.24C448.364 894.343 445.968 893.822 443.084 893.677C436.966 893.37 419.735 896.209 415.54 892.828C419.548 891.042 435.826 893.545 438.377 892.106Z"/><path fill="#F9F9F9" fill-opacity="0.86274511" transform="scale(1.20508 1.20508)" d="M725.491 718.98C726.692 718.951 726.641 719.035 727.711 719.637L727.699 720.348C725.659 722.492 722.026 723.669 719.227 724.63C717.766 724.328 717.849 724.389 716.654 723.511L716.688 722.603C718.142 721.418 723.263 719.82 725.491 718.98Z"/><path fill="#DA5051" transform="scale(1.20508 1.20508)" d="M767.037 338.233C767.68 335.496 767.055 333.393 768.27 330.972L769.244 330.602C772.443 332.81 771.654 335.188 770.733 338.693L767.037 338.233Z"/><path fill="#DA5051" transform="scale(1.20508 1.20508)" d="M770.733 338.693C773.227 338.536 775.348 338.137 777.624 339.014L778.612 340.006L778.442 340.961C776.676 342.079 775.883 342.244 773.786 341.78C773.025 341.612 772.275 341.399 771.539 341.142C771.086 340.271 771.001 339.671 770.733 338.693Z"/><path fill="#DA5051" transform="scale(1.20508 1.20508)" d="M766.442 338.716L767.442 339.351C767.552 340.764 767.564 340.682 767.177 342.044C764.44 342.124 761.958 342.705 759.989 340.587L760.389 339.747C762.327 338.517 764.077 338.768 766.442 338.716Z"/><path fill="#DA5051" transform="scale(1.20508 1.20508)" d="M767.46 342.278L770.401 342.421C770.541 344.945 771.184 348 769.105 349.737L768.202 349.104C767.095 346.867 767.417 344.839 767.46 342.278Z"/><path fill="#F1F1F3" transform="scale(1.20508 1.20508)" d="M766.442 338.716L767.037 338.233L770.733 338.693C771.001 339.671 771.086 340.271 771.539 341.142L770.401 342.421L767.46 342.278L767.177 342.044C767.564 340.682 767.552 340.764 767.442 339.351L766.442 338.716Z"/><path fill="#F9F9F9" fill-opacity="0.96470588" transform="scale(1.20508 1.20508)" d="M936.087 636.614C937.042 638.207 936.822 638.471 938.209 639.095C944.714 635.73 943.183 637.224 948.117 640.461C950.058 641.733 953.632 638.888 956.38 641.468C952.539 660.881 940.127 686.046 930.193 703.098C927.486 707.744 920.01 718.444 918.373 722.807C920.122 725.267 921.07 724.579 921.44 726.646C919.689 727.924 917.946 728.091 916.916 729.88C916.693 731.721 917.662 733.409 918.882 734.732C915.174 735.663 911.467 736.46 907.804 737.579C872.304 748.429 838.827 799.612 819.32 829.622C809.726 844.382 799.932 859.545 791.718 875.121C796.454 857.704 801.101 837.795 807.725 821.097C830.129 764.616 863.29 712.962 904.465 668.325C913.842 658.159 925.409 645.306 936.087 636.614Z"/><defs><linearGradient id="gradient_4" gradientUnits="userSpaceOnUse" x1="50.676483" y1="667.18909" x2="214.68071" y2="767.78302"><stop offset="0" stop-color="#F8F8F8" stop-opacity="0.68235296"/><stop offset="1" stop-color="#F9F9F8" stop-opacity="0.92941177"/></linearGradient></defs><path fill="url(#gradient_4)" transform="scale(1.20508 1.20508)" d="M64.3053 647.688C65.1333 643.983 70.0984 634.191 74.4426 634.961C76.5528 637.08 77.0651 637.805 79.9755 638.275C87.3493 634.186 90.4584 645.324 94.9803 643.458L95.5813 641.839L97.1362 643.451C95.9157 645.007 96.1561 644.176 96.0963 645.921C97.8425 648.726 101.138 654.5 104.488 650.629C110.147 656.368 120.218 666.384 125.001 672.907C123.467 672.001 121.035 670.665 119.677 669.641L119.842 675.221C128.894 682.854 138.518 704.704 150.146 709.547L151.171 709.322L151.601 705.943C153.485 708.503 162.56 720.897 163.667 723.362C163.761 727.637 169.436 734.789 171.607 738.797C175.825 746.585 180.37 754.239 185.173 761.68C188.329 766.574 194.789 774.774 196.929 779.722C198.043 780.481 197.42 780.32 198.745 780.42L199.244 781.199C187.935 781.643 197.947 790.087 198.093 793.135C195.25 793.721 193.874 794.843 191.781 792.875C190.14 795.899 194.822 799.11 194.038 802.064C192.016 802.839 191.316 801.36 189.888 799.834C188.296 800.077 187.934 801.24 187.598 802.744L185.828 800.44C187.104 798.745 186.756 799.659 187.012 797.635L186.286 796.83C184.989 796.565 184.42 796.551 183.278 795.888L184.38 793.972C182.916 790.474 180.318 788.966 177.248 786.865C176.517 786.365 176.262 786.754 174.941 787.147C152.158 762.146 141.037 740.766 103.258 734.302C108.619 728.423 103.05 729.525 102.819 721.072C93.2953 713.683 66.179 660.566 64.3053 647.688Z"/><path fill="#F8B482" fill-opacity="0.94117647" transform="scale(1.20508 1.20508)" d="M952.293 602.981C954.376 599.239 957.343 596.345 961.533 595.108C965.778 593.819 970.362 594.292 974.254 596.421C978.211 598.618 980.367 601.326 982.305 605.341C983.708 610.946 983.693 615.014 980.645 620.125C980.25 620.784 979.843 621.437 979.426 622.082C977.697 623.677 975.833 625.053 973.651 625.959C969.216 627.786 964.232 627.752 959.823 625.865C955.824 624.165 953.334 621.237 951.684 617.312C953.831 614.148 952.755 606.62 952.293 602.981Z"/><path fill="#F9F9F9" fill-opacity="0.3882353" transform="scale(1.20508 1.20508)" d="M202.509 822.424C203.028 821.277 203.117 821.23 203.917 820.237C207.935 819.091 207.557 824.08 210.778 824.865L211.66 823.99C212.634 821.851 211.514 816.825 209.337 815.502C207.917 815.633 207.049 815.871 205.772 815.261C203.018 811.394 207.257 807.929 207.306 804.912C206.379 805.146 205.68 805.383 204.773 805.68C202.053 803.48 203.138 801.174 204.25 798.296C204.914 796.576 205.617 796.696 207.212 796.202C210.516 802.751 218.136 818.08 220.025 825.121C218.475 824.61 218.218 824.362 217.023 823.347C214.926 824.74 216.397 831.327 212.557 832.868C212.042 833.075 211.537 834.305 211.3 834.871L202.509 822.424Z"/><path transform="scale(1.20508 1.20508)" d="M953.048 744.142C977.399 759.502 979.911 796.942 964.624 819.285C956.707 830.855 946.305 839.482 933.567 845.285L932.856 843.081C935.788 840.861 943.087 837.913 947.701 834.15C960.881 823.403 969.982 809.838 971.717 792.689C973.443 775.62 969.243 764.878 958.871 751.861L959.156 751.052C957.463 747.984 955.022 748.095 953.048 744.142Z"/><path fill="#F9F9F9" fill-opacity="0.078431375" transform="scale(1.20508 1.20508)" d="M950.359 623.976L951.304 623.259C953.027 624.036 953.442 624.711 954.693 626.105C955.658 633.654 960.845 633.107 956.38 641.468C953.632 638.888 950.058 641.733 948.117 640.461C943.183 637.224 944.714 635.73 938.209 639.095C936.822 638.471 937.042 638.207 936.087 636.614L943.575 629.618C944.741 630.231 944.692 630.321 945.981 630.294C948.994 628.946 951.314 627.45 950.359 623.976Z"/><path fill="#F9F9F9" fill-opacity="0.63529414" transform="scale(1.20508 1.20508)" d="M78.6506 627.036C83.2419 630.157 91.4376 637.705 95.5813 641.839L94.9803 643.458C90.4584 645.324 87.3493 634.186 79.9755 638.275C77.0651 637.805 76.5528 637.08 74.4426 634.961C70.0984 634.191 65.1333 643.983 64.3053 647.688C64.0142 646.512 63.8617 646.236 63.4 645.104C63.3154 639.406 65.5102 635.137 70.0455 631.403C74.526 627.714 75.5824 631.003 80.0209 631.576L80.7126 630.945C80.6073 629.202 79.7404 628.442 78.6506 627.036Z"/><path fill="#F9F9F9" fill-opacity="0.47058824" transform="scale(1.20508 1.20508)" d="M119.677 669.641C121.035 670.665 123.467 672.001 125.001 672.907C126.562 674.258 126.783 674.492 128.085 676.099L125.69 676.512L125.384 677.079C127.39 680.147 131.096 686.038 134.258 687.947L135.675 688.005L136.9 686.661L138.687 689.087C138.255 689.55 137.331 690.218 137.507 690.839C138.556 694.531 142.462 701.876 146.58 702.664C147.396 701.803 147.211 702.033 147.885 700.968C149.067 702.544 150.499 704.35 151.601 705.943L151.171 709.322L150.146 709.547C138.518 704.704 128.894 682.854 119.842 675.221L119.677 669.641Z"/><path fill="#F9F9F9" fill-opacity="0.63529414" transform="scale(1.20508 1.20508)" d="M199.244 781.199C201.027 783.95 201.525 785.019 202.833 787.973C198.836 786.429 200.618 785.725 197.816 782.953C197.051 784.68 197.155 785.344 197.1 787.206L197.505 787.844L199.285 788.159C202.255 796.89 194.271 796.888 198.037 803.229L199.135 805.065C198.943 807.31 198.866 807.097 196.843 808.894C195.872 811.333 196.478 811.977 196.78 814.509C194.21 811.772 189.988 805.897 187.598 802.744C187.934 801.24 188.296 800.077 189.888 799.834C191.316 801.36 192.016 802.839 194.038 802.064C194.822 799.11 190.14 795.899 191.781 792.875C193.874 794.843 195.25 793.721 198.093 793.135C197.947 790.087 187.935 781.643 199.244 781.199Z"/><path fill="#F9F9F9" fill-opacity="0.46666667" transform="scale(1.20508 1.20508)" d="M206.967 795.652L207.212 796.202C205.617 796.696 204.914 796.576 204.25 798.296C203.138 801.174 202.053 803.48 204.773 805.68C205.68 805.383 206.379 805.146 207.306 804.912C207.257 807.929 203.018 811.394 205.772 815.261C207.049 815.871 207.917 815.633 209.337 815.502C211.514 816.825 212.634 821.851 211.66 823.99L210.778 824.865C207.557 824.08 207.935 819.091 203.917 820.237C203.117 821.23 203.028 821.277 202.509 822.424L200.294 819.286C200.264 816.779 201.291 815.84 200.67 813.747C199.456 813.29 199.442 813.311 198.306 812.676C200.115 807.092 201.966 801.522 203.857 795.966L204.66 795.607C206.053 796.105 205.335 795.949 206.967 795.652Z"/><path fill="#F9F9F9" fill-opacity="0.5411765" transform="scale(1.20508 1.20508)" d="M196.78 814.509C196.478 811.977 195.872 811.333 196.843 808.894C198.866 807.097 198.943 807.31 199.135 805.065L198.037 803.229C194.271 796.888 202.255 796.89 199.285 788.159L197.505 787.844L197.1 787.206C197.155 785.344 197.051 784.68 197.816 782.953C200.618 785.725 198.836 786.429 202.833 787.973C204.311 790.001 205.811 793.329 206.967 795.652C205.335 795.949 206.053 796.105 204.66 795.607L203.857 795.966C201.966 801.522 200.115 807.092 198.306 812.676C199.442 813.311 199.456 813.29 200.67 813.747C201.291 815.84 200.264 816.779 200.294 819.286C198.759 817.425 198.013 816.548 196.78 814.509Z"/><path fill="#F9F9F9" fill-opacity="0.16078432" transform="scale(1.20508 1.20508)" d="M66.2051 628.848C69.9661 627.056 71.4452 626.379 74.3339 623.374L78.6506 627.036C79.7404 628.442 80.6073 629.202 80.7126 630.945L80.0209 631.576C75.5824 631.003 74.526 627.714 70.0455 631.403C65.5102 635.137 63.3154 639.406 63.4 645.104C62.8214 643.588 61.0381 639.777 61.6685 638.78C62.9353 636.777 63.3661 632.055 64.0226 630.461C65.0917 629.954 65.5217 629.827 66.2051 628.848Z"/><path fill="#F9F9F9" fill-opacity="0.43921569" transform="scale(1.20508 1.20508)" d="M220.662 826.436C221.055 827.67 221.96 830.219 222.225 831.365L221.298 832.436C221.856 835.949 223.566 844.749 222.09 847.779L221.44 847.588C219.44 843.919 217.222 839.184 213.212 837.613L212.364 836.508L214.7 836.102C218.702 833.15 219.739 831.33 220.662 826.436Z"/><path transform="scale(1.20508 1.20508)" d="M973.39 592.924C978.439 594.979 981.939 598.145 984.106 603.231C986.298 608.461 986.241 614.363 983.947 619.549C982.473 622.812 980.045 625.609 976.882 627.316C977.811 625.289 978.763 625.55 980.121 623.02L979.426 622.082C979.843 621.437 980.25 620.784 980.645 620.125C983.693 615.014 983.708 610.946 982.305 605.341L982.756 603.753C981.825 597.938 975.425 596.233 973.39 592.924Z"/><path fill="#F9F9F9" fill-opacity="0.27450982" transform="scale(1.20508 1.20508)" d="M211.3 834.871C211.537 834.305 212.042 833.075 212.557 832.868C216.397 831.327 214.926 824.74 217.023 823.347C218.218 824.362 218.475 824.61 220.025 825.121L220.662 826.436C219.739 831.33 218.702 833.15 214.7 836.102L212.364 836.508L211.3 834.871Z"/><path fill="#F9F9F9" fill-opacity="0.29803923" transform="scale(1.20508 1.20508)" d="M138.687 689.087C141.829 692.988 144.895 696.949 147.885 700.968C147.211 702.033 147.396 701.803 146.58 702.664C142.462 701.876 138.556 694.531 137.507 690.839C137.331 690.218 138.255 689.55 138.687 689.087Z"/><path fill="#F9F9F9" fill-opacity="0.34901962" transform="scale(1.20508 1.20508)" d="M136.9 686.661L135.675 688.005L134.258 687.947C131.096 686.038 127.39 680.147 125.384 677.079L125.69 676.512L128.085 676.099C130.924 679.434 134.294 683.208 136.9 686.661Z"/><path fill="#F9F9F9" fill-opacity="0.72156864" transform="scale(1.20508 1.20508)" d="M174.941 787.147C176.262 786.754 176.517 786.365 177.248 786.865C180.318 788.966 182.916 790.474 184.38 793.972L183.278 795.888C184.42 796.551 184.989 796.565 186.286 796.83L187.012 797.635C186.756 799.659 187.104 798.745 185.828 800.44C182.135 796.061 178.506 791.63 174.941 787.147Z"/><path fill="#F9F9F9" fill-opacity="0.66274512" transform="scale(1.20508 1.20508)" d="M97.1362 643.451C99.6295 645.83 102.087 648.154 104.488 650.629C101.138 654.5 97.8425 648.726 96.0963 645.921C96.1561 644.176 95.9157 645.007 97.1362 643.451Z"/><path fill="#F8B482" fill-opacity="0.98823529" transform="scale(1.20508 1.20508)" d="M952.293 602.981C952.755 606.62 953.831 614.148 951.684 617.312C949.579 612.285 950.124 607.843 952.293 602.981Z"/><path fill="#F9F9F9" fill-opacity="0.043137256" transform="scale(1.20508 1.20508)" d="M943.575 629.618L950.359 623.976C951.314 627.45 948.994 628.946 945.981 630.294C944.692 630.321 944.741 630.231 943.575 629.618Z"/></svg>