<?xml version="1.0" encoding="utf-8" ?><svg xmlns="http://www.w3.org/2000/svg" xmlns:xlink="http://www.w3.org/1999/xlink" width="1024" height="1024" viewBox="0 0 1024 1024"><path fill="#57B881" d="M744.832 10.1876C752.28 9.23186 761.275 9.78208 768.505 11.7323C780.748 15.0346 792.3 24.7343 798.475 35.7042C812.697 60.9735 800.47 84.1846 779.273 100.504C770.993 106.878 761.325 111.414 753.894 118.884C748.134 124.673 744.221 131.614 742.043 139.475C739.722 147.853 740.009 156.464 744.521 164.09C747.656 169.388 752.067 172.223 757.984 173.597C790.449 181.132 810.239 135.853 822.006 113.188C825.552 106.357 829.391 99.5485 833.622 93.117C841.49 81.1578 852.656 69.3385 864.892 61.8617C882.799 50.9192 904.262 49.068 924.386 54.1157C945.308 59.3634 964.074 70.2348 975.274 89.2045C983.562 103.24 986.174 119.493 981.92 135.287C974.882 161.418 952.725 179.47 927.018 185.581C913.943 188.689 900.536 189.511 888.668 196.415C880.546 201.139 873.994 208.2 871.617 217.477C869.802 224.559 870.611 233.154 874.567 239.414C877.421 243.93 882.241 247.018 887.209 248.743C907.975 255.955 923.715 244.756 943.307 240.908C952.204 239.149 961.359 239.14 970.259 240.883C985.821 244.058 1002.4 254.072 1011.21 267.494C1018.37 278.406 1021.28 292.407 1018.53 305.217C1016.02 316.92 1009.34 326.02 999.293 332.416C991.638 337.291 983.033 338.807 974.068 338.536C955.839 337.984 941.302 329.562 928.897 316.605C921.422 308.799 915.439 300.357 904.209 297.973C897.611 296.573 889.897 297.017 884.208 300.898C879.089 304.382 875.67 309.857 874.787 315.986C873.867 322.177 875.345 328.977 877.987 334.595C889.992 360.131 919.881 355.589 942.03 363.88C954.025 368.37 965.212 376.503 972.666 386.965C981.442 399.281 984.597 414.332 982.037 429.21C979.115 446.188 968.185 461.914 954.129 471.673C938.028 482.852 917.348 486.076 898.321 482.575C875.582 478.315 855.64 464.786 843.276 445.232C838.562 437.817 835.004 429.701 829.966 422.491C823.865 413.759 814.922 405.479 804.002 403.806C797.036 402.748 789.938 404.544 784.313 408.786C769.395 420.098 783.975 439.929 781.374 454.787C779.165 467.402 767.583 477.663 757.739 484.782C726.083 505.208 678.39 500.748 656.628 467.64C644.982 449.922 652.289 423.73 665.588 409.091C674.582 399.19 684.291 387.605 684.695 373.487C684.885 353.86 666.206 347.548 651.133 356.728C630.295 368.797 633.505 391.455 629.091 411.805C624.379 434.319 608.833 452.97 584.392 453.237C574.93 453.341 564.101 448.371 557.755 441.318C541.277 423.004 540.512 395.187 553.763 374.824C567.233 352.967 591.353 342.257 615.259 335.78C634.599 330.523 650.668 324.567 660.183 305.576C667.95 293.345 657.769 273.557 642.502 275.789C606.741 281.018 598.721 327.36 558.06 328.203C528.952 328.806 512.71 306.249 511.386 278.787C510.636 263.229 517.752 250.608 528.532 239.619C535.809 232.175 544.797 226.627 554.713 223.46C563.668 220.507 572.762 219.443 582.251 220.936C608.264 225.029 637.485 247.894 660.988 224.208C681.802 203.233 651.712 182.122 631.971 179.101C608.953 175.579 589.444 175.244 570.662 158.729C555.669 145.315 546.626 126.49 545.525 106.402C544.345 87.9994 548.49 67.1693 561.535 53.4621C580.682 33.3433 602.051 30.2315 625.141 44.7542C662.732 68.3973 643.414 105.916 672.158 133.549C677.327 138.518 684.868 141.122 692.024 140.476C702.09 139.298 706.929 127.499 706.752 118.663C706.423 102.212 693.862 90.3835 691.904 74.2707C690.002 58.6217 693.657 44.3989 703.683 32.1656C715.297 18.0054 726.976 12.2463 744.832 10.1876Z"/><path fill="#57B881" d="M333.747 569.665C337.167 569.454 340.597 569.456 344.017 569.672C355.026 570.429 366.907 573.984 374.309 582.655C384.671 594.795 383.221 613.582 375.726 626.792C370.454 636.085 362.122 642.197 361.275 653.665C360.971 657.792 361.356 663.087 364.328 666.219C366.459 668.463 369.729 669.474 372.757 669.54C376.402 669.618 380.117 668.417 383.309 666.723C398.877 658.463 401.255 638.313 407.96 623.86C410.446 618.501 413.7 613.49 417.988 609.392C427.075 600.708 439.567 596.634 452.015 596.937C464.205 597.154 475.794 602.272 484.166 611.135C493.285 620.731 498.114 633.62 497.543 646.846C496.568 671.294 479.114 688.84 457.103 696.964C443.065 702.145 427.443 704.118 416.034 714.71C411.534 718.888 408.119 724.461 408.03 730.75C407.967 735.194 409.39 739.257 412.581 742.392C429.166 758.689 449.132 730.155 470.142 729.776C479.734 729.603 488.595 732.916 495.462 739.679C501.435 745.561 505.21 753.644 505.268 762.084C505.341 772.737 500.375 781.983 492.965 789.384C483.519 798.817 471.418 802.175 458.317 800.715C451.976 800.008 445.562 798.599 439.172 798.612C430.546 798.63 421.317 801.858 415.306 808.199C411.069 812.668 408.567 818.02 408.949 824.239C409.292 829.814 411.292 834.261 415.59 837.884C429.833 849.885 441.447 839.041 454.126 832.352C459.781 829.369 466.034 827.077 472.429 826.446C481.52 825.55 490.02 827.783 497.111 833.664C504.723 839.977 508.568 849.013 509.354 858.752C510.071 867.626 507.973 875.921 502.101 882.771C498.396 887.093 493.36 890.248 487.944 891.94C462.647 899.84 446.611 872.708 431.887 874.186C429.11 874.465 426.997 875.908 425.382 878.137C423.037 881.372 422.227 885.165 422.839 889.093C425.445 905.814 439.398 906.485 452.595 910.728C457.977 912.442 463.07 914.957 467.703 918.188C475.667 923.861 480.7 932.057 482.281 941.71C484.56 954.889 481.417 968.429 473.565 979.256C465.295 990.441 451.85 995.786 438.466 997.798C435.647 998.023 432.816 998.074 429.989 997.952C419.349 997.409 408.88 992.6 401.807 984.587C393.33 974.986 391.24 961.438 394.34 949.249C396.181 942.013 399.295 934.734 399.597 927.208C399.801 922.106 398.562 915.924 394.915 912.121C391.852 908.926 386.881 907.417 382.536 907.542C379.124 907.639 375.822 908.839 372.964 910.665C361.376 918.071 363.089 933.792 359.795 945.476C357.713 952.861 354.217 959.609 348.749 965.056C341.265 972.512 331.13 976.099 320.653 976.063C307.743 975.922 295.405 970.717 286.293 961.57C277.729 952.827 273.624 941.709 273.876 929.517C274.072 920.036 277.335 911.323 283.071 903.783C305.342 874.506 342.953 880.196 360.892 862.205C364.845 858.242 366.806 853.352 366.68 847.757C366.612 844.742 365.834 841.382 363.507 839.288C352.577 829.456 336.741 844.784 327.118 849.636C322.467 851.981 317.458 853.525 312.233 853.743C303.936 854.09 294.378 851.043 288.331 845.245C281.963 839.137 277.952 829.91 277.886 821.094C277.821 812.371 280.986 803.647 287.181 797.412C291.151 793.415 296.16 790.723 301.581 789.269C322.043 783.784 332.265 796.785 349.464 796.453C353.713 796.37 358.77 795.435 361.754 792.135C364.252 789.372 365.019 785.145 364.714 781.534C364.305 776.701 361.663 772.301 357.964 769.242C347.214 760.353 332.439 759.85 319.312 762.277C312.514 763.533 305.777 765.552 298.896 766.278C282.358 768.021 266.734 764.875 253.718 754.175C245.579 747.485 239.653 738.941 238.728 728.233C237.916 718.846 241.178 707.954 247.449 700.846C252.109 695.564 259.221 692.966 266.146 692.638C277.341 692.109 288.797 698.132 296.795 705.619C300.48 709.069 303.639 713.093 307.393 716.465C311.813 720.435 317.45 723.609 323.572 723.147C328.077 722.807 332.816 720.351 335.585 716.764C338.66 712.781 339.081 707.618 338.477 702.778C335.635 680.03 316.402 675.817 301.553 663.99C291.538 656.014 285.922 643.839 284.607 631.238C282.968 615.535 287.503 600.708 297.466 588.497C306.84 577.01 319.155 571.137 333.747 569.665Z"/><path fill="#E2E0D4" d="M679.758 768.087C681.893 767.936 684.11 767.728 686.247 767.867C692.909 768.299 699.653 772.065 703.894 777.14C707.215 781.103 709.27 785.971 709.793 791.115C711.771 811.613 689.508 814.937 688.203 833.839C687.971 837.204 687.837 840.678 690.317 843.289C692.733 845.833 695.587 846.851 699.041 846.965C719.073 847.624 716.963 823.678 730.078 811.647C736.143 806.084 743.853 803.439 752.04 803.997C757.613 804.377 763.088 807.332 766.572 811.691C769.524 815.386 771.095 820.638 770.384 825.335C767.708 843.001 745.562 846.959 733.602 855.944C727.76 860.332 722.681 866.621 721.829 874.117C720.947 881.879 725.712 885.224 729.981 890.663C740.066 903.511 718.351 907.235 716.942 922.085C716.477 926.983 718.422 931.717 721.498 935.458C724.948 939.655 730.363 942.173 735.775 942.588C741.078 942.995 746.144 940.326 749.992 936.869C767.897 920.783 745.3 900.001 746.556 881.787C747.093 874 750.218 865.712 756.402 860.644C760.656 857.159 767.342 855.365 772.753 856.042C786.746 857.793 789.54 871.943 796.884 881.199C799.225 884.149 802.401 887.086 806.349 887.379C810.319 887.674 813.546 885.046 816.301 882.525C819.828 879.298 822.569 873.502 822.66 868.745C822.958 853.205 803.355 846.852 794.184 837.415C788.722 831.796 785.737 824.925 785.879 817.036C785.96 809.61 789.028 802.53 794.39 797.392C801.079 790.98 810.301 787.107 819.6 787.326C824.753 787.499 829.786 788.928 834.261 791.49C853.787 802.661 841.452 822.633 854.284 835.514C857.819 839.061 862.2 840.566 867.174 840.372C871.687 840.173 875.908 838.084 878.805 834.618C887.687 824.156 881.272 813.446 880.525 801.921C879.997 793.791 882.338 785.424 887.842 779.294C892.809 773.738 899.827 770.451 907.274 770.19C914.179 769.987 920.86 772.282 925.819 777.162C929.569 780.917 932.067 785.738 932.97 790.967C937.124 814.262 913.258 816.249 913.569 834.007C913.629 837.439 915.088 840.868 917.612 843.222C919.722 845.19 922.862 846.536 925.773 846.376C942.396 845.458 945.467 817.967 954.711 807.486C960.654 800.746 969.267 796.365 978.266 795.876C987.35 795.383 994.917 798.572 1001.59 804.575C1007.57 809.95 1011.33 816.683 1011.73 824.845C1012.06 831.725 1010.25 838.261 1007.33 844.436C993.593 873.423 963.38 858.47 947.185 876.94C944.223 880.318 942.873 884.448 943.32 888.924C944.978 905.512 960.734 902.176 971.853 904.802C976.092 905.786 980.036 907.767 983.356 910.579C989.366 915.659 991.998 921.456 992.465 929.169C993.048 938.826 989.49 948.133 983.097 955.337C976.937 962.278 968.414 966.994 959.057 967.441C948.874 967.927 941.202 963.463 933.876 956.889C919.478 945.94 914.612 920.349 895.734 915.752C892.763 915.028 889.273 915.2 886.673 916.918C883.803 918.814 881.736 921.542 881.148 924.966C877.689 945.095 902.775 946.789 911.377 959.613C915.43 965.681 916.913 973.109 915.5 980.269C913.895 988.153 908.737 995.234 902.002 999.555C895.023 1004.03 886.138 1005.81 878.016 1003.93C873.694 1002.93 869.475 1000.7 866.345 997.537C853.59 984.646 864.213 965.768 857.263 955.592C855.933 953.646 853.983 952.489 851.678 952.095C848.387 951.534 844.361 952.109 841.66 954.178C833.717 960.262 836.563 976.725 835.285 985.738C834.262 992.949 831.421 1001.22 825.293 1005.63C820.812 1008.86 815.018 1009.39 809.704 1008.48C786.04 1004.46 791.419 979.574 780.84 965.035C777.254 960.108 772.799 958.47 767.059 957.473C748.17 965.073 752.845 991.282 738.073 1003.99C730.957 1010.11 721.959 1012.68 712.661 1011.92C703.997 1011.21 694.946 1006.96 689.425 1000.14C683.36 992.639 682.615 982.543 685.316 973.573C686.838 968.52 689.268 963.344 689.752 958.067C690.12 954.05 689.189 949.199 686.411 946.126C684.145 943.62 680.056 941.925 676.692 941.946C659.167 942.056 657.357 970.421 653.146 982.17C651.412 987.006 648.816 991.411 645.269 995.139C639.898 1000.79 633.199 1003.62 625.44 1003.71C616.134 1003.82 606.937 999.562 600.384 993.045C594.015 986.711 590.619 978.552 590.595 969.576C590.576 962.627 592.494 955.537 596.637 949.902C610.705 930.768 633.647 938.714 647.839 923.956C650.771 920.907 653.131 916.526 652.846 912.177C652.66 909.346 651.185 906.889 649.075 905.055C636.392 894.03 617.688 908.44 602.313 909.726C591.861 910.6 580.691 907.143 572.704 900.3C566.327 894.837 562.08 886.963 561.53 878.529C561.067 871.441 563.366 865.347 568.059 860.078C573.427 854.051 580.304 850.136 588.513 849.725C599.658 849.166 609.33 854.803 616.783 862.71C619.974 866.096 622.87 869.817 626.357 872.908C630.437 876.527 636.22 879.616 641.838 879.135C644.993 878.865 648.229 877.258 650.149 874.7C652.506 871.559 653.871 866.009 653.104 862.206C651.995 856.705 648.342 851.171 644.343 847.353C627.723 831.485 610.965 835.523 594.892 824.672C590.69 821.836 587.441 817.871 586.553 812.779C585.638 807.532 586.912 801.704 589.998 797.356C593.659 792.196 599.256 789.735 605.333 788.793C624.693 785.789 638.868 800.533 647.312 816.098C650.178 821.382 653.68 831.192 658.702 834.646C660.068 835.585 661.58 836.037 663.233 835.678C665.495 835.185 667.135 833.378 668.212 831.421C672.854 822.979 668.307 813.258 665.729 805.024C663.154 796.803 662.666 786.154 666.912 778.406C669.742 773.241 674.21 769.814 679.758 768.087ZM806.179 948.479C812.864 946.873 817.67 942.94 821.277 937.097C822.569 935.003 823.284 933.184 823.622 930.75C824.346 925.551 823.806 921.945 820.634 917.691C818.047 914.223 813.667 910.981 809.25 910.477C807.018 910.222 804.752 910.416 802.52 910.583C795.871 912.019 790.488 915.064 786.713 920.896C784.38 924.501 783.647 930.346 784.677 934.496C785.853 939.239 790.029 943.783 794.192 946.173C798.064 948.395 801.824 948.689 806.179 948.479ZM881.191 890.487C884.546 890.597 887.461 890.671 890.704 889.667C896.184 887.381 902.118 883.453 904.435 877.732C905.806 874.346 905.946 871.127 904.406 867.786C902.644 864.054 899.426 861.21 895.505 859.92C892.557 858.918 889.936 858.895 886.856 859.112C882.024 860.478 878.149 862.806 875.555 867.287C872.957 871.773 872.172 876.679 873.613 881.733C874.9 886.25 877.361 888.163 881.191 890.487Z"/><defs><linearGradient id="gradient_0" gradientUnits="userSpaceOnUse" x1="822.8855" y1="927.41492" x2="784.91669" y2="931.15375"><stop offset="0" stop-color="white" stop-opacity="0"/><stop offset="1" stop-color="white" stop-opacity="0.098039217"/></linearGradient></defs><path fill="url(#gradient_0)" d="M802.52 910.583C804.752 910.416 807.018 910.222 809.25 910.477C813.667 910.981 818.047 914.223 820.634 917.691C823.806 921.945 824.346 925.551 823.622 930.75C823.284 933.184 822.569 935.003 821.277 937.097C817.67 942.94 812.864 946.873 806.179 948.479C801.824 948.689 798.064 948.395 794.192 946.173C790.029 943.783 785.853 939.239 784.677 934.496C783.647 930.346 784.38 924.501 786.713 920.896C790.488 915.064 795.871 912.019 802.52 910.583Z"/><path fill="#57B881" d="M97.8014 572.674C102.292 572.217 106.709 572.163 111.189 572.798C123.238 574.505 133.734 580.185 141.051 590.014C149.56 601.444 151.42 617.146 146.886 630.537C144.094 638.78 139.868 646.496 138.69 655.234C137.874 661.282 138.682 668.014 142.653 672.905C144.749 675.488 148.548 677.396 151.846 677.676C155.508 677.988 159.427 676.373 162.258 674.139C176.429 662.949 173.534 642.898 178.862 627.614C181.906 619.041 187.094 611.39 193.932 605.39C202.35 598.055 213.321 594.334 224.464 595.034C234.382 595.732 244.769 600.944 251.204 608.541C259.083 617.842 262.009 630.346 260.973 642.322C259.561 658.627 250.325 671.219 237.188 680.401C230.237 685.26 222.809 689.431 216.313 694.921C207.719 702.183 200.026 711.347 199.131 723.009C196.281 760.164 238.385 756.29 256.114 777.053C260.831 782.577 263.823 790.434 263.132 797.766C262.597 802.978 259.998 807.76 255.915 811.043C252.87 813.445 249.006 814.912 245.099 814.327C231.713 812.322 227.518 795.03 220.956 785.698C217.841 781.269 213.03 776.886 207.487 776.054C204.093 775.545 200.322 776.565 197.632 778.703C194.876 780.894 193.755 784.355 193.544 787.757C193.17 793.803 194.842 800.213 197.291 805.697C209.14 832.227 235.534 830.179 252.877 849.958C261.538 859.835 265.776 871.488 264.87 884.66C264.188 894.572 259.522 903.223 252.025 909.679C245.399 915.384 237.064 918.914 228.21 918.137C212.283 916.739 203.272 900.96 201.163 886.647C200.242 880.398 200.795 873.764 199.522 867.613C198.538 862.856 196.032 857.895 192.782 854.283C189.859 851.036 185.943 848.583 181.472 848.494C177.979 848.424 174.847 849.927 172.397 852.359C149.793 874.798 189.131 909.023 198.43 928.692C202.962 938.277 204.171 947.41 204.239 957.905C203.753 969.249 199.143 978.447 191.004 986.274C179.948 996.904 166.14 1002.41 150.798 1002.06C137.146 1001.75 125.6 996.516 116.29 986.541C103.674 973.025 102.717 954.413 111.103 938.35C115.685 929.573 123.323 921.395 123.431 910.957C123.484 905.827 121.789 900.004 118.045 896.34C116.096 894.433 113.643 893.084 110.853 893.256C93.9481 894.299 86.1979 920.923 77.1751 931.773C71.5617 938.523 64.1604 942.431 55.416 943.23C44.8468 944.138 34.3542 940.777 26.2786 933.898C15.7774 925.101 9.87215 912.296 8.72382 898.756C7.62057 885.747 11.5597 872.06 20.1411 862.117C30.59 850.011 47.3416 846.366 62.7361 848.513C72.3523 849.854 81.3885 852.565 91.2243 851.79C103.295 850.841 115.944 845.575 123.865 836.189C131.013 827.718 135.061 816.303 134.108 805.211C133.4 796.968 129.814 788.948 123.305 783.656C107.966 771.186 85.4124 779.347 67.9869 781.277C53.7851 782.85 37.3437 779.88 26.0521 770.684C15.8248 762.355 9.73122 750.446 8.55227 737.345C7.61399 726.918 10.8289 715.724 17.587 707.66C23.8682 700.164 33.4196 694.814 43.2211 694.013C64.5128 692.273 72.0852 703.919 86.9804 716.25C91.6188 720.09 97.4422 723.785 103.731 723.029C107.489 722.578 111.353 720.617 113.588 717.506C116.369 713.634 116.992 708.433 116.096 703.836C112.005 682.857 88.2483 677.764 73.1405 667.075C61.1328 658.58 51.6353 646.256 49.2462 631.502C47.2025 618.881 49.9098 605.68 57.5377 595.335C67.2059 582.222 81.9881 574.964 97.8014 572.674Z"/><path fill="#E2E0D4" d="M778.246 555.683C783.014 555.566 787.277 556.19 791.624 558.244C798.143 561.323 804.822 567.739 807.104 574.66C814.12 595.931 789.847 602.509 776.677 610.935C770.682 614.771 765.147 619.802 762.065 626.328C759.98 630.74 759.569 635.242 759.566 640.041C759.563 643.309 759.571 646.789 761.026 649.793C764.487 656.937 776.731 658.827 779.556 667.537C780.071 669.127 779.919 670.77 779.072 672.217C775.588 678.165 765.759 678.678 759.687 680.21C749.652 682.742 740.192 690.371 734.933 699.252C731.539 704.985 729.505 712.558 731.295 719.113C734.199 729.752 744.329 734.362 752.952 739.5C759.746 743.548 765.7 749.409 767.524 757.378C769.005 763.85 767.672 769.573 763.998 775.062C760.013 781.014 753.868 785.673 746.705 786.92C741.726 787.787 737.091 786.697 732.744 784.207C713.997 773.468 720.214 753.167 707.238 744.376C704.336 742.41 700.905 741.105 697.527 740.216C680.451 735.726 671.064 751.937 659.774 761.266C651.404 768.182 641.039 773.699 630.252 775.475C612.976 778.319 596.948 775.083 582.67 764.827C571.531 756.826 559.789 743.825 557.679 729.759C556.417 721.348 557.29 711.407 562.61 704.479C567.292 698.383 574.764 695.123 582.261 694.296C601.668 692.154 610.276 706.549 623.733 717.329C628.102 720.583 632.772 722.853 638.337 722.789C643.485 722.73 648.623 720.662 652.148 716.866C655.179 713.601 656.722 709.227 656.413 704.784C655.371 688.66 630.565 679.671 617.569 676.554C602.152 672.857 581.778 673.527 569.304 662.49C564.522 658.259 562.004 652.571 561.702 646.226C561.292 637.604 564.594 629.757 570.455 623.516C575.974 617.64 583.469 614.393 591.492 614.149C606.746 613.685 618.653 622.989 625.784 635.969C628.903 641.645 631.303 648.585 636.261 652.959C639.206 655.556 643.537 656.124 647.318 655.872C651.729 655.578 655.806 653.681 658.682 650.287C660.859 647.718 661.946 644.571 662.605 641.311C665.879 625.107 653.083 613.508 652.213 598.053C651.621 587.519 654.572 578.355 661.689 570.542C667.975 563.64 676.059 559.275 685.521 559.028C692.228 558.852 698.221 561.291 703.101 565.863C708.288 570.723 711.888 576.928 713.052 583.976C717.377 610.157 691.128 627.055 692.387 652.189C692.64 657.244 693.824 662.036 697.796 665.467C700.745 668.013 705.84 668.811 709.611 668.455C713.157 668.121 716.69 666.771 719.604 664.732C733.748 654.833 726.437 631.562 728.015 616.99C729.692 601.51 736.397 585.231 746.623 573.458C754.982 563.834 765.268 556.593 778.246 555.683Z"/><path fill="#E2E0D4" d="M855.231 556.085C863.101 555.743 869.603 556.138 876.395 560.625C880.715 563.479 884.411 567.642 886.642 572.316C895.33 590.516 877.708 599.19 881.463 615.45C882.391 619.47 885.258 623.187 888.838 625.234C890.263 626.048 892.043 625.945 893.558 625.448C895.775 624.721 897.911 622.806 899.462 621.117C910.163 609.462 906.062 593.363 912.717 580.623C917.071 572.288 926.461 563.9 935.532 561.167C941.286 559.433 948.133 559.346 953.467 562.428C959.544 565.94 963.743 573.659 965.563 580.282C966.99 585.476 966.876 591.091 965.62 596.315C958.371 626.471 918.552 628.457 906.76 649.756C904.464 653.903 903.287 659.188 904.72 663.826C905.581 666.613 907.308 668.497 909.886 669.817C913.662 671.751 917.632 671.647 921.606 670.385C931.602 667.212 933.825 660.186 938.231 651.78C943.017 642.649 950.195 635.572 960.171 632.493C968.201 630.015 977.762 629.681 985.271 633.883C991.032 637.107 994.864 642.421 996.653 648.701C999.091 657.259 998.136 667.568 993.695 675.325C987.764 685.687 974.201 693.204 962.251 689.52C952.85 686.622 946.76 678.72 935.766 681.986C931.984 683.11 929.119 685.804 927.253 689.23C925.811 691.878 924.843 695.112 925.885 698.072C928.733 706.161 940.532 707.576 947.236 710.726C952.745 713.313 956.506 717.736 958.582 723.431C961.057 730.222 961.379 738.323 958.153 744.902C955.015 751.304 948.788 756.747 941.995 758.961C935.431 761.1 928.445 760.41 922.295 757.366C904.604 748.609 910.714 734.886 905.52 720.368C904.199 716.676 902.272 714.245 898.691 712.596C898.523 712.519 898.353 712.446 898.184 712.37C896.04 711.967 893.834 712.03 891.716 712.555C876.172 716.548 883.609 737.871 883.27 748.729C883.061 755.395 880.838 762.383 877.268 768.005C873.847 773.394 869.008 777.552 862.632 778.868C854.819 780.48 846.526 778.405 840.015 773.936C833.498 769.462 827.151 762.391 825.816 754.385C825.185 750.381 825.652 746.281 827.17 742.522C832.667 729.001 847.963 729.553 855.551 718.618L855.913 718.086C856.084 715.172 856.393 711.992 855.99 709.1C855.312 704.243 852.992 700.082 849.054 697.131C832.617 684.815 812.804 701.452 800.941 712.424C793.063 719.711 784.392 731.4 773.048 732.973C768.377 733.646 763.638 732.341 759.97 729.372C756.181 726.332 754.076 721.746 753.709 716.948C753.139 709.487 757.394 701.558 762.23 696.117C769.838 687.559 782.646 682.609 793.882 681.814C798.73 681.471 803.61 681.93 808.457 681.597C811.45 681.391 816.688 680.845 818.595 678.336C819.503 677.141 819.817 675.212 819.51 673.767C818.124 667.243 799.604 661.438 793.485 657.049C788.411 653.41 783.38 648.156 782.518 641.729C781.792 636.309 783.487 630.258 786.766 625.957C790.873 620.568 796.785 616.913 803.56 616.113C815.729 614.677 828.205 623.179 832.813 634.319C836.99 644.414 834.868 654.613 844.646 662.074C848.467 664.99 853.307 666.648 858.128 665.867C861.228 665.365 863.792 663.758 865.536 661.138C867.723 657.855 868.436 653.32 868.255 649.447C867.102 624.701 833.046 621.518 827.558 594.386C825.88 586.091 826.93 576.743 831.766 569.639C837.317 561.486 845.893 557.917 855.231 556.085Z"/><path fill="#E2E0D4" d="M994.65 704.111C996.965 703.882 999.477 703.685 1001.79 703.996C1006.88 704.678 1011.96 707.896 1014.91 712.05C1018.31 716.825 1020.22 724.419 1019.15 730.174C1016.27 745.804 1000.06 746.569 991.911 757.145C984.65 766.571 986.793 774.852 975.158 782.63C970.218 784.972 963.892 785.38 958.716 783.519C956.228 782.624 953.909 781.041 952.807 778.554C947.857 767.373 966.146 760.881 971.429 753.759C980.31 741.786 976.844 727.402 981.927 715.653C984.491 709.727 988.853 706.471 994.65 704.111Z"/><path fill="#E2E0D4" d="M603.108 552.593C604.072 552.52 605.038 552.485 606.005 552.488C612.862 552.552 619.399 555.399 624.117 560.376C634.709 571.545 633.152 582.083 636.775 595.649C637.956 600.07 641.733 604.373 641.43 609.052C641.29 611.217 640.504 614.304 638.561 615.563C637.295 616.383 635.692 616.268 634.341 615.752C630.414 614.253 629.366 611.278 627.773 607.732C619.336 592.81 602.969 600.367 590.857 593.395C586.169 590.696 583.199 586.131 581.963 580.931C580.595 575.176 580.877 568.978 584.124 563.877C588.291 557.33 595.774 554.063 603.108 552.593Z"/><path fill="#57B881" d="M72.5389 794.7C81.2923 794.734 90.7188 797.041 98.5598 800.91C102.447 802.828 106.519 805.685 107.821 810.046C108.702 812.995 108.076 816.035 106.521 818.64C102.045 826.138 92.328 830.386 84.2742 832.586L83.8094 832.671C74.1942 834.382 62.9819 832.748 54.9433 826.887C51.5405 824.406 48.7103 820.837 48.1631 816.556C47.6185 812.296 49.2893 808.074 51.903 804.766C57.1432 798.135 64.3946 795.498 72.5389 794.7Z"/><path fill="#57B881" d="M815.759 454.093C818.956 454.319 821.53 454.986 824.02 457.084C830.003 462.125 832.747 471.218 833.429 478.789C834.092 486.143 833.08 494.835 828.035 500.56C823.393 505.828 817.046 506.735 810.458 507.19C807.26 507.129 804.393 506.631 801.568 505.044C797.162 502.57 794.522 498.462 793.287 493.634C791.134 485.222 793.901 477.078 798.097 469.825C802.169 462.788 807.619 456.256 815.759 454.093Z"/><path fill="#E2E0D4" fill-opacity="0.90588236" d="M813.562 720.599C815.645 720.482 818.121 720.401 819.756 721.948C820.64 722.785 821.187 724.338 821.086 725.567C820.85 728.434 817.732 730.144 815.672 731.76C805.396 739.823 810.678 750.045 809.144 760.881C808.569 764.941 806.792 769.126 803.31 771.514C799.315 774.255 793.914 774.17 789.35 773.298C785.985 771.755 782.962 769.178 781.246 765.854C779.284 762.052 779.656 757.4 781.101 753.495C784.149 745.258 792.061 740.409 798.07 734.532C803.256 729.462 806.661 723.649 813.562 720.599ZM815.86 727.863C816.724 727.194 817.401 726.625 817.527 725.466C817.586 724.929 817.515 724.241 817.11 723.838C816.031 722.765 813.983 722.734 812.582 722.679C812.049 723.602 810.954 725.288 811.272 726.467C811.408 726.97 811.776 727.291 812.239 727.5C813.116 727.895 814.126 727.834 815.062 727.845L815.86 727.863Z"/><path fill="#E2E0D4" fill-opacity="0.59215689" d="M812.582 722.679C813.983 722.734 816.031 722.765 817.11 723.838C817.515 724.241 817.586 724.929 817.527 725.466C817.401 726.625 816.724 727.194 815.86 727.863L815.062 727.845C814.126 727.834 813.116 727.895 812.239 727.5C811.776 727.291 811.408 726.97 811.272 726.467C810.954 725.288 812.049 723.602 812.582 722.679Z"/><path fill="#E2E0D4" d="M178.565 0L190.776 0C190.908 0.167879 191.04 0.335758 191.173 0.503636C214.335 10.0577 232.329 11.3348 245.211 36.1939C249.112 43.6468 251.537 51.7834 252.351 60.1563C252.964 65.7476 253.121 71.3796 252.818 76.9964C251.803 93.8671 240.963 144.785 275.165 142.613C280.511 142.273 285.672 137.781 288.607 133.76C299.838 118.664 292.9 103.477 294.551 86.9847C298.061 51.9087 315.483 21.9036 352.559 16.0823C368.679 13.626 384.866 15.6732 398.301 25.6477C410.339 34.5853 417.751 44.5093 420.431 59.3631C426.575 91.8586 403.004 114.527 375.522 126.719C360.504 133.381 339.937 132.911 330.541 148.239C317.555 169.425 342.417 179.264 359.807 175.079C379.364 170.373 390.944 156.412 411.514 158.814C418.173 159.62 424.549 161.984 430.123 165.714C450.161 178.922 452.429 199.752 439.2 218.985C430.549 231.562 416.027 239.482 401.065 241.85C387.149 243.969 372.917 241.923 360.161 235.971C349.926 231.152 342.909 224.734 333.547 218.991C293.443 194.388 256.189 251.059 262.678 286.675C268.326 317.677 292.775 342.742 324.444 346.008C343.246 347.948 358.869 339.829 376.316 334.513C430.191 319.051 486.423 361.709 494.348 415.416C497.424 436.843 494.15 458.192 478.643 474.123C447.931 505.183 414.024 490.302 391.984 458.556C385.492 449.767 382.569 439.097 377.237 429.769C362.934 404.827 339.439 377.26 307.788 379.328C304.172 379.606 299.267 381.965 297.197 384.865C287.124 398.977 300.037 416.226 313.573 422.227C332.406 430.575 351.298 438.294 356.016 461.323C364.964 504.991 314.888 524.459 282.639 501.21C268.58 491.281 262.174 479.655 266.346 462.007C270.257 445.46 278.16 419.675 249.697 422.752C235.406 424.297 232.263 440.56 229.756 452.102C225.462 474.787 217.271 503.553 191.139 509.109C180.945 511.331 170.285 509.358 161.561 503.634C153.243 498.115 148.413 489.474 146.54 479.916C142.021 457.239 158.701 439.359 176.566 428.324C182.24 424.819 189.182 420.968 195.292 417.77C208.126 411.051 224.439 395.49 206.727 383.23C200.845 379.158 192.682 379.302 185.911 381.019C161.555 388.553 139.107 406.658 125.651 428.276C110.515 452.595 102.345 481.897 71.337 490.209C42.9092 497.83 15.7622 481.045 4.38841 454.809C2.98499 451.572 2.3734 446.425 0 443.807L0 415.439C1.23345 415.138 5.12316 401.898 6.04064 399.392C14.4645 376.353 30.89 357.111 52.3206 345.175C74.5795 332.992 100.438 331.694 124.09 340.486C133.416 343.953 142.287 348.783 151.882 351.497C167.489 355.912 181.962 353.02 195.936 345.129C211.681 336.236 226.593 319.859 231.403 302.148C235.053 288.71 234.032 274.852 226.975 262.716C220.961 252.374 211.803 243.6 201.765 237.198C160.904 211.134 140.297 237.702 100.565 226.985C84.8337 222.742 70.3472 213.276 62.2248 198.896C54.1952 184.681 52.7061 166.818 57.174 151.22C60.591 139.497 68.5714 129.636 79.3247 123.85C106.953 108.794 136.774 118.713 155.395 142.455C167.416 157.926 174.555 179.878 195.015 186.427C205.662 190.24 216.561 182.604 218.91 171.955C224.15 148.201 202.299 122.488 183.171 111.571C163.626 100.416 141.416 96.8882 129.131 75.777C112.045 46.2054 135.132 15.9982 163.321 5.4672C166.726 4.19539 176.088 1.62902 178.565 0Z"/></svg>