<?xml version="1.0" encoding="utf-8" ?><svg xmlns="http://www.w3.org/2000/svg" xmlns:xlink="http://www.w3.org/1999/xlink" width="1024" height="1024" viewBox="0 0 1024 1024"><path fill="#FEFEFE" d="M577.215 222.553C581.277 215.245 588.589 213.005 595.929 217.224C599.437 219.207 602.006 222.512 603.061 226.401C605.684 236.202 599.428 241.417 590.453 242.764C589.328 243.946 588.17 245.093 587.169 246.376C585.796 248.172 582.92 252.11 581.423 253.539C590.729 260.041 587.829 263.433 586.01 273.441C587.867 275.653 588.591 276.065 588.877 278.764L587.809 283.928C593.511 287.534 597.068 289.678 601.898 294.482L602.19 298.033L603.873 300.739L606.323 301.391C603.572 308.66 595.965 307.002 589.372 307.092C590.933 309.549 592.669 312.134 594.006 314.699C628.12 356.474 612.559 426.054 584.795 467.252C575.301 481.339 570.562 489.973 552.114 489.855C549.276 489.969 546.119 489.919 543.252 489.928C518.39 490.447 492.274 490.076 467.327 490.022C463.356 489.983 455.335 489.685 451.897 488.222C435.693 481.329 421.606 449.627 414.94 434.435C410.804 423.291 407.323 412.734 405.54 400.958C399.81 363.125 403.317 342.354 425.345 311.224C422.034 309.355 412.995 304.935 412.285 301.502C410.945 295.022 424.972 286.347 429.936 284.77L430.281 283.796C427.833 279.394 426.403 276.677 431.295 273.585C431.249 272.25 430.075 269.123 429.822 267.432C428.812 260.671 429.112 257.766 435.004 253.685C446.183 252.46 454.326 252.84 465.265 252.692C486.512 252.406 507.559 253.083 528.786 253.046C538.373 253.029 549.505 253.423 558.947 252.402C563.794 246.875 572.126 237.669 576.038 231.837C576.014 227.89 576.161 226.263 577.215 222.553ZM603.324 384.146C603.747 377.178 603.757 369.268 603.002 362.371C601.887 354.064 600.336 345.602 596.065 338.235C558.96 350.478 531.88 342.315 494.951 337.111C473.748 334.124 439.633 333.476 419.519 340.707C407.064 373.036 413.753 406.462 427.106 437.339C432.606 449.659 439.552 461.681 447.943 472.252C451.162 476.308 457.227 480.123 462.979 479.847C484.767 478.799 544.095 482.268 561.476 478.138C573.345 475.317 592.59 431.62 596.729 418.113C600.145 407.061 602.356 395.673 603.324 384.146Z"/><path fill="#FEFEFE" d="M577.215 222.553C581.277 215.245 588.589 213.005 595.929 217.224C599.437 219.207 602.006 222.512 603.061 226.401C605.684 236.202 599.428 241.417 590.453 242.764C589.328 243.946 588.17 245.093 587.169 246.376C585.796 248.172 582.92 252.11 581.423 253.539C590.729 260.041 587.829 263.433 586.01 273.441C587.867 275.653 588.591 276.065 588.877 278.764L587.809 283.928C593.511 287.534 597.068 289.678 601.898 294.482L602.19 298.033C601.298 297.034 600.379 296.06 599.433 295.112C588.283 284.079 583.002 284.252 568.796 284.432L565.972 284.555C561.157 284.367 556.131 284.088 551.327 284.114C517.748 284.291 484.212 284.023 450.628 284.424C445.276 291.306 441.23 295.901 433.78 300.563C437.455 295.163 443.299 289.681 447.645 284.416C443.848 284.374 434.826 284.006 431.608 284.995L431.434 284.922C430.371 285.079 430.868 285.148 429.936 284.77L430.281 283.796C427.833 279.394 426.403 276.677 431.295 273.585C431.249 272.25 430.075 269.123 429.822 267.432C428.812 260.671 429.112 257.766 435.004 253.685C446.183 252.46 454.326 252.84 465.265 252.692C486.512 252.406 507.559 253.083 528.786 253.046C538.373 253.029 549.505 253.423 558.947 252.402C563.794 246.875 572.126 237.669 576.038 231.837C576.014 227.89 576.161 226.263 577.215 222.553Z"/><defs><linearGradient id="gradient_0" gradientUnits="userSpaceOnUse" x1="514.88519" y1="299.64807" x2="516.07361" y2="256.00345"><stop offset="0" stop-color="#271126"/><stop offset="1" stop-color="#6E3559"/></linearGradient></defs><path fill="url(#gradient_0)" d="M431.295 273.585L431.936 274.032C433.449 270.154 422.591 252.582 443.514 254.453C430.919 256.61 428.817 261.233 433.99 273.039L551.923 273.013C562.26 272.992 572.643 273.332 582.964 272.877C583.522 272.852 584.384 271.147 584.588 270.701C585.749 274.87 586.046 275.466 588.877 278.764L587.809 283.928C593.511 287.534 597.068 289.678 601.898 294.482L602.19 298.033C601.298 297.034 600.379 296.06 599.433 295.112C588.283 284.079 583.002 284.252 568.796 284.432L565.972 284.555C561.157 284.367 556.131 284.088 551.327 284.114C517.748 284.291 484.212 284.023 450.628 284.424C445.276 291.306 441.23 295.901 433.78 300.563C437.455 295.163 443.299 289.681 447.645 284.416C443.848 284.374 434.826 284.006 431.608 284.995L431.434 284.922C430.371 285.079 430.868 285.148 429.936 284.77L430.281 283.796C427.833 279.394 426.403 276.677 431.295 273.585Z"/><path fill="#8B4B6F" d="M463.676 275.275C473.379 274.53 486.537 274.794 496.327 274.743C514.637 274.648 532.901 274.55 551.193 275.346C561.477 275.794 572.558 275.314 582.897 275.612C584.196 275.649 584.937 276.018 585.962 276.8C586.669 278.742 586.653 277.801 586.105 279.719C584.894 280.937 583.248 281.816 581.573 281.919C572.351 282.491 562.073 282.278 552.8 282.47L472.904 282.319C465.177 282.295 433.426 284.794 430.08 278.318L430.399 277.379C435.228 274.42 456.376 275.432 463.676 275.275Z"/><path fill="#F4CFB1" d="M589.048 217.188C595.176 218.702 597.227 219.579 600.808 225.212C603.368 235.778 598.422 238.752 589.118 241.148C587.545 242.888 586.424 244.218 585 246.08L579.733 252.473L567.367 252.48C565.629 252.526 563.796 252.418 562.048 252.349C567.529 246.049 573.238 238.849 578.608 232.366C578.27 228.689 578.11 228.337 578.713 224.61C580.593 220.897 582.168 219.368 586.197 218.026C587.136 217.71 588.087 217.431 589.048 217.188Z"/><path fill="#F2B044" d="M600.808 225.212C603.368 235.778 598.422 238.752 589.118 241.148C587.545 242.888 586.424 244.218 585 246.08L579.733 252.473L567.367 252.48C574.662 251.092 596.34 231.839 600.808 225.212Z"/><path fill="#3C2031" d="M577.215 222.553C581.277 215.245 588.589 213.005 595.929 217.224C599.437 219.207 602.006 222.512 603.061 226.401C605.684 236.202 599.428 241.417 590.453 242.764C589.328 243.946 588.17 245.093 587.169 246.376L585 246.08C586.424 244.218 587.545 242.888 589.118 241.148C598.422 238.752 603.368 235.778 600.808 225.212C597.227 219.579 595.176 218.702 589.048 217.188C588.087 217.431 587.136 217.71 586.197 218.026C582.168 219.368 580.593 220.897 578.713 224.61C578.11 228.337 578.27 228.689 578.608 232.366C573.238 238.849 567.529 246.049 562.048 252.349L560.624 254.689C521.893 253.626 482.039 255.49 443.514 254.453C422.591 252.582 433.449 270.154 431.936 274.032L431.295 273.585C431.249 272.25 430.075 269.123 429.822 267.432C428.812 260.671 429.112 257.766 435.004 253.685C446.183 252.46 454.326 252.84 465.265 252.692C486.512 252.406 507.559 253.083 528.786 253.046C538.373 253.029 549.505 253.423 558.947 252.402C563.794 246.875 572.126 237.669 576.038 231.837C576.014 227.89 576.161 226.263 577.215 222.553Z"/><path fill="#472135" d="M579.733 252.473L585 246.08L587.169 246.376C585.796 248.172 582.92 252.11 581.423 253.539C580.039 254.787 579.098 254.253 577.539 255.298C572.005 254.953 566.185 254.862 560.624 254.689L562.048 252.349C563.796 252.418 565.629 252.526 567.367 252.48L579.733 252.473Z"/><path fill="#3C2031" d="M577.539 255.298C579.098 254.253 580.039 254.787 581.423 253.539C590.729 260.041 587.829 263.433 586.01 273.441C587.867 275.653 588.591 276.065 588.877 278.764C586.046 275.466 585.749 274.87 584.588 270.701C586.172 263.311 587.27 255.966 577.539 255.298Z"/><path fill="#FEFEFE" d="M450.628 284.424C484.212 284.023 517.748 284.291 551.327 284.114C556.131 284.088 561.157 284.367 565.972 284.555L568.796 284.432C583.002 284.252 588.283 284.079 599.433 295.112C600.379 296.06 601.298 297.034 602.19 298.033L603.873 300.739C601.621 307.556 592.846 302.368 586.035 306.878C578.051 312.544 575.991 319.696 563.987 317.936C550.838 316.009 540.446 299.014 526.861 308.992C516.262 316.692 513.128 322.511 498.807 320.376C489.031 318.918 477.467 307.823 469.349 307.433C448.575 306.434 450.69 324.427 425.969 309.218C423.411 307.265 419.884 305.931 417.295 304.14C406.651 296.776 429.78 289.123 431.608 284.995C434.826 284.006 443.848 284.374 447.645 284.416C443.299 289.681 437.455 295.163 433.78 300.563C441.23 295.901 445.276 291.306 450.628 284.424Z"/><path fill="#3C2031" d="M565.972 284.555L568.796 284.432C572.953 289.643 578.55 293.853 582.104 299.387L580.457 298.458C574.108 294.892 570.453 290.194 565.972 284.555Z"/><path fill="#3C2031" d="M482.099 287.312C482.864 287.972 482.524 287.603 482.885 288.732C481.679 293.346 475.776 301.321 472.757 305.134C472.256 304.594 472.376 304.564 472.121 303.769C473.19 299.267 479.25 291.201 482.099 287.312Z"/><path fill="#3C2031" d="M603.873 300.739L606.323 301.391C603.572 308.66 595.965 307.002 589.372 307.092C590.933 309.549 592.669 312.134 594.006 314.699C628.12 356.474 612.559 426.054 584.795 467.252C575.301 481.339 570.562 489.973 552.114 489.855L552.384 488.956C555.881 488.501 559.056 488.584 562.747 488.079L562.685 487.751L559.351 487.492C560.684 487.229 563.632 486.644 564.712 486.038C580.318 477.284 595.933 445.258 601.769 429C611.19 402.753 615.374 371.19 607.301 344.452C604.133 333.958 602.343 332.708 598.24 324.009C598.526 321.965 595.003 317.569 593.701 315.703C591.42 312.625 590.318 309.857 588.208 306.947L586.035 306.878C592.846 302.368 601.621 307.556 603.873 300.739Z"/><path fill="#472135" d="M425.969 309.218C450.69 324.427 448.575 306.434 469.349 307.433C477.467 307.823 489.031 318.918 498.807 320.376C513.128 322.511 516.262 316.692 526.861 308.992C540.446 299.014 550.838 316.009 563.987 317.936C575.991 319.696 578.051 312.544 586.035 306.878L588.208 306.947C590.318 309.857 591.42 312.625 593.701 315.703C595.003 317.569 598.526 321.965 598.24 324.009C595.622 321.083 589.808 312.067 587.435 308.561C583.867 311.037 580.468 315.72 577.428 317.586C561.86 327.137 549.56 310.635 534.453 307.772C520.207 313.283 518.365 323.893 500.951 323.026C489.032 322.432 476.576 309.12 467.279 309.723C451.981 310.716 444.587 324.918 427.331 312.687C426.877 311.511 425.286 311.747 425.969 309.218Z"/><path fill="#3C2031" d="M429.936 284.77C430.868 285.148 430.371 285.079 431.434 284.922L431.608 284.995C429.78 289.123 406.651 296.776 417.295 304.14C419.884 305.931 423.411 307.265 425.969 309.218C425.286 311.747 426.877 311.511 427.331 312.687C398.36 351.146 400.696 386.814 415.498 430.264L414.94 434.435C410.804 423.291 407.323 412.734 405.54 400.958C399.81 363.125 403.317 342.354 425.345 311.224C422.034 309.355 412.995 304.935 412.285 301.502C410.945 295.022 424.972 286.347 429.936 284.77Z"/><path fill="#472135" d="M415.498 430.264C422.331 447.099 435.439 476.469 452.114 486.327C454.94 487.997 464.566 487.536 466.86 488.362L467.327 490.022C463.356 489.983 455.335 489.685 451.897 488.222C435.693 481.329 421.606 449.627 414.94 434.435L415.498 430.264Z"/><path fill="#13050E" d="M466.86 488.362C490.442 487.987 519.4 487.655 542.984 488.494L547.225 489.056C545.831 489.741 544.844 489.706 543.252 489.928C518.39 490.447 492.274 490.076 467.327 490.022L466.86 488.362Z"/><path fill="#37182B" d="M542.984 488.494C548.443 488.208 553.898 487.874 559.351 487.492L562.685 487.751L562.747 488.079C559.056 488.584 555.881 488.501 552.384 488.956L552.114 489.855C549.276 489.969 546.119 489.919 543.252 489.928C544.844 489.706 545.831 489.741 547.225 489.056L542.984 488.494Z"/><path fill="#F2B044" d="M419.519 340.707C439.633 333.476 473.748 334.124 494.951 337.111C531.88 342.315 558.96 350.478 596.065 338.235C600.336 345.602 601.887 354.064 603.002 362.371C603.757 369.268 603.747 377.178 603.324 384.146C602.356 395.673 600.145 407.061 596.729 418.113C592.59 431.62 573.345 475.317 561.476 478.138C544.095 482.268 484.767 478.799 462.979 479.847C457.227 480.123 451.162 476.308 447.943 472.252C439.552 461.681 432.606 449.659 427.106 437.339C413.753 406.462 407.064 373.036 419.519 340.707ZM470.578 371.344C455.798 372.08 455.951 376.661 455.812 390.4C455.75 396.491 455.654 402.975 456.041 409.036C459.317 429.808 465.901 417.573 472.642 425.534C479.599 431.09 489.196 432.249 498.146 432.51C510.027 432.856 526.029 433.518 537.281 429.68C540.364 428.628 544.063 425.406 546.457 423.227C554.851 422.043 558.79 422.218 561 413.149C561.329 404.212 562.715 381.064 557.595 374.387C555.074 371.099 549.774 371.332 545.818 371.051C540.629 365.509 539.347 364.981 531.979 362.955C516.076 360.289 495.191 358.995 479.696 364.176C475.015 366.576 474.087 367.33 470.578 371.344Z"/><path fill="#E89E37" d="M585.081 344.133C588.782 343.121 591.405 342.394 594.966 341.007C597.478 346.435 598.695 350.038 600.007 355.939C600.166 356.654 601.245 361.786 601.364 362.058L603.002 362.371C603.757 369.268 603.747 377.178 603.324 384.146L602.694 384.471C602.05 382.725 602.022 379.769 601.899 377.811C599.199 406.772 594.436 424.134 580.825 449.881C563.593 482.475 559.834 478.151 525.775 478.417C510.412 478.598 495.046 478.501 479.686 478.126C468.876 477.828 455.281 479.931 449.132 469.969C448.895 469.627 448.657 469.284 448.419 468.942C452.644 469.417 459.722 469.137 464.12 469.171C485.957 469.336 509.654 465.986 529.247 455.777C553.841 442.962 571.569 420.514 579.931 394.187C582.788 385.193 589.071 351.797 585.081 344.133Z"/><path fill="#13050E" d="M601.364 362.058L603.002 362.371C603.757 369.268 603.747 377.178 603.324 384.146L602.694 384.471C602.05 382.725 602.022 379.769 601.899 377.811C602.159 372.574 601.698 367.296 601.364 362.058Z"/><path fill="#37182B" d="M419.519 340.707C439.633 333.476 473.748 334.124 494.951 337.111C531.88 342.315 558.96 350.478 596.065 338.235C600.336 345.602 601.887 354.064 603.002 362.371L601.364 362.058C601.245 361.786 600.166 356.654 600.007 355.939C598.695 350.038 597.478 346.435 594.966 341.007C591.405 342.394 588.782 343.121 585.081 344.133C545.816 351.434 517.509 341.137 478.884 337.595C459.437 335.812 440.396 337.658 421.453 342.257C405.056 381.49 423.363 436.456 448.419 468.942C448.657 469.284 448.895 469.627 449.132 469.969C455.281 479.931 468.876 477.828 479.686 478.126C495.046 478.501 510.412 478.598 525.775 478.417C559.834 478.151 563.593 482.475 580.825 449.881C594.436 424.134 599.199 406.772 601.899 377.811C602.022 379.769 602.05 382.725 602.694 384.471L603.324 384.146C602.356 395.673 600.145 407.061 596.729 418.113C592.59 431.62 573.345 475.317 561.476 478.138C544.095 482.268 484.767 478.799 462.979 479.847C457.227 480.123 451.162 476.308 447.943 472.252C439.552 461.681 432.606 449.659 427.106 437.339C413.753 406.462 407.064 373.036 419.519 340.707Z"/><path fill="#3C2031" d="M562.47 413.227C560.996 423.48 557.274 424.427 547.47 425.375C545.108 427.385 541.193 430.823 538.165 431.763C523.631 436.277 506.052 434.94 491.026 434.377C483.995 434.114 475.482 431.42 470.994 426.251L472.642 425.534C479.599 431.09 489.196 432.249 498.146 432.51C510.027 432.856 526.029 433.518 537.281 429.68C540.364 428.628 544.063 425.406 546.457 423.227C554.851 422.043 558.79 422.218 561 413.149L562.47 413.227Z"/><path fill="#37182B" d="M536.529 362.081C541.139 363.499 544.107 366.034 547.379 369.487C562.165 369.709 562.98 376.644 562.98 389.77C562.98 394.319 562.977 398.988 562.86 403.554C562.768 406.78 562.638 410.005 562.47 413.227L561 413.149C561.329 404.212 562.715 381.064 557.595 374.387C555.074 371.099 549.774 371.332 545.818 371.051C540.629 365.509 539.347 364.981 531.979 362.955L532.131 362.285C533.876 362.767 534.084 362.907 535.935 362.914L536.529 362.081Z"/><path fill="#13050E" d="M468.963 369.463C472.629 365.937 474.495 364.79 478.88 362.443L479.696 364.176C475.015 366.576 474.087 367.33 470.578 371.344C455.798 372.08 455.951 376.661 455.812 390.4C455.75 396.491 455.654 402.975 456.041 409.036L454.414 409.658C453.67 404.175 454.078 398.308 454.071 392.768C454.053 378.768 452.473 370.724 468.963 369.463Z"/><path fill="#37182B" d="M478.88 362.443C492.836 357.74 523.57 357.172 536.529 362.081L535.935 362.914C534.084 362.907 533.876 362.767 532.131 362.285L531.979 362.955C516.076 360.289 495.191 358.995 479.696 364.176L478.88 362.443Z"/><path fill="#3C2031" d="M432.547 417.316C434.859 418.344 438.568 429.664 440.163 432.967C441.764 436.284 446.651 444.862 446.545 447.724C441.257 446.037 432.448 423.202 432.547 417.316Z"/><path fill="#3C2031" d="M425.414 372.47C425.569 374.88 425.422 379.346 425.979 381.222L427.041 381.597C427.682 384.386 430.641 407.336 430.559 409.145L430.001 409.208C424.835 401.441 424.628 381.961 425.414 372.47Z"/><path fill="#13050E" d="M425.414 372.47C425.439 368.338 425.603 351.073 428.605 349.01L429.54 349.578C430.003 351.636 427.785 362.704 427.469 365.927C426.959 371.134 426.816 376.37 427.041 381.597L425.979 381.222C425.422 379.346 425.569 374.88 425.414 372.47Z"/><defs><linearGradient id="gradient_1" gradientUnits="userSpaceOnUse" x1="464.05795" y1="415.03781" x2="459.21185" y2="422.30792"><stop offset="0" stop-color="#230822"/><stop offset="1" stop-color="#3F2334"/></linearGradient></defs><path fill="url(#gradient_1)" d="M454.414 409.658L456.041 409.036C459.317 429.808 465.901 417.573 472.642 425.534L470.994 426.251C467.804 423.904 459.877 425.394 457.099 421.343C455.159 418.514 454.576 412.975 454.414 409.658Z"/><path fill="#37182B" d="M836.55 595.983C836.862 592.44 837.307 587.768 840.551 585.884C849.365 580.765 852.241 589.271 852.935 595.508C857.763 595.528 863.619 595.393 868.364 595.634C869.089 586.33 875.655 578.479 882.983 589.083C884.119 590.728 883.311 593.787 884.55 595.836L886.3 596.069C885.869 597.13 885.722 596.877 885.963 597.604C884.241 598.708 884.779 598.35 883.691 600.353C884.297 604.575 886.767 604.039 890.153 604.134C905.287 603.878 910.505 614.399 910.621 627.837L910.7 743.878C910.705 747.317 910.184 768.391 910.713 769.969C913.999 774.365 913.155 776.531 914.795 780C918.138 772.143 917.193 751.585 917.214 742.328L917.171 685.11C917.111 672.691 917.117 660.272 917.191 647.854C917.257 636.954 918.739 618.274 913.726 608.338C910.345 601.637 901.549 599.081 894.516 597.547C895.102 596.301 897.722 596.495 899.096 596.374C906.381 598.077 911.81 601.574 915.91 608.031C918.095 611.472 918.423 615.141 918.571 619.258C918.982 630.786 918.895 642.598 918.889 654.139L918.762 717.546L918.845 755.556C918.871 769.058 920.973 784.413 907.075 792.093C898.919 796.599 880.845 795.148 871.185 795.144L825.457 795.127L769.37 795.156C760.229 795.182 750.416 795.265 741.349 795.328C708.752 795.556 710.723 775.077 710.763 750.935L710.75 659.868C710.75 645.434 710.183 630.135 711.257 615.737C711.53 612.076 714.869 605.926 717.541 603.24C724.03 596.717 734.413 596.344 743.078 596.232C745.809 580.771 757.216 580.251 758.671 595.874C762.822 595.787 770.549 597.042 773.957 594.91C774.51 594.564 774.433 593.033 774.512 592.156C776.883 583.469 784.863 581.04 789.221 590.288C789.73 592.402 790.006 593.345 790.132 595.486L805.445 595.53C806.28 579.424 821.903 581.465 821.202 595.796C826.319 595.738 831.436 595.8 836.55 595.983ZM821.202 595.796C821.903 581.465 806.28 579.424 805.445 595.53L790.132 595.486C790.006 593.345 789.73 592.402 789.221 590.288C784.863 581.04 776.883 583.469 774.512 592.156C774.433 593.033 774.51 594.564 773.957 594.91C770.549 597.042 762.822 595.787 758.671 595.874C757.216 580.251 745.809 580.771 743.078 596.232C734.413 596.344 724.03 596.717 717.541 603.24C714.869 605.926 711.53 612.076 711.257 615.737C710.183 630.135 710.75 645.434 710.75 659.868L710.763 750.935C710.723 775.077 708.752 795.556 741.349 795.328C750.416 795.265 760.229 795.182 769.37 795.156L825.457 795.127L871.185 795.144C880.845 795.148 898.919 796.599 907.075 792.093C920.973 784.413 918.871 769.058 918.845 755.556L918.762 717.546L918.889 654.139C918.895 642.598 918.982 630.786 918.571 619.258C918.423 615.141 918.095 611.472 915.91 608.031C911.81 601.574 906.381 598.077 899.096 596.374C897.722 596.495 895.102 596.301 894.516 597.547C901.549 599.081 910.345 601.637 913.726 608.338C918.739 618.274 917.257 636.954 917.191 647.854C917.117 660.272 917.111 672.691 917.171 685.11L917.214 742.328C917.193 751.585 918.138 772.143 914.795 780C913.155 776.531 913.999 774.365 910.713 769.969C903.752 790.283 891.445 787.05 873.478 786.961L844.223 786.901C811.221 786.741 778.217 786.855 745.216 787.244C715.025 787.318 718.858 766.877 719.102 744.769C719.907 740.952 719.404 726.175 719.557 721.53C720.236 700.955 718.659 677.339 719.905 656.962C720.339 658.449 720.778 667.681 720.942 669.941C726.501 670.011 731.56 669.545 736.999 669.467C744.806 669.355 752.712 669.428 760.527 669.438L908.41 669.403C908.418 655.142 909.117 640.973 908.655 626.699C908.152 611.144 899.009 605.022 884.156 605.923C886.777 605.231 885.974 604.701 890.153 604.134C886.767 604.039 884.297 604.575 883.691 600.353C884.779 598.35 884.241 598.708 885.963 597.604C885.722 596.877 885.869 597.13 886.3 596.069L884.55 595.836C883.311 593.787 884.119 590.728 882.983 589.083C875.655 578.479 869.089 586.33 868.364 595.634C863.619 595.393 857.763 595.528 852.935 595.508C852.241 589.271 849.365 580.765 840.551 585.884C837.307 587.768 836.862 592.44 836.55 595.983C831.436 595.8 826.319 595.738 821.202 595.796Z"/><path fill="#8B4B6F" d="M836.55 595.983C836.862 592.44 837.307 587.768 840.551 585.884C849.365 580.765 852.241 589.271 852.935 595.508C857.763 595.528 863.619 595.393 868.364 595.634C869.089 586.33 875.655 578.479 882.983 589.083C884.119 590.728 883.311 593.787 884.55 595.836L886.3 596.069C885.869 597.13 885.722 596.877 885.963 597.604C884.241 598.708 884.779 598.35 883.691 600.353C884.297 604.575 886.767 604.039 890.153 604.134C885.974 604.701 886.777 605.231 884.156 605.923C899.009 605.022 908.152 611.144 908.655 626.699C909.117 640.973 908.418 655.142 908.41 669.403L760.527 669.438C752.712 669.428 744.806 669.355 736.999 669.467C731.56 669.545 726.501 670.011 720.942 669.941C720.778 667.681 720.339 658.449 719.905 656.962C718.659 677.339 720.236 700.955 719.557 721.53C719.404 726.175 719.907 740.952 719.102 744.769C718.858 766.877 715.025 787.318 745.216 787.244C778.217 786.855 811.221 786.741 844.223 786.901L873.478 786.961C891.445 787.05 903.752 790.283 910.713 769.969C913.999 774.365 913.155 776.531 914.795 780C918.138 772.143 917.193 751.585 917.214 742.328L917.171 685.11C917.111 672.691 917.117 660.272 917.191 647.854C917.257 636.954 918.739 618.274 913.726 608.338C910.345 601.637 901.549 599.081 894.516 597.547C895.102 596.301 897.722 596.495 899.096 596.374C906.381 598.077 911.81 601.574 915.91 608.031C918.095 611.472 918.423 615.141 918.571 619.258C918.982 630.786 918.895 642.598 918.889 654.139L918.762 717.546L918.845 755.556C918.871 769.058 920.973 784.413 907.075 792.093C898.919 796.599 880.845 795.148 871.185 795.144L825.457 795.127L769.37 795.156C760.229 795.182 750.416 795.265 741.349 795.328C708.752 795.556 710.723 775.077 710.763 750.935L710.75 659.868C710.75 645.434 710.183 630.135 711.257 615.737C711.53 612.076 714.869 605.926 717.541 603.24C724.03 596.717 734.413 596.344 743.078 596.232C745.809 580.771 757.216 580.251 758.671 595.874C762.822 595.787 770.549 597.042 773.957 594.91C774.51 594.564 774.433 593.033 774.512 592.156C776.883 583.469 784.863 581.04 789.221 590.288C789.73 592.402 790.006 593.345 790.132 595.486L805.445 595.53C806.28 579.424 821.903 581.465 821.202 595.796C826.319 595.738 831.436 595.8 836.55 595.983ZM868.094 603.815L868.426 597.931L852.635 597.985C847.09 598.01 841.407 597.895 835.85 597.842C831.619 597.833 824.69 596.935 821.633 598.944C820.653 600.885 820.921 600.151 821.059 602.53C822.025 603.977 821.821 603.517 824.165 604.014C827.175 603.884 837.388 603.778 840.196 604.058C848.773 603.622 859.159 604.054 868.094 603.815ZM759.19 603.728L774.969 603.959C780.719 603.924 787.512 603.747 793.211 603.99C795.157 603.733 802.999 603.983 805.393 604.017L805.116 597.986C790.147 597.658 773.935 597.992 758.894 598.009C758.871 600.149 758.987 601.593 759.19 603.728Z"/><path fill="#FEFEFE" d="M899.096 596.374C906.381 598.077 911.81 601.574 915.91 608.031C918.095 611.472 918.423 615.141 918.571 619.258C918.982 630.786 918.895 642.598 918.889 654.139L918.762 717.546L918.845 755.556C918.871 769.058 920.973 784.413 907.075 792.093C898.919 796.599 880.845 795.148 871.185 795.144L825.457 795.127L769.37 795.156C760.229 795.182 750.416 795.265 741.349 795.328C708.752 795.556 710.723 775.077 710.763 750.935L712.643 750.695C713.059 739.94 712.767 727.409 712.75 716.523L712.641 656.199C712.616 642.763 712.513 630.106 713.423 616.767C714.601 599.5 740.87 594.218 744.234 600.492C741.898 606.62 732.154 602.125 725.248 609.652C717.761 617.812 718.899 628.118 719.05 638.388L719.04 706.606C719.028 718.056 718.561 733.633 719.102 744.769C718.858 766.877 715.025 787.318 745.216 787.244C778.217 786.855 811.221 786.741 844.223 786.901L873.478 786.961C891.445 787.05 903.752 790.283 910.713 769.969C913.999 774.365 913.155 776.531 914.795 780C918.138 772.143 917.193 751.585 917.214 742.328L917.171 685.11C917.111 672.691 917.117 660.272 917.191 647.854C917.257 636.954 918.739 618.274 913.726 608.338C910.345 601.637 901.549 599.081 894.516 597.547C895.102 596.301 897.722 596.495 899.096 596.374Z"/><path fill="#13050E" d="M899.096 596.374C906.381 598.077 911.81 601.574 915.91 608.031C918.095 611.472 918.423 615.141 918.571 619.258C918.982 630.786 918.895 642.598 918.889 654.139L918.762 717.546L918.845 755.556C918.871 769.058 920.973 784.413 907.075 792.093C898.919 796.599 880.845 795.148 871.185 795.144L825.457 795.127L769.37 795.156C760.229 795.182 750.416 795.265 741.349 795.328C708.752 795.556 710.723 775.077 710.763 750.935L712.643 750.695C712.175 772.248 710.376 793.692 739.722 793.368L851.578 793.168C867.626 793.173 883.94 794.135 899.886 792.722C904.799 792.286 914.234 785.01 914.795 780C918.138 772.143 917.193 751.585 917.214 742.328L917.171 685.11C917.111 672.691 917.117 660.272 917.191 647.854C917.257 636.954 918.739 618.274 913.726 608.338C910.345 601.637 901.549 599.081 894.516 597.547C895.102 596.301 897.722 596.495 899.096 596.374Z"/><path fill="#3C2031" d="M836.55 595.983C836.862 592.44 837.307 587.768 840.551 585.884C849.365 580.765 852.241 589.271 852.935 595.508C857.763 595.528 863.619 595.393 868.364 595.634C869.089 586.33 875.655 578.479 882.983 589.083C884.119 590.728 883.311 593.787 884.55 595.836L886.3 596.069C885.869 597.13 885.722 596.877 885.963 597.604C884.241 598.708 884.779 598.35 883.691 600.353C884.297 604.575 886.767 604.039 890.153 604.134C885.974 604.701 886.777 605.231 884.156 605.923C885.088 608.166 886.524 610.753 886.991 613.109C889.008 623.28 877.435 629.761 869.533 623.472C865.741 620.455 865.661 616.415 865.325 611.937L869.215 606.19C864.518 606.362 854.129 606.143 849.59 605.432C846.936 604.455 843.773 604.958 840.196 604.058C848.773 603.622 859.159 604.054 868.094 603.815L868.426 597.931L852.635 597.985C847.09 598.01 841.407 597.895 835.85 597.842C831.619 597.833 824.69 596.935 821.633 598.944C820.653 600.885 820.921 600.151 821.059 602.53C822.025 603.977 821.821 603.517 824.165 604.014L821.85 604.884L821.691 605.437L820.862 606.12C824.065 614.142 826.896 617.616 818.716 624.585L817.624 624.829C803.02 625.601 798.948 618.307 806.323 605.936C803.465 605.8 791.843 605.529 790.191 604.962L790.166 604.658L793.211 603.99C795.157 603.733 802.999 603.983 805.393 604.017L805.116 597.986C790.147 597.658 773.935 597.992 758.894 598.009C758.871 600.149 758.987 601.593 759.19 603.728C758.569 604.984 758.216 605.241 758.278 606.506L756.849 607.728C756.727 611.015 756.601 614.018 754.177 616.489C747.838 619.281 745.88 612.04 745.802 607.255L745.037 607.233C744.283 606.424 744.632 606.606 743.678 606.214C729.129 604.811 721.681 612.844 720.904 626.732C720.739 629.674 720.748 639.788 719.946 641.803C719.149 640.313 719.296 640.107 719.05 638.388C718.899 628.118 717.761 617.812 725.248 609.652C732.154 602.125 741.898 606.62 744.234 600.492C740.87 594.218 714.601 599.5 713.423 616.767C712.513 630.106 712.616 642.763 712.641 656.199L712.75 716.523C712.767 727.409 713.059 739.94 712.643 750.695L710.763 750.935L710.75 659.868C710.75 645.434 710.183 630.135 711.257 615.737C711.53 612.076 714.869 605.926 717.541 603.24C724.03 596.717 734.413 596.344 743.078 596.232C745.809 580.771 757.216 580.251 758.671 595.874C762.822 595.787 770.549 597.042 773.957 594.91C774.51 594.564 774.433 593.033 774.512 592.156C776.883 583.469 784.863 581.04 789.221 590.288C789.73 592.402 790.006 593.345 790.132 595.486L805.445 595.53C806.28 579.424 821.903 581.465 821.202 595.796C826.319 595.738 831.436 595.8 836.55 595.983Z"/><path fill="#8B4B6F" d="M745.802 607.255C745.879 603.919 744.406 576.7 756.026 589.552C758.179 591.933 756.092 603.693 756.849 607.728C756.727 611.015 756.601 614.018 754.177 616.489C747.838 619.281 745.88 612.04 745.802 607.255Z"/><path fill="#8B4B6F" d="M774.512 592.156C776.883 583.469 784.863 581.04 789.221 590.288L788.449 590.31C788.553 592.077 788.851 593.203 787.908 594.649C784.021 597.626 778.085 597.363 775.884 592.574L774.512 592.156Z"/><path fill="#472135" d="M774.512 592.156C776.883 583.469 784.863 581.04 789.221 590.288L788.449 590.31C783.819 585.325 778.315 586.084 775.884 592.574L774.512 592.156Z"/><path fill="#8B4B6F" d="M838.911 596.526C839.089 594.063 839.231 589.71 841.384 588.462C848.954 584.075 850.716 591.668 850.671 596.561C851.908 597.015 851.936 596.894 853.247 596.982L853.545 597.448L852.635 597.985C847.09 598.01 841.407 597.895 835.85 597.842L838.492 597.367L838.911 596.526Z"/><path fill="#472135" d="M838.911 596.526C842.03 596.332 847.612 596.184 850.671 596.561C851.908 597.015 851.936 596.894 853.247 596.982L853.545 597.448L852.635 597.985C847.09 598.01 841.407 597.895 835.85 597.842L838.492 597.367L838.911 596.526Z"/><path fill="#8B4B6F" d="M811.876 586.417C818.54 587.742 819.292 591.753 819.318 598.031C819.347 604.888 819.29 611.028 815.132 616.742C806.772 616.095 807.531 606.974 807.662 600.699C807.779 595.081 807.638 590.473 811.876 586.417Z"/><path fill="#8B4B6F" d="M874.438 586.755C884.251 587.448 881.84 599.464 881.856 606.488C881.865 610.545 880.5 614.036 877.851 617.066C867.369 615.359 870.967 601.445 871.07 593.847C871.11 590.844 872.488 588.864 874.438 586.755Z"/><path fill="#FEFEFE" d="M884.116 611.818C886.671 614.672 885.124 618.972 882.338 621.101C880.185 622.744 877.46 623.449 874.78 623.06C871.201 622.528 869.819 620.602 867.922 617.849C867.483 616.459 867.239 615.319 867.844 613.991C873.595 614.348 876.259 629.019 884.116 611.818Z"/><path fill="#FEFEFE" d="M821.117 611.807C826.105 618.504 813.296 629.681 805.245 617.601C804.958 615.787 804.955 615.683 805.072 613.849L805.598 613.519C812.629 621.504 816.189 621.715 821.117 611.807Z"/><path fill="#FEFEFE" d="M818.716 624.585C822.558 624.621 833.289 624.53 836.277 625.376C837.024 626.232 837.299 626.302 836.998 627.671C835.283 635.483 821.541 624.703 822.818 635.438C825.748 638.341 839.852 636.207 839.467 645.033C839.171 651.819 834.955 659.662 827.32 658.832C823.144 658.377 815.587 655.199 814.878 650.603C815.519 648.852 814.998 649.549 816.499 648.439C821.205 648.04 825.926 656.583 830.591 651.549C832.511 649.476 832.726 644.522 830.145 642.758C826.587 640.327 818.078 644.753 815.732 642.062C815.836 636.84 817.14 630.298 817.624 624.829L818.716 624.585Z"/><defs><linearGradient id="gradient_2" gradientUnits="userSpaceOnUse" x1="755.73645" y1="610.93121" x2="746.39203" y2="620.86865"><stop offset="0" stop-color="#FEECEC"/><stop offset="1" stop-color="white"/></linearGradient></defs><path fill="url(#gradient_2)" d="M743.678 606.214C744.632 606.606 744.283 606.424 745.037 607.233L745.802 607.255C745.88 612.04 747.838 619.281 754.177 616.489L756.2 616.841C757.152 615.332 757.605 614.332 759.073 613.307L759.952 613.544C761.635 617.67 754.942 624.988 749.713 623.411C743.36 621.495 742.116 617.22 743.401 611.333C743.485 610.081 743.159 610.129 742.245 608.809L743.678 606.214Z"/><path fill="#37182B" d="M743.678 606.214C744.632 606.606 744.283 606.424 745.037 607.233L745.802 607.255C745.88 612.04 747.838 619.281 754.177 616.489L756.2 616.841C749.976 623.6 745.862 617.581 743.401 611.333C743.485 610.081 743.159 610.129 742.245 608.809L743.678 606.214Z"/><defs><linearGradient id="gradient_3" gradientUnits="userSpaceOnUse" x1="756.6944" y1="606.33215" x2="745.49707" y2="623.6449"><stop offset="0" stop-color="#281827"/><stop offset="1" stop-color="#492544"/></linearGradient></defs><path fill="url(#gradient_3)" d="M758.278 606.506L758.867 606.377C775.31 628.944 731.081 633.288 742.245 608.809C743.159 610.129 743.485 610.081 743.401 611.333C742.116 617.22 743.36 621.495 749.713 623.411C754.942 624.988 761.635 617.67 759.952 613.544L759.073 613.307C757.605 614.332 757.152 615.332 756.2 616.841L754.177 616.489C756.601 614.018 756.727 611.015 756.849 607.728L758.278 606.506Z"/><path fill="#37182B" d="M824.165 604.014C827.175 603.884 837.388 603.778 840.196 604.058C843.773 604.958 846.936 604.455 849.59 605.432C840.689 605.652 830.486 606.162 821.691 605.437L821.85 604.884L824.165 604.014Z"/><path fill="#472135" d="M759.19 603.728L774.969 603.959C770.607 606.927 763.471 604.891 758.867 606.377L758.278 606.506C758.216 605.241 758.569 604.984 759.19 603.728Z"/><path fill="#FEFEFE" d="M804.009 624.625L804.482 625.045C805.637 628.851 805.057 653.03 805.013 658.431L798.494 658.42L798.49 650.75L798.491 631.974C796.37 632.923 791.955 635.589 790.602 632.589C792.259 627.088 799.169 625.731 804.009 624.625Z"/><path fill="#FEFEFE" d="M863.873 671.249C878.585 671.148 893.726 671.378 908.47 671.492L908.537 737.897C908.545 748.793 908.982 760.418 907.892 771.238C907.431 777.033 899.492 784.124 893.882 784.509C881.463 785.363 867.907 785.024 855.448 785.056L766.75 785.101L746.223 785.17C734.905 785.114 723.24 783.22 721.753 769.689C720.474 758.046 721.045 745.824 721.104 734.105L721.415 671.499C739.39 671.401 757.388 671.273 775.361 671.277C804.51 671.283 834.814 672.118 863.873 671.249Z"/><path fill="#3C2031" d="M802.904 685.595C810.982 685.482 818.635 685.212 826.679 686.233C827.99 694.021 827.968 701.975 826.612 709.755C823.051 710.116 802.862 711.124 802.46 707.874C801.822 702.729 801.595 690.721 802.904 685.595Z"/><path fill="#A6D6AD" d="M804.392 688.02C811.297 687.804 818.158 687.92 825.064 687.991L825.057 707.614C818.161 707.97 811.398 707.725 804.499 707.565L804.392 688.02Z"/><path fill="#3C2031" d="M813.662 744.221C816.543 744.068 825.546 743.529 826.581 746.597C828.494 752.273 827.755 762.907 826.275 768.531L816.757 768.86C813.1 768.844 805.88 769.189 802.946 767.643C801.383 764.431 801.318 748.475 803.473 744.948C803.925 744.209 812.197 744.247 813.662 744.221Z"/><path fill="#A6D6AD" d="M814.332 746.743L824.982 746.786C825.103 753.34 825.064 760.052 825.097 766.62L816.362 766.615L804.416 766.482L804.425 746.995C807.695 746.863 811.053 746.821 814.332 746.743Z"/><path fill="#472135" d="M803.051 715.062C811.614 714.956 818.257 714.918 826.767 715.739C828.006 720.905 828.127 734.29 826.199 739.495C818.868 739.563 809.888 739.875 802.768 738.792C801.866 733.746 801.27 719.866 803.051 715.062Z"/><path fill="#A6D6AD" d="M804.502 717.521L825.066 717.523C825.143 723.927 825.02 730.597 824.993 737.022L804.453 736.995C804.547 730.561 804.487 723.97 804.502 717.521Z"/><path fill="#472135" d="M772.273 715.058C780.746 714.937 787.271 714.812 795.776 715.768C796.916 720.689 797.134 734.376 795.225 739.387C790.939 739.464 785.798 739.537 781.772 739.532C770.403 739.518 770.898 739.351 771.127 728.518C771.244 722.963 770.176 720.752 772.273 715.058Z"/><path fill="#FEFEFE" d="M773.506 717.517C780.513 717.396 787.03 717.289 794.029 717.537L794.005 737.023C787.15 737.173 780.292 737.199 773.436 737.102C773.348 730.662 773.471 723.977 773.506 717.517Z"/><path fill="#3C2031" d="M864.845 685.643C868.238 685.581 888.696 684.395 889.05 687.761C889.604 693.022 890.156 704.712 888.669 709.659C881.822 710.442 871.163 710.247 864.513 709.072C863.879 701.882 863.809 692.687 864.845 685.643Z"/><path fill="#A6D6AD" d="M866.5 688.004C873.326 687.918 880.268 687.981 887.104 687.979L887.012 707.535C880.779 707.997 872.864 707.641 866.492 707.504L866.5 688.004Z"/><path fill="#472135" d="M773.21 685.685C778.188 685.64 791.809 685.037 795.374 686.883C797.052 690.46 796.71 703.493 796.101 707.937C795.899 709.41 795.469 709.396 794.511 709.975C786.147 710.167 780.094 710.242 771.673 709.284C770.728 704.743 770.766 692.753 771.461 687.956C771.669 686.518 772.238 686.256 773.21 685.685Z"/><path fill="#FEFEFE" d="M773.492 687.983C780.314 687.875 787.328 687.953 794.167 687.947C794.171 694.486 794.101 701.024 793.955 707.561C787.103 707.77 780.247 707.861 773.391 707.835L773.492 687.983Z"/><path fill="#3C2031" d="M834.828 715.143C838.039 715.067 858.044 713.847 858.218 717.416C858.509 723.373 859.374 734.09 857.189 739.497C852.837 739.54 836.718 740.448 833.819 738.034C833.031 735.193 833.229 731.884 833.37 728.923C833.613 723.858 832.378 719.801 834.828 715.143Z"/><path fill="#FEFEFE" d="M835.521 717.508L856.025 717.515L856 737.145L835.576 737.103C835.38 730.829 835.522 723.836 835.521 717.508Z"/><path fill="#472135" d="M834.194 685.594C839.381 685.609 853.196 685.349 857.407 686.74C859.107 689.234 858.979 706.888 857.319 709.959C849.1 710.089 841.9 710.349 833.698 709.26C832.842 704.713 832.716 689.99 834.194 685.594Z"/><path fill="#FEFEFE" d="M835.501 687.995C842.328 687.864 849.456 687.959 856.309 687.949L856.062 707.525C849.213 707.781 842.359 707.887 835.505 707.842L835.501 687.995Z"/><path fill="#472135" d="M834.263 744.545C841.205 744.43 850.842 743.996 857.495 745.222C858.792 750.072 859.455 764.309 857.59 768.502C850.224 769.023 840.925 768.64 833.53 768.459C833.085 761.263 832.345 751.419 834.263 744.545Z"/><path fill="#FEFEFE" d="M835.517 747.004C842.421 746.894 849.326 746.864 856.232 746.916C856.45 752.817 856.144 760.472 856.069 766.502C849.215 766.597 842.359 766.645 835.504 766.645L835.517 747.004Z"/><path fill="#3C2031" d="M740.597 744.506C744.013 744.46 764.077 743.36 764.501 746.636C765.087 751.176 765.743 764.539 764.325 768.544C755.455 768.992 749.146 768.964 740.305 768.355C739.715 763.802 739.181 748.525 740.597 744.506Z"/><path fill="#A6D6AD" d="M745.819 746.739C751.424 746.652 757.203 746.838 762.82 746.945C762.768 752.947 763.885 759.924 762.156 765.57C760.9 766.839 761.439 766.457 759.125 766.551L741.962 766.504C741.811 762.307 740.74 750.875 743.122 747.385C743.519 746.804 744.924 746.846 745.819 746.739Z"/><defs><linearGradient id="gradient_4" gradientUnits="userSpaceOnUse" x1="776.75336" y1="769.39484" x2="789.94751" y2="743.20642"><stop offset="0" stop-color="#180006"/><stop offset="1" stop-color="#5B2535"/></linearGradient></defs><path fill="url(#gradient_4)" d="M772.388 744.506C779.677 744.423 788.444 744.108 795.536 745.174C796.322 752.532 797.373 761.614 794.89 768.556C787.877 768.879 780.345 769.262 773.394 768.227C770.148 767.759 770.978 761.715 770.967 759.191C770.945 753.813 770.169 749.544 772.388 744.506Z"/><path fill="#FEFEFE" d="M773.43 747.001C780.292 746.91 787.155 746.874 794.017 746.894C794.052 753.422 794.015 759.951 793.909 766.478C787.695 766.837 779.758 766.63 773.409 766.62L773.43 747.001Z"/><path fill="#F2B044" d="M864.864 715.158C868.781 715.013 885.617 714.565 888.246 716.031C889.699 720.517 889.26 734.115 888.638 739.1C884.646 740.027 869.46 739.852 865.488 738.603L864.795 738.07C863.724 733.995 863.925 719.565 864.864 715.158Z"/><path fill="#472135" d="M864.864 715.158C868.781 715.013 885.617 714.565 888.246 716.031L886.988 717.323C880.398 717.612 873.163 717.487 866.515 717.484L866.512 736.995C872.521 736.994 881.215 736.765 886.979 737.276L885.438 737.581C885.654 738.617 885.517 738.198 885.769 738.86L888.638 739.1C884.646 740.027 869.46 739.852 865.488 738.603L864.795 738.07C863.724 733.995 863.925 719.565 864.864 715.158Z"/><path fill="#37182B" d="M865.488 738.603C867.059 736.701 882.319 737.548 885.438 737.581C885.654 738.617 885.517 738.198 885.769 738.86L888.638 739.1C884.646 740.027 869.46 739.852 865.488 738.603Z"/><path fill="#13050E" d="M888.246 716.031C889.699 720.517 889.26 734.115 888.638 739.1L885.769 738.86C885.517 738.198 885.654 738.617 885.438 737.581L886.979 737.276C887.056 730.815 887.276 723.716 886.988 717.323L888.246 716.031Z"/><path fill="#F2B044" d="M740.062 715.447C744.581 715.347 760.924 714.549 764.142 716.688L764.356 718.124C765.419 724.262 765.259 733.272 764.349 739.451C759.74 739.537 743.442 740.583 740.205 737.898L739.827 736.987C740.106 730.259 739.856 722.502 740.062 715.447Z"/><path fill="#37182B" d="M740.062 715.447C744.581 715.347 760.924 714.549 764.142 716.688L764.356 718.124L763.784 718.536C763.641 720.589 763.599 725.13 763.127 726.784L763.055 717.486L741.96 717.503C741.944 723.825 742.095 731.032 741.874 737.28L739.827 736.987C740.106 730.259 739.856 722.502 740.062 715.447Z"/><defs><linearGradient id="gradient_5" gradientUnits="userSpaceOnUse" x1="755.73657" y1="716.96539" x2="752.75562" y2="739.33368"><stop offset="0" stop-color="#14000A"/><stop offset="1" stop-color="#3E2237"/></linearGradient></defs><path fill="url(#gradient_5)" d="M763.127 726.784C763.599 725.13 763.641 720.589 763.784 718.536L764.356 718.124C765.419 724.262 765.259 733.272 764.349 739.451C759.74 739.537 743.442 740.583 740.205 737.898L739.827 736.987L741.874 737.28C747.275 736.797 757.176 737.082 762.925 737.086L763.127 726.784Z"/><path fill="#FEFEFE" d="M480.558 594.049C503.283 587.937 527.415 589.77 548.957 599.244C580.425 613.085 602.942 641.676 609.022 675.511C611.369 688.571 611.177 701.961 608.456 714.949C598.035 764.692 552.97 799.459 502.21 796.914C451.45 794.37 410.088 755.271 404.694 704.734C399.3 654.198 431.478 607.25 480.558 594.049Z"/><path fill="#3C2031" d="M480.558 594.049C503.283 587.937 527.415 589.77 548.957 599.244L545.935 600.237C524.849 591.555 501.449 590.253 479.53 596.542C431.932 610.198 401.218 656.306 406.957 705.491C412.696 754.677 453.2 792.475 502.664 794.806C552.128 797.137 596.007 763.314 606.346 714.887C609.083 702.067 609.301 688.836 606.99 675.933L607.845 674.619L609.022 675.511C611.369 688.571 611.177 701.961 608.456 714.949C598.035 764.692 552.97 799.459 502.21 796.914C451.45 794.37 410.088 755.271 404.694 704.734C399.3 654.198 431.478 607.25 480.558 594.049Z"/><path fill="#37182B" d="M548.957 599.244C580.425 613.085 602.942 641.676 609.022 675.511L607.845 674.619L606.99 675.933C600.899 641.931 577.877 613.388 545.935 600.237L548.957 599.244Z"/><path fill="#3C2031" d="M498.776 605.177C547.782 600.439 591.34 636.352 596.032 685.363C600.724 734.373 564.77 777.897 515.755 782.543C466.805 787.182 423.352 751.287 418.666 702.342C413.981 653.396 449.835 609.909 498.776 605.177Z"/><path fill="#A6D6AD" d="M451.399 760.157C424.338 737.296 413.89 700.282 425.001 666.645C436.113 633.008 466.553 609.501 501.907 607.258C537.26 605.014 570.429 624.483 585.704 656.446C603.339 693.348 592.815 737.554 560.444 762.552C528.073 787.549 482.641 786.552 451.399 760.157Z"/><path fill="#97C79C" d="M585.704 656.446C603.339 693.348 592.815 737.554 560.444 762.552C528.073 787.549 482.641 786.552 451.399 760.157C457.778 760.852 463.817 763.036 470.059 764.442C498.39 770.827 528.617 763.181 551.194 745.072C570.434 729.639 583.176 706.476 585.186 681.796C585.86 673.528 584.684 664.575 585.704 656.446Z"/><path fill="#37182B" d="M548.269 652.507C559.523 652.653 569.074 664.903 558.969 674.919C538.989 694.724 519.544 715.2 499.366 734.789C492.139 741.805 484.524 733.551 479.362 728.47C476.139 725.255 472.741 721.691 469.468 718.307C463.915 712.986 457.411 707.475 454.05 700.607C463.69 669.017 480.511 694.135 492.589 705.823C502.464 696.932 540.477 656.176 548.269 652.507Z"/><path fill="#8B4B6F" d="M548.201 654.995C555.785 655.41 564.831 663.187 559.147 670.475C554.19 676.833 546.872 683.54 541.108 689.329C528.936 701.41 516.828 713.554 504.782 725.761C492.31 738.334 491.506 737.204 479.282 724.829C475.889 721.394 472.26 717.74 468.858 714.29C457.03 703.004 449.795 695.794 469.124 687.251C476.745 692.31 486.206 702.328 492.624 709.1C497.917 704.66 503.399 698.695 508.267 693.742L530.929 670.885C536.303 665.465 542.044 659.475 548.201 654.995Z"/><path fill="#37182B" d="M183.882 594.217L196.812 594.164C229.226 594.051 268.083 590.289 291.871 614.862C312.181 635.841 308.188 659.811 308.572 687.031C308.891 709.643 308.332 729.989 291.5 746.548C267.259 770.396 232.333 766.766 200.639 766.669C191.877 766.571 183.114 766.527 174.351 766.538C169.762 769.953 165.12 773.296 160.427 776.568C154.419 780.79 141.445 791.239 134.39 789.729C124.049 787.517 131.094 762.168 132.748 755.502C128.746 753.145 125.009 750.364 121.6 747.208C99.3207 726.769 103.478 702.584 102.993 675.11C102.824 654.018 102.624 632.741 118.248 616.531C137.011 597.063 158.558 595.143 183.882 594.217Z"/><path fill="#FEFEFE" d="M177.628 596.282C190.726 595.475 205.264 595.801 218.477 595.728C243.978 595.588 271.379 597.07 290.318 616.364C306.311 632.657 306.508 648.699 306.543 670.144L306.522 697.989C306.41 716.855 303.853 731.724 289.795 745.463C267.641 767.114 234.059 765.474 205.25 765.125C194.892 765.04 184.535 764.836 174.181 764.515C165.24 770.934 148.519 784.232 138.498 787.723C124.499 792.601 133.473 761.22 134.79 754.823C130.896 752.585 126.622 749.284 123.313 746.332C109.972 734.427 105.897 720.344 105.239 702.902C104.907 694.081 105.073 685.275 105.052 676.42C105.002 655.523 103.992 634.862 119.285 618.468C134.923 601.703 155.611 597.308 177.628 596.282Z"/><path fill="#3C2031" d="M189.591 603.232C191.061 603.195 192.532 603.176 194.003 603.175C204.246 603.084 214.489 603.129 224.731 603.31C247.603 603.679 267.289 604.351 284.82 621.507C302.085 638.403 298.805 661.77 298.98 683.959C299.143 704.668 300.471 724.673 284.559 740.115C266.524 757.617 245.863 757.678 222.4 757.59L193.995 757.434C186.924 757.213 179.85 757.069 172.775 757.003C163.582 762.942 154.926 769.455 145.995 775.764C143.398 777.599 140.518 779.634 137.689 781.033C139.164 771.025 140.869 761.053 142.802 751.123C109.406 730.547 112.313 712.138 112.539 676.213C112.666 656.029 110.816 638.051 126.171 622.152C143.628 604.076 166.116 603.712 189.591 603.232Z"/><path fill="#A6D6AD" d="M145.19 749.587C127.166 739.088 113.934 724.875 114.961 703.086C116.127 678.361 108.862 643.263 127.531 624.061C150.131 600.858 183.672 606.517 212.373 605.409C252.227 603.87 295.524 609.418 296.618 659.274C297.349 666.816 296.948 675.619 296.997 683.266C297.113 701.26 298.485 720.605 285.836 735.302C261.18 763.947 217.859 753.691 184.604 754.942C180.396 755.1 176.081 754.53 171.935 754.756C161.813 761.195 150.892 769.074 140.941 775.943C141.621 771.997 142.29 767.485 143.225 763.636L145.19 749.587Z"/><path fill="#97C79C" d="M296.618 659.274C297.349 666.816 296.948 675.619 296.997 683.266C297.113 701.26 298.485 720.605 285.836 735.302C261.18 763.947 217.859 753.691 184.604 754.942C180.396 755.1 176.081 754.53 171.935 754.756C161.813 761.195 150.892 769.074 140.941 775.943C141.621 771.997 142.29 767.485 143.225 763.636C143.368 764.287 143.244 763.858 143.772 764.857C148.428 763.538 156.195 749.495 163.585 748.454C170.175 747.527 177.632 748.039 184.25 747.983C208.919 747.878 236.161 747.387 257.736 734.562C284.827 718.459 291.949 693.124 295.665 663.889C295.816 662.7 296.392 660.704 296.618 659.274Z"/><path fill="#37182B" d="M202.369 670.227C206.417 669.121 210.747 670.279 213.704 673.256C216.661 676.234 217.787 680.572 216.653 684.612C215.519 688.652 212.3 691.77 208.226 692.775C202.034 694.301 195.766 690.565 194.163 684.393C192.56 678.221 196.217 671.907 202.369 670.227Z"/><path fill="#8B4B6F" d="M202.59 672.729C207.419 671.149 212.612 673.792 214.177 678.625C215.742 683.458 213.085 688.643 208.247 690.194C203.429 691.739 198.27 689.094 196.712 684.281C195.153 679.468 197.782 674.302 202.59 672.729Z"/><path fill="#37182B" d="M241.601 670.253C247.838 668.632 254.201 672.404 255.772 678.654C257.343 684.904 253.52 691.237 247.257 692.757C241.066 694.26 234.821 690.489 233.268 684.31C231.715 678.132 235.435 671.856 241.601 670.253Z"/><path fill="#8B4B6F" d="M241.637 672.758C246.478 671.213 251.653 673.901 253.173 678.75C254.693 683.6 251.979 688.76 247.122 690.256C242.3 691.741 237.184 689.05 235.675 684.236C234.165 679.421 236.83 674.292 241.637 672.758Z"/><path fill="#37182B" d="M164.017 670.21C168.073 669.267 172.323 670.577 175.144 673.64C177.965 676.703 178.921 681.046 177.647 685.011C176.374 688.976 173.067 691.949 168.99 692.797C162.788 694.085 156.705 690.146 155.343 683.96C153.981 677.775 157.848 671.645 164.017 670.21Z"/><path fill="#8B4B6F" d="M163.806 672.78C166.968 671.756 170.436 672.542 172.847 674.829C175.258 677.116 176.227 680.537 175.372 683.749C174.517 686.96 171.976 689.447 168.747 690.233C164.004 691.386 159.199 688.583 157.869 683.886C156.54 679.19 159.163 674.283 163.806 672.78Z"/><path fill="#FEFEFE" d="M177.43 263.5C178.48 261.878 180.251 259.533 181.752 258.531C186.337 255.469 212.835 255.947 217.357 256.826C219.644 256.958 222.236 257.019 224.46 257.437C230.687 262.701 242.202 283.478 245.952 291.319C254.738 290.911 276.177 290.871 284.316 292.148C290.58 297.567 302.786 319.586 306.11 327.824C304.729 338.091 294.352 354.795 288.496 363.679C293.806 373.209 299.785 382.71 304.578 392.515C305.903 395.226 306.662 397.076 305.838 400.032C301.827 409.428 291.057 429.614 283.087 435.718C270.941 436.135 257.811 435.97 245.624 435.912C243.309 442.03 230.837 465.123 224.715 469.302C223.805 469.867 220.382 470.655 219.478 470.53C212.658 469.593 185.817 472.427 181.413 468.188C175.055 462.066 165.62 443.723 161.091 436.002C153.899 436.01 127.511 437.549 122.647 434.714C117.37 431.637 104.502 407.829 102.963 401.089C100.549 390.514 113.122 373.558 119.153 364.183C112.855 353.278 105.249 341.378 101.165 329.505C103.887 320.465 114.713 303.007 120.631 294.621C121.642 293.187 125.028 291.832 126.74 291.68C137.834 290.695 149.81 291.543 161.099 291.136C166.59 282.85 172.056 272.261 177.43 263.5Z"/><path fill="#3C2031" d="M177.43 263.5L179.361 263.479C176.401 268.116 173.989 273.769 171.379 278.689C168.704 283.732 165.91 288.114 162.731 292.836C155.698 292.919 148.93 292.766 141.668 292.657C135.3 292.561 126.55 291.607 121.603 296.992C115.523 303.611 112.563 312.058 107.89 319.622C105.992 322.694 104.289 325.793 103.134 329.249C108.167 343.19 115.108 351.349 121.248 364.176C116.143 372.794 106.425 388.436 103 397.239C106.408 405.892 117.479 427.381 124.105 433.204C135.532 435.767 150.264 434.511 162.147 434.499C165.149 438.627 167.344 442.208 169.831 446.621C173.612 453.331 176.825 460.781 182.299 466.305C185.403 469.438 193.965 468.455 198.118 468.774C207.15 468.858 217.725 470.765 225.607 465.324C231.49 461.176 233.447 453.064 237.075 447.006C239.681 442.655 242.218 438.662 245.114 434.522C252.823 434.573 275.402 435.207 281.736 434.141C290.346 427.523 293.723 418.073 299.087 408.837C300.706 406.05 303.006 402.226 304.343 399.472L305.838 400.032C301.827 409.428 291.057 429.614 283.087 435.718C270.941 436.135 257.811 435.97 245.624 435.912C243.309 442.03 230.837 465.123 224.715 469.302C223.805 469.867 220.382 470.655 219.478 470.53C212.658 469.593 185.817 472.427 181.413 468.188C175.055 462.066 165.62 443.723 161.091 436.002C153.899 436.01 127.511 437.549 122.647 434.714C117.37 431.637 104.502 407.829 102.963 401.089C100.549 390.514 113.122 373.558 119.153 364.183C112.855 353.278 105.249 341.378 101.165 329.505C103.887 320.465 114.713 303.007 120.631 294.621C121.642 293.187 125.028 291.832 126.74 291.68C137.834 290.695 149.81 291.543 161.099 291.136C166.59 282.85 172.056 272.261 177.43 263.5Z"/><path fill="#37182B" d="M217.357 256.826C219.644 256.958 222.236 257.019 224.46 257.437C230.687 262.701 242.202 283.478 245.952 291.319C254.738 290.911 276.177 290.871 284.316 292.148C290.58 297.567 302.786 319.586 306.11 327.824C304.729 338.091 294.352 354.795 288.496 363.679C293.806 373.209 299.785 382.71 304.578 392.515C305.903 395.226 306.662 397.076 305.838 400.032L304.343 399.472C303.249 390.497 290.64 373.164 286.074 363.754C292.318 353.512 301.88 339.264 304.021 327.891C301.684 321.218 288.343 299.234 283.48 294.183C271.012 291.685 257.506 292.91 244.717 292.764C238.853 283.019 232.631 272.216 226.899 262.334C226.566 257.735 220.052 258.056 216.807 257.36L217.357 256.826Z"/><path fill="#3C2031" d="M177.43 263.5C178.48 261.878 180.251 259.533 181.752 258.531C186.337 255.469 212.835 255.947 217.357 256.826L216.807 257.36C220.052 258.056 226.566 257.735 226.899 262.334C222.744 257.896 214.792 258.298 209.047 258.664C201.272 259.159 184.722 257.548 179.361 263.479L177.43 263.5Z"/><path fill="#3C2031" d="M192.195 332.717C196.666 332.526 217.911 332.437 220.568 333.997C225.816 337.078 236.621 358.284 238.662 364.228C235.218 373.129 226.981 387.375 221.056 394.73C219.442 394.878 217.612 394.913 215.977 394.985C206.203 395.002 196.429 394.961 186.656 394.863C180.132 386.753 172.976 373.049 168.405 363.727C172.548 354.989 180.645 340.571 186.531 333.18L192.195 332.717Z"/><path fill="#F2B044" d="M187.472 335.389C194.903 334.382 211.594 334.885 219.673 334.95C223.404 339.599 226.554 345.65 229.336 350.946C232.743 355.671 234.444 358.888 236.863 364.191C232.129 372.932 225.95 384.336 220.321 392.481L187.544 392.498L185.273 389.191C180.23 380.82 175.17 372.574 170.947 363.752C175.194 355.713 182.205 342.619 187.472 335.389Z"/><path fill="#E89E37" d="M229.336 350.946C232.743 355.671 234.444 358.888 236.863 364.191C232.129 372.932 225.95 384.336 220.321 392.481L187.544 392.498L185.273 389.191C210.051 389.989 228.49 376.805 229.336 350.946Z"/><path fill="#3C2031" d="M190.434 264.714C197.063 264.543 214.816 263.761 220.153 265.797C224.959 267.63 236.672 290.746 239.151 295.92C234.955 304.798 228.741 315.503 223.286 323.728C221.717 326.094 220.721 326.559 218.05 326.944C207.873 326.992 196.347 327.281 186.27 326.422C181.15 320.052 171.749 303.318 168.481 295.791C171.979 287.565 178.82 276.6 183.725 269.009C185.705 265.946 187.014 265.199 190.434 264.714Z"/><path fill="#F2B044" d="M187.851 267.805C197.937 266.036 209.309 266.709 219.613 267.021C222.804 270.882 226.471 277.865 228.976 282.393C231.592 286.668 234.142 290.982 236.625 295.335C232.361 304.512 225.769 316.029 220.161 324.472C212.987 324.657 189.912 326.78 185.767 322.255C180.628 313.526 175.31 304.899 170.951 295.762C173.975 289.8 183.77 272.142 187.851 267.805Z"/><path fill="#E89E37" d="M228.976 282.393C231.592 286.668 234.142 290.982 236.625 295.335C232.361 304.512 225.769 316.029 220.161 324.472C212.987 324.657 189.912 326.78 185.767 322.255C196.684 320.112 208.22 319.171 217.041 311.54C226.217 303.602 228.088 293.763 228.976 282.393Z"/><path fill="#3C2031" d="M245.849 299.077C257.262 298.766 268.682 298.808 280.092 299.203C285.862 306.066 292.983 319.714 297.376 327.982C295.364 337.514 286.087 354.653 279.102 360.953C268.182 361.107 256.336 361.211 245.483 360.825C239.845 352.957 231.192 338.389 227.359 329.646C231.182 321.442 240.142 305.75 245.849 299.077Z"/><path fill="#F2B044" d="M246.662 301.647C255.927 300.674 269.485 300.705 278.807 301.282C281.698 304.53 286.502 313.357 288.808 317.413C291.579 321.517 293.705 325.397 295.898 329.846C293.253 334.71 282.324 356.531 277.818 357.796C274.395 358.758 250.315 360.109 246.112 357.656C245.665 357.396 244.674 355.839 244.324 355.168C239.324 346.774 234.255 338.632 229.937 329.867C232.692 323.965 242.716 306.13 246.662 301.647Z"/><path fill="#E89E37" d="M288.808 317.413C291.579 321.517 293.705 325.397 295.898 329.846C293.253 334.71 282.324 356.531 277.818 357.796C274.395 358.758 250.315 360.109 246.112 357.656C245.665 357.396 244.674 355.839 244.324 355.168C252.061 355.859 265.971 352.733 272.569 347.988C283.376 340.215 286.421 329.84 288.808 317.413Z"/><path fill="#3C2031" d="M127.828 299.094C138.924 298.621 150.978 298.946 162.151 299.044C167.896 307.522 176.071 320.568 179.623 329.982C176.648 337.771 167.174 354.142 162.111 360.807C152.832 361.534 136.651 361.102 127.294 360.666C123.009 354.864 110.89 336.322 110.628 329.694C110.409 324.143 123.588 303.552 127.828 299.094Z"/><path fill="#F2B044" d="M128.185 301.569C138.249 300.923 151.04 300.47 161.063 301.552C164.085 305.466 167.777 312.361 170.21 316.812C172.671 320.528 175.82 325.893 177.793 329.948C172.568 339.459 167.214 349.434 161.277 358.484C155.786 358.51 132.335 358.961 128.211 358.184C127.462 357.223 126.844 356.505 126.269 355.418C121.18 346.957 116.189 338.629 111.914 329.722C115.821 321.32 123.071 309.251 128.185 301.569Z"/><path fill="#E89E37" d="M170.21 316.812C172.671 320.528 175.82 325.893 177.793 329.948C172.568 339.459 167.214 349.434 161.277 358.484C155.786 358.51 132.335 358.961 128.211 358.184C127.462 357.223 126.844 356.505 126.269 355.418C135.678 354.231 146.162 353.379 154.414 348.321C161.856 343.758 166.164 336.05 168.163 327.725C168.924 324.556 169.155 320.808 169.965 317.719L170.21 316.812Z"/><path fill="#3C2031" d="M132.055 366.7C141.224 366.512 152.74 366.093 161.618 367.433C167.882 373.743 176.053 389.362 180.056 397.739C177.096 405.044 168.249 419.268 163.695 426.184C162.595 427.854 161.012 428.31 159.125 428.504C150.759 428.605 135.287 429.19 127.664 427.816C123.397 423.605 111.37 404.351 110.435 398.153C109.726 393.458 122.73 373.173 126.067 368.659C127.388 366.872 129.906 366.837 132.055 366.7Z"/><path fill="#F2B044" d="M128.875 368.996C136.992 368.908 153.427 368.329 160.72 369.666C164.841 374.076 166.815 378.243 169.572 383.54C172.639 388.411 175.074 392.681 177.85 397.716C172.956 406.52 166.909 417.916 161.348 426.087C152.79 426.778 143.3 426.651 134.664 426.435C131.374 426.353 128.257 425.931 126.104 423.266C122.701 415.846 115.987 406.29 111.84 397.57C115.108 391.419 124.548 373.556 128.875 368.996Z"/><path fill="#E89E37" d="M169.572 383.54C172.639 388.411 175.074 392.681 177.85 397.716C172.956 406.52 166.909 417.916 161.348 426.087C152.79 426.778 143.3 426.651 134.664 426.435C131.374 426.353 128.257 425.931 126.104 423.266C137.381 420.991 147.123 421.871 156.684 413.908C166.422 405.799 168.472 395.547 169.572 383.54Z"/><path fill="#3C2031" d="M257.189 366.768C262.298 366.589 276.35 365.745 279.828 368.012C284.987 371.375 295.63 392.312 297.558 397.983C295.474 404.479 286.014 420.856 281.287 426.486C278.954 429.264 271.941 428.604 268.4 428.514C260.86 428.66 253.317 428.609 245.779 428.361C240.435 421.917 230.736 405.488 227.687 397.753C231.125 389.76 238.72 376.269 244.266 369.345C246.827 366.147 253.216 366.753 257.189 366.768Z"/><path fill="#F2B044" d="M246.814 369.853C257.048 368.243 268.563 368.824 279.026 369.056C282.198 373.781 285.341 379.465 288.237 384.428C290.87 388.808 293.68 393.432 295.76 398.09C291.622 405.496 284.264 419.432 279.449 425.841C272.649 426.902 251.203 427.707 245.454 424.533C239.916 415.72 234.663 407.065 229.855 397.824C234.108 390.892 241.801 375.186 246.814 369.853Z"/><path fill="#E89E37" d="M288.237 384.428C290.87 388.808 293.68 393.432 295.76 398.09C291.622 405.496 284.264 419.432 279.449 425.841C272.649 426.902 251.203 427.707 245.454 424.533C254.058 419.965 263.884 423.019 274.132 414.436C283.781 406.354 286.968 396.821 288.237 384.428Z"/><path fill="#3C2031" d="M202.483 400.741C209.459 400.752 214.64 400.892 221.526 401.894C227.041 408.615 235.64 423.559 238.654 431.623C235.504 440.106 226.228 455.601 220.55 462.462L205.196 462.716C198.852 462.61 192.955 462.691 186.671 461.743C180.531 455.472 172.531 440.032 168.443 431.878C172.331 423.232 180.618 408.11 186.707 401.148C191.799 400.905 197.354 400.865 202.483 400.741Z"/><path fill="#F2B044" d="M187.279 403.554C196.752 402.761 210.364 402.738 219.851 403.237C223.732 407.903 226.521 413.326 229.372 418.652C232.116 422.861 234.587 426.942 236.626 431.553C232.478 439.649 225.445 452.463 220.224 459.872C213.141 460.718 191.359 461.766 185.799 458.023C180.636 449.294 175.631 440.473 170.784 431.565C175.952 422.236 181.351 412.422 187.279 403.554Z"/><path fill="#E89E37" d="M229.372 418.652C232.116 422.861 234.587 426.942 236.626 431.553C232.478 439.649 225.445 452.463 220.224 459.872C213.141 460.718 191.359 461.766 185.799 458.023C188.245 457.225 191.543 456.518 194.126 456.172C216.485 453.176 226.61 440.722 229.372 418.652Z"/><path fill="#3C2031" d="M786.136 260.566C788.791 242.463 800.977 231.826 819.886 234.384C834.105 236.308 839.49 247.814 843.006 260.111C857.798 251.651 875.896 252.607 885.106 268.673C888.759 275.143 889.76 282.777 887.897 289.969C886.264 296.121 883.181 299.855 878.93 304.316C895.346 309.971 905.716 324.675 899.562 342.059C897.04 349.094 891.786 354.813 884.989 357.921C878.955 360.647 873.362 360.419 866.964 359.98C869.628 369.299 870.054 378.145 865.256 386.968C861.999 392.985 856.51 397.483 849.97 399.495C842.141 401.883 832.962 400.354 825.884 396.398C824.874 395.828 823.878 395.237 822.894 394.625C821.873 402.371 821.08 410.091 820.146 417.841C820.87 417.238 821.602 416.645 822.342 416.063C837.768 403.951 852.505 402.506 871.426 404.767C877.607 405.731 891.672 406.147 888.497 415.604C878.402 445.674 852.093 460.793 821.109 451.013L820.525 450.825C822.214 461.849 824.62 471.926 827.224 482.748C828.334 487.361 820.956 491.199 817.955 486.472C811.434 476.357 811.034 461.919 808.405 450.501C778.329 461.237 751.431 447.154 740.462 417.485C739.593 415.135 739.171 412.854 738.883 410.367C752.159 402.991 772.231 402.353 786.706 406.38C795.579 408.848 801.217 412.928 808.321 418.425C809.107 408.729 810.113 399.053 811.338 389.404C788.177 414.114 753.01 396.515 761.974 360.482C758.17 360.302 753.758 360.229 750.002 359.747C744.355 359.023 738.602 355.399 734.826 351.156C724.926 340.031 726.157 320.951 737.657 311.366C741.228 308.348 745.542 306.228 749.79 304.534C743.87 298.365 740.104 291.95 740.198 282.987C740.277 275.411 743.393 268.184 748.848 262.926C759.994 252.171 773.731 252.94 786.136 260.566ZM809.906 424.25C794.477 403.939 762.736 402.2 740.813 411.627C749.496 443.428 778.623 461.139 809.856 447.052C811.458 457.195 813.026 467.7 815.828 477.598C816.887 481.339 818.316 486.256 822.594 486.964C824.267 486.447 826.251 484.785 825.77 482.939C822.521 470.478 818.706 459.791 818.035 446.65C842.347 458.168 866.548 450.481 880.486 427.479C882.664 423.887 887.458 415.715 886.413 411.515C884.085 408.642 874.857 407.603 871.258 407.021C849.638 404.367 833.926 407.694 818.16 423.528C818.057 419.896 818.146 412.795 818.934 409.327C819.427 403.142 819.871 399.244 821.317 393.229L815.068 384.235C811.089 396.835 811.253 411.263 809.906 424.25ZM811.388 236.168C794.76 238.564 789.445 249.562 788.17 264.66C779.205 259.39 772.889 254.844 761.629 257.879C754.912 259.699 749.219 264.161 745.849 270.249C742.425 276.249 741.573 283.379 743.487 290.017C745.623 297.29 750.119 301.243 755.558 306.015C739.184 309.861 725.673 320.175 730.911 339.188C732.722 345.961 737.211 351.706 743.347 355.1C751.174 359.347 758.383 358.217 766.632 356.742C762.967 365.243 760.621 373.315 764.193 382.476C766.777 388.985 771.916 394.15 778.412 396.766C784.816 399.412 792.022 399.329 798.364 396.536C801.71 395.079 805.222 392.683 807.786 390.039C810.52 387.222 811.256 382.044 815.076 380.928C816.39 381.504 816.655 382.481 817.334 383.804C821.832 390.907 826.952 395.876 835.486 397.82C842.418 399.444 849.713 398.113 855.626 394.146C870.203 384.487 868.073 370.045 862.207 356.325C870.757 358.53 878.836 359.266 886.818 354.408C892.746 350.782 896.961 344.917 898.507 338.141C902.615 319.994 889.75 309.017 873.455 305.929L872.611 305.771C879.532 300.631 884.846 295.872 886.308 286.696C887.399 279.758 885.64 272.673 881.431 267.049C870.872 252.908 852.997 254.41 840.818 265.177C839.346 255.366 838.161 247.021 829.448 240.344C824.984 236.924 816.953 235.221 811.388 236.168Z"/><path fill="#3C2031" d="M853.371 411.692C863.434 410.763 870.807 411.702 880.458 414.467C878.795 418.636 876.754 422.645 874.36 426.442C866.906 438.078 858.673 443.194 845.493 446.126C834.899 447.622 808.109 445.1 821.064 428.413C829.128 418.027 840.748 413.368 853.371 411.692Z"/><path fill="#A6D6AD" d="M853.87 414.182C862.375 413.311 869.216 414.472 877.529 415.868C866.013 440.169 846.418 451.104 820.741 439.44C825.341 436.695 830.1 434.228 834.994 432.05C839.243 430.185 855.832 425.181 856.976 423.334L856.473 422.731C850.434 421.526 826.601 433.421 819.951 436.046C826.766 422.166 839.041 416.089 853.87 414.182Z"/><path fill="#3C2031" d="M763.53 411.711C782.2 410.83 803.022 416.268 809.895 435.743C810.238 436.717 810.919 438.964 810.255 439.834C807.078 443.99 798.98 445.345 794.2 446.153C786.355 446.709 780.829 446.639 773.344 443.578C761.753 438.839 751.891 426.132 747.311 414.786C752.803 412.955 757.805 412.358 763.53 411.711Z"/><path fill="#A6D6AD" d="M763.957 414.207C782.681 411.913 800.94 420.533 809.127 437.83C799.936 432.462 789.387 427.777 779.568 423.756C777.162 422.77 774.527 422.383 772.071 423.432L771.948 424.144C773.815 425.393 780.118 427.055 782.623 427.803C791.881 431.343 798.678 434.489 807.046 439.736C781.15 451.119 762.607 439.943 750.591 415.982C755.497 415.117 759 414.628 763.957 414.207Z"/><path fill="#3C2031" d="M820.146 417.841C820.87 417.238 821.602 416.645 822.342 416.063C837.768 403.951 852.505 402.506 871.426 404.767L869.363 405.561L871.258 407.021C849.638 404.367 833.926 407.694 818.16 423.528C818.057 419.896 818.146 412.795 818.934 409.327L818.995 409.861C819.232 412.112 818.904 416.604 819.411 417.917L820.146 417.841Z"/><path fill="#3C2031" d="M794.781 279.595C792.097 268.327 790.961 253.72 801.167 245.758C805.859 242.128 811.824 240.558 817.695 241.408C834.364 243.825 837.251 260.242 834.71 274.115C834.482 275.623 833.973 276.736 834.623 277.636C835.763 276.633 835.76 276.582 836.617 275.309C844.311 266.719 853.133 259.421 865.695 262.477C871.442 263.868 876.369 267.548 879.333 272.664C889.249 289.986 871.613 302.363 858.381 309.319C870.978 309.386 886.024 310.592 892.048 323.899C894.4 329.23 894.459 335.294 892.209 340.67C889.934 346.006 885.531 350.147 880.065 352.09C870.496 355.586 858.141 351.168 849.454 346.91C858.137 356.241 865.698 369.869 859.216 382.612C856.679 387.598 852.015 391.595 846.585 393.082C841.07 394.548 835.195 393.688 830.332 390.702C820.392 384.688 817.335 373.973 814.669 363.51C813.107 370.754 811.759 376.532 807.398 382.731C800.091 393.119 787.185 397.828 776.214 389.606C771.428 386.081 768.297 380.745 767.555 374.846C766.229 363.397 772.971 355.33 779.451 347.061C767.35 351.984 753.11 358.688 741.604 347.644C737.662 343.869 735.41 338.663 735.359 333.205C735.296 327.425 737.583 321.867 741.695 317.805C749.197 310.32 759.384 309.619 769.269 309.485C757.777 303.198 745.806 294.251 748.039 279.246C749.849 267.728 761.418 259.862 772.807 262.437C783.086 264.761 789.18 271.247 794.781 279.595Z"/><path fill="#F2B044" d="M792.741 330.619C788.049 320.968 790.273 309.38 798.205 302.152C806.136 294.924 817.881 293.783 827.055 299.349C835.878 304.701 840.335 315.059 838.157 325.146C835.979 335.232 827.644 342.828 817.399 344.062C807.154 345.297 797.253 339.899 792.741 330.619Z"/><path fill="#E89E37" d="M827.055 299.349C835.878 304.701 840.335 315.059 838.157 325.146C835.979 335.232 827.644 342.828 817.399 344.062C807.154 345.297 797.253 339.899 792.741 330.619C809.14 336.722 827.736 332.115 828.97 311.287C829.212 307.194 828.024 303.318 827.055 299.349Z"/><path fill="#A6D6AD" d="M857.339 312.204C866.082 311.079 877.186 312.369 884.498 318.015C892.393 324.113 893.971 336.13 887.586 344.014C883.313 349.29 878.293 350.419 871.804 351.037C856.966 349.652 848.343 343.737 836.687 335.265C840.344 326.774 841.416 324.094 840.562 314.831C846.092 313.599 851.696 312.722 857.339 312.204Z"/><path fill="#A6D6AD" d="M856.869 264.595C866.105 263.738 874.768 267.029 877.997 276.428C879.652 281.135 879.353 286.309 877.167 290.794C871.971 301.365 858.448 307.178 847.913 310.545L840.387 312.326C836.706 304.834 834.304 301.32 827.204 296.75C828.046 294.986 828.903 293.23 829.776 291.481C836.569 277.818 842.212 269.518 856.869 264.595Z"/><path fill="#A6D6AD" d="M793.639 337.335C794.157 337.54 794.001 337.436 794.433 337.778C802.257 343.978 803.763 344.867 813.324 346.782C812.338 365.372 811.465 386.4 789.24 391.041C766.673 388.869 765.32 368.148 777.388 353.52C782.857 346.89 787.175 342.888 793.639 337.335Z"/><path fill="#A6D6AD" d="M764.069 312.207C772.172 311.632 780.173 313.588 787.986 315.374C787.912 324.544 788.203 326.76 792.335 335.016C782.506 342.81 778.063 345.889 765.883 349.736C753.263 352.647 739.599 349.882 738.036 334.71C737.486 329.736 738.985 324.752 742.188 320.907C747.872 314.067 755.846 312.797 764.069 312.207Z"/><path fill="#A6D6AD" d="M765.249 264.544C785.479 264.373 794.244 280.674 801.641 296.905C795.59 300.688 788.242 312.221 787.693 312.428C771.109 308.353 742.705 297.853 752.003 274.959C754.352 269.176 759.766 266.565 765.249 264.544Z"/><path fill="#A6D6AD" d="M834.844 337.413C836.104 338.319 837.344 339.256 838.56 340.222C847.398 347.31 858.117 358.802 859.436 370.65C860.758 382.524 852.46 389.67 841.213 390.768C819.68 389.735 816.389 363.362 815.952 346.711C825.059 345.136 827.972 343.658 834.844 337.413Z"/><path fill="#A6D6AD" d="M812.879 243.606C821.999 243.37 829.314 247.684 831.951 256.647C835.632 269.158 830.354 284.416 824.697 295.491C821.798 294.748 819.087 294.254 816.15 293.705C811.278 293.753 808.947 294.244 804.333 295.671C795.962 278.907 786.044 249.205 812.879 243.606Z"/><defs><linearGradient id="gradient_6" gradientUnits="userSpaceOnUse" x1="834.90948" y1="272.71115" x2="836.59052" y2="275.28885"><stop offset="0" stop-color="white" stop-opacity="0"/><stop offset="1" stop-color="#EDEEF0" stop-opacity="0.047058824"/></linearGradient></defs><path fill="url(#gradient_6)" d="M834.71 274.115L836.159 272.543L836.735 272.718C836.894 274.054 836.892 273.99 836.617 275.309C835.76 276.582 835.763 276.633 834.623 277.636C833.973 276.736 834.482 275.623 834.71 274.115Z"/><path fill="#472135" d="M886.3 596.069C889.8 594.969 895.457 595.759 899.096 596.374C897.722 596.495 895.102 596.301 894.516 597.547C891.665 597.51 888.814 597.529 885.963 597.604C885.722 596.877 885.869 597.13 886.3 596.069Z"/><path fill="#37182B" d="M601.898 294.482C604.255 297.043 605.216 298.034 606.323 301.391L603.873 300.739L602.19 298.033L601.898 294.482Z"/></svg>